<svg width="102" height="102" viewBox="0 0 102 102" fill="none" xmlns="http://www.w3.org/2000/svg">
<g clip-path="url(#clip0)">
<rect x="1" y="1" width="100" height="100" fill="#FF8577"/>
<path fill-rule="evenodd" clip-rule="evenodd" d="M48.5058 93.741V152.593C48.5058 160.594 42.0114 167.081 34 167.081V166.441C41.6577 166.441 47.8655 160.241 47.8655 152.593V93.741H48.5058Z" fill="#5551FF" stroke="#5551FF" stroke-width="0.5"/>
<path fill-rule="evenodd" clip-rule="evenodd" d="M78.7191 79.5725H62.3711C54.3597 79.5725 47.8652 86.0591 47.8652 94.0608H48.5056C48.5056 86.4124 54.7134 80.2121 62.3711 80.2121H78.7191V79.5725Z" fill="#5551FF" stroke="#5551FF" stroke-width="0.5"/>
<path opacity="0.25" d="M-8.25049 65.2793H39.7774V17.3097H-8.25049V65.2793Z" fill="#C7B9FF"/>
<path opacity="0.25" fill-rule="evenodd" clip-rule="evenodd" d="M39.137 64.6397H-7.61012V17.9493H39.137V64.6397ZM-8.25049 65.2793V17.3097H39.7774V65.2793H-8.25049Z" fill="#C7B9FF"/>
<path d="M-0.99292 58.0305H32.5199V24.5584H-0.99292V58.0305Z" fill="#A259FF"/>
<path opacity="0.5" fill-rule="evenodd" clip-rule="evenodd" d="M35.7216 61.2286H-4.19483V21.3606H35.7216V61.2286ZM-4.83521 61.8682V20.721H36.362V61.8682H-4.83521Z" fill="#A259FF"/>
<path d="M13.4639 48.0104L10.7472 33.7261L22.7008 40.8682L16.724 42.5164L13.4639 48.0104Z" fill="#C7B9FF"/>
<path fill-rule="evenodd" clip-rule="evenodd" d="M53.6427 -41V27.2326C53.6427 35.2342 47.1482 41.7208 39.1368 41.7208V41.0812C46.7945 41.0812 53.0023 34.881 53.0023 27.2326V-41H53.6427Z" fill="#5551FF" stroke="#5551FF" stroke-width="0.5"/>
<path fill-rule="evenodd" clip-rule="evenodd" d="M75.9581 10.4966H67.508C59.4967 10.4966 53.0022 16.9832 53.0022 24.9848H53.6426C53.6426 17.3364 59.8503 11.1362 67.508 11.1362H75.9581V10.4966Z" fill="#5551FF" stroke="#5551FF" stroke-width="0.5"/>
<path d="M43.4853 41.0658C43.4853 38.268 41.2138 36 38.4118 36C35.6098 36 33.3383 38.268 33.3383 41.0658C33.3383 43.8636 35.6098 46.1316 38.4118 46.1316C41.2138 46.1316 43.4853 43.8636 43.4853 41.0658Z" fill="white"/>
<path fill-rule="evenodd" clip-rule="evenodd" d="M38.4118 37.169C40.4968 37.169 42.2677 38.87 42.2677 41.0658C42.2677 43.2616 40.4968 44.9626 38.4118 44.9626C36.3268 44.9626 34.5559 43.2616 34.5559 41.0658C34.5559 38.87 36.3268 37.169 38.4118 37.169ZM38.4118 36C41.2138 36 43.4853 38.268 43.4853 41.0658C43.4853 43.8636 41.2138 46.1316 38.4118 46.1316C35.6098 46.1316 33.3383 43.8636 33.3383 41.0658C33.3383 38.268 35.6098 36 38.4118 36Z" fill="black"/>
<path d="M104.562 36.0713C90.5916 36.0713 79.2668 24.808 79.2668 10.914C79.2668 -2.98007 90.5916 -14.2434 104.562 -14.2434C118.531 -14.2434 129.856 -2.98007 129.856 10.914C129.856 24.808 118.531 36.0713 104.562 36.0713Z" fill="#C7B9FF"/>
<path fill-rule="evenodd" clip-rule="evenodd" d="M79.9072 10.914C79.9072 24.4522 90.9428 35.4317 104.562 35.4317C118.18 35.4317 129.216 24.4522 129.216 10.914C129.216 -2.62429 118.18 -13.6038 104.562 -13.6038C90.9428 -13.6038 79.9072 -2.62429 79.9072 10.914ZM79.2668 10.914C79.2668 24.808 90.5916 36.0713 104.562 36.0713C118.531 36.0713 129.856 24.808 129.856 10.914C129.856 -2.98007 118.531 -14.2434 104.562 -14.2434C90.5916 -14.2434 79.2668 -2.98007 79.2668 10.914Z" fill="#C7B9FF"/>
<path d="M104.562 36.0713C101.24 36.0713 97.9506 35.4206 94.8817 34.1563C91.8128 32.892 89.0243 31.039 86.6755 28.7029C84.3267 26.3668 82.4635 23.5935 81.1923 20.5413C79.9211 17.489 79.2668 14.2177 79.2668 10.9139C79.2668 7.61024 79.9211 4.33888 81.1923 1.28665C82.4635 -1.76559 84.3267 -4.53891 86.6755 -6.87499C89.0243 -9.21107 91.8128 -11.0641 94.8817 -12.3284C97.9506 -13.5927 101.24 -14.2434 104.562 -14.2434L104.562 10.914V36.0713Z" fill="#F24E1E"/>
<path fill-rule="evenodd" clip-rule="evenodd" d="M75.9015 10.7693L72.3545 14.312L72.8073 14.7643L76.8071 10.7693L72.8073 6.77431L72.3545 7.22657L75.9015 10.7693Z" fill="#5551FF" stroke="#5551FF" stroke-width="0.5"/>
<path fill-rule="evenodd" clip-rule="evenodd" d="M78.449 79.8455L74.902 83.3882L75.3548 83.8404L79.3546 79.8455L75.3548 75.8505L74.902 76.3027L78.449 79.8455Z" fill="#5551FF" stroke="#5551FF" stroke-width="0.5"/>
<path d="M114.815 59.5308C126.069 59.5308 135.193 68.6429 135.193 79.8832C135.193 91.1236 126.069 100.236 114.815 100.236H99.7928V59.5308L114.815 59.5308Z" fill="#A259FF" fill-opacity="0.25"/>
<path d="M104.701 59.5308C115.955 59.5308 125.078 68.6429 125.078 79.8832C125.078 91.1236 115.955 100.236 104.701 100.236H89.3811V59.5308L104.701 59.5308Z" fill="#A259FF" fill-opacity="0.5"/>
<path d="M104.406 59.3027C123.439 59.3027 138.868 68.3749 138.868 79.5659C138.868 90.7569 123.439 99.829 104.406 99.829H79V59.3027H104.406Z" fill="#A259FF"/>
<path fill-rule="evenodd" clip-rule="evenodd" d="M79.9073 99.5961H94.2896C105.19 99.5961 114.026 90.7703 114.026 79.8832C114.026 68.9961 105.19 60.1704 94.2896 60.1704L79.9073 60.1704V99.5961ZM114.667 79.8832C114.667 68.6429 105.544 59.5308 94.2896 59.5308L79.267 59.5308V100.236H94.2896C105.544 100.236 114.667 91.1236 114.667 79.8832Z" fill="#A259FF"/>
<rect x="59" y="77.3899" width="16.6102" height="16.6102" rx="5" fill="black"/>
<path d="M70.0723 85.5782C70.0306 85.5361 69.9809 85.5027 69.9262 85.4799C69.8715 85.4571 69.8129 85.4454 69.7536 85.4454C69.6943 85.4454 69.6357 85.4571 69.5809 85.4799C69.5262 85.5027 69.4766 85.5361 69.4349 85.5782L67.9579 87.0596V83.6523C67.9579 83.5332 67.9106 83.419 67.8264 83.3349C67.7422 83.2507 67.628 83.2034 67.509 83.2034C67.3899 83.2034 67.2757 83.2507 67.1915 83.3349C67.1074 83.419 67.0601 83.5332 67.0601 83.6523V87.0596L65.5831 85.5782C65.4986 85.4936 65.3839 85.4461 65.2644 85.4461C65.1448 85.4461 65.0302 85.4936 64.9456 85.5782C64.8611 85.6627 64.8136 85.7774 64.8136 85.8969C64.8136 86.0165 64.8611 86.1311 64.9456 86.2156L67.1902 88.4603C67.2329 88.5011 67.2833 88.5332 67.3384 88.5545C67.3921 88.5783 67.4502 88.5906 67.509 88.5906C67.5677 88.5906 67.6258 88.5783 67.6796 88.5545C67.7347 88.5332 67.785 88.5011 67.8277 88.4603L70.0723 86.2156C70.1144 86.1739 70.1478 86.1243 70.1706 86.0696C70.1934 86.0149 70.2051 85.9562 70.2051 85.8969C70.2051 85.8376 70.1934 85.779 70.1706 85.7243C70.1478 85.6696 70.1144 85.6199 70.0723 85.5782Z" fill="white"/>
<rect x="76" y="61.6101" width="16.6102" height="16.6102" rx="5" transform="rotate(-180 76 61.6101)" fill="black"/>
<path d="M64.9277 53.4218C64.9694 53.4639 65.0191 53.4973 65.0738 53.5201C65.1285 53.5429 65.1871 53.5546 65.2464 53.5546C65.3057 53.5546 65.3643 53.5429 65.4191 53.5201C65.4738 53.4973 65.5234 53.4639 65.5651 53.4218L67.0421 51.9404L67.0421 55.3477C67.0421 55.4668 67.0894 55.581 67.1736 55.6651C67.2578 55.7493 67.372 55.7966 67.491 55.7966C67.6101 55.7966 67.7243 55.7493 67.8085 55.6651C67.8926 55.581 67.9399 55.4668 67.9399 55.3477L67.9399 51.9404L69.4169 53.4218C69.5014 53.5064 69.6161 53.5539 69.7356 53.5539C69.8552 53.5539 69.9698 53.5064 70.0544 53.4218C70.1389 53.3373 70.1864 53.2226 70.1864 53.1031C70.1864 52.9835 70.1389 52.8689 70.0544 52.7844L67.8098 50.5397C67.7671 50.4989 67.7167 50.4668 67.6616 50.4455C67.6079 50.4217 67.5498 50.4094 67.491 50.4094C67.4323 50.4094 67.3742 50.4217 67.3204 50.4455C67.2653 50.4668 67.215 50.4989 67.1723 50.5397L64.9277 52.7844C64.8856 52.8261 64.8522 52.8757 64.8294 52.9304C64.8066 52.9851 64.7949 53.0438 64.7949 53.1031C64.7949 53.1624 64.8066 53.221 64.8294 53.2757C64.8522 53.3304 64.8856 53.3801 64.9277 53.4218Z" fill="white"/>
<rect x="92.8306" y="78.2205" width="16.6102" height="16.6102" rx="5" transform="rotate(-180 92.8306 78.2205)" fill="black"/>
<path d="M84.4087 67.148C84.3667 67.1897 84.3333 67.2394 84.3105 67.2941C84.2877 67.3488 84.276 67.4075 84.276 67.4667C84.276 67.526 84.2877 67.5847 84.3105 67.6394C84.3333 67.6941 84.3667 67.7437 84.4087 67.7855L85.8902 69.2624L82.4829 69.2624C82.3638 69.2624 82.2496 69.3097 82.1654 69.3939C82.0812 69.4781 82.0339 69.5923 82.0339 69.7114C82.0339 69.8304 82.0812 69.9446 82.1654 70.0288C82.2496 70.113 82.3638 70.1603 82.4829 70.1603L85.8902 70.1603L84.4087 71.6372C84.3242 71.7218 84.2767 71.8364 84.2767 71.956C84.2767 72.0755 84.3242 72.1902 84.4087 72.2747C84.4933 72.3592 84.6079 72.4067 84.7275 72.4067C84.847 72.4067 84.9617 72.3592 85.0462 72.2747L87.2908 70.0301C87.3317 69.9874 87.3637 69.9371 87.3851 69.882C87.4089 69.8282 87.4211 69.7701 87.4211 69.7114C87.4211 69.6526 87.4089 69.5945 87.3851 69.5408C87.3637 69.4857 87.3317 69.4353 87.2908 69.3926L85.0462 67.148C85.0045 67.1059 84.9548 67.0725 84.9001 67.0497C84.8454 67.027 84.7867 67.0152 84.7275 67.0152C84.6682 67.0152 84.6095 67.027 84.5548 67.0497C84.5001 67.0725 84.4505 67.1059 84.4087 67.148Z" fill="white"/>
<rect x="42" y="61.6101" width="16.6102" height="16.6102" rx="5" fill="black"/>
<path d="M50.4218 72.6826C50.4639 72.6408 50.4973 72.5912 50.5201 72.5365C50.5429 72.4818 50.5546 72.4231 50.5546 72.3638C50.5546 72.3046 50.5429 72.2459 50.5201 72.1912C50.4973 72.1365 50.4639 72.0868 50.4218 72.0451L48.9404 70.5681L52.3477 70.5681C52.4668 70.5681 52.581 70.5208 52.6651 70.4366C52.7493 70.3525 52.7966 70.2383 52.7966 70.1192C52.7966 70.0001 52.7493 69.886 52.6651 69.8018C52.581 69.7176 52.4668 69.6703 52.3477 69.6703L48.9404 69.6703L50.4218 68.1933C50.5064 68.1088 50.5538 67.9941 50.5538 67.8746C50.5538 67.755 50.5064 67.6404 50.4218 67.5559C50.3373 67.4713 50.2226 67.4238 50.1031 67.4238C49.9835 67.4238 49.8689 67.4713 49.7844 67.5559L47.5397 69.8005C47.4989 69.8432 47.4668 69.8935 47.4455 69.9486C47.4217 70.0024 47.4094 70.0605 47.4094 70.1192C47.4094 70.178 47.4217 70.2361 47.4455 70.2898C47.4668 70.3449 47.4989 70.3952 47.5397 70.4379L49.7844 72.6826C49.8261 72.7246 49.8757 72.758 49.9304 72.7808C49.9851 72.8036 50.0438 72.8153 50.1031 72.8153C50.1624 72.8153 50.221 72.8036 50.2757 72.7808C50.3304 72.758 50.3801 72.7246 50.4218 72.6826Z" fill="white"/>
</g>
<rect x="1" y="1" width="100" height="100" stroke="black" stroke-width="2"/>
<defs>
<clipPath id="clip0">
<rect x="1" y="1" width="100" height="100" fill="white"/>
</clipPath>
</defs>
</svg>
