<svg width="102" height="102" viewBox="0 0 102 102" fill="none" xmlns="http://www.w3.org/2000/svg">
<g clip-path="url(#clip0)">
<rect x="1" y="1" width="100" height="100" fill="#F9D745"/>
<path d="M31.2952 57.2669C31.2952 62.7847 35.7771 67.2577 41.3058 67.2577C46.8345 67.2577 51.3164 62.7847 51.3164 57.2669C51.3164 51.7492 46.8345 47.2761 41.3058 47.2761C35.7771 47.2761 31.2952 51.7492 31.2952 57.2669Z" fill="#5551FF"/>
<path d="M8.84338 48.7139H78.8956V99.5156C78.8956 100.231 78.3142 100.811 77.5971 100.811H10.1419C9.42473 100.811 8.84338 100.231 8.84338 99.5156V48.7139Z" fill="#E5E5E5"/>
<path fill-rule="evenodd" clip-rule="evenodd" d="M78.4899 49.1188H9.24909V99.5156C9.24909 100.008 9.64879 100.407 10.1419 100.407H77.5971C78.0902 100.407 78.4899 100.008 78.4899 99.5156V49.1188ZM8.84338 48.7139V99.5156C8.84338 100.231 9.42473 100.811 10.1419 100.811H77.5971C78.3142 100.811 78.8956 100.231 78.8956 99.5156V48.7139H8.84338Z" fill="black"/>
<path d="M61.9913 48.7139H78.8958V99.5156C78.8958 100.231 78.3145 100.811 77.5974 100.811H61.9913V48.7139Z" fill="white"/>
<path fill-rule="evenodd" clip-rule="evenodd" d="M78.4901 49.1188H62.397V100.407H77.5974C78.0904 100.407 78.4901 100.008 78.4901 99.5156V49.1188ZM61.9913 48.7139V100.811H77.5974C78.3145 100.811 78.8958 100.231 78.8958 99.5156V48.7139H61.9913Z" fill="white"/>
<path fill-rule="evenodd" clip-rule="evenodd" d="M1.00001 40.7509L9.2494 48.984L8.96252 49.2703L0.713136 41.0372L1.00001 40.7509Z" fill="black" stroke="black"/>
<path fill-rule="evenodd" clip-rule="evenodd" d="M86.6043 40.7509L78.355 48.984L78.6418 49.2703L86.8912 41.0372L86.6043 40.7509Z" fill="black" stroke="black"/>
<path d="M44.2852 -9.85053C44.6163 -10.4854 45.4004 -10.7321 46.0365 -10.4016L105.848 20.6727C106.484 21.0032 106.732 21.7857 106.4 22.4205L105.217 24.69L43.1015 -7.58108L44.2852 -9.85053Z" fill="black"/>
<path d="M43.6409 -8.61524C44.3279 -9.93231 45.4004 -10.7321 46.0365 -10.4016L105.848 20.6727C106.484 21.0032 106.443 22.3388 105.756 23.6558L103.3 28.3642L41.185 -3.90692L43.6409 -8.61524Z" fill="black"/>
<path fill-rule="evenodd" clip-rule="evenodd" d="M30.2861 93.6541C33.6291 91.4874 34.5792 87.0264 32.4082 83.6901L37.1869 80.593C41.0717 86.5632 39.3715 94.5461 33.3894 98.4232C27.4073 102.3 19.4086 100.604 15.5237 94.6333L20.3024 91.5362C22.4733 94.8725 26.9432 95.8207 30.2861 93.6541Z" fill="#A259FF"/>
<path d="M31.2952 57.2669C31.2952 62.7847 35.7771 67.2577 41.3058 67.2577C46.8345 67.2577 51.3164 62.7847 51.3164 57.2669C51.3164 51.7492 46.8345 47.2761 41.3058 47.2761C35.7771 47.2761 31.2952 51.7492 31.2952 57.2669Z" fill="#5551FF"/>
<path fill-rule="evenodd" clip-rule="evenodd" d="M57.5985 87.747C58.0587 85.7577 56.8159 83.7728 54.8227 83.3135L45.1985 81.096C43.2053 80.6367 41.2164 81.8771 40.7562 83.8663C40.417 85.3328 41.0032 86.7969 42.1333 87.6491C40.7432 87.9208 39.5733 88.9802 39.234 90.4467C38.8948 91.9131 39.481 93.3771 40.611 94.2294C39.2209 94.501 38.051 95.5605 37.7117 97.0269C37.2516 99.0162 38.4944 101.001 40.4876 101.46L50.1117 103.678C52.105 104.137 54.0938 102.897 54.554 100.908C54.8932 99.4411 54.3071 97.9771 53.1771 97.1248C54.5671 96.8532 55.7371 95.7937 56.0763 94.3273C56.4155 92.8608 55.8293 91.3968 54.6993 90.5445C56.0893 90.2729 57.2593 89.2134 57.5985 87.747Z" fill="#5551FF"/>
<path fill-rule="evenodd" clip-rule="evenodd" d="M78.4899 49.1188H9.24909V99.5156C9.24909 100.008 9.64879 100.407 10.1419 100.407H77.5971C78.0902 100.407 78.4899 100.008 78.4899 99.5156V49.1188ZM8.84338 48.7139V99.5156C8.84338 100.231 9.42473 100.811 10.1419 100.811H77.5971C78.3142 100.811 78.8956 100.231 78.8956 99.5156V48.7139H8.84338Z" fill="black" stroke="black"/>
<path fill-rule="evenodd" clip-rule="evenodd" d="M44.8365 66.9355L46.4673 67.3262L45.175 72.6984L50.0253 69.732L50.8918 71.1432L46.0413 74.1097L51.4243 75.3995L51.0327 77.027L45.6512 75.7376L48.6249 80.5808L47.2101 81.446L44.2359 76.6022L42.9436 81.9743L41.3128 81.5836L42.6051 76.2112L37.7511 79.1799L36.8846 77.7687L41.7384 74.8001L36.3556 73.5103L36.7471 71.8828L42.13 73.1726L39.1578 68.3319L40.5726 67.4666L43.5444 72.3066L44.8365 66.9355Z" fill="black"/>
<path fill-rule="evenodd" clip-rule="evenodd" d="M42.408 38.4186C45.6433 39.8348 47.6568 41.8784 47.3504 43.8096C46.8986 46.656 41.5782 48.1803 35.4668 47.2142C29.3554 46.2482 24.7673 43.1576 25.219 40.3113C25.5255 38.3801 28.0733 37.0575 31.5887 36.7084C28.3534 35.2922 26.3399 33.2486 26.6463 31.3173C27.098 28.471 32.4185 26.9467 38.5299 27.9127C44.6413 28.8788 49.2294 31.9693 48.7777 34.8157C48.4712 36.7469 45.9234 38.0695 42.408 38.4186Z" fill="#A259FF"/>
<path d="M51.0168 18.7654L67.0761 44.4006L47.8428 48.8321L51.0168 18.7654Z" fill="black"/>
<path fill-rule="evenodd" clip-rule="evenodd" d="M42.3376 18.6015L50.6007 22.447L36.4839 27.5749L31.3458 13.4862L39.6091 17.3318L35.1992 5.23942L54.454 14.2003L42.3376 18.6015Z" fill="#5551FF"/>
</g>
<rect x="1" y="1" width="100" height="100" stroke="black" stroke-width="2"/>
<defs>
<clipPath id="clip0">
<rect x="1" y="1" width="100" height="100" fill="white"/>
</clipPath>
</defs>
</svg>
