<svg width="102" height="102" viewBox="0 0 102 102" fill="none" xmlns="http://www.w3.org/2000/svg">
<g clip-path="url(#clip0)">
<rect x="1" y="1" width="100" height="100" fill="#CFE2FF"/>
<path d="M16.7783 -2.2124C20.3531 -2.2124 23.2589 -1.31391 25.4956 0.483078L22.8001 4.78438C21.9016 4.15352 20.9553 3.64692 19.9612 3.26458C18.9863 2.88225 17.9253 2.69108 16.7783 2.69108C16.0327 2.69108 15.507 2.7771 15.2011 2.94916C14.9144 3.10209 14.771 3.31238 14.771 3.58001C14.771 3.80942 14.9431 3.98147 15.2872 4.09617C15.6504 4.21087 16.0996 4.33513 16.6349 4.46895L19.2444 5.07113C21.1752 5.51082 22.6281 6.16079 23.603 7.02105C24.5971 7.88131 25.0941 9.07612 25.0941 10.6055C25.0941 12.1348 24.7214 13.3965 23.9758 14.3906C23.2302 15.3656 22.217 16.092 20.9362 16.5699C19.6745 17.0479 18.2407 17.2868 16.6349 17.2868C15.4305 17.2868 14.2262 17.1817 13.0218 16.9714C11.8175 16.742 10.6991 16.417 9.66681 15.9964C8.63449 15.5567 7.74556 15.031 7 14.4193L9.63813 10.032C10.1925 10.4717 10.8616 10.8731 11.6454 11.2363C12.4292 11.5804 13.2417 11.8576 14.0828 12.0679C14.9239 12.2782 15.7077 12.3833 16.4342 12.3833C17.1224 12.3833 17.5908 12.3069 17.8393 12.1539C18.1069 11.9819 18.2407 11.7716 18.2407 11.5231C18.2407 11.2554 18.126 11.0547 17.8966 10.9209C17.6863 10.7871 17.2944 10.6533 16.7209 10.5194L13.8534 9.88859C12.8402 9.65918 11.8748 9.35331 10.9572 8.97098C10.0396 8.58864 9.29403 8.03425 8.72052 7.30781C8.14701 6.56225 7.86026 5.55861 7.86026 4.2969C7.86026 2.99695 8.20436 1.85949 8.89257 0.884532C9.5999 -0.0904286 10.6131 -0.845546 11.9322 -1.38082C13.2703 -1.93521 14.8857 -2.2124 16.7783 -2.2124Z" fill="black"/>
<path d="M33.9674 8.05337C33.9674 7.11664 33.5563 6.64827 32.7343 6.64827C32.3329 6.64827 31.9983 6.76297 31.7307 6.99238C31.463 7.22178 31.3101 7.68059 31.2719 8.36879L25.7089 7.56588C25.8427 5.97918 26.5309 4.71747 27.7735 3.78074C29.0161 2.84401 30.8226 2.37565 33.1931 2.37565C35.6783 2.37565 37.5135 2.88225 38.6988 3.89544C39.9031 4.88952 40.5053 6.20859 40.5053 7.85264V12.2973C40.5053 13.0811 40.8781 13.473 41.6237 13.473C41.834 13.473 41.9964 13.4443 42.1111 13.387L41.8244 16.7707C41.1171 17.1148 40.2664 17.2868 39.2723 17.2868C38.1635 17.2868 37.2172 17.0957 36.4334 16.7133C35.6496 16.331 35.1239 15.7479 34.8563 14.9641C34.474 15.6523 33.8718 16.2163 33.0497 16.656C32.2277 17.0765 31.291 17.2868 30.2396 17.2868C28.7293 17.2868 27.5632 16.9523 26.7412 16.2832C25.9383 15.595 25.5368 14.6582 25.5368 13.473C25.5368 12.4216 25.8714 11.5709 26.5404 10.9209C27.2095 10.2518 28.1749 9.793 29.4367 9.54448L33.9674 8.5982V8.05337ZM31.7307 12.498C31.7307 12.8039 31.8263 13.0524 32.0174 13.2436C32.2086 13.4348 32.4762 13.5304 32.8203 13.5304C33.1453 13.5304 33.413 13.4157 33.6232 13.1862C33.8527 12.9568 33.9674 12.6319 33.9674 12.2113V10.9496L32.849 11.2077C32.1035 11.3988 31.7307 11.8289 31.7307 12.498Z" fill="black"/>
<path d="M42.4808 17.0001V2.6624H48.4166L48.56 5.78801C48.9805 4.69835 49.6114 3.85721 50.4525 3.26458C51.2937 2.67196 52.326 2.37565 53.5495 2.37565C54.6391 2.37565 55.5376 2.62417 56.2449 3.12121C56.9714 3.61825 57.4875 4.32557 57.7934 5.24318C58.2331 4.32557 58.8544 3.61825 59.6573 3.12121C60.4602 2.62417 61.4161 2.37565 62.5248 2.37565C63.9395 2.37565 65.0387 2.79622 65.8225 3.63736C66.6254 4.47851 67.0269 5.66375 67.0269 7.19311V17.0001H60.4315V8.91363C60.4315 8.26365 60.3455 7.82396 60.1735 7.59456C60.0205 7.36516 59.772 7.25046 59.4279 7.25046C58.5103 7.25046 58.0515 7.99601 58.0515 9.48713V17.0001H51.4562V8.91363C51.4562 8.26365 51.3701 7.82396 51.1981 7.59456C51.0452 7.36516 50.7966 7.25046 50.4525 7.25046C49.5349 7.25046 49.0761 7.99601 49.0761 9.48713V17.0001H42.4808Z" fill="black"/>
<path d="M26.1551 27.0744V31.9778H20.248V46.0001H13.5667V31.9778H7.63086V27.0744H26.1551Z" fill="black"/>
<path d="M32.4198 31.3756C34.0256 31.3756 35.4211 31.672 36.6064 32.2646C37.8107 32.8381 38.7475 33.6792 39.4166 34.788C40.0857 35.8968 40.4202 37.2445 40.4202 38.8312C40.4202 40.3988 40.0857 41.7466 39.4166 42.8745C38.7475 43.9832 37.8107 44.8339 36.6064 45.4266C35.4211 46.0001 34.0256 46.2868 32.4198 46.2868C30.8331 46.2868 29.4375 46.0001 28.2332 45.4266C27.0288 44.8339 26.0921 43.9832 25.423 42.8745C24.7539 41.7466 24.4194 40.3988 24.4194 38.8312C24.4194 37.2445 24.7539 35.8968 25.423 34.788C26.0921 33.6792 27.0288 32.8381 28.2332 32.2646C29.4375 31.672 30.8331 31.3756 32.4198 31.3756ZM32.4198 35.8203C31.9801 35.8203 31.636 36.0211 31.3875 36.4225C31.1581 36.824 31.0434 37.6269 31.0434 38.8312C31.0434 40.0356 31.1581 40.8385 31.3875 41.24C31.636 41.6414 31.9801 41.8421 32.4198 41.8421C32.8595 41.8421 33.194 41.6414 33.4234 41.24C33.6719 40.8385 33.7962 40.0356 33.7962 38.8312C33.7962 37.6269 33.6719 36.824 33.4234 36.4225C33.194 36.0211 32.8595 35.8203 32.4198 35.8203Z" fill="black"/>
<path d="M41.5287 46.0001V31.6624H47.4645L47.6078 34.788C48.0284 33.6984 48.6593 32.8572 49.5004 32.2646C50.3416 31.672 51.3739 31.3756 52.5974 31.3756C54.012 31.3756 55.1112 31.7962 55.895 32.6374C56.6979 33.4785 57.0994 34.6638 57.0994 36.1931V46.0001H50.5041V37.8276C50.5041 37.2159 50.418 36.8048 50.246 36.5946C50.0739 36.3652 49.8158 36.2505 49.4717 36.2505C48.9938 36.2505 48.6497 36.4225 48.4394 36.7666C48.2291 37.0916 48.124 37.646 48.124 38.4298V46.0001H41.5287Z" fill="black"/>
<path d="M68.5442 41.9282C70.3985 41.9282 71.8132 42.3009 72.7881 43.0465C73.7631 43.7921 74.2506 44.9104 74.2506 46.4015C74.2506 48.4279 73.505 49.8904 72.0139 50.7888C70.5419 51.7065 68.4391 52.1653 65.7053 52.1653C62.8952 52.1653 60.907 51.8785 59.7409 51.305C58.5747 50.7315 57.9917 49.8712 57.9917 48.7242C57.9917 48.0934 58.2211 47.5677 58.6799 47.1471C59.1387 46.7456 59.8842 46.4684 60.9166 46.3155C60.0563 46.0287 59.435 45.6177 59.0527 45.0825C58.6703 44.5281 58.4792 43.8685 58.4792 43.1039C58.4792 42.3774 58.6894 41.7657 59.11 41.2686C59.5497 40.7525 60.1328 40.3701 60.8592 40.1216C59.3299 39.3378 58.5652 38.057 58.5652 36.2791C58.5652 34.6351 59.2056 33.4116 60.4864 32.6087C61.7864 31.7867 63.6885 31.3756 66.1928 31.3756C67.2443 31.3756 68.1905 31.4426 69.0317 31.5764C69.1081 30.8308 69.2898 30.1044 69.5765 29.3971C69.8633 28.6897 70.2934 28.1162 70.8669 27.6765C71.4595 27.2177 72.2242 26.9883 73.1609 26.9883C73.2565 26.9883 73.3617 26.9883 73.4764 26.9883C73.5911 26.9883 73.7058 26.9979 73.8205 27.017L74.1646 31.0889C73.9734 31.0507 73.7918 31.022 73.6197 31.0029C73.4668 30.9838 73.3139 30.9742 73.1609 30.9742C72.6065 30.9742 72.1573 31.0985 71.8132 31.347C71.4691 31.5764 71.2301 31.8536 71.0963 32.1786C72.9124 32.9623 73.8205 34.3292 73.8205 36.2791C73.8205 37.9041 73.1705 39.118 71.8705 39.9209C70.5897 40.7238 68.6971 41.1253 66.1928 41.1253C64.9693 41.1253 63.8892 41.0297 62.9525 40.8385C62.6849 40.9341 62.5511 41.0966 62.5511 41.326C62.5511 41.5172 62.6371 41.6701 62.8091 41.7848C63.0003 41.8804 63.3062 41.9282 63.7267 41.9282H68.5442ZM66.1928 34.788C65.3899 34.788 64.9885 35.2755 64.9885 36.2505C64.9885 37.2254 65.3899 37.7129 66.1928 37.7129C66.9957 37.7129 67.3972 37.2254 67.3972 36.2505C67.3972 35.2755 66.9957 34.788 66.1928 34.788ZM65.7914 48.1794C68.181 48.1794 69.3758 47.9022 69.3758 47.3478C69.3758 47.0993 69.1942 46.975 68.831 46.975H63.2393C63.0481 46.975 62.9047 47.0228 62.8091 47.1184C62.7135 47.214 62.6658 47.3287 62.6658 47.4625C62.6658 47.711 62.9429 47.8926 63.4973 48.0073C64.0517 48.122 64.8164 48.1794 65.7914 48.1794Z" fill="black"/>
<path d="M15.1725 56.0744V63.1285L20.1046 56.0744H27.2161L21.4237 63.5873L27.7323 75.0001H20.248L16.7209 67.9173L15.1725 70.0392V75.0001H8.49112V56.0744H15.1725Z" fill="black"/>
<path d="M35.9276 66.0534C35.9276 65.1166 35.5166 64.6483 34.6945 64.6483C34.2931 64.6483 33.9585 64.763 33.6909 64.9924C33.4233 65.2218 33.2703 65.6806 33.2321 66.3688L27.6691 65.5659C27.8029 63.9792 28.4911 62.7175 29.7337 61.7807C30.9763 60.844 32.7829 60.3756 35.1533 60.3756C37.6385 60.3756 39.4738 60.8823 40.659 61.8954C41.8634 62.8895 42.4656 64.2086 42.4656 65.8526V70.2973C42.4656 71.0811 42.8383 71.473 43.5839 71.473C43.7942 71.473 43.9567 71.4443 44.0714 71.387L43.7846 74.7707C43.0773 75.1148 42.2266 75.2868 41.2325 75.2868C40.1237 75.2868 39.1774 75.0957 38.3937 74.7133C37.6099 74.331 37.0842 73.7479 36.8165 72.9641C36.4342 73.6523 35.832 74.2163 35.01 74.656C34.1879 75.0765 33.2512 75.2868 32.1998 75.2868C30.6896 75.2868 29.5234 74.9523 28.7014 74.2832C27.8985 73.595 27.497 72.6582 27.497 71.473C27.497 70.4216 27.8316 69.5709 28.5007 68.9209C29.1698 68.2518 30.1352 67.793 31.3969 67.5445L35.9276 66.5982V66.0534ZM33.6909 70.498C33.6909 70.8039 33.7865 71.0524 33.9777 71.2436C34.1688 71.4348 34.4365 71.5304 34.7806 71.5304C35.1056 71.5304 35.3732 71.4156 35.5835 71.1862C35.8129 70.9568 35.9276 70.6319 35.9276 70.2113V68.9496L34.8092 69.2076C34.0637 69.3988 33.6909 69.8289 33.6909 70.498Z" fill="black"/>
<path d="M55.2651 60.6624V65.1071H51.652V69.1503C51.652 69.8003 51.7858 70.2686 52.0534 70.5554C52.3402 70.823 52.7799 70.9568 53.3725 70.9568C54.0798 70.9568 54.682 70.8326 55.179 70.5841L55.4658 74.3119C54.9879 74.6177 54.3379 74.8567 53.5159 75.0287C52.6938 75.2008 51.9196 75.2868 51.1932 75.2868C49.1859 75.2868 47.6565 74.9045 46.6051 74.1398C45.5728 73.356 45.0566 72.0369 45.0566 70.1826V65.1071H42.8486V60.6624H45.0566V57.6228L51.652 55.7876V60.6624H55.2651Z" fill="black"/>
<path d="M62.7843 75.2868C61.3887 75.2868 60.041 75.0957 58.741 74.7133C57.4602 74.331 56.3419 73.7575 55.386 72.9928L57.7374 69.5804C58.2536 70.0392 58.9322 70.4502 59.7734 70.8135C60.6145 71.1576 61.4556 71.3296 62.2968 71.3296C62.6218 71.3296 62.9085 71.2914 63.157 71.2149C63.4247 71.1385 63.5585 71.0046 63.5585 70.8135C63.5585 70.6605 63.482 70.5458 63.3291 70.4694C63.1953 70.3929 62.8894 70.3164 62.4115 70.24L61.3792 70.0392C59.2954 69.6378 57.8234 69.0643 56.9632 68.3187C56.1029 67.5732 55.6728 66.5695 55.6728 65.3078C55.6728 64.524 55.9213 63.7593 56.4183 63.0138C56.9345 62.2491 57.747 61.6182 58.8557 61.1212C59.9645 60.6242 61.427 60.3756 63.2431 60.3756C64.7342 60.3756 66.0724 60.5668 67.2576 60.9492C68.4429 61.3124 69.4083 61.819 70.1538 62.4689L67.8885 65.7379C67.3532 65.3174 66.665 64.9828 65.8239 64.7343C65.0018 64.4667 64.2467 64.3328 63.5585 64.3328C63.0806 64.3328 62.746 64.3806 62.5549 64.4762C62.3637 64.5527 62.2681 64.6578 62.2681 64.7916C62.2681 64.9255 62.3637 65.0497 62.5549 65.1644C62.746 65.2791 63.1188 65.3843 63.6732 65.4799L65.7091 65.824C67.2576 66.0725 68.3855 66.5695 69.0928 67.3151C69.8193 68.0606 70.1825 68.9782 70.1825 70.0679C70.1825 71.0046 69.9244 71.8745 69.4083 72.6774C68.9112 73.4612 68.1179 74.092 67.0282 74.5699C65.9577 75.0479 64.543 75.2868 62.7843 75.2868Z" fill="black"/>
<path d="M75.6619 75.2868C74.1708 75.2868 73.0238 74.9045 72.2209 74.1398C71.418 73.356 71.0165 72.0943 71.0165 70.3547V60.6624H77.6119V68.8349C77.6119 69.3893 77.6979 69.7907 77.8699 70.0392C78.0611 70.2878 78.3383 70.412 78.7015 70.412C79.5618 70.412 79.9919 69.6951 79.9919 68.2614V60.6624H86.5872V75.0001H80.6515L80.5081 71.9605C79.6669 74.178 78.0516 75.2868 75.6619 75.2868Z" fill="black"/>
<path d="M16.7783 84.7876C20.3531 84.7876 23.2589 85.6861 25.4956 87.4831L22.8001 91.7844C21.9016 91.1535 20.9553 90.6469 19.9612 90.2646C18.9863 89.8822 17.9253 89.6911 16.7783 89.6911C16.0327 89.6911 15.507 89.7771 15.2011 89.9492C14.9144 90.1021 14.771 90.3124 14.771 90.58C14.771 90.8094 14.9431 90.9815 15.2872 91.0962C15.6504 91.2109 16.0996 91.3351 16.6349 91.4689L19.2444 92.0711C21.1752 92.5108 22.6281 93.1608 23.603 94.0211C24.5971 94.8813 25.0941 96.0761 25.0941 97.6055C25.0941 99.1348 24.7214 100.397 23.9758 101.391C23.2302 102.366 22.217 103.092 20.9362 103.57C19.6745 104.048 18.2407 104.287 16.6349 104.287C15.4305 104.287 14.2262 104.182 13.0218 103.971C11.8175 103.742 10.6991 103.417 9.66681 102.996C8.63449 102.557 7.74556 102.031 7 101.419L9.63813 97.032C10.1925 97.4717 10.8616 97.8731 11.6454 98.2363C12.4292 98.5804 13.2417 98.8576 14.0828 99.0679C14.9239 99.2782 15.7077 99.3833 16.4342 99.3833C17.1224 99.3833 17.5908 99.3069 17.8393 99.1539C18.1069 98.9819 18.2407 98.7716 18.2407 98.5231C18.2407 98.2554 18.126 98.0547 17.8966 97.9209C17.6863 97.7871 17.2944 97.6533 16.7209 97.5194L13.8534 96.8886C12.8402 96.6592 11.8748 96.3533 10.9572 95.971C10.0396 95.5886 9.29403 95.0342 8.72052 94.3078C8.14701 93.5622 7.86026 92.5586 7.86026 91.2969C7.86026 89.9969 8.20436 88.8595 8.89257 87.8845C9.5999 86.9096 10.6131 86.1545 11.9322 85.6192C13.2703 85.0648 14.8857 84.7876 16.7783 84.7876Z" fill="black"/>
<path d="M33.9674 95.0534C33.9674 94.1166 33.5563 93.6483 32.7343 93.6483C32.3329 93.6483 31.9983 93.763 31.7307 93.9924C31.463 94.2218 31.3101 94.6806 31.2719 95.3688L25.7089 94.5659C25.8427 92.9792 26.5309 91.7175 27.7735 90.7807C29.0161 89.844 30.8226 89.3756 33.1931 89.3756C35.6783 89.3756 37.5135 89.8822 38.6988 90.8954C39.9031 91.8895 40.5053 93.2086 40.5053 94.8526V99.2973C40.5053 100.081 40.8781 100.473 41.6237 100.473C41.834 100.473 41.9964 100.444 42.1111 100.387L41.8244 103.771C41.1171 104.115 40.2664 104.287 39.2723 104.287C38.1635 104.287 37.2172 104.096 36.4334 103.713C35.6496 103.331 35.1239 102.748 34.8563 101.964C34.474 102.652 33.8718 103.216 33.0497 103.656C32.2277 104.077 31.291 104.287 30.2396 104.287C28.7293 104.287 27.5632 103.952 26.7412 103.283C25.9383 102.595 25.5368 101.658 25.5368 100.473C25.5368 99.4216 25.8714 98.5709 26.5404 97.9209C27.2095 97.2518 28.1749 96.793 29.4367 96.5445L33.9674 95.5982V95.0534ZM31.7307 99.498C31.7307 99.8039 31.8263 100.052 32.0174 100.244C32.2086 100.435 32.4762 100.53 32.8203 100.53C33.1453 100.53 33.413 100.416 33.6232 100.186C33.8527 99.9568 33.9674 99.6319 33.9674 99.2113V97.9496L32.849 98.2076C32.1035 98.3988 31.7307 98.8289 31.7307 99.498Z" fill="black"/>
<path d="M42.4808 104V89.6624H48.4166L48.56 92.788C48.9805 91.6984 49.6114 90.8572 50.4525 90.2646C51.2937 89.672 52.326 89.3756 53.5495 89.3756C54.9641 89.3756 56.0633 89.7962 56.8471 90.6374C57.65 91.4785 58.0515 92.6638 58.0515 94.1931V104H51.4562V95.8276C51.4562 95.2159 51.3701 94.8048 51.1981 94.5946C51.026 94.3652 50.768 94.2505 50.4239 94.2505C49.9459 94.2505 49.6018 94.4225 49.3915 94.7666C49.1813 95.0916 49.0761 95.646 49.0761 96.4298V104H42.4808Z" fill="black"/>
<path d="M64.7649 104.287C63.0061 104.287 61.6488 103.646 60.693 102.366C59.7563 101.066 59.2879 99.2495 59.2879 96.9173C59.2879 94.5276 59.7658 92.6733 60.7217 91.3542C61.6966 90.0352 63.0539 89.3756 64.7936 89.3756C65.7876 89.3756 66.6192 89.6242 67.2883 90.1212C67.9574 90.5991 68.4736 91.2395 68.8368 92.0425V83.9273H75.4321V104H69.4963L69.2956 101.161C68.8941 102.098 68.3111 102.853 67.5464 103.427C66.7817 104 65.8545 104.287 64.7649 104.287ZM67.4317 99.6701C67.8714 99.6701 68.2155 99.4502 68.464 99.0106C68.7125 98.5518 68.8368 97.8253 68.8368 96.8312C68.8368 94.9578 68.3684 94.0211 67.4317 94.0211C66.9729 94.0211 66.6097 94.2122 66.342 94.5946C66.0744 94.9578 65.9406 95.7033 65.9406 96.8312C65.9406 97.9591 66.0744 98.7142 66.342 99.0966C66.6097 99.4789 66.9729 99.6701 67.4317 99.6701Z" fill="black"/>
<path d="M84.5495 89.3756C86.1553 89.3756 87.5509 89.672 88.7361 90.2646C89.9405 90.8381 90.8772 91.6792 91.5463 92.788C92.2154 93.8968 92.5499 95.2445 92.5499 96.8312C92.5499 98.3988 92.2154 99.7466 91.5463 100.874C90.8772 101.983 89.9405 102.834 88.7361 103.427C87.5509 104 86.1553 104.287 84.5495 104.287C82.9628 104.287 81.5673 104 80.3629 103.427C79.1586 102.834 78.2218 101.983 77.5527 100.874C76.8836 99.7466 76.5491 98.3988 76.5491 96.8312C76.5491 95.2445 76.8836 93.8968 77.5527 92.788C78.2218 91.6792 79.1586 90.8381 80.3629 90.2646C81.5673 89.672 82.9628 89.3756 84.5495 89.3756ZM84.5495 93.8203C84.1098 93.8203 83.7657 94.0211 83.5172 94.4225C83.2878 94.824 83.1731 95.6269 83.1731 96.8312C83.1731 98.0356 83.2878 98.8385 83.5172 99.24C83.7657 99.6414 84.1098 99.8421 84.5495 99.8421C84.9892 99.8421 85.3237 99.6414 85.5531 99.24C85.8017 98.8385 85.9259 98.0356 85.9259 96.8312C85.9259 95.6269 85.8017 94.824 85.5531 94.4225C85.3237 94.0211 84.9892 93.8203 84.5495 93.8203Z" fill="black"/>
<path d="M16.7783 -2.2124C20.3531 -2.2124 23.2589 -1.31391 25.4956 0.483078L22.8001 4.78438C21.9016 4.15352 20.9553 3.64692 19.9612 3.26458C18.9863 2.88225 17.9253 2.69108 16.7783 2.69108C16.0327 2.69108 15.507 2.7771 15.2011 2.94916C14.9144 3.10209 14.771 3.31238 14.771 3.58001C14.771 3.80942 14.9431 3.98147 15.2872 4.09617C15.6504 4.21087 16.0996 4.33513 16.6349 4.46895L19.2444 5.07113C21.1752 5.51082 22.6281 6.16079 23.603 7.02105C24.5971 7.88131 25.0941 9.07612 25.0941 10.6055C25.0941 12.1348 24.7214 13.3965 23.9758 14.3906C23.2302 15.3656 22.217 16.092 20.9362 16.5699C19.6745 17.0479 18.2407 17.2868 16.6349 17.2868C15.4305 17.2868 14.2262 17.1817 13.0218 16.9714C11.8175 16.742 10.6991 16.417 9.66681 15.9964C8.63449 15.5567 7.74556 15.031 7 14.4193L9.63813 10.032C10.1925 10.4717 10.8616 10.8731 11.6454 11.2363C12.4292 11.5804 13.2417 11.8576 14.0828 12.0679C14.9239 12.2782 15.7077 12.3833 16.4342 12.3833C17.1224 12.3833 17.5908 12.3069 17.8393 12.1539C18.1069 11.9819 18.2407 11.7716 18.2407 11.5231C18.2407 11.2554 18.126 11.0547 17.8966 10.9209C17.6863 10.7871 17.2944 10.6533 16.7209 10.5194L13.8534 9.88859C12.8402 9.65918 11.8748 9.35331 10.9572 8.97098C10.0396 8.58864 9.29403 8.03425 8.72052 7.30781C8.14701 6.56225 7.86026 5.55861 7.86026 4.2969C7.86026 2.99695 8.20436 1.85949 8.89257 0.884532C9.5999 -0.0904286 10.6131 -0.845546 11.9322 -1.38082C13.2703 -1.93521 14.8857 -2.2124 16.7783 -2.2124Z" stroke="black" stroke-width="0.8"/>
<path d="M33.9674 8.05337C33.9674 7.11664 33.5563 6.64827 32.7343 6.64827C32.3329 6.64827 31.9983 6.76297 31.7307 6.99238C31.463 7.22178 31.3101 7.68059 31.2719 8.36879L25.7089 7.56588C25.8427 5.97918 26.5309 4.71747 27.7735 3.78074C29.0161 2.84401 30.8226 2.37565 33.1931 2.37565C35.6783 2.37565 37.5135 2.88225 38.6988 3.89544C39.9031 4.88952 40.5053 6.20859 40.5053 7.85264V12.2973C40.5053 13.0811 40.8781 13.473 41.6237 13.473C41.834 13.473 41.9964 13.4443 42.1111 13.387L41.8244 16.7707C41.1171 17.1148 40.2664 17.2868 39.2723 17.2868C38.1635 17.2868 37.2172 17.0957 36.4334 16.7133C35.6496 16.331 35.1239 15.7479 34.8563 14.9641C34.474 15.6523 33.8718 16.2163 33.0497 16.656C32.2277 17.0765 31.291 17.2868 30.2396 17.2868C28.7293 17.2868 27.5632 16.9523 26.7412 16.2832C25.9383 15.595 25.5368 14.6582 25.5368 13.473C25.5368 12.4216 25.8714 11.5709 26.5404 10.9209C27.2095 10.2518 28.1749 9.793 29.4367 9.54448L33.9674 8.5982V8.05337ZM31.7307 12.498C31.7307 12.8039 31.8263 13.0524 32.0174 13.2436C32.2086 13.4348 32.4762 13.5304 32.8203 13.5304C33.1453 13.5304 33.413 13.4157 33.6232 13.1862C33.8527 12.9568 33.9674 12.6319 33.9674 12.2113V10.9496L32.849 11.2077C32.1035 11.3988 31.7307 11.8289 31.7307 12.498Z" stroke="black" stroke-width="0.8"/>
<path d="M42.4808 17.0001V2.6624H48.4166L48.56 5.78801C48.9805 4.69835 49.6114 3.85721 50.4525 3.26458C51.2937 2.67196 52.326 2.37565 53.5495 2.37565C54.6391 2.37565 55.5376 2.62417 56.2449 3.12121C56.9714 3.61825 57.4875 4.32557 57.7934 5.24318C58.2331 4.32557 58.8544 3.61825 59.6573 3.12121C60.4602 2.62417 61.4161 2.37565 62.5248 2.37565C63.9395 2.37565 65.0387 2.79622 65.8225 3.63736C66.6254 4.47851 67.0269 5.66375 67.0269 7.19311V17.0001H60.4315V8.91363C60.4315 8.26365 60.3455 7.82396 60.1735 7.59456C60.0205 7.36516 59.772 7.25046 59.4279 7.25046C58.5103 7.25046 58.0515 7.99601 58.0515 9.48713V17.0001H51.4562V8.91363C51.4562 8.26365 51.3701 7.82396 51.1981 7.59456C51.0452 7.36516 50.7966 7.25046 50.4525 7.25046C49.5349 7.25046 49.0761 7.99601 49.0761 9.48713V17.0001H42.4808Z" stroke="black" stroke-width="0.8"/>
<path d="M26.1551 27.0744V31.9778H20.248V46.0001H13.5667V31.9778H7.63086V27.0744H26.1551Z" stroke="black" stroke-width="0.8"/>
<path d="M32.4198 31.3756C34.0256 31.3756 35.4211 31.672 36.6064 32.2646C37.8107 32.8381 38.7475 33.6792 39.4166 34.788C40.0857 35.8968 40.4202 37.2445 40.4202 38.8312C40.4202 40.3988 40.0857 41.7466 39.4166 42.8745C38.7475 43.9832 37.8107 44.8339 36.6064 45.4266C35.4211 46.0001 34.0256 46.2868 32.4198 46.2868C30.8331 46.2868 29.4375 46.0001 28.2332 45.4266C27.0288 44.8339 26.0921 43.9832 25.423 42.8745C24.7539 41.7466 24.4194 40.3988 24.4194 38.8312C24.4194 37.2445 24.7539 35.8968 25.423 34.788C26.0921 33.6792 27.0288 32.8381 28.2332 32.2646C29.4375 31.672 30.8331 31.3756 32.4198 31.3756ZM32.4198 35.8203C31.9801 35.8203 31.636 36.0211 31.3875 36.4225C31.1581 36.824 31.0434 37.6269 31.0434 38.8312C31.0434 40.0356 31.1581 40.8385 31.3875 41.24C31.636 41.6414 31.9801 41.8421 32.4198 41.8421C32.8595 41.8421 33.194 41.6414 33.4234 41.24C33.6719 40.8385 33.7962 40.0356 33.7962 38.8312C33.7962 37.6269 33.6719 36.824 33.4234 36.4225C33.194 36.0211 32.8595 35.8203 32.4198 35.8203Z" stroke="black" stroke-width="0.8"/>
<path d="M41.5287 46.0001V31.6624H47.4645L47.6078 34.788C48.0284 33.6984 48.6593 32.8572 49.5004 32.2646C50.3416 31.672 51.3739 31.3756 52.5974 31.3756C54.012 31.3756 55.1112 31.7962 55.895 32.6374C56.6979 33.4785 57.0994 34.6638 57.0994 36.1931V46.0001H50.5041V37.8276C50.5041 37.2159 50.418 36.8048 50.246 36.5946C50.0739 36.3652 49.8158 36.2505 49.4717 36.2505C48.9938 36.2505 48.6497 36.4225 48.4394 36.7666C48.2291 37.0916 48.124 37.646 48.124 38.4298V46.0001H41.5287Z" stroke="black" stroke-width="0.8"/>
<path d="M68.5442 41.9282C70.3985 41.9282 71.8132 42.3009 72.7881 43.0465C73.7631 43.7921 74.2506 44.9104 74.2506 46.4015C74.2506 48.4279 73.505 49.8904 72.0139 50.7888C70.5419 51.7065 68.4391 52.1653 65.7053 52.1653C62.8952 52.1653 60.907 51.8785 59.7409 51.305C58.5747 50.7315 57.9917 49.8712 57.9917 48.7242C57.9917 48.0934 58.2211 47.5677 58.6799 47.1471C59.1387 46.7456 59.8842 46.4684 60.9166 46.3155C60.0563 46.0287 59.435 45.6177 59.0527 45.0825C58.6703 44.5281 58.4792 43.8685 58.4792 43.1039C58.4792 42.3774 58.6894 41.7657 59.11 41.2686C59.5497 40.7525 60.1328 40.3701 60.8592 40.1216C59.3299 39.3378 58.5652 38.057 58.5652 36.2791C58.5652 34.6351 59.2056 33.4116 60.4864 32.6087C61.7864 31.7867 63.6885 31.3756 66.1928 31.3756C67.2443 31.3756 68.1905 31.4426 69.0317 31.5764C69.1081 30.8308 69.2898 30.1044 69.5765 29.3971C69.8633 28.6897 70.2934 28.1162 70.8669 27.6765C71.4595 27.2177 72.2242 26.9883 73.1609 26.9883C73.2565 26.9883 73.3617 26.9883 73.4764 26.9883C73.5911 26.9883 73.7058 26.9979 73.8205 27.017L74.1646 31.0889C73.9734 31.0507 73.7918 31.022 73.6197 31.0029C73.4668 30.9838 73.3139 30.9742 73.1609 30.9742C72.6065 30.9742 72.1573 31.0985 71.8132 31.347C71.4691 31.5764 71.2301 31.8536 71.0963 32.1786C72.9124 32.9623 73.8205 34.3292 73.8205 36.2791C73.8205 37.9041 73.1705 39.118 71.8705 39.9209C70.5897 40.7238 68.6971 41.1253 66.1928 41.1253C64.9693 41.1253 63.8892 41.0297 62.9525 40.8385C62.6849 40.9341 62.5511 41.0966 62.5511 41.326C62.5511 41.5172 62.6371 41.6701 62.8091 41.7848C63.0003 41.8804 63.3062 41.9282 63.7267 41.9282H68.5442ZM66.1928 34.788C65.3899 34.788 64.9885 35.2755 64.9885 36.2505C64.9885 37.2254 65.3899 37.7129 66.1928 37.7129C66.9957 37.7129 67.3972 37.2254 67.3972 36.2505C67.3972 35.2755 66.9957 34.788 66.1928 34.788ZM65.7914 48.1794C68.181 48.1794 69.3758 47.9022 69.3758 47.3478C69.3758 47.0993 69.1942 46.975 68.831 46.975H63.2393C63.0481 46.975 62.9047 47.0228 62.8091 47.1184C62.7135 47.214 62.6658 47.3287 62.6658 47.4625C62.6658 47.711 62.9429 47.8926 63.4973 48.0073C64.0517 48.122 64.8164 48.1794 65.7914 48.1794Z" stroke="black" stroke-width="0.8"/>
<path d="M15.1725 56.0744V63.1285L20.1046 56.0744H27.2161L21.4237 63.5873L27.7323 75.0001H20.248L16.7209 67.9173L15.1725 70.0392V75.0001H8.49112V56.0744H15.1725Z" stroke="black" stroke-width="0.8"/>
<path d="M35.9276 66.0534C35.9276 65.1166 35.5166 64.6483 34.6945 64.6483C34.2931 64.6483 33.9585 64.763 33.6909 64.9924C33.4233 65.2218 33.2703 65.6806 33.2321 66.3688L27.6691 65.5659C27.8029 63.9792 28.4911 62.7175 29.7337 61.7807C30.9763 60.844 32.7829 60.3756 35.1533 60.3756C37.6385 60.3756 39.4738 60.8823 40.659 61.8954C41.8634 62.8895 42.4656 64.2086 42.4656 65.8526V70.2973C42.4656 71.0811 42.8383 71.473 43.5839 71.473C43.7942 71.473 43.9567 71.4443 44.0714 71.387L43.7846 74.7707C43.0773 75.1148 42.2266 75.2868 41.2325 75.2868C40.1237 75.2868 39.1774 75.0957 38.3937 74.7133C37.6099 74.331 37.0842 73.7479 36.8165 72.9641C36.4342 73.6523 35.832 74.2163 35.01 74.656C34.1879 75.0765 33.2512 75.2868 32.1998 75.2868C30.6896 75.2868 29.5234 74.9523 28.7014 74.2832C27.8985 73.595 27.497 72.6582 27.497 71.473C27.497 70.4216 27.8316 69.5709 28.5007 68.9209C29.1698 68.2518 30.1352 67.793 31.3969 67.5445L35.9276 66.5982V66.0534ZM33.6909 70.498C33.6909 70.8039 33.7865 71.0524 33.9777 71.2436C34.1688 71.4348 34.4365 71.5304 34.7806 71.5304C35.1056 71.5304 35.3732 71.4156 35.5835 71.1862C35.8129 70.9568 35.9276 70.6319 35.9276 70.2113V68.9496L34.8092 69.2076C34.0637 69.3988 33.6909 69.8289 33.6909 70.498Z" stroke="black" stroke-width="0.8"/>
<path d="M55.2651 60.6624V65.1071H51.652V69.1503C51.652 69.8003 51.7858 70.2686 52.0534 70.5554C52.3402 70.823 52.7799 70.9568 53.3725 70.9568C54.0798 70.9568 54.682 70.8326 55.179 70.5841L55.4658 74.3119C54.9879 74.6177 54.3379 74.8567 53.5159 75.0287C52.6938 75.2008 51.9196 75.2868 51.1932 75.2868C49.1859 75.2868 47.6565 74.9045 46.6051 74.1398C45.5728 73.356 45.0566 72.0369 45.0566 70.1826V65.1071H42.8486V60.6624H45.0566V57.6228L51.652 55.7876V60.6624H55.2651Z" stroke="black" stroke-width="0.8"/>
<path d="M62.7843 75.2868C61.3887 75.2868 60.041 75.0957 58.741 74.7133C57.4602 74.331 56.3419 73.7575 55.386 72.9928L57.7374 69.5804C58.2536 70.0392 58.9322 70.4502 59.7734 70.8135C60.6145 71.1576 61.4556 71.3296 62.2968 71.3296C62.6218 71.3296 62.9085 71.2914 63.157 71.2149C63.4247 71.1385 63.5585 71.0046 63.5585 70.8135C63.5585 70.6605 63.482 70.5458 63.3291 70.4694C63.1953 70.3929 62.8894 70.3164 62.4115 70.24L61.3792 70.0392C59.2954 69.6378 57.8234 69.0643 56.9632 68.3187C56.1029 67.5732 55.6728 66.5695 55.6728 65.3078C55.6728 64.524 55.9213 63.7593 56.4183 63.0138C56.9345 62.2491 57.747 61.6182 58.8557 61.1212C59.9645 60.6242 61.427 60.3756 63.2431 60.3756C64.7342 60.3756 66.0724 60.5668 67.2576 60.9492C68.4429 61.3124 69.4083 61.819 70.1538 62.4689L67.8885 65.7379C67.3532 65.3174 66.665 64.9828 65.8239 64.7343C65.0018 64.4667 64.2467 64.3328 63.5585 64.3328C63.0806 64.3328 62.746 64.3806 62.5549 64.4762C62.3637 64.5527 62.2681 64.6578 62.2681 64.7916C62.2681 64.9255 62.3637 65.0497 62.5549 65.1644C62.746 65.2791 63.1188 65.3843 63.6732 65.4799L65.7091 65.824C67.2576 66.0725 68.3855 66.5695 69.0928 67.3151C69.8193 68.0606 70.1825 68.9782 70.1825 70.0679C70.1825 71.0046 69.9244 71.8745 69.4083 72.6774C68.9112 73.4612 68.1179 74.092 67.0282 74.5699C65.9577 75.0479 64.543 75.2868 62.7843 75.2868Z" stroke="black" stroke-width="0.8"/>
<path d="M75.6619 75.2868C74.1708 75.2868 73.0238 74.9045 72.2209 74.1398C71.418 73.356 71.0165 72.0943 71.0165 70.3547V60.6624H77.6119V68.8349C77.6119 69.3893 77.6979 69.7907 77.8699 70.0392C78.0611 70.2878 78.3383 70.412 78.7015 70.412C79.5618 70.412 79.9919 69.6951 79.9919 68.2614V60.6624H86.5872V75.0001H80.6515L80.5081 71.9605C79.6669 74.178 78.0516 75.2868 75.6619 75.2868Z" stroke="black" stroke-width="0.8"/>
<path d="M16.7783 84.7876C20.3531 84.7876 23.2589 85.6861 25.4956 87.4831L22.8001 91.7844C21.9016 91.1535 20.9553 90.6469 19.9612 90.2646C18.9863 89.8822 17.9253 89.6911 16.7783 89.6911C16.0327 89.6911 15.507 89.7771 15.2011 89.9492C14.9144 90.1021 14.771 90.3124 14.771 90.58C14.771 90.8094 14.9431 90.9815 15.2872 91.0962C15.6504 91.2109 16.0996 91.3351 16.6349 91.4689L19.2444 92.0711C21.1752 92.5108 22.6281 93.1608 23.603 94.0211C24.5971 94.8813 25.0941 96.0761 25.0941 97.6055C25.0941 99.1348 24.7214 100.397 23.9758 101.391C23.2302 102.366 22.217 103.092 20.9362 103.57C19.6745 104.048 18.2407 104.287 16.6349 104.287C15.4305 104.287 14.2262 104.182 13.0218 103.971C11.8175 103.742 10.6991 103.417 9.66681 102.996C8.63449 102.557 7.74556 102.031 7 101.419L9.63813 97.032C10.1925 97.4717 10.8616 97.8731 11.6454 98.2363C12.4292 98.5804 13.2417 98.8576 14.0828 99.0679C14.9239 99.2782 15.7077 99.3833 16.4342 99.3833C17.1224 99.3833 17.5908 99.3069 17.8393 99.1539C18.1069 98.9819 18.2407 98.7716 18.2407 98.5231C18.2407 98.2554 18.126 98.0547 17.8966 97.9209C17.6863 97.7871 17.2944 97.6533 16.7209 97.5194L13.8534 96.8886C12.8402 96.6592 11.8748 96.3533 10.9572 95.971C10.0396 95.5886 9.29403 95.0342 8.72052 94.3078C8.14701 93.5622 7.86026 92.5586 7.86026 91.2969C7.86026 89.9969 8.20436 88.8595 8.89257 87.8845C9.5999 86.9096 10.6131 86.1545 11.9322 85.6192C13.2703 85.0648 14.8857 84.7876 16.7783 84.7876Z" stroke="black" stroke-width="0.8"/>
<path d="M33.9674 95.0534C33.9674 94.1166 33.5563 93.6483 32.7343 93.6483C32.3329 93.6483 31.9983 93.763 31.7307 93.9924C31.463 94.2218 31.3101 94.6806 31.2719 95.3688L25.7089 94.5659C25.8427 92.9792 26.5309 91.7175 27.7735 90.7807C29.0161 89.844 30.8226 89.3756 33.1931 89.3756C35.6783 89.3756 37.5135 89.8822 38.6988 90.8954C39.9031 91.8895 40.5053 93.2086 40.5053 94.8526V99.2973C40.5053 100.081 40.8781 100.473 41.6237 100.473C41.834 100.473 41.9964 100.444 42.1111 100.387L41.8244 103.771C41.1171 104.115 40.2664 104.287 39.2723 104.287C38.1635 104.287 37.2172 104.096 36.4334 103.713C35.6496 103.331 35.1239 102.748 34.8563 101.964C34.474 102.652 33.8718 103.216 33.0497 103.656C32.2277 104.077 31.291 104.287 30.2396 104.287C28.7293 104.287 27.5632 103.952 26.7412 103.283C25.9383 102.595 25.5368 101.658 25.5368 100.473C25.5368 99.4216 25.8714 98.5709 26.5404 97.9209C27.2095 97.2518 28.1749 96.793 29.4367 96.5445L33.9674 95.5982V95.0534ZM31.7307 99.498C31.7307 99.8039 31.8263 100.052 32.0174 100.244C32.2086 100.435 32.4762 100.53 32.8203 100.53C33.1453 100.53 33.413 100.416 33.6232 100.186C33.8527 99.9568 33.9674 99.6319 33.9674 99.2113V97.9496L32.849 98.2076C32.1035 98.3988 31.7307 98.8289 31.7307 99.498Z" stroke="black" stroke-width="0.8"/>
<path d="M42.4808 104V89.6624H48.4166L48.56 92.788C48.9805 91.6984 49.6114 90.8572 50.4525 90.2646C51.2937 89.672 52.326 89.3756 53.5495 89.3756C54.9641 89.3756 56.0633 89.7962 56.8471 90.6374C57.65 91.4785 58.0515 92.6638 58.0515 94.1931V104H51.4562V95.8276C51.4562 95.2159 51.3701 94.8048 51.1981 94.5946C51.026 94.3652 50.768 94.2505 50.4239 94.2505C49.9459 94.2505 49.6018 94.4225 49.3915 94.7666C49.1813 95.0916 49.0761 95.646 49.0761 96.4298V104H42.4808Z" stroke="black" stroke-width="0.8"/>
<path d="M64.7649 104.287C63.0061 104.287 61.6488 103.646 60.693 102.366C59.7563 101.066 59.2879 99.2495 59.2879 96.9173C59.2879 94.5276 59.7658 92.6733 60.7217 91.3542C61.6966 90.0352 63.0539 89.3756 64.7936 89.3756C65.7876 89.3756 66.6192 89.6242 67.2883 90.1212C67.9574 90.5991 68.4736 91.2395 68.8368 92.0425V83.9273H75.4321V104H69.4963L69.2956 101.161C68.8941 102.098 68.3111 102.853 67.5464 103.427C66.7817 104 65.8545 104.287 64.7649 104.287ZM67.4317 99.6701C67.8714 99.6701 68.2155 99.4502 68.464 99.0106C68.7125 98.5518 68.8368 97.8253 68.8368 96.8312C68.8368 94.9578 68.3684 94.0211 67.4317 94.0211C66.9729 94.0211 66.6097 94.2122 66.342 94.5946C66.0744 94.9578 65.9406 95.7033 65.9406 96.8312C65.9406 97.9591 66.0744 98.7142 66.342 99.0966C66.6097 99.4789 66.9729 99.6701 67.4317 99.6701Z" stroke="black" stroke-width="0.8"/>
<path d="M84.5495 89.3756C86.1553 89.3756 87.5509 89.672 88.7361 90.2646C89.9405 90.8381 90.8772 91.6792 91.5463 92.788C92.2154 93.8968 92.5499 95.2445 92.5499 96.8312C92.5499 98.3988 92.2154 99.7466 91.5463 100.874C90.8772 101.983 89.9405 102.834 88.7361 103.427C87.5509 104 86.1553 104.287 84.5495 104.287C82.9628 104.287 81.5673 104 80.3629 103.427C79.1586 102.834 78.2218 101.983 77.5527 100.874C76.8836 99.7466 76.5491 98.3988 76.5491 96.8312C76.5491 95.2445 76.8836 93.8968 77.5527 92.788C78.2218 91.6792 79.1586 90.8381 80.3629 90.2646C81.5673 89.672 82.9628 89.3756 84.5495 89.3756ZM84.5495 93.8203C84.1098 93.8203 83.7657 94.0211 83.5172 94.4225C83.2878 94.824 83.1731 95.6269 83.1731 96.8312C83.1731 98.0356 83.2878 98.8385 83.5172 99.24C83.7657 99.6414 84.1098 99.8421 84.5495 99.8421C84.9892 99.8421 85.3237 99.6414 85.5531 99.24C85.8017 98.8385 85.9259 98.0356 85.9259 96.8312C85.9259 95.6269 85.8017 94.824 85.5531 94.4225C85.3237 94.0211 84.9892 93.8203 84.5495 93.8203Z" stroke="black" stroke-width="0.8"/>
<mask id="path-3-inside-1" fill="white">
<path d="M19.8357 -4C23.4105 -4 26.3163 -3.10151 28.553 -1.30452L25.8575 2.99678C24.959 2.36592 24.0127 1.85932 23.0186 1.47699C22.0437 1.09465 20.9827 0.903481 19.8357 0.903481C19.0901 0.903481 18.5644 0.989507 18.2585 1.16156C17.9718 1.31449 17.8284 1.52478 17.8284 1.79242C17.8284 2.02182 18.0004 2.19387 18.3445 2.30857C18.7078 2.42327 19.157 2.54753 19.6923 2.68135L22.3017 3.28353C24.2325 3.72322 25.6854 4.3732 26.6604 5.23346C27.6545 6.09372 28.1515 7.28852 28.1515 8.81787C28.1515 10.3472 27.7787 11.6089 27.0332 12.603C26.2876 13.578 25.2744 14.3044 23.9936 14.7823C22.7319 15.2603 21.2981 15.4992 19.6923 15.4992C18.4879 15.4992 17.2836 15.3941 16.0792 15.1838C14.8748 14.9544 13.7565 14.6294 12.7242 14.2088C11.6919 13.7691 10.8029 13.2434 10.0574 12.6317L12.6955 8.24436C13.2499 8.68405 13.919 9.08551 14.7028 9.44873C15.4866 9.79283 16.299 10.07 17.1402 10.2803C17.9813 10.4906 18.7651 10.5957 19.4916 10.5957C20.1798 10.5957 20.6481 10.5193 20.8966 10.3663C21.1643 10.1943 21.2981 9.984 21.2981 9.73548C21.2981 9.46784 21.1834 9.26712 20.954 9.1333C20.7437 8.99948 20.3518 8.86566 19.7783 8.73184L16.9108 8.10099C15.8976 7.87159 14.9322 7.56572 14.0146 7.18338C13.097 6.80104 12.3514 6.24665 11.7779 5.52021C11.2044 4.77465 10.9176 3.77101 10.9176 2.5093C10.9176 1.20935 11.2617 0.0718961 11.9499 -0.903065C12.6573 -1.87803 13.6705 -2.63314 14.9895 -3.16842C16.3277 -3.72281 17.9431 -4 19.8357 -4Z"/>
<path d="M37.0247 6.26577C37.0247 5.32904 36.6137 4.86068 35.7917 4.86068C35.3902 4.86068 35.0557 4.97538 34.788 5.20478C34.5204 5.43418 34.3675 5.89299 34.3292 6.5812L28.7662 5.77829C28.9 4.19158 29.5883 2.92987 30.8309 1.99314C32.0735 1.05641 33.88 0.588051 36.2505 0.588051C38.7357 0.588051 40.5709 1.09465 41.7562 2.10784C42.9605 3.10192 43.5627 4.42099 43.5627 6.06504V10.5097C43.5627 11.2935 43.9355 11.6854 44.681 11.6854C44.8913 11.6854 45.0538 11.6567 45.1685 11.5994L44.8818 14.9831C44.1744 15.3272 43.3237 15.4992 42.3297 15.4992C41.2209 15.4992 40.2746 15.3081 39.4908 14.9257C38.707 14.5434 38.1813 13.9603 37.9137 13.1765C37.5313 13.8647 36.9291 14.4287 36.1071 14.8684C35.2851 15.2889 34.3484 15.4992 33.2969 15.4992C31.7867 15.4992 30.6206 15.1647 29.7985 14.4956C28.9956 13.8074 28.5942 12.8707 28.5942 11.6854C28.5942 10.634 28.9287 9.78327 29.5978 9.1333C30.2669 8.46421 31.2323 8.0054 32.494 7.75688L37.0247 6.8106V6.26577ZM34.788 10.7104C34.788 11.0163 34.8836 11.2648 35.0748 11.456C35.266 11.6472 35.5336 11.7428 35.8777 11.7428C36.2027 11.7428 36.4703 11.6281 36.6806 11.3987C36.91 11.1692 37.0247 10.8443 37.0247 10.4237V9.16197L35.9064 9.42005C35.1608 9.61122 34.788 10.0414 34.788 10.7104Z"/>
<path d="M45.5382 15.2125V0.874806H51.474L51.6173 4.00042C52.0379 2.91075 52.6688 2.06961 53.5099 1.47699C54.351 0.884363 55.3834 0.588051 56.6068 0.588051C57.6965 0.588051 58.595 0.836571 59.3023 1.33361C60.0288 1.83065 60.5449 2.53797 60.8508 3.45559C61.2905 2.53797 61.9118 1.83065 62.7147 1.33361C63.5176 0.836571 64.4734 0.588051 65.5822 0.588051C66.9969 0.588051 68.0961 1.00862 68.8799 1.84977C69.6828 2.69091 70.0842 3.87616 70.0842 5.40551V15.2125H63.4889V7.12603C63.4889 6.47605 63.4029 6.03636 63.2308 5.80696C63.0779 5.57756 62.8294 5.46286 62.4853 5.46286C61.5677 5.46286 61.1089 6.20842 61.1089 7.69953V15.2125H54.5135V7.12603C54.5135 6.47605 54.4275 6.03636 54.2555 5.80696C54.1025 5.57756 53.854 5.46286 53.5099 5.46286C52.5923 5.46286 52.1335 6.20842 52.1335 7.69953V15.2125H45.5382Z"/>
<path d="M29.2125 25.2868V30.1902H23.3054V44.2125H16.624V30.1902H10.6882V25.2868H29.2125Z"/>
<path d="M35.4772 29.5881C37.083 29.5881 38.4785 29.8844 39.6638 30.477C40.8681 31.0505 41.8048 31.8916 42.4739 33.0004C43.143 34.1092 43.4776 35.4569 43.4776 37.0436C43.4776 38.6112 43.143 39.959 42.4739 41.0869C41.8048 42.1956 40.8681 43.0463 39.6638 43.639C38.4785 44.2125 37.083 44.4992 35.4772 44.4992C33.8905 44.4992 32.4949 44.2125 31.2906 43.639C30.0862 43.0463 29.1495 42.1956 28.4804 41.0869C27.8113 39.959 27.4767 38.6112 27.4767 37.0436C27.4767 35.4569 27.8113 34.1092 28.4804 33.0004C29.1495 31.8916 30.0862 31.0505 31.2906 30.477C32.4949 29.8844 33.8905 29.5881 35.4772 29.5881ZM35.4772 34.0327C35.0375 34.0327 34.6934 34.2335 34.4448 34.6349C34.2154 35.0364 34.1007 35.8393 34.1007 37.0436C34.1007 38.248 34.2154 39.0509 34.4448 39.4524C34.6934 39.8538 35.0375 40.0545 35.4772 40.0545C35.9168 40.0545 36.2514 39.8538 36.4808 39.4524C36.7293 39.0509 36.8536 38.248 36.8536 37.0436C36.8536 35.8393 36.7293 35.0364 36.4808 34.6349C36.2514 34.2335 35.9168 34.0327 35.4772 34.0327Z"/>
<path d="M44.5861 44.2125V29.8748H50.5218L50.6652 33.0004C51.0858 31.9108 51.7166 31.0696 52.5578 30.477C53.3989 29.8844 54.4312 29.5881 55.6547 29.5881C57.0694 29.5881 58.1686 30.0086 58.9524 30.8498C59.7553 31.6909 60.1568 32.8762 60.1568 34.4055V44.2125H53.5614V36.04C53.5614 35.4283 53.4754 35.0173 53.3033 34.807C53.1313 34.5776 52.8732 34.4629 52.5291 34.4629C52.0512 34.4629 51.7071 34.6349 51.4968 34.979C51.2865 35.304 51.1814 35.8584 51.1814 36.6422V44.2125H44.5861Z"/>
<path d="M71.6016 40.1406C73.4559 40.1406 74.8706 40.5134 75.8455 41.2589C76.8205 42.0045 77.308 43.1228 77.308 44.6139C77.308 46.6403 76.5624 48.1028 75.0713 49.0013C73.5993 49.9189 71.4964 50.3777 68.7627 50.3777C65.9525 50.3777 63.9644 50.0909 62.7982 49.5174C61.6321 48.9439 61.049 48.0836 61.049 46.9366C61.049 46.3058 61.2785 45.7801 61.7373 45.3595C62.1961 44.958 62.9416 44.6808 63.9739 44.5279C63.1137 44.2411 62.4924 43.8301 62.11 43.2949C61.7277 42.7405 61.5365 42.0809 61.5365 41.3163C61.5365 40.5898 61.7468 39.9781 62.1674 39.481C62.6071 38.9649 63.1901 38.5826 63.9166 38.334C62.3872 37.5502 61.6226 36.2694 61.6226 34.4915C61.6226 32.8475 62.263 31.624 63.5438 30.8211C64.8438 29.9991 66.7459 29.5881 69.2502 29.5881C70.3016 29.5881 71.2479 29.655 72.0891 29.7888C72.1655 29.0432 72.3471 28.3168 72.6339 27.6095C72.9206 26.9021 73.3508 26.3286 73.9243 25.8889C74.5169 25.4301 75.2816 25.2007 76.2183 25.2007C76.3139 25.2007 76.419 25.2007 76.5337 25.2007C76.6484 25.2007 76.7631 25.2103 76.8778 25.2294L77.2219 29.3013C77.0308 29.2631 76.8492 29.2344 76.6771 29.2153C76.5242 29.1962 76.3712 29.1866 76.2183 29.1866C75.6639 29.1866 75.2147 29.3109 74.8706 29.5594C74.5265 29.7888 74.2875 30.066 74.1537 30.391C75.9698 31.1748 76.8778 32.5416 76.8778 34.4915C76.8778 36.1165 76.2279 37.3304 74.9279 38.1333C73.6471 38.9362 71.7545 39.3377 69.2502 39.3377C68.0267 39.3377 66.9466 39.2421 66.0099 39.0509C65.7422 39.1465 65.6084 39.309 65.6084 39.5384C65.6084 39.7296 65.6945 39.8825 65.8665 39.9972C66.0577 40.0928 66.3635 40.1406 66.7841 40.1406H71.6016ZM69.2502 33.0004C68.4473 33.0004 68.0458 33.4879 68.0458 34.4629C68.0458 35.4378 68.4473 35.9253 69.2502 35.9253C70.0531 35.9253 70.4546 35.4378 70.4546 34.4629C70.4546 33.4879 70.0531 33.0004 69.2502 33.0004ZM68.8487 46.3918C71.2383 46.3918 72.4332 46.1146 72.4332 45.5602C72.4332 45.3117 72.2515 45.1874 71.8883 45.1874H66.2966C66.1055 45.1874 65.9621 45.2352 65.8665 45.3308C65.7709 45.4264 65.7231 45.5411 65.7231 45.6749C65.7231 45.9234 66.0003 46.105 66.5547 46.2197C67.1091 46.3344 67.8738 46.3918 68.8487 46.3918Z"/>
<path d="M18.2298 54.2868V61.3409L23.162 54.2868H30.2735L24.4811 61.7997L30.7896 73.2125H23.3054L19.7783 66.1297L18.2298 68.2516V73.2125H11.5485V54.2868H18.2298Z"/>
<path d="M38.985 64.2658C38.985 63.329 38.5739 62.8607 37.7519 62.8607C37.3505 62.8607 37.0159 62.9754 36.7483 63.2048C36.4806 63.4342 36.3277 63.893 36.2895 64.5812L30.7265 63.7783C30.8603 62.1916 31.5485 60.9299 32.7911 59.9931C34.0337 59.0564 35.8402 58.5881 38.2107 58.5881C40.6959 58.5881 42.5311 59.0947 43.7164 60.1078C44.9207 61.1019 45.5229 62.421 45.5229 64.065V68.5097C45.5229 69.2935 45.8957 69.6854 46.6413 69.6854C46.8516 69.6854 47.014 69.6567 47.1287 69.5994L46.842 72.9831C46.1347 73.3272 45.284 73.4992 44.2899 73.4992C43.1811 73.4992 42.2348 73.3081 41.451 72.9257C40.6672 72.5434 40.1415 71.9603 39.8739 71.1765C39.4916 71.8647 38.8894 72.4287 38.0673 72.8684C37.2453 73.2889 36.3086 73.4992 35.2572 73.4992C33.7469 73.4992 32.5808 73.1647 31.7588 72.4956C30.9559 71.8074 30.5544 70.8707 30.5544 69.6854C30.5544 68.634 30.889 67.7833 31.558 67.1333C32.2271 66.4642 33.1925 66.0054 34.4543 65.7569L38.985 64.8106V64.2658ZM36.7483 68.7104C36.7483 69.0163 36.8439 69.2648 37.035 69.456C37.2262 69.6472 37.4938 69.7428 37.8379 69.7428C38.1629 69.7428 38.4306 69.6281 38.6408 69.3987C38.8703 69.1693 38.985 68.8443 38.985 68.4237V67.162L37.8666 67.4201C37.1211 67.6112 36.7483 68.0414 36.7483 68.7104Z"/>
<path d="M58.3224 58.8748V63.3195H54.7093V67.3627C54.7093 68.0127 54.8432 68.481 55.1108 68.7678C55.3975 69.0354 55.8372 69.1693 56.4299 69.1693C57.1372 69.1693 57.7394 69.045 58.2364 68.7965L58.5232 72.5243C58.0452 72.8301 57.3953 73.0691 56.5732 73.2411C55.7512 73.4132 54.977 73.4992 54.2505 73.4992C52.2433 73.4992 50.7139 73.1169 49.6625 72.3522C48.6302 71.5684 48.114 70.2494 48.114 68.395V63.3195H45.906V58.8748H48.114V55.8352L54.7093 54V58.8748H58.3224Z"/>
<path d="M65.8416 73.4992C64.4461 73.4992 63.0984 73.3081 61.7984 72.9257C60.5176 72.5434 59.3993 71.9699 58.4434 71.2052L60.7948 67.7928C61.3109 68.2516 61.9896 68.6627 62.8307 69.0259C63.6719 69.37 64.513 69.542 65.3542 69.542C65.6791 69.542 65.9659 69.5038 66.2144 69.4273C66.4821 69.3509 66.6159 69.217 66.6159 69.0259C66.6159 68.8729 66.5394 68.7582 66.3865 68.6818C66.2527 68.6053 65.9468 68.5288 65.4689 68.4524L64.4365 68.2516C62.3528 67.8502 60.8808 67.2767 60.0205 66.5311C59.1603 65.7856 58.7302 64.7819 58.7302 63.5202C58.7302 62.7364 58.9787 61.9717 59.4757 61.2262C59.9919 60.4615 60.8043 59.8307 61.9131 59.3336C63.0219 58.8366 64.4843 58.5881 66.3004 58.5881C67.7916 58.5881 69.1297 58.7792 70.315 59.1616C71.5002 59.5248 72.4656 60.0314 73.2112 60.6814L70.9458 63.9503C70.4106 63.5298 69.7224 63.1952 68.8812 62.9467C68.0592 62.6791 67.3041 62.5452 66.6159 62.5452C66.138 62.5452 65.8034 62.593 65.6122 62.6886C65.4211 62.7651 65.3255 62.8702 65.3255 63.0041C65.3255 63.1379 65.4211 63.2621 65.6122 63.3768C65.8034 63.4915 66.1762 63.5967 66.7306 63.6923L68.7665 64.0364C70.315 64.2849 71.4429 64.7819 72.1502 65.5275C72.8767 66.273 73.2399 67.1907 73.2399 68.2803C73.2399 69.217 72.9818 70.0869 72.4656 70.8898C71.9686 71.6736 71.1753 72.3044 70.0856 72.7823C69.015 73.2603 67.6004 73.4992 65.8416 73.4992Z"/>
<path d="M78.7193 73.4992C77.2282 73.4992 76.0812 73.1169 75.2783 72.3522C74.4754 71.5684 74.0739 70.3067 74.0739 68.5671V58.8748H80.6692V67.0473C80.6692 67.6017 80.7553 68.0031 80.9273 68.2516C81.1185 68.5002 81.3957 68.6244 81.7589 68.6244C82.6192 68.6244 83.0493 67.9075 83.0493 66.4738V58.8748H89.6446V73.2125H83.7088L83.5655 70.1729C82.7243 72.3904 81.1089 73.4992 78.7193 73.4992Z"/>
<path d="M19.8357 83C23.4105 83 26.3163 83.8985 28.553 85.6955L25.8575 89.9968C24.959 89.3659 24.0127 88.8593 23.0186 88.477C22.0437 88.0947 20.9827 87.9035 19.8357 87.9035C19.0901 87.9035 18.5644 87.9895 18.2585 88.1616C17.9718 88.3145 17.8284 88.5248 17.8284 88.7924C17.8284 89.0218 18.0004 89.1939 18.3445 89.3086C18.7078 89.4233 19.157 89.5475 19.6923 89.6814L22.3017 90.2835C24.2325 90.7232 25.6854 91.3732 26.6604 92.2335C27.6545 93.0937 28.1515 94.2885 28.1515 95.8179C28.1515 97.3472 27.7787 98.6089 27.0332 99.603C26.2876 100.578 25.2744 101.304 23.9936 101.782C22.7319 102.26 21.2981 102.499 19.6923 102.499C18.4879 102.499 17.2836 102.394 16.0792 102.184C14.8748 101.954 13.7565 101.629 12.7242 101.209C11.6919 100.769 10.8029 100.243 10.0574 99.6317L12.6955 95.2444C13.2499 95.6841 13.919 96.0855 14.7028 96.4487C15.4866 96.7928 16.299 97.07 17.1402 97.2803C17.9813 97.4906 18.7651 97.5957 19.4916 97.5957C20.1798 97.5957 20.6481 97.5193 20.8966 97.3663C21.1643 97.1943 21.2981 96.984 21.2981 96.7355C21.2981 96.4678 21.1834 96.2671 20.954 96.1333C20.7437 95.9995 20.3518 95.8657 19.7783 95.7318L16.9108 95.101C15.8976 94.8716 14.9322 94.5657 14.0146 94.1834C13.097 93.801 12.3514 93.2467 11.7779 92.5202C11.2044 91.7747 10.9176 90.771 10.9176 89.5093C10.9176 88.2094 11.2617 87.0719 11.9499 86.0969C12.6573 85.122 13.6705 84.3669 14.9895 83.8316C16.3277 83.2772 17.9431 83 19.8357 83Z"/>
<path d="M37.0247 93.2658C37.0247 92.329 36.6137 91.8607 35.7917 91.8607C35.3902 91.8607 35.0557 91.9754 34.788 92.2048C34.5204 92.4342 34.3675 92.893 34.3292 93.5812L28.7662 92.7783C28.9 91.1916 29.5883 89.9299 30.8309 88.9931C32.0735 88.0564 33.88 87.5881 36.2505 87.5881C38.7357 87.5881 40.5709 88.0947 41.7562 89.1078C42.9605 90.1019 43.5627 91.421 43.5627 93.065V97.5097C43.5627 98.2935 43.9355 98.6854 44.681 98.6854C44.8913 98.6854 45.0538 98.6567 45.1685 98.5994L44.8818 101.983C44.1744 102.327 43.3237 102.499 42.3297 102.499C41.2209 102.499 40.2746 102.308 39.4908 101.926C38.707 101.543 38.1813 100.96 37.9137 100.177C37.5313 100.865 36.9291 101.429 36.1071 101.868C35.2851 102.289 34.3484 102.499 33.2969 102.499C31.7867 102.499 30.6206 102.165 29.7985 101.496C28.9956 100.807 28.5942 99.8707 28.5942 98.6854C28.5942 97.634 28.9287 96.7833 29.5978 96.1333C30.2669 95.4642 31.2323 95.0054 32.494 94.7569L37.0247 93.8106V93.2658ZM34.788 97.7104C34.788 98.0163 34.8836 98.2648 35.0748 98.456C35.266 98.6472 35.5336 98.7428 35.8777 98.7428C36.2027 98.7428 36.4703 98.6281 36.6806 98.3987C36.91 98.1693 37.0247 97.8443 37.0247 97.4237V96.162L35.9064 96.4201C35.1608 96.6112 34.788 97.0414 34.788 97.7104Z"/>
<path d="M45.5382 102.212V87.8748H51.474L51.6173 91.0004C52.0379 89.9108 52.6688 89.0696 53.5099 88.477C54.351 87.8844 55.3834 87.5881 56.6068 87.5881C58.0215 87.5881 59.1207 88.0086 59.9045 88.8498C60.7074 89.6909 61.1089 90.8762 61.1089 92.4055V102.212H54.5135V94.04C54.5135 93.4283 54.4275 93.0173 54.2555 92.807C54.0834 92.5776 53.8253 92.4629 53.4812 92.4629C53.0033 92.4629 52.6592 92.6349 52.4489 92.979C52.2386 93.304 52.1335 93.8584 52.1335 94.6422V102.212H45.5382Z"/>
<path d="M67.8223 102.499C66.0635 102.499 64.7062 101.859 63.7504 100.578C62.8136 99.278 62.3453 97.4619 62.3453 95.1297C62.3453 92.7401 62.8232 90.8857 63.779 89.5667C64.754 88.2476 66.1113 87.5881 67.8509 87.5881C68.845 87.5881 69.6766 87.8366 70.3457 88.3336C71.0148 88.8115 71.5309 89.452 71.8941 90.2549V82.1397H78.4895V102.212H72.5537L72.353 99.3736C71.9515 100.31 71.3684 101.065 70.6038 101.639C69.8391 102.212 68.9119 102.499 67.8223 102.499ZM70.4891 97.8825C70.9287 97.8825 71.2729 97.6627 71.5214 97.223C71.7699 96.7642 71.8941 96.0377 71.8941 95.0436C71.8941 93.1702 71.4258 92.2335 70.4891 92.2335C70.0303 92.2335 69.667 92.4246 69.3994 92.807C69.1318 93.1702 68.9979 93.9157 68.9979 95.0436C68.9979 96.1715 69.1318 96.9267 69.3994 97.309C69.667 97.6913 70.0303 97.8825 70.4891 97.8825Z"/>
<path d="M87.6069 87.5881C89.2127 87.5881 90.6082 87.8844 91.7935 88.477C92.9978 89.0505 93.9346 89.8916 94.6037 91.0004C95.2728 92.1092 95.6073 93.4569 95.6073 95.0436C95.6073 96.6112 95.2728 97.959 94.6037 99.0869C93.9346 100.196 92.9978 101.046 91.7935 101.639C90.6082 102.212 89.2127 102.499 87.6069 102.499C86.0202 102.499 84.6246 102.212 83.4203 101.639C82.2159 101.046 81.2792 100.196 80.6101 99.0869C79.941 97.959 79.6065 96.6112 79.6065 95.0436C79.6065 93.4569 79.941 92.1092 80.6101 91.0004C81.2792 89.8916 82.2159 89.0505 83.4203 88.477C84.6246 87.8844 86.0202 87.5881 87.6069 87.5881ZM87.6069 92.0327C87.1672 92.0327 86.8231 92.2335 86.5746 92.6349C86.3452 93.0364 86.2305 93.8393 86.2305 95.0436C86.2305 96.248 86.3452 97.0509 86.5746 97.4524C86.8231 97.8538 87.1672 98.0546 87.6069 98.0546C88.0466 98.0546 88.3811 97.8538 88.6105 97.4524C88.859 97.0509 88.9833 96.248 88.9833 95.0436C88.9833 93.8393 88.859 93.0364 88.6105 92.6349C88.3811 92.2335 88.0466 92.0327 87.6069 92.0327Z"/>
</mask>
<path d="M19.8357 -4C23.4105 -4 26.3163 -3.10151 28.553 -1.30452L25.8575 2.99678C24.959 2.36592 24.0127 1.85932 23.0186 1.47699C22.0437 1.09465 20.9827 0.903481 19.8357 0.903481C19.0901 0.903481 18.5644 0.989507 18.2585 1.16156C17.9718 1.31449 17.8284 1.52478 17.8284 1.79242C17.8284 2.02182 18.0004 2.19387 18.3445 2.30857C18.7078 2.42327 19.157 2.54753 19.6923 2.68135L22.3017 3.28353C24.2325 3.72322 25.6854 4.3732 26.6604 5.23346C27.6545 6.09372 28.1515 7.28852 28.1515 8.81787C28.1515 10.3472 27.7787 11.6089 27.0332 12.603C26.2876 13.578 25.2744 14.3044 23.9936 14.7823C22.7319 15.2603 21.2981 15.4992 19.6923 15.4992C18.4879 15.4992 17.2836 15.3941 16.0792 15.1838C14.8748 14.9544 13.7565 14.6294 12.7242 14.2088C11.6919 13.7691 10.8029 13.2434 10.0574 12.6317L12.6955 8.24436C13.2499 8.68405 13.919 9.08551 14.7028 9.44873C15.4866 9.79283 16.299 10.07 17.1402 10.2803C17.9813 10.4906 18.7651 10.5957 19.4916 10.5957C20.1798 10.5957 20.6481 10.5193 20.8966 10.3663C21.1643 10.1943 21.2981 9.984 21.2981 9.73548C21.2981 9.46784 21.1834 9.26712 20.954 9.1333C20.7437 8.99948 20.3518 8.86566 19.7783 8.73184L16.9108 8.10099C15.8976 7.87159 14.9322 7.56572 14.0146 7.18338C13.097 6.80104 12.3514 6.24665 11.7779 5.52021C11.2044 4.77465 10.9176 3.77101 10.9176 2.5093C10.9176 1.20935 11.2617 0.0718961 11.9499 -0.903065C12.6573 -1.87803 13.6705 -2.63314 14.9895 -3.16842C16.3277 -3.72281 17.9431 -4 19.8357 -4Z" fill="#E8AB94"/>
<path d="M37.0247 6.26577C37.0247 5.32904 36.6137 4.86068 35.7917 4.86068C35.3902 4.86068 35.0557 4.97538 34.788 5.20478C34.5204 5.43418 34.3675 5.89299 34.3292 6.5812L28.7662 5.77829C28.9 4.19158 29.5883 2.92987 30.8309 1.99314C32.0735 1.05641 33.88 0.588051 36.2505 0.588051C38.7357 0.588051 40.5709 1.09465 41.7562 2.10784C42.9605 3.10192 43.5627 4.42099 43.5627 6.06504V10.5097C43.5627 11.2935 43.9355 11.6854 44.681 11.6854C44.8913 11.6854 45.0538 11.6567 45.1685 11.5994L44.8818 14.9831C44.1744 15.3272 43.3237 15.4992 42.3297 15.4992C41.2209 15.4992 40.2746 15.3081 39.4908 14.9257C38.707 14.5434 38.1813 13.9603 37.9137 13.1765C37.5313 13.8647 36.9291 14.4287 36.1071 14.8684C35.2851 15.2889 34.3484 15.4992 33.2969 15.4992C31.7867 15.4992 30.6206 15.1647 29.7985 14.4956C28.9956 13.8074 28.5942 12.8707 28.5942 11.6854C28.5942 10.634 28.9287 9.78327 29.5978 9.1333C30.2669 8.46421 31.2323 8.0054 32.494 7.75688L37.0247 6.8106V6.26577ZM34.788 10.7104C34.788 11.0163 34.8836 11.2648 35.0748 11.456C35.266 11.6472 35.5336 11.7428 35.8777 11.7428C36.2027 11.7428 36.4703 11.6281 36.6806 11.3987C36.91 11.1692 37.0247 10.8443 37.0247 10.4237V9.16197L35.9064 9.42005C35.1608 9.61122 34.788 10.0414 34.788 10.7104Z" fill="#E8AB94"/>
<path d="M45.5382 15.2125V0.874806H51.474L51.6173 4.00042C52.0379 2.91075 52.6688 2.06961 53.5099 1.47699C54.351 0.884363 55.3834 0.588051 56.6068 0.588051C57.6965 0.588051 58.595 0.836571 59.3023 1.33361C60.0288 1.83065 60.5449 2.53797 60.8508 3.45559C61.2905 2.53797 61.9118 1.83065 62.7147 1.33361C63.5176 0.836571 64.4734 0.588051 65.5822 0.588051C66.9969 0.588051 68.0961 1.00862 68.8799 1.84977C69.6828 2.69091 70.0842 3.87616 70.0842 5.40551V15.2125H63.4889V7.12603C63.4889 6.47605 63.4029 6.03636 63.2308 5.80696C63.0779 5.57756 62.8294 5.46286 62.4853 5.46286C61.5677 5.46286 61.1089 6.20842 61.1089 7.69953V15.2125H54.5135V7.12603C54.5135 6.47605 54.4275 6.03636 54.2555 5.80696C54.1025 5.57756 53.854 5.46286 53.5099 5.46286C52.5923 5.46286 52.1335 6.20842 52.1335 7.69953V15.2125H45.5382Z" fill="#E8AB94"/>
<path d="M29.2125 25.2868V30.1902H23.3054V44.2125H16.624V30.1902H10.6882V25.2868H29.2125Z" fill="#E8AB94"/>
<path d="M35.4772 29.5881C37.083 29.5881 38.4785 29.8844 39.6638 30.477C40.8681 31.0505 41.8048 31.8916 42.4739 33.0004C43.143 34.1092 43.4776 35.4569 43.4776 37.0436C43.4776 38.6112 43.143 39.959 42.4739 41.0869C41.8048 42.1956 40.8681 43.0463 39.6638 43.639C38.4785 44.2125 37.083 44.4992 35.4772 44.4992C33.8905 44.4992 32.4949 44.2125 31.2906 43.639C30.0862 43.0463 29.1495 42.1956 28.4804 41.0869C27.8113 39.959 27.4767 38.6112 27.4767 37.0436C27.4767 35.4569 27.8113 34.1092 28.4804 33.0004C29.1495 31.8916 30.0862 31.0505 31.2906 30.477C32.4949 29.8844 33.8905 29.5881 35.4772 29.5881ZM35.4772 34.0327C35.0375 34.0327 34.6934 34.2335 34.4448 34.6349C34.2154 35.0364 34.1007 35.8393 34.1007 37.0436C34.1007 38.248 34.2154 39.0509 34.4448 39.4524C34.6934 39.8538 35.0375 40.0545 35.4772 40.0545C35.9168 40.0545 36.2514 39.8538 36.4808 39.4524C36.7293 39.0509 36.8536 38.248 36.8536 37.0436C36.8536 35.8393 36.7293 35.0364 36.4808 34.6349C36.2514 34.2335 35.9168 34.0327 35.4772 34.0327Z" fill="#E8AB94"/>
<path d="M44.5861 44.2125V29.8748H50.5218L50.6652 33.0004C51.0858 31.9108 51.7166 31.0696 52.5578 30.477C53.3989 29.8844 54.4312 29.5881 55.6547 29.5881C57.0694 29.5881 58.1686 30.0086 58.9524 30.8498C59.7553 31.6909 60.1568 32.8762 60.1568 34.4055V44.2125H53.5614V36.04C53.5614 35.4283 53.4754 35.0173 53.3033 34.807C53.1313 34.5776 52.8732 34.4629 52.5291 34.4629C52.0512 34.4629 51.7071 34.6349 51.4968 34.979C51.2865 35.304 51.1814 35.8584 51.1814 36.6422V44.2125H44.5861Z" fill="#E8AB94"/>
<path d="M71.6016 40.1406C73.4559 40.1406 74.8706 40.5134 75.8455 41.2589C76.8205 42.0045 77.308 43.1228 77.308 44.6139C77.308 46.6403 76.5624 48.1028 75.0713 49.0013C73.5993 49.9189 71.4964 50.3777 68.7627 50.3777C65.9525 50.3777 63.9644 50.0909 62.7982 49.5174C61.6321 48.9439 61.049 48.0836 61.049 46.9366C61.049 46.3058 61.2785 45.7801 61.7373 45.3595C62.1961 44.958 62.9416 44.6808 63.9739 44.5279C63.1137 44.2411 62.4924 43.8301 62.11 43.2949C61.7277 42.7405 61.5365 42.0809 61.5365 41.3163C61.5365 40.5898 61.7468 39.9781 62.1674 39.481C62.6071 38.9649 63.1901 38.5826 63.9166 38.334C62.3872 37.5502 61.6226 36.2694 61.6226 34.4915C61.6226 32.8475 62.263 31.624 63.5438 30.8211C64.8438 29.9991 66.7459 29.5881 69.2502 29.5881C70.3016 29.5881 71.2479 29.655 72.0891 29.7888C72.1655 29.0432 72.3471 28.3168 72.6339 27.6095C72.9206 26.9021 73.3508 26.3286 73.9243 25.8889C74.5169 25.4301 75.2816 25.2007 76.2183 25.2007C76.3139 25.2007 76.419 25.2007 76.5337 25.2007C76.6484 25.2007 76.7631 25.2103 76.8778 25.2294L77.2219 29.3013C77.0308 29.2631 76.8492 29.2344 76.6771 29.2153C76.5242 29.1962 76.3712 29.1866 76.2183 29.1866C75.6639 29.1866 75.2147 29.3109 74.8706 29.5594C74.5265 29.7888 74.2875 30.066 74.1537 30.391C75.9698 31.1748 76.8778 32.5416 76.8778 34.4915C76.8778 36.1165 76.2279 37.3304 74.9279 38.1333C73.6471 38.9362 71.7545 39.3377 69.2502 39.3377C68.0267 39.3377 66.9466 39.2421 66.0099 39.0509C65.7422 39.1465 65.6084 39.309 65.6084 39.5384C65.6084 39.7296 65.6945 39.8825 65.8665 39.9972C66.0577 40.0928 66.3635 40.1406 66.7841 40.1406H71.6016ZM69.2502 33.0004C68.4473 33.0004 68.0458 33.4879 68.0458 34.4629C68.0458 35.4378 68.4473 35.9253 69.2502 35.9253C70.0531 35.9253 70.4546 35.4378 70.4546 34.4629C70.4546 33.4879 70.0531 33.0004 69.2502 33.0004ZM68.8487 46.3918C71.2383 46.3918 72.4332 46.1146 72.4332 45.5602C72.4332 45.3117 72.2515 45.1874 71.8883 45.1874H66.2966C66.1055 45.1874 65.9621 45.2352 65.8665 45.3308C65.7709 45.4264 65.7231 45.5411 65.7231 45.6749C65.7231 45.9234 66.0003 46.105 66.5547 46.2197C67.1091 46.3344 67.8738 46.3918 68.8487 46.3918Z" fill="#E8AB94"/>
<path d="M18.2298 54.2868V61.3409L23.162 54.2868H30.2735L24.4811 61.7997L30.7896 73.2125H23.3054L19.7783 66.1297L18.2298 68.2516V73.2125H11.5485V54.2868H18.2298Z" fill="#E8AB94"/>
<path d="M38.985 64.2658C38.985 63.329 38.5739 62.8607 37.7519 62.8607C37.3505 62.8607 37.0159 62.9754 36.7483 63.2048C36.4806 63.4342 36.3277 63.893 36.2895 64.5812L30.7265 63.7783C30.8603 62.1916 31.5485 60.9299 32.7911 59.9931C34.0337 59.0564 35.8402 58.5881 38.2107 58.5881C40.6959 58.5881 42.5311 59.0947 43.7164 60.1078C44.9207 61.1019 45.5229 62.421 45.5229 64.065V68.5097C45.5229 69.2935 45.8957 69.6854 46.6413 69.6854C46.8516 69.6854 47.014 69.6567 47.1287 69.5994L46.842 72.9831C46.1347 73.3272 45.284 73.4992 44.2899 73.4992C43.1811 73.4992 42.2348 73.3081 41.451 72.9257C40.6672 72.5434 40.1415 71.9603 39.8739 71.1765C39.4916 71.8647 38.8894 72.4287 38.0673 72.8684C37.2453 73.2889 36.3086 73.4992 35.2572 73.4992C33.7469 73.4992 32.5808 73.1647 31.7588 72.4956C30.9559 71.8074 30.5544 70.8707 30.5544 69.6854C30.5544 68.634 30.889 67.7833 31.558 67.1333C32.2271 66.4642 33.1925 66.0054 34.4543 65.7569L38.985 64.8106V64.2658ZM36.7483 68.7104C36.7483 69.0163 36.8439 69.2648 37.035 69.456C37.2262 69.6472 37.4938 69.7428 37.8379 69.7428C38.1629 69.7428 38.4306 69.6281 38.6408 69.3987C38.8703 69.1693 38.985 68.8443 38.985 68.4237V67.162L37.8666 67.4201C37.1211 67.6112 36.7483 68.0414 36.7483 68.7104Z" fill="#E8AB94"/>
<path d="M58.3224 58.8748V63.3195H54.7093V67.3627C54.7093 68.0127 54.8432 68.481 55.1108 68.7678C55.3975 69.0354 55.8372 69.1693 56.4299 69.1693C57.1372 69.1693 57.7394 69.045 58.2364 68.7965L58.5232 72.5243C58.0452 72.8301 57.3953 73.0691 56.5732 73.2411C55.7512 73.4132 54.977 73.4992 54.2505 73.4992C52.2433 73.4992 50.7139 73.1169 49.6625 72.3522C48.6302 71.5684 48.114 70.2494 48.114 68.395V63.3195H45.906V58.8748H48.114V55.8352L54.7093 54V58.8748H58.3224Z" fill="#E8AB94"/>
<path d="M65.8416 73.4992C64.4461 73.4992 63.0984 73.3081 61.7984 72.9257C60.5176 72.5434 59.3993 71.9699 58.4434 71.2052L60.7948 67.7928C61.3109 68.2516 61.9896 68.6627 62.8307 69.0259C63.6719 69.37 64.513 69.542 65.3542 69.542C65.6791 69.542 65.9659 69.5038 66.2144 69.4273C66.4821 69.3509 66.6159 69.217 66.6159 69.0259C66.6159 68.8729 66.5394 68.7582 66.3865 68.6818C66.2527 68.6053 65.9468 68.5288 65.4689 68.4524L64.4365 68.2516C62.3528 67.8502 60.8808 67.2767 60.0205 66.5311C59.1603 65.7856 58.7302 64.7819 58.7302 63.5202C58.7302 62.7364 58.9787 61.9717 59.4757 61.2262C59.9919 60.4615 60.8043 59.8307 61.9131 59.3336C63.0219 58.8366 64.4843 58.5881 66.3004 58.5881C67.7916 58.5881 69.1297 58.7792 70.315 59.1616C71.5002 59.5248 72.4656 60.0314 73.2112 60.6814L70.9458 63.9503C70.4106 63.5298 69.7224 63.1952 68.8812 62.9467C68.0592 62.6791 67.3041 62.5452 66.6159 62.5452C66.138 62.5452 65.8034 62.593 65.6122 62.6886C65.4211 62.7651 65.3255 62.8702 65.3255 63.0041C65.3255 63.1379 65.4211 63.2621 65.6122 63.3768C65.8034 63.4915 66.1762 63.5967 66.7306 63.6923L68.7665 64.0364C70.315 64.2849 71.4429 64.7819 72.1502 65.5275C72.8767 66.273 73.2399 67.1907 73.2399 68.2803C73.2399 69.217 72.9818 70.0869 72.4656 70.8898C71.9686 71.6736 71.1753 72.3044 70.0856 72.7823C69.015 73.2603 67.6004 73.4992 65.8416 73.4992Z" fill="#E8AB94"/>
<path d="M78.7193 73.4992C77.2282 73.4992 76.0812 73.1169 75.2783 72.3522C74.4754 71.5684 74.0739 70.3067 74.0739 68.5671V58.8748H80.6692V67.0473C80.6692 67.6017 80.7553 68.0031 80.9273 68.2516C81.1185 68.5002 81.3957 68.6244 81.7589 68.6244C82.6192 68.6244 83.0493 67.9075 83.0493 66.4738V58.8748H89.6446V73.2125H83.7088L83.5655 70.1729C82.7243 72.3904 81.1089 73.4992 78.7193 73.4992Z" fill="#E8AB94"/>
<path d="M19.8357 83C23.4105 83 26.3163 83.8985 28.553 85.6955L25.8575 89.9968C24.959 89.3659 24.0127 88.8593 23.0186 88.477C22.0437 88.0947 20.9827 87.9035 19.8357 87.9035C19.0901 87.9035 18.5644 87.9895 18.2585 88.1616C17.9718 88.3145 17.8284 88.5248 17.8284 88.7924C17.8284 89.0218 18.0004 89.1939 18.3445 89.3086C18.7078 89.4233 19.157 89.5475 19.6923 89.6814L22.3017 90.2835C24.2325 90.7232 25.6854 91.3732 26.6604 92.2335C27.6545 93.0937 28.1515 94.2885 28.1515 95.8179C28.1515 97.3472 27.7787 98.6089 27.0332 99.603C26.2876 100.578 25.2744 101.304 23.9936 101.782C22.7319 102.26 21.2981 102.499 19.6923 102.499C18.4879 102.499 17.2836 102.394 16.0792 102.184C14.8748 101.954 13.7565 101.629 12.7242 101.209C11.6919 100.769 10.8029 100.243 10.0574 99.6317L12.6955 95.2444C13.2499 95.6841 13.919 96.0855 14.7028 96.4487C15.4866 96.7928 16.299 97.07 17.1402 97.2803C17.9813 97.4906 18.7651 97.5957 19.4916 97.5957C20.1798 97.5957 20.6481 97.5193 20.8966 97.3663C21.1643 97.1943 21.2981 96.984 21.2981 96.7355C21.2981 96.4678 21.1834 96.2671 20.954 96.1333C20.7437 95.9995 20.3518 95.8657 19.7783 95.7318L16.9108 95.101C15.8976 94.8716 14.9322 94.5657 14.0146 94.1834C13.097 93.801 12.3514 93.2467 11.7779 92.5202C11.2044 91.7747 10.9176 90.771 10.9176 89.5093C10.9176 88.2094 11.2617 87.0719 11.9499 86.0969C12.6573 85.122 13.6705 84.3669 14.9895 83.8316C16.3277 83.2772 17.9431 83 19.8357 83Z" fill="#E8AB94"/>
<path d="M37.0247 93.2658C37.0247 92.329 36.6137 91.8607 35.7917 91.8607C35.3902 91.8607 35.0557 91.9754 34.788 92.2048C34.5204 92.4342 34.3675 92.893 34.3292 93.5812L28.7662 92.7783C28.9 91.1916 29.5883 89.9299 30.8309 88.9931C32.0735 88.0564 33.88 87.5881 36.2505 87.5881C38.7357 87.5881 40.5709 88.0947 41.7562 89.1078C42.9605 90.1019 43.5627 91.421 43.5627 93.065V97.5097C43.5627 98.2935 43.9355 98.6854 44.681 98.6854C44.8913 98.6854 45.0538 98.6567 45.1685 98.5994L44.8818 101.983C44.1744 102.327 43.3237 102.499 42.3297 102.499C41.2209 102.499 40.2746 102.308 39.4908 101.926C38.707 101.543 38.1813 100.96 37.9137 100.177C37.5313 100.865 36.9291 101.429 36.1071 101.868C35.2851 102.289 34.3484 102.499 33.2969 102.499C31.7867 102.499 30.6206 102.165 29.7985 101.496C28.9956 100.807 28.5942 99.8707 28.5942 98.6854C28.5942 97.634 28.9287 96.7833 29.5978 96.1333C30.2669 95.4642 31.2323 95.0054 32.494 94.7569L37.0247 93.8106V93.2658ZM34.788 97.7104C34.788 98.0163 34.8836 98.2648 35.0748 98.456C35.266 98.6472 35.5336 98.7428 35.8777 98.7428C36.2027 98.7428 36.4703 98.6281 36.6806 98.3987C36.91 98.1693 37.0247 97.8443 37.0247 97.4237V96.162L35.9064 96.4201C35.1608 96.6112 34.788 97.0414 34.788 97.7104Z" fill="#E8AB94"/>
<path d="M45.5382 102.212V87.8748H51.474L51.6173 91.0004C52.0379 89.9108 52.6688 89.0696 53.5099 88.477C54.351 87.8844 55.3834 87.5881 56.6068 87.5881C58.0215 87.5881 59.1207 88.0086 59.9045 88.8498C60.7074 89.6909 61.1089 90.8762 61.1089 92.4055V102.212H54.5135V94.04C54.5135 93.4283 54.4275 93.0173 54.2555 92.807C54.0834 92.5776 53.8253 92.4629 53.4812 92.4629C53.0033 92.4629 52.6592 92.6349 52.4489 92.979C52.2386 93.304 52.1335 93.8584 52.1335 94.6422V102.212H45.5382Z" fill="#E8AB94"/>
<path d="M67.8223 102.499C66.0635 102.499 64.7062 101.859 63.7504 100.578C62.8136 99.278 62.3453 97.4619 62.3453 95.1297C62.3453 92.7401 62.8232 90.8857 63.779 89.5667C64.754 88.2476 66.1113 87.5881 67.8509 87.5881C68.845 87.5881 69.6766 87.8366 70.3457 88.3336C71.0148 88.8115 71.5309 89.452 71.8941 90.2549V82.1397H78.4895V102.212H72.5537L72.353 99.3736C71.9515 100.31 71.3684 101.065 70.6038 101.639C69.8391 102.212 68.9119 102.499 67.8223 102.499ZM70.4891 97.8825C70.9287 97.8825 71.2729 97.6627 71.5214 97.223C71.7699 96.7642 71.8941 96.0377 71.8941 95.0436C71.8941 93.1702 71.4258 92.2335 70.4891 92.2335C70.0303 92.2335 69.667 92.4246 69.3994 92.807C69.1318 93.1702 68.9979 93.9157 68.9979 95.0436C68.9979 96.1715 69.1318 96.9267 69.3994 97.309C69.667 97.6913 70.0303 97.8825 70.4891 97.8825Z" fill="#E8AB94"/>
<path d="M87.6069 87.5881C89.2127 87.5881 90.6082 87.8844 91.7935 88.477C92.9978 89.0505 93.9346 89.8916 94.6037 91.0004C95.2728 92.1092 95.6073 93.4569 95.6073 95.0436C95.6073 96.6112 95.2728 97.959 94.6037 99.0869C93.9346 100.196 92.9978 101.046 91.7935 101.639C90.6082 102.212 89.2127 102.499 87.6069 102.499C86.0202 102.499 84.6246 102.212 83.4203 101.639C82.2159 101.046 81.2792 100.196 80.6101 99.0869C79.941 97.959 79.6065 96.6112 79.6065 95.0436C79.6065 93.4569 79.941 92.1092 80.6101 91.0004C81.2792 89.8916 82.2159 89.0505 83.4203 88.477C84.6246 87.8844 86.0202 87.5881 87.6069 87.5881ZM87.6069 92.0327C87.1672 92.0327 86.8231 92.2335 86.5746 92.6349C86.3452 93.0364 86.2305 93.8393 86.2305 95.0436C86.2305 96.248 86.3452 97.0509 86.5746 97.4524C86.8231 97.8538 87.1672 98.0546 87.6069 98.0546C88.0466 98.0546 88.3811 97.8538 88.6105 97.4524C88.859 97.0509 88.9833 96.248 88.9833 95.0436C88.9833 93.8393 88.859 93.0364 88.6105 92.6349C88.3811 92.2335 88.0466 92.0327 87.6069 92.0327Z" fill="#E8AB94"/>
<path d="M19.8357 -4C23.4105 -4 26.3163 -3.10151 28.553 -1.30452L25.8575 2.99678C24.959 2.36592 24.0127 1.85932 23.0186 1.47699C22.0437 1.09465 20.9827 0.903481 19.8357 0.903481C19.0901 0.903481 18.5644 0.989507 18.2585 1.16156C17.9718 1.31449 17.8284 1.52478 17.8284 1.79242C17.8284 2.02182 18.0004 2.19387 18.3445 2.30857C18.7078 2.42327 19.157 2.54753 19.6923 2.68135L22.3017 3.28353C24.2325 3.72322 25.6854 4.3732 26.6604 5.23346C27.6545 6.09372 28.1515 7.28852 28.1515 8.81787C28.1515 10.3472 27.7787 11.6089 27.0332 12.603C26.2876 13.578 25.2744 14.3044 23.9936 14.7823C22.7319 15.2603 21.2981 15.4992 19.6923 15.4992C18.4879 15.4992 17.2836 15.3941 16.0792 15.1838C14.8748 14.9544 13.7565 14.6294 12.7242 14.2088C11.6919 13.7691 10.8029 13.2434 10.0574 12.6317L12.6955 8.24436C13.2499 8.68405 13.919 9.08551 14.7028 9.44873C15.4866 9.79283 16.299 10.07 17.1402 10.2803C17.9813 10.4906 18.7651 10.5957 19.4916 10.5957C20.1798 10.5957 20.6481 10.5193 20.8966 10.3663C21.1643 10.1943 21.2981 9.984 21.2981 9.73548C21.2981 9.46784 21.1834 9.26712 20.954 9.1333C20.7437 8.99948 20.3518 8.86566 19.7783 8.73184L16.9108 8.10099C15.8976 7.87159 14.9322 7.56572 14.0146 7.18338C13.097 6.80104 12.3514 6.24665 11.7779 5.52021C11.2044 4.77465 10.9176 3.77101 10.9176 2.5093C10.9176 1.20935 11.2617 0.0718961 11.9499 -0.903065C12.6573 -1.87803 13.6705 -2.63314 14.9895 -3.16842C16.3277 -3.72281 17.9431 -4 19.8357 -4Z" stroke="black" mask="url(#path-3-inside-1)"/>
<path d="M37.0247 6.26577C37.0247 5.32904 36.6137 4.86068 35.7917 4.86068C35.3902 4.86068 35.0557 4.97538 34.788 5.20478C34.5204 5.43418 34.3675 5.89299 34.3292 6.5812L28.7662 5.77829C28.9 4.19158 29.5883 2.92987 30.8309 1.99314C32.0735 1.05641 33.88 0.588051 36.2505 0.588051C38.7357 0.588051 40.5709 1.09465 41.7562 2.10784C42.9605 3.10192 43.5627 4.42099 43.5627 6.06504V10.5097C43.5627 11.2935 43.9355 11.6854 44.681 11.6854C44.8913 11.6854 45.0538 11.6567 45.1685 11.5994L44.8818 14.9831C44.1744 15.3272 43.3237 15.4992 42.3297 15.4992C41.2209 15.4992 40.2746 15.3081 39.4908 14.9257C38.707 14.5434 38.1813 13.9603 37.9137 13.1765C37.5313 13.8647 36.9291 14.4287 36.1071 14.8684C35.2851 15.2889 34.3484 15.4992 33.2969 15.4992C31.7867 15.4992 30.6206 15.1647 29.7985 14.4956C28.9956 13.8074 28.5942 12.8707 28.5942 11.6854C28.5942 10.634 28.9287 9.78327 29.5978 9.1333C30.2669 8.46421 31.2323 8.0054 32.494 7.75688L37.0247 6.8106V6.26577ZM34.788 10.7104C34.788 11.0163 34.8836 11.2648 35.0748 11.456C35.266 11.6472 35.5336 11.7428 35.8777 11.7428C36.2027 11.7428 36.4703 11.6281 36.6806 11.3987C36.91 11.1692 37.0247 10.8443 37.0247 10.4237V9.16197L35.9064 9.42005C35.1608 9.61122 34.788 10.0414 34.788 10.7104Z" stroke="black" mask="url(#path-3-inside-1)"/>
<path d="M45.5382 15.2125V0.874806H51.474L51.6173 4.00042C52.0379 2.91075 52.6688 2.06961 53.5099 1.47699C54.351 0.884363 55.3834 0.588051 56.6068 0.588051C57.6965 0.588051 58.595 0.836571 59.3023 1.33361C60.0288 1.83065 60.5449 2.53797 60.8508 3.45559C61.2905 2.53797 61.9118 1.83065 62.7147 1.33361C63.5176 0.836571 64.4734 0.588051 65.5822 0.588051C66.9969 0.588051 68.0961 1.00862 68.8799 1.84977C69.6828 2.69091 70.0842 3.87616 70.0842 5.40551V15.2125H63.4889V7.12603C63.4889 6.47605 63.4029 6.03636 63.2308 5.80696C63.0779 5.57756 62.8294 5.46286 62.4853 5.46286C61.5677 5.46286 61.1089 6.20842 61.1089 7.69953V15.2125H54.5135V7.12603C54.5135 6.47605 54.4275 6.03636 54.2555 5.80696C54.1025 5.57756 53.854 5.46286 53.5099 5.46286C52.5923 5.46286 52.1335 6.20842 52.1335 7.69953V15.2125H45.5382Z" stroke="black" mask="url(#path-3-inside-1)"/>
<path d="M29.2125 25.2868V30.1902H23.3054V44.2125H16.624V30.1902H10.6882V25.2868H29.2125Z" stroke="black" mask="url(#path-3-inside-1)"/>
<path d="M35.4772 29.5881C37.083 29.5881 38.4785 29.8844 39.6638 30.477C40.8681 31.0505 41.8048 31.8916 42.4739 33.0004C43.143 34.1092 43.4776 35.4569 43.4776 37.0436C43.4776 38.6112 43.143 39.959 42.4739 41.0869C41.8048 42.1956 40.8681 43.0463 39.6638 43.639C38.4785 44.2125 37.083 44.4992 35.4772 44.4992C33.8905 44.4992 32.4949 44.2125 31.2906 43.639C30.0862 43.0463 29.1495 42.1956 28.4804 41.0869C27.8113 39.959 27.4767 38.6112 27.4767 37.0436C27.4767 35.4569 27.8113 34.1092 28.4804 33.0004C29.1495 31.8916 30.0862 31.0505 31.2906 30.477C32.4949 29.8844 33.8905 29.5881 35.4772 29.5881ZM35.4772 34.0327C35.0375 34.0327 34.6934 34.2335 34.4448 34.6349C34.2154 35.0364 34.1007 35.8393 34.1007 37.0436C34.1007 38.248 34.2154 39.0509 34.4448 39.4524C34.6934 39.8538 35.0375 40.0545 35.4772 40.0545C35.9168 40.0545 36.2514 39.8538 36.4808 39.4524C36.7293 39.0509 36.8536 38.248 36.8536 37.0436C36.8536 35.8393 36.7293 35.0364 36.4808 34.6349C36.2514 34.2335 35.9168 34.0327 35.4772 34.0327Z" stroke="black" mask="url(#path-3-inside-1)"/>
<path d="M44.5861 44.2125V29.8748H50.5218L50.6652 33.0004C51.0858 31.9108 51.7166 31.0696 52.5578 30.477C53.3989 29.8844 54.4312 29.5881 55.6547 29.5881C57.0694 29.5881 58.1686 30.0086 58.9524 30.8498C59.7553 31.6909 60.1568 32.8762 60.1568 34.4055V44.2125H53.5614V36.04C53.5614 35.4283 53.4754 35.0173 53.3033 34.807C53.1313 34.5776 52.8732 34.4629 52.5291 34.4629C52.0512 34.4629 51.7071 34.6349 51.4968 34.979C51.2865 35.304 51.1814 35.8584 51.1814 36.6422V44.2125H44.5861Z" stroke="black" mask="url(#path-3-inside-1)"/>
<path d="M71.6016 40.1406C73.4559 40.1406 74.8706 40.5134 75.8455 41.2589C76.8205 42.0045 77.308 43.1228 77.308 44.6139C77.308 46.6403 76.5624 48.1028 75.0713 49.0013C73.5993 49.9189 71.4964 50.3777 68.7627 50.3777C65.9525 50.3777 63.9644 50.0909 62.7982 49.5174C61.6321 48.9439 61.049 48.0836 61.049 46.9366C61.049 46.3058 61.2785 45.7801 61.7373 45.3595C62.1961 44.958 62.9416 44.6808 63.9739 44.5279C63.1137 44.2411 62.4924 43.8301 62.11 43.2949C61.7277 42.7405 61.5365 42.0809 61.5365 41.3163C61.5365 40.5898 61.7468 39.9781 62.1674 39.481C62.6071 38.9649 63.1901 38.5826 63.9166 38.334C62.3872 37.5502 61.6226 36.2694 61.6226 34.4915C61.6226 32.8475 62.263 31.624 63.5438 30.8211C64.8438 29.9991 66.7459 29.5881 69.2502 29.5881C70.3016 29.5881 71.2479 29.655 72.0891 29.7888C72.1655 29.0432 72.3471 28.3168 72.6339 27.6095C72.9206 26.9021 73.3508 26.3286 73.9243 25.8889C74.5169 25.4301 75.2816 25.2007 76.2183 25.2007C76.3139 25.2007 76.419 25.2007 76.5337 25.2007C76.6484 25.2007 76.7631 25.2103 76.8778 25.2294L77.2219 29.3013C77.0308 29.2631 76.8492 29.2344 76.6771 29.2153C76.5242 29.1962 76.3712 29.1866 76.2183 29.1866C75.6639 29.1866 75.2147 29.3109 74.8706 29.5594C74.5265 29.7888 74.2875 30.066 74.1537 30.391C75.9698 31.1748 76.8778 32.5416 76.8778 34.4915C76.8778 36.1165 76.2279 37.3304 74.9279 38.1333C73.6471 38.9362 71.7545 39.3377 69.2502 39.3377C68.0267 39.3377 66.9466 39.2421 66.0099 39.0509C65.7422 39.1465 65.6084 39.309 65.6084 39.5384C65.6084 39.7296 65.6945 39.8825 65.8665 39.9972C66.0577 40.0928 66.3635 40.1406 66.7841 40.1406H71.6016ZM69.2502 33.0004C68.4473 33.0004 68.0458 33.4879 68.0458 34.4629C68.0458 35.4378 68.4473 35.9253 69.2502 35.9253C70.0531 35.9253 70.4546 35.4378 70.4546 34.4629C70.4546 33.4879 70.0531 33.0004 69.2502 33.0004ZM68.8487 46.3918C71.2383 46.3918 72.4332 46.1146 72.4332 45.5602C72.4332 45.3117 72.2515 45.1874 71.8883 45.1874H66.2966C66.1055 45.1874 65.9621 45.2352 65.8665 45.3308C65.7709 45.4264 65.7231 45.5411 65.7231 45.6749C65.7231 45.9234 66.0003 46.105 66.5547 46.2197C67.1091 46.3344 67.8738 46.3918 68.8487 46.3918Z" stroke="black" mask="url(#path-3-inside-1)"/>
<path d="M18.2298 54.2868V61.3409L23.162 54.2868H30.2735L24.4811 61.7997L30.7896 73.2125H23.3054L19.7783 66.1297L18.2298 68.2516V73.2125H11.5485V54.2868H18.2298Z" stroke="black" mask="url(#path-3-inside-1)"/>
<path d="M38.985 64.2658C38.985 63.329 38.5739 62.8607 37.7519 62.8607C37.3505 62.8607 37.0159 62.9754 36.7483 63.2048C36.4806 63.4342 36.3277 63.893 36.2895 64.5812L30.7265 63.7783C30.8603 62.1916 31.5485 60.9299 32.7911 59.9931C34.0337 59.0564 35.8402 58.5881 38.2107 58.5881C40.6959 58.5881 42.5311 59.0947 43.7164 60.1078C44.9207 61.1019 45.5229 62.421 45.5229 64.065V68.5097C45.5229 69.2935 45.8957 69.6854 46.6413 69.6854C46.8516 69.6854 47.014 69.6567 47.1287 69.5994L46.842 72.9831C46.1347 73.3272 45.284 73.4992 44.2899 73.4992C43.1811 73.4992 42.2348 73.3081 41.451 72.9257C40.6672 72.5434 40.1415 71.9603 39.8739 71.1765C39.4916 71.8647 38.8894 72.4287 38.0673 72.8684C37.2453 73.2889 36.3086 73.4992 35.2572 73.4992C33.7469 73.4992 32.5808 73.1647 31.7588 72.4956C30.9559 71.8074 30.5544 70.8707 30.5544 69.6854C30.5544 68.634 30.889 67.7833 31.558 67.1333C32.2271 66.4642 33.1925 66.0054 34.4543 65.7569L38.985 64.8106V64.2658ZM36.7483 68.7104C36.7483 69.0163 36.8439 69.2648 37.035 69.456C37.2262 69.6472 37.4938 69.7428 37.8379 69.7428C38.1629 69.7428 38.4306 69.6281 38.6408 69.3987C38.8703 69.1693 38.985 68.8443 38.985 68.4237V67.162L37.8666 67.4201C37.1211 67.6112 36.7483 68.0414 36.7483 68.7104Z" stroke="black" mask="url(#path-3-inside-1)"/>
<path d="M58.3224 58.8748V63.3195H54.7093V67.3627C54.7093 68.0127 54.8432 68.481 55.1108 68.7678C55.3975 69.0354 55.8372 69.1693 56.4299 69.1693C57.1372 69.1693 57.7394 69.045 58.2364 68.7965L58.5232 72.5243C58.0452 72.8301 57.3953 73.0691 56.5732 73.2411C55.7512 73.4132 54.977 73.4992 54.2505 73.4992C52.2433 73.4992 50.7139 73.1169 49.6625 72.3522C48.6302 71.5684 48.114 70.2494 48.114 68.395V63.3195H45.906V58.8748H48.114V55.8352L54.7093 54V58.8748H58.3224Z" stroke="black" mask="url(#path-3-inside-1)"/>
<path d="M65.8416 73.4992C64.4461 73.4992 63.0984 73.3081 61.7984 72.9257C60.5176 72.5434 59.3993 71.9699 58.4434 71.2052L60.7948 67.7928C61.3109 68.2516 61.9896 68.6627 62.8307 69.0259C63.6719 69.37 64.513 69.542 65.3542 69.542C65.6791 69.542 65.9659 69.5038 66.2144 69.4273C66.4821 69.3509 66.6159 69.217 66.6159 69.0259C66.6159 68.8729 66.5394 68.7582 66.3865 68.6818C66.2527 68.6053 65.9468 68.5288 65.4689 68.4524L64.4365 68.2516C62.3528 67.8502 60.8808 67.2767 60.0205 66.5311C59.1603 65.7856 58.7302 64.7819 58.7302 63.5202C58.7302 62.7364 58.9787 61.9717 59.4757 61.2262C59.9919 60.4615 60.8043 59.8307 61.9131 59.3336C63.0219 58.8366 64.4843 58.5881 66.3004 58.5881C67.7916 58.5881 69.1297 58.7792 70.315 59.1616C71.5002 59.5248 72.4656 60.0314 73.2112 60.6814L70.9458 63.9503C70.4106 63.5298 69.7224 63.1952 68.8812 62.9467C68.0592 62.6791 67.3041 62.5452 66.6159 62.5452C66.138 62.5452 65.8034 62.593 65.6122 62.6886C65.4211 62.7651 65.3255 62.8702 65.3255 63.0041C65.3255 63.1379 65.4211 63.2621 65.6122 63.3768C65.8034 63.4915 66.1762 63.5967 66.7306 63.6923L68.7665 64.0364C70.315 64.2849 71.4429 64.7819 72.1502 65.5275C72.8767 66.273 73.2399 67.1907 73.2399 68.2803C73.2399 69.217 72.9818 70.0869 72.4656 70.8898C71.9686 71.6736 71.1753 72.3044 70.0856 72.7823C69.015 73.2603 67.6004 73.4992 65.8416 73.4992Z" stroke="black" mask="url(#path-3-inside-1)"/>
<path d="M78.7193 73.4992C77.2282 73.4992 76.0812 73.1169 75.2783 72.3522C74.4754 71.5684 74.0739 70.3067 74.0739 68.5671V58.8748H80.6692V67.0473C80.6692 67.6017 80.7553 68.0031 80.9273 68.2516C81.1185 68.5002 81.3957 68.6244 81.7589 68.6244C82.6192 68.6244 83.0493 67.9075 83.0493 66.4738V58.8748H89.6446V73.2125H83.7088L83.5655 70.1729C82.7243 72.3904 81.1089 73.4992 78.7193 73.4992Z" stroke="black" mask="url(#path-3-inside-1)"/>
<path d="M19.8357 83C23.4105 83 26.3163 83.8985 28.553 85.6955L25.8575 89.9968C24.959 89.3659 24.0127 88.8593 23.0186 88.477C22.0437 88.0947 20.9827 87.9035 19.8357 87.9035C19.0901 87.9035 18.5644 87.9895 18.2585 88.1616C17.9718 88.3145 17.8284 88.5248 17.8284 88.7924C17.8284 89.0218 18.0004 89.1939 18.3445 89.3086C18.7078 89.4233 19.157 89.5475 19.6923 89.6814L22.3017 90.2835C24.2325 90.7232 25.6854 91.3732 26.6604 92.2335C27.6545 93.0937 28.1515 94.2885 28.1515 95.8179C28.1515 97.3472 27.7787 98.6089 27.0332 99.603C26.2876 100.578 25.2744 101.304 23.9936 101.782C22.7319 102.26 21.2981 102.499 19.6923 102.499C18.4879 102.499 17.2836 102.394 16.0792 102.184C14.8748 101.954 13.7565 101.629 12.7242 101.209C11.6919 100.769 10.8029 100.243 10.0574 99.6317L12.6955 95.2444C13.2499 95.6841 13.919 96.0855 14.7028 96.4487C15.4866 96.7928 16.299 97.07 17.1402 97.2803C17.9813 97.4906 18.7651 97.5957 19.4916 97.5957C20.1798 97.5957 20.6481 97.5193 20.8966 97.3663C21.1643 97.1943 21.2981 96.984 21.2981 96.7355C21.2981 96.4678 21.1834 96.2671 20.954 96.1333C20.7437 95.9995 20.3518 95.8657 19.7783 95.7318L16.9108 95.101C15.8976 94.8716 14.9322 94.5657 14.0146 94.1834C13.097 93.801 12.3514 93.2467 11.7779 92.5202C11.2044 91.7747 10.9176 90.771 10.9176 89.5093C10.9176 88.2094 11.2617 87.0719 11.9499 86.0969C12.6573 85.122 13.6705 84.3669 14.9895 83.8316C16.3277 83.2772 17.9431 83 19.8357 83Z" stroke="black" mask="url(#path-3-inside-1)"/>
<path d="M37.0247 93.2658C37.0247 92.329 36.6137 91.8607 35.7917 91.8607C35.3902 91.8607 35.0557 91.9754 34.788 92.2048C34.5204 92.4342 34.3675 92.893 34.3292 93.5812L28.7662 92.7783C28.9 91.1916 29.5883 89.9299 30.8309 88.9931C32.0735 88.0564 33.88 87.5881 36.2505 87.5881C38.7357 87.5881 40.5709 88.0947 41.7562 89.1078C42.9605 90.1019 43.5627 91.421 43.5627 93.065V97.5097C43.5627 98.2935 43.9355 98.6854 44.681 98.6854C44.8913 98.6854 45.0538 98.6567 45.1685 98.5994L44.8818 101.983C44.1744 102.327 43.3237 102.499 42.3297 102.499C41.2209 102.499 40.2746 102.308 39.4908 101.926C38.707 101.543 38.1813 100.96 37.9137 100.177C37.5313 100.865 36.9291 101.429 36.1071 101.868C35.2851 102.289 34.3484 102.499 33.2969 102.499C31.7867 102.499 30.6206 102.165 29.7985 101.496C28.9956 100.807 28.5942 99.8707 28.5942 98.6854C28.5942 97.634 28.9287 96.7833 29.5978 96.1333C30.2669 95.4642 31.2323 95.0054 32.494 94.7569L37.0247 93.8106V93.2658ZM34.788 97.7104C34.788 98.0163 34.8836 98.2648 35.0748 98.456C35.266 98.6472 35.5336 98.7428 35.8777 98.7428C36.2027 98.7428 36.4703 98.6281 36.6806 98.3987C36.91 98.1693 37.0247 97.8443 37.0247 97.4237V96.162L35.9064 96.4201C35.1608 96.6112 34.788 97.0414 34.788 97.7104Z" stroke="black" mask="url(#path-3-inside-1)"/>
<path d="M45.5382 102.212V87.8748H51.474L51.6173 91.0004C52.0379 89.9108 52.6688 89.0696 53.5099 88.477C54.351 87.8844 55.3834 87.5881 56.6068 87.5881C58.0215 87.5881 59.1207 88.0086 59.9045 88.8498C60.7074 89.6909 61.1089 90.8762 61.1089 92.4055V102.212H54.5135V94.04C54.5135 93.4283 54.4275 93.0173 54.2555 92.807C54.0834 92.5776 53.8253 92.4629 53.4812 92.4629C53.0033 92.4629 52.6592 92.6349 52.4489 92.979C52.2386 93.304 52.1335 93.8584 52.1335 94.6422V102.212H45.5382Z" stroke="black" mask="url(#path-3-inside-1)"/>
<path d="M67.8223 102.499C66.0635 102.499 64.7062 101.859 63.7504 100.578C62.8136 99.278 62.3453 97.4619 62.3453 95.1297C62.3453 92.7401 62.8232 90.8857 63.779 89.5667C64.754 88.2476 66.1113 87.5881 67.8509 87.5881C68.845 87.5881 69.6766 87.8366 70.3457 88.3336C71.0148 88.8115 71.5309 89.452 71.8941 90.2549V82.1397H78.4895V102.212H72.5537L72.353 99.3736C71.9515 100.31 71.3684 101.065 70.6038 101.639C69.8391 102.212 68.9119 102.499 67.8223 102.499ZM70.4891 97.8825C70.9287 97.8825 71.2729 97.6627 71.5214 97.223C71.7699 96.7642 71.8941 96.0377 71.8941 95.0436C71.8941 93.1702 71.4258 92.2335 70.4891 92.2335C70.0303 92.2335 69.667 92.4246 69.3994 92.807C69.1318 93.1702 68.9979 93.9157 68.9979 95.0436C68.9979 96.1715 69.1318 96.9267 69.3994 97.309C69.667 97.6913 70.0303 97.8825 70.4891 97.8825Z" stroke="black" mask="url(#path-3-inside-1)"/>
<path d="M87.6069 87.5881C89.2127 87.5881 90.6082 87.8844 91.7935 88.477C92.9978 89.0505 93.9346 89.8916 94.6037 91.0004C95.2728 92.1092 95.6073 93.4569 95.6073 95.0436C95.6073 96.6112 95.2728 97.959 94.6037 99.0869C93.9346 100.196 92.9978 101.046 91.7935 101.639C90.6082 102.212 89.2127 102.499 87.6069 102.499C86.0202 102.499 84.6246 102.212 83.4203 101.639C82.2159 101.046 81.2792 100.196 80.6101 99.0869C79.941 97.959 79.6065 96.6112 79.6065 95.0436C79.6065 93.4569 79.941 92.1092 80.6101 91.0004C81.2792 89.8916 82.2159 89.0505 83.4203 88.477C84.6246 87.8844 86.0202 87.5881 87.6069 87.5881ZM87.6069 92.0327C87.1672 92.0327 86.8231 92.2335 86.5746 92.6349C86.3452 93.0364 86.2305 93.8393 86.2305 95.0436C86.2305 96.248 86.3452 97.0509 86.5746 97.4524C86.8231 97.8538 87.1672 98.0546 87.6069 98.0546C88.0466 98.0546 88.3811 97.8538 88.6105 97.4524C88.859 97.0509 88.9833 96.248 88.9833 95.0436C88.9833 93.8393 88.859 93.0364 88.6105 92.6349C88.3811 92.2335 88.0466 92.0327 87.6069 92.0327Z" stroke="black" mask="url(#path-3-inside-1)"/>
</g>
<rect x="1" y="1" width="100" height="100" stroke="black" stroke-width="2"/>
<defs>
<clipPath id="clip0">
<rect x="1" y="1" width="100" height="100" fill="white"/>
</clipPath>
</defs>
</svg>
