<svg width="102" height="102" viewBox="0 0 102 102" fill="none" xmlns="http://www.w3.org/2000/svg">
<g clip-path="url(#clip0)">
<rect x="1" y="1" width="100" height="100" fill="#F24E1E"/>
<path fill-rule="evenodd" clip-rule="evenodd" d="M16.6886 16.6755H394.82V302.325H16.6886V16.6755ZM396 15.5V303.5H15.5082V15.5H396Z" fill="black"/>
<path d="M20.9181 11H11.0001V20.9H20.9181V11Z" fill="white"/>
<path fill-rule="evenodd" clip-rule="evenodd" d="M12.1501 12.1479H19.7681V19.7521H12.1501V12.1479ZM20.9181 11V20.9H11.0001V11H20.9181Z" fill="black"/>
<path fill-rule="evenodd" clip-rule="evenodd" d="M31.674 51.7283C33.475 51.3687 35.2269 52.5347 35.5871 54.3325C36.997 61.3696 39.6193 68.7903 43.8791 73.9088C44.1878 74.2798 44.4589 74.6092 44.7011 74.9036C45.6829 76.0968 46.191 76.7144 46.8181 77.1934C47.3416 77.5933 48.0625 77.9652 49.8725 78.0865C54.5207 78.3979 59.2559 78.3476 63.3103 77.206C65.4413 76.606 67.2723 74.8993 67.9353 72.9138C68.7673 70.4221 69.2758 67.6689 69.709 64.7064C69.8452 63.7755 69.9763 62.8024 70.1098 61.8117C70.385 59.7692 70.6703 57.6515 71.0308 55.6725C71.3593 53.8686 73.0905 52.6722 74.8975 53.0001C76.7045 53.3281 77.9031 55.0563 77.5745 56.8602C77.2403 58.695 76.9925 60.5384 76.7312 62.4821C76.593 63.5106 76.4509 64.5672 76.2903 65.6655C75.8427 68.7266 75.2681 71.9496 74.245 75.0133C72.8445 79.2077 69.2403 82.4349 65.1158 83.5961C59.9445 85.0522 54.2904 85.0369 49.4271 84.711C46.6721 84.5265 44.5936 83.8543 42.7765 82.4664C41.4766 81.4735 40.3671 80.1133 39.3561 78.8737C39.1548 78.627 38.9574 78.385 38.7632 78.1516C33.4809 71.8044 30.5677 63.1339 29.0652 55.6346C28.705 53.8368 29.873 52.0879 31.674 51.7283Z" fill="#FFC700"/>
<path fill-rule="evenodd" clip-rule="evenodd" d="M45.6042 30.0853C45.9314 30.1085 46.3417 30.1652 46.7737 30.3035C47.6028 30.5688 48.2229 31.0292 48.6989 31.5043C49.5595 32.3634 49.9625 33.3962 50.1006 33.7501C50.1162 33.7901 50.1284 33.8215 50.1376 33.8429C50.8955 35.6232 51.0561 37.4612 51.0561 38.9575C51.0561 39.2454 51.0611 39.5637 51.0665 39.9058C51.0922 41.5334 51.1265 43.7013 50.6688 45.7043C50.1126 48.1389 48.4301 49.471 47.3376 50.2521C47.3319 50.2562 47.3193 50.2656 47.3007 50.2796C47.1405 50.4 46.5298 50.8589 45.9415 51.1702C45.4274 51.4421 43.6885 52.3037 41.7902 51.3983C40.1726 50.6268 39.4371 49.1805 39.1095 48.3802C38.7805 47.5765 38.5973 46.7386 38.503 46.3074C38.4958 46.2747 38.4892 46.2443 38.483 46.2164C37.9998 44.0309 37.9893 41.7961 38.0615 39.9153C38.1343 38.02 38.4937 36.0505 39.3031 34.1595C40.3218 31.7795 42.2009 30.8238 43.5891 30.2519C44.2528 29.9785 44.9542 29.9353 45.6042 30.0853ZM42.8305 45.3017C42.8292 45.3025 42.828 45.3031 42.8269 45.3037C42.8189 45.3079 42.8203 45.3067 42.8305 45.3017Z" fill="#FFC700"/>
<path fill-rule="evenodd" clip-rule="evenodd" d="M65.1395 30.0853C65.4667 30.1085 65.877 30.1652 66.309 30.3035C67.138 30.5688 67.7582 31.0292 68.2342 31.5043C69.0948 32.3634 69.4978 33.3962 69.6359 33.7501C69.6515 33.7901 69.6637 33.8215 69.6728 33.8429C70.4308 35.6232 70.5914 37.4612 70.5914 38.9575C70.5914 39.2454 70.5964 39.5637 70.6018 39.9058C70.6275 41.5334 70.6617 43.7013 70.2041 45.7043C69.6479 48.1389 67.9654 49.471 66.8728 50.2521C66.8672 50.2562 66.8546 50.2656 66.8359 50.2796C66.6758 50.4 66.065 50.8589 65.4768 51.1702C64.9627 51.4421 63.2237 52.3037 61.3254 51.3983C59.7078 50.6268 58.9723 49.1805 58.6447 48.3802C58.3158 47.5765 58.1325 46.7386 58.0383 46.3074C58.0311 46.2747 58.0245 46.2443 58.0183 46.2164C57.5351 44.0309 57.5246 41.7961 57.5968 39.9153C57.6695 38.02 58.029 36.0505 58.8384 34.1595C59.8571 31.7795 61.7362 30.8238 63.1244 30.2519C63.7881 29.9785 64.4895 29.9353 65.1395 30.0853ZM62.3658 45.3017C62.3645 45.3025 62.3632 45.3031 62.3622 45.3037C62.3542 45.3079 62.3556 45.3067 62.3658 45.3017Z" fill="#FFC700"/>
<path d="M93.3143 39.6447L88.3556 34.686L73.4794 49.562L73.4794 54.5207L78.4381 54.5207L93.3143 39.6447Z" fill="white"/>
<path fill-rule="evenodd" clip-rule="evenodd" d="M88.3556 36.3389L91.6614 39.6447L77.954 53.3519L74.6482 53.3519L74.6482 50.0461L88.3556 36.3389ZM73.4794 49.562L73.4794 54.5207L78.4381 54.5207L93.3143 39.6447L88.3556 34.686L73.4794 49.562Z" fill="black"/>
<path d="M94.7603 38.1984C95.445 37.5138 95.445 36.4037 94.7603 35.7191L92.281 33.2397C91.5963 32.555 90.4863 32.555 89.8016 33.2397L87.7355 35.3058L92.6942 40.2646L94.7603 38.1984Z" fill="white"/>
<path fill-rule="evenodd" clip-rule="evenodd" d="M91.4545 34.0661L93.9339 36.5455C94.1621 36.7737 94.1621 37.1437 93.9339 37.372L92.6942 38.6116L89.3884 35.3058L90.6281 34.0662C90.8563 33.8379 91.2263 33.8379 91.4545 34.0661ZM94.7603 35.7191C95.445 36.4037 95.445 37.5138 94.7603 38.1984L92.6942 40.2646L87.7355 35.3058L89.8016 33.2397C90.4863 32.555 91.5963 32.555 92.281 33.2397L94.7603 35.7191Z" fill="black"/>
</g>
<rect x="1" y="1" width="100" height="100" stroke="black" stroke-width="2"/>
<defs>
<clipPath id="clip0">
<rect x="1" y="1" width="100" height="100" fill="white"/>
</clipPath>
</defs>
</svg>
