<svg width="102" height="102" viewBox="0 0 102 102" fill="none" xmlns="http://www.w3.org/2000/svg">
<g clip-path="url(#clip0)">
<rect width="157" height="143" transform="translate(-36 -9)" fill="#0FA958"/>
<path d="M80.5378 26.5826C80.5378 38.7435 70.6941 48.6019 58.5511 48.6019C46.4082 48.6019 36.5645 38.7435 36.5645 26.5826C36.5645 14.4216 46.4082 4.56323 58.5511 4.56323C70.6941 4.56323 80.5378 14.4216 80.5378 26.5826Z" fill="#699BF7"/>
<path fill-rule="evenodd" clip-rule="evenodd" d="M71.4631 44.4069C69.539 44.9579 67.5071 45.2529 65.4063 45.2529C53.2634 45.2529 43.4196 35.3945 43.4196 23.2336C43.4196 15.9045 46.9951 9.41176 52.4944 5.4093C43.2969 8.04322 36.5645 16.5255 36.5645 26.5826C36.5645 38.7435 46.4082 48.6019 58.5512 48.6019C63.3758 48.6019 67.8376 47.0456 71.4631 44.4069Z" fill="#5551FF"/>
<path d="M62.8147 14.4426C62.8147 16.8471 60.8684 18.7962 58.4675 18.7962C56.0667 18.7962 54.1204 16.8471 54.1204 14.4426C54.1204 12.0382 56.0667 10.089 58.4675 10.089C60.8684 10.089 62.8147 12.0382 62.8147 14.4426Z" fill="#5551FF"/>
<path d="M58.8019 42.0714C58.8019 43.551 57.6416 44.7505 56.2104 44.7505C54.7791 44.7505 53.6188 43.551 53.6188 42.0714C53.6188 40.5917 54.7791 39.3922 56.2104 39.3922C57.6416 39.3922 58.8019 40.5917 58.8019 42.0714Z" fill="#5551FF"/>
<path fill-rule="evenodd" clip-rule="evenodd" d="M59.3036 42.0714C59.3036 43.8133 57.9336 45.2529 56.2104 45.2529C54.4872 45.2529 53.1172 43.8133 53.1172 42.0714C53.1172 40.3295 54.4872 38.8899 56.2104 38.8899C57.9336 38.8899 59.3036 40.3295 59.3036 42.0714ZM56.2104 44.7505C57.6417 44.7505 58.802 43.551 58.802 42.0714C58.802 40.5917 57.6417 39.3922 56.2104 39.3922C54.7791 39.3922 53.6188 40.5917 53.6188 42.0714C53.6188 43.551 54.7791 44.7505 56.2104 44.7505Z" fill="#699BF7"/>
<path d="M71.0074 37.048C71.0074 37.8804 70.3711 38.5551 69.5862 38.5551C68.8013 38.5551 68.165 37.8804 68.165 37.048C68.165 36.2157 68.8013 35.541 69.5862 35.541C70.3711 35.541 71.0074 36.2157 71.0074 37.048Z" fill="#5551FF"/>
<path d="M50.7763 16.6195C50.7763 17.4518 50.1401 18.1265 49.3552 18.1265C48.5702 18.1265 47.934 17.4518 47.934 16.6195C47.934 15.7871 48.5702 15.1124 49.3552 15.1124C50.1401 15.1124 50.7763 15.7871 50.7763 16.6195Z" fill="#5551FF"/>
<path d="M73.5155 21.4754C73.5155 22.9551 72.3552 24.1546 70.9239 24.1546C69.4926 24.1546 68.3323 22.9551 68.3323 21.4754C68.3323 19.9958 69.4926 18.7963 70.9239 18.7963C72.3552 18.7963 73.5155 19.9958 73.5155 21.4754Z" fill="#5551FF"/>
<path d="M63.6507 29.3455C63.6507 30.3627 62.8647 31.1874 61.8951 31.1874C60.9255 31.1874 60.1395 30.3627 60.1395 29.3455C60.1395 28.3282 60.9255 27.5035 61.8951 27.5035C62.8647 27.5035 63.6507 28.3282 63.6507 29.3455Z" fill="#5551FF"/>
<path d="M46.0947 29.8477C46.0947 30.5876 45.4959 31.1873 44.7571 31.1873C44.0184 31.1873 43.4196 30.5876 43.4196 29.8477C43.4196 29.1079 44.0184 28.5082 44.7571 28.5082C45.4959 28.5082 46.0947 29.1079 46.0947 29.8477Z" fill="#5551FF"/>
<path fill-rule="evenodd" clip-rule="evenodd" d="M46.5964 29.8478C46.5964 30.865 45.7729 31.6897 44.7572 31.6897C43.7414 31.6897 42.918 30.865 42.918 29.8478C42.918 28.8305 43.7414 28.0059 44.7572 28.0059C45.7729 28.0059 46.5964 28.8305 46.5964 29.8478ZM44.7572 31.1874C45.4959 31.1874 46.0948 30.5876 46.0948 29.8478C46.0948 29.1079 45.4959 28.5082 44.7572 28.5082C44.0184 28.5082 43.4196 29.1079 43.4196 29.8478C43.4196 30.5876 44.0184 31.1874 44.7572 31.1874Z" fill="#699BF7"/>
<path d="M77.361 26.6663C77.361 26.9437 77.1364 27.1686 76.8594 27.1686C76.5824 27.1686 76.3578 26.9437 76.3578 26.6663C76.3578 26.3888 76.5824 26.1639 76.8594 26.1639C77.1364 26.1639 77.361 26.3888 77.361 26.6663Z" fill="#5551FF"/>
<path d="M53.6188 28.0059C53.6188 28.2833 53.3942 28.5082 53.1172 28.5082C52.8402 28.5082 52.6156 28.2833 52.6156 28.0059C52.6156 27.7284 52.8402 27.5035 53.1172 27.5035C53.3942 27.5035 53.6188 27.7284 53.6188 28.0059Z" fill="#5551FF"/>
<path fill-rule="evenodd" clip-rule="evenodd" d="M58.5511 47.9321C70.3247 47.9321 79.869 38.3736 79.869 26.5826C79.869 19.7895 76.7019 13.7377 71.763 9.82642C68.1307 6.94983 63.542 5.23302 58.5511 5.23302C46.7776 5.23302 37.2332 14.7915 37.2332 26.5826C37.2332 38.3736 46.7776 47.9321 58.5511 47.9321ZM58.5511 48.6019C70.6941 48.6019 80.5378 38.7435 80.5378 26.5826C80.5378 19.576 77.2702 13.3338 72.1779 9.30104C68.4317 6.33428 63.6979 4.56323 58.5511 4.56323C46.4082 4.56323 36.5645 14.4216 36.5645 26.5826C36.5645 38.7435 46.4082 48.6019 58.5511 48.6019Z" fill="black"/>
<path fill-rule="evenodd" clip-rule="evenodd" d="M79.7019 26.5826C79.7019 20.0936 77.4171 14.6028 71.4109 9.65888L71.9417 9.01208C78.1411 14.115 80.5379 19.8432 80.5379 26.5826H79.7019Z" fill="#699BF7"/>
<path d="M73.6906 10.6782C73.0368 11.6865 71.722 11.9935 70.7539 11.3639C69.7859 10.7343 69.5311 9.40653 70.185 8.39826C70.8388 7.38999 72.1535 7.08302 73.1216 7.71261C74.0896 8.3422 74.3444 9.66995 73.6906 10.6782Z" fill="white"/>
<path fill-rule="evenodd" clip-rule="evenodd" d="M71.1182 10.8021C71.7559 11.2169 72.6634 11.0324 73.1297 10.3134C73.5959 9.59443 73.3951 8.68911 72.7573 8.27434C72.1196 7.85957 71.2121 8.04406 70.7459 8.76306C70.2796 9.48206 70.4805 10.3874 71.1182 10.8021ZM70.7539 11.3639C71.722 11.9935 73.0368 11.6865 73.6906 10.6782C74.3444 9.66995 74.0896 8.3422 73.1216 7.71261C72.1535 7.08302 70.8388 7.38999 70.185 8.39826C69.5311 9.40653 69.7859 10.7343 70.7539 11.3639Z" fill="black"/>
<path d="M82.0504 27.7578C81.3966 28.7661 80.0819 29.0731 79.1138 28.4435C78.1458 27.8139 77.891 26.4861 78.5448 25.4779C79.1986 24.4696 80.5134 24.1626 81.4815 24.7922C82.4495 25.4218 82.7043 26.7495 82.0504 27.7578Z" fill="white"/>
<path fill-rule="evenodd" clip-rule="evenodd" d="M79.4781 27.8817C80.1158 28.2965 81.0233 28.112 81.4895 27.393C81.9558 26.674 81.7549 25.7687 81.1172 25.3539C80.4795 24.9392 79.5719 25.1236 79.1057 25.8426C78.6395 26.5616 78.8403 27.467 79.4781 27.8817ZM79.1138 28.4435C80.0819 29.0731 81.3966 28.7661 82.0504 27.7578C82.7043 26.7495 82.4495 25.4218 81.4815 24.7922C80.5134 24.1626 79.1986 24.4696 78.5448 25.4779C77.891 26.4861 78.1458 27.8139 79.1138 28.4435Z" fill="black"/>
<path d="M38.2443 27.7578C37.5905 28.7661 36.2757 29.0731 35.3077 28.4435C34.3396 27.8139 34.0849 26.4861 34.7387 25.4779C35.3925 24.4696 36.7072 24.1626 37.6753 24.7922C38.6434 25.4218 38.8981 26.7495 38.2443 27.7578Z" fill="white"/>
<path fill-rule="evenodd" clip-rule="evenodd" d="M35.6719 27.8817C36.3097 28.2965 37.2172 28.112 37.6834 27.393C38.1496 26.674 37.9488 25.7687 37.311 25.3539C36.6733 24.9392 35.7658 25.1236 35.2996 25.8426C34.8333 26.5616 35.0342 27.467 35.6719 27.8817ZM35.3077 28.4435C36.2757 29.0731 37.5905 28.7661 38.2443 27.7578C38.8981 26.7495 38.6434 25.4218 37.6753 24.7922C36.7072 24.1626 35.3925 24.4696 34.7387 25.4779C34.0849 26.4861 34.3396 27.8139 35.3077 28.4435Z" fill="black"/>
<path d="M60.2877 49.6933C59.6339 50.7016 58.3192 51.0086 57.3511 50.379C56.3831 49.7494 56.1283 48.4217 56.7821 47.4134C57.4359 46.4051 58.7507 46.0982 59.7188 46.7277C60.6868 47.3573 60.9416 48.6851 60.2877 49.6933Z" fill="white"/>
<path fill-rule="evenodd" clip-rule="evenodd" d="M57.7154 49.8173C58.3531 50.232 59.2606 50.0476 59.7268 49.3286C60.1931 48.6096 59.9922 47.7042 59.3545 47.2895C58.7168 46.8747 57.8093 47.0592 57.343 47.7782C56.8768 48.4972 57.0776 49.4025 57.7154 49.8173ZM57.3511 50.379C58.3192 51.0086 59.6339 50.7016 60.2877 49.6933C60.9416 48.6851 60.6868 47.3573 59.7188 46.7277C58.7507 46.0982 57.4359 46.4051 56.7821 47.4134C56.1283 48.4217 56.3831 49.7494 57.3511 50.379Z" fill="black"/>
<path d="M60.2877 5.82226C59.6339 6.83053 58.3192 7.13751 57.3511 6.50791C56.3831 5.87832 56.1283 4.55057 56.7821 3.5423C57.4359 2.53404 58.7507 2.22706 59.7188 2.85665C60.6868 3.48625 60.9416 4.81399 60.2877 5.82226Z" fill="white"/>
<path fill-rule="evenodd" clip-rule="evenodd" d="M57.7154 5.94618C58.3531 6.36095 59.2606 6.17647 59.7268 5.45747C60.1931 4.73847 59.9922 3.83316 59.3545 3.41839C58.7168 3.00362 57.8093 3.1881 57.343 3.9071C56.8768 4.6261 57.0776 5.53141 57.7154 5.94618ZM57.3511 6.50791C58.3192 7.13751 59.6339 6.83053 60.2877 5.82226C60.9416 4.81399 60.6868 3.48625 59.7188 2.85665C58.7507 2.22706 57.4359 2.53404 56.7821 3.5423C56.1283 4.55057 56.3831 5.87832 57.3511 6.50791Z" fill="black"/>
<path d="M74.5071 16.474C74.8678 18.2269 76.4175 19.5448 78.2746 19.5448C78.6958 19.5448 79.1012 19.477 79.4805 19.3517L81.2667 21.1405L83.7394 18.6641L81.9406 16.8626C82.0579 16.4936 82.1212 16.1004 82.1212 15.6924C82.1212 13.8998 80.8986 12.3931 79.2429 11.9632L72.6794 10.089L74.5071 16.474Z" fill="white"/>
<path d="M81.2667 20.15L79.9751 18.8564L79.6705 18.5514L79.2614 18.6865C78.9336 18.7969 78.638 18.8467 78.2746 18.8444C76.756 18.8444 75.4872 17.7665 75.1921 16.3326L75.1868 16.3066L75.1795 16.281L73.6988 11.1084L79.0511 12.6368L79.0592 12.6391L79.0674 12.6412C80.4222 12.993 81.4218 14.2267 81.4218 15.6924C81.4241 16.0444 81.3776 16.3311 81.2741 16.65L81.1449 17.0563L81.446 17.3578L82.7503 18.6641L81.2667 20.15ZM74.5071 16.474C74.8678 18.2269 76.4175 19.5448 78.2746 19.5448C78.6958 19.5448 79.1012 19.477 79.4805 19.3517L80.7722 20.6452L81.2667 21.1405L81.7613 20.6452L83.2449 19.1593L83.7394 18.6641L83.2449 18.1688L81.9406 16.8626C82.0579 16.4936 82.1212 16.1004 82.1212 15.6924C82.1212 13.8998 80.8986 12.3931 79.2429 11.9632L73.4718 10.3152L72.6794 10.089L72.9065 10.8822L74.5071 16.474Z" fill="black"/>
<path d="M73.6262 10.5418L73.3789 10.2942L72.8844 10.7895L73.1317 11.0371L78.0274 15.9401L78.2747 16.1878L78.7692 15.6925L78.5219 15.4448L73.6262 10.5418Z" fill="black"/>
<path d="M79.3235 15.6925C79.3235 16.2727 78.8538 16.7431 78.2744 16.7431C77.695 16.7431 77.2253 16.2727 77.2253 15.6925C77.2253 15.1122 77.695 14.6418 78.2744 14.6418C78.8538 14.6418 79.3235 15.1122 79.3235 15.6925Z" fill="black"/>
<path d="M78.7562 99.9264L81.3572 102.531L73.6724 110.227L71.0714 107.623L78.7562 99.9264Z" fill="#5551FF"/>
<path d="M76.2736 97.4399L78.9928 100.163L71.308 107.859L68.5888 105.136L76.2736 97.4399Z" fill="#699BF7"/>
<path fill-rule="evenodd" clip-rule="evenodd" d="M85.3771 107.504L76.2736 98.3872L69.5346 105.136L78.6381 114.253L85.3771 107.504ZM76.2736 97.4399L68.5888 105.136L78.6381 115.2L86.3229 107.504L76.2736 97.4399Z" fill="black"/>
<path d="M78.7562 99.9264L81.3572 102.531L73.6724 110.227L71.0714 107.623L78.7562 99.9264Z" fill="#5551FF"/>
<path d="M76.2736 97.4399L78.9928 100.163L71.308 107.859L68.5888 105.136L76.2736 97.4399Z" fill="#699BF7"/>
<path fill-rule="evenodd" clip-rule="evenodd" d="M85.3771 107.504L76.2736 98.3872L69.5346 105.136L78.6381 114.253L85.3771 107.504ZM76.2736 97.4399L68.5888 105.136L78.6381 115.2L86.3229 107.504L76.2736 97.4399Z" fill="black"/>
<path d="M56.766 77.9034L54.0468 75.1802L46.362 82.8764L49.0812 85.5996L56.766 77.9034Z" fill="#5551FF"/>
<path d="M59.1305 80.2715L56.5295 77.6666L48.8447 85.3628L51.4457 87.9677L59.1305 80.2715Z" fill="#699BF7"/>
<path d="M61.6133 82.7579L59.0123 80.1531L51.3274 87.8493L53.9285 90.4541L61.6133 82.7579Z" fill="#5551FF"/>
<path d="M64.0961 85.2444L61.3768 82.5211L53.692 90.2173L56.4112 92.9406L64.0961 85.2444Z" fill="#699BF7"/>
<path d="M55.2882 97.1439C53.1008 99.3345 53.3654 103.151 55.8793 105.669C58.3932 108.187 62.2043 108.452 64.3917 106.261C66.5791 104.07 66.3144 100.254 63.8005 97.7359C61.2867 95.2183 57.4755 94.9533 55.2882 97.1439Z" fill="#699BF7"/>
<path fill-rule="evenodd" clip-rule="evenodd" d="M56.3522 105.195C54.0356 102.875 53.8945 99.4869 55.7611 97.6175C57.6276 95.7482 61.011 95.8895 63.3276 98.2095C65.6442 100.53 65.7853 103.918 63.9188 105.787C62.0522 107.657 58.6688 107.515 56.3522 105.195ZM55.8793 105.669C53.3654 103.151 53.1008 99.3345 55.2882 97.1439C57.4755 94.9533 61.2867 95.2183 63.8005 97.7359C66.3144 100.254 66.5791 104.07 64.3917 106.261C62.2043 108.452 58.3932 108.187 55.8793 105.669Z" fill="#699BF7"/>
<path fill-rule="evenodd" clip-rule="evenodd" d="M54.0467 76.1273L63.1502 85.2444L56.4113 91.9934L47.3078 82.8763L54.0467 76.1273ZM64.0961 85.2444L56.4113 92.9406L46.3619 82.8763L54.0467 75.1801L64.0961 85.2444Z" fill="black"/>
<path d="M58.1256 86.9612C54.1099 90.9828 54.5334 97.9273 59.0714 102.472C63.6094 107.017 70.5435 107.441 74.5592 103.419C78.5749 99.3976 78.1514 92.4532 73.6134 87.9084C69.0754 83.3637 62.1412 82.9396 58.1256 86.9612Z" fill="#5551FF"/>
<path fill-rule="evenodd" clip-rule="evenodd" d="M59.5443 101.998C55.2114 97.6591 54.8967 91.1421 58.5985 87.4348C62.3003 83.7275 68.8076 84.0428 73.1405 88.382C77.4733 92.7213 77.7881 99.2384 74.0863 102.946C70.3845 106.653 63.8771 106.338 59.5443 101.998ZM59.0714 102.472C54.5334 97.9273 54.1099 90.9828 58.1256 86.9612C62.1412 82.9396 69.0754 83.3637 73.6134 87.9084C78.1514 92.4532 78.5749 99.3976 74.5592 103.419C70.5435 107.441 63.6094 107.017 59.0714 102.472Z" fill="#5551FF"/>
<path fill-rule="evenodd" clip-rule="evenodd" d="M76.1865 84.5028C75.4131 83.3927 75.5209 81.854 76.5099 80.8635C77.62 79.7518 79.4197 79.7518 80.5297 80.8635C81.6397 81.9752 81.6397 83.7775 80.5297 84.8892C79.5826 85.8377 78.1333 85.9769 77.0388 85.3068L67.4065 94.9535L66.5789 94.1247L76.1865 84.5028Z" fill="#699BF7"/>
<mask id="mask0" mask-type="alpha" maskUnits="userSpaceOnUse" x="77" y="60" width="24" height="24">
<path d="M100.491 83.6064V60.8336H77.7515V83.6064H100.491Z" fill="#C4C4C4"/>
</mask>
<g mask="url(#mask0)">
<path fill-rule="evenodd" clip-rule="evenodd" d="M65.8695 95.5455C61.1683 90.8373 61.1683 83.2037 65.8695 78.4955C70.5708 73.7872 78.193 73.7872 82.8943 78.4955C87.5956 83.2037 87.5956 90.8373 82.8943 95.5455C78.193 100.254 70.5708 100.254 65.8695 95.5455ZM64.9237 96.4928C59.7001 91.2614 59.7001 82.7796 64.9237 77.5483C70.1473 72.3169 78.6165 72.3169 83.8401 77.5483C89.0638 82.7796 89.0638 91.2614 83.8401 96.4928C78.6165 101.724 70.1473 101.724 64.9237 96.4928Z" fill="black"/>
<path fill-rule="evenodd" clip-rule="evenodd" d="M63.505 97.9136C57.4978 91.8975 57.4978 82.1435 63.505 76.1274C69.5122 70.1113 79.2517 70.1113 85.2589 76.1274C91.2661 82.1435 91.2661 91.8975 85.2589 97.9136C79.2517 103.93 69.5122 103.93 63.505 97.9136ZM62.5592 98.8608C56.0296 92.3216 56.0296 81.7194 62.5592 75.1802C69.0887 68.641 79.6752 68.641 86.2047 75.1802C92.7342 81.7194 92.7342 92.3216 86.2047 98.8608C79.6752 105.4 69.0887 105.4 62.5592 98.8608Z" fill="black"/>
<path fill-rule="evenodd" clip-rule="evenodd" d="M61.1405 100.282C53.8274 92.9576 53.8274 81.0832 61.1405 73.7592C68.4535 66.4353 80.3104 66.4353 87.6235 73.7592C94.9365 81.0832 94.9365 92.9576 87.6235 100.282C80.3104 107.605 68.4535 107.605 61.1405 100.282ZM60.1946 101.229C52.3592 93.3817 52.3592 80.6591 60.1946 72.812C68.0301 64.965 80.7338 64.965 88.5693 72.812C96.4047 80.6591 96.4047 93.3817 88.5693 101.229C80.7338 109.076 68.0301 109.076 60.1946 101.229Z" fill="black"/>
</g>
<path fill-rule="evenodd" clip-rule="evenodd" d="M93.5794 67.6909H47.098V114.576H93.5794V67.6909ZM46.4292 67.0211V115.246H94.2482V67.0211H46.4292Z" fill="#699BF7"/>
<path d="M92.5762 69.0304H95.9202V65.6814H92.5762V69.0304Z" fill="white"/>
<path fill-rule="evenodd" clip-rule="evenodd" d="M95.4186 68.5281H93.0778V66.1838H95.4186V68.5281ZM92.5762 69.0304V65.6814H95.9202V69.0304H92.5762Z" fill="black"/>
<path d="M44.7573 69.0304H48.1013V65.6814H44.7573V69.0304Z" fill="white"/>
<path fill-rule="evenodd" clip-rule="evenodd" d="M47.5997 68.5281H45.2589V66.1838H47.5997V68.5281ZM44.7573 69.0304V65.6814H48.1013V69.0304H44.7573Z" fill="black"/>
<path fill-rule="evenodd" clip-rule="evenodd" d="M9.06012 80.5843C18.2481 80.5843 25.6964 73.125 25.6964 63.9233C25.6964 54.7217 18.2481 47.2623 9.06012 47.2623C-0.127867 47.2623 -7.5762 54.7217 -7.5762 63.9233C-7.5762 73.125 -0.127867 80.5843 9.06012 80.5843ZM9.06012 81.2541C18.6175 81.2541 26.3652 73.4949 26.3652 63.9233C26.3652 54.3518 18.6175 46.5925 9.06012 46.5925C-0.497233 46.5925 -8.245 54.3518 -8.245 63.9233C-8.245 73.4949 -0.497233 81.2541 9.06012 81.2541Z" fill="black"/>
<mask id="mask1" mask-type="alpha" maskUnits="userSpaceOnUse" x="-9" y="46" width="36" height="36">
<path d="M26.3652 63.9233C26.3652 73.4949 18.6175 81.2541 9.06012 81.2541C-0.497233 81.2541 -8.245 73.4949 -8.245 63.9233C-8.245 54.3518 -0.497233 46.5925 9.06012 46.5925C18.6175 46.5925 26.3652 54.3518 26.3652 63.9233Z" fill="black"/>
</mask>
<g mask="url(#mask1)">
<path fill-rule="evenodd" clip-rule="evenodd" d="M20.953 38.1517C23.9777 39.9662 25.6964 42.3795 25.6964 44.9181C25.6964 47.4567 23.9777 49.8699 20.953 51.6845C17.9418 53.491 13.7386 54.63 9.06012 54.63C4.38163 54.63 0.178451 53.491 -2.83276 51.6845C-5.85745 49.8699 -7.5762 47.4567 -7.5762 44.9181C-7.5762 42.3795 -5.85745 39.9662 -2.83276 38.1517C0.178451 36.3452 4.38163 35.2061 9.06012 35.2061C13.7386 35.2061 17.9418 36.3452 20.953 38.1517ZM9.06012 34.5363C18.6175 34.5363 26.3652 39.1844 26.3652 44.9181C26.3652 50.6517 18.6175 55.2998 9.06012 55.2998C-0.497233 55.2998 -8.245 50.6517 -8.245 44.9181C-8.245 39.1844 -0.497233 34.5363 9.06012 34.5363Z" fill="black"/>
<path fill-rule="evenodd" clip-rule="evenodd" d="M20.953 89.695C23.9777 87.8804 25.6964 85.4672 25.6964 82.9286C25.6964 80.39 23.9777 77.9768 20.953 76.1622C17.9418 74.3557 13.7386 73.2167 9.06012 73.2167C4.38163 73.2167 0.178451 74.3557 -2.83276 76.1622C-5.85745 77.9768 -7.5762 80.39 -7.5762 82.9286C-7.5762 85.4672 -5.85745 87.8804 -2.83276 89.695C0.178451 91.5015 4.38163 92.6406 9.06012 92.6406C13.7386 92.6406 17.9418 91.5015 20.953 89.695ZM9.06012 93.3103C18.6175 93.3103 26.3652 88.6623 26.3652 82.9286C26.3652 77.1949 18.6175 72.5469 9.06012 72.5469C-0.497233 72.5469 -8.245 77.1949 -8.245 82.9286C-8.245 88.6623 -0.497233 93.3103 9.06012 93.3103Z" fill="black"/>
</g>
<path fill-rule="evenodd" clip-rule="evenodd" d="M15.6355 75.8401C17.3963 72.8233 18.5069 68.6116 18.5069 63.9233C18.5069 59.2351 17.3963 55.0234 15.6355 52.0066C13.8652 48.9736 11.5175 47.2623 9.06013 47.2623C6.60272 47.2623 4.25501 48.9736 2.48474 52.0066C0.723936 55.0234 -0.386623 59.2351 -0.386623 63.9233C-0.386623 68.6116 0.723936 72.8233 2.48474 75.8401C4.25501 78.873 6.60272 80.5843 9.06013 80.5843C11.5175 80.5843 13.8652 78.873 15.6355 75.8401ZM9.06013 81.2541C14.6468 81.2541 19.1757 73.4949 19.1757 63.9233C19.1757 54.3518 14.6468 46.5925 9.06013 46.5925C3.47346 46.5925 -1.05542 54.3518 -1.05542 63.9233C-1.05542 73.4949 3.47346 81.2541 9.06013 81.2541Z" fill="black"/>
<path fill-rule="evenodd" clip-rule="evenodd" d="M26.3652 63.8396H-8.245V63.1698H26.3652V63.8396Z" fill="black"/>
<path fill-rule="evenodd" clip-rule="evenodd" d="M9.06016 46.5088L9.06016 81.1704H8.39136L8.39136 46.5088H9.06016Z" fill="black"/>
<path fill-rule="evenodd" clip-rule="evenodd" d="M25.7761 46.7632H-7.65576V80.5812H25.7761V46.7632ZM-8.32776 46.0902V81.2542H26.4481V46.0902H-8.32776Z" fill="#699BF7"/>
<path d="M24.6934 82.7611H28.0373V79.4121H24.6934V82.7611Z" fill="white"/>
<path fill-rule="evenodd" clip-rule="evenodd" d="M27.5357 82.2588H25.195V79.9145H27.5357V82.2588ZM24.6934 82.7611V79.4121H28.0373V82.7611H24.6934Z" fill="black"/>
<path d="M24.6934 48.0995H28.0373V44.7505H24.6934V48.0995Z" fill="white"/>
<path fill-rule="evenodd" clip-rule="evenodd" d="M27.5357 47.5971H25.195V45.2529H27.5357V47.5971ZM24.6934 48.0995V44.7505H28.0373V48.0995H24.6934Z" fill="black"/>
<path d="M82.5442 53.3741C82.5442 54.2526 81.8331 54.9648 80.9558 54.9648C80.0786 54.9648 79.3674 54.2526 79.3674 53.3741C79.3674 52.4955 80.0786 51.7833 80.9558 51.7833C81.8331 51.7833 82.5442 52.4955 82.5442 53.3741Z" fill="black"/>
<path d="M26.3652 92.2454L30.8181 91.1335L31.9283 95.5929L27.4755 96.7048L26.3652 92.2454Z" fill="black"/>
<path fill-rule="evenodd" clip-rule="evenodd" d="M20.0163 31.4166L20.777 31.5995L20.1742 34.114L22.4366 32.7255L22.8408 33.3861L20.5783 34.7745L23.0891 35.3782L22.9065 36.14L20.3963 35.5365L21.7834 37.8033L21.1235 38.2083L19.7362 35.9411L19.1334 38.4556L18.3728 38.2727L18.9756 35.7582L16.7115 37.1477L16.3073 36.4871L18.5713 35.0977L16.0606 34.494L16.2432 33.7322L18.754 34.3359L17.3676 32.0702L18.0276 31.6652L19.4137 33.9306L20.0163 31.4166Z" fill="black"/>
</g>
<rect x="1" y="1" width="100" height="100" stroke="black" stroke-width="2"/>
<defs>
<clipPath id="clip0">
<rect x="1" y="1" width="100" height="100" fill="white"/>
</clipPath>
</defs>
</svg>
