<svg width="102" height="102" viewBox="0 0 102 102" fill="none" xmlns="http://www.w3.org/2000/svg">
<g clip-path="url(#clip0)">
<rect x="1" y="1" width="100" height="100" fill="white"/>
<path d="M97.2016 44.5296C73.2337 49.4979 49.7455 34.0023 44.7392 9.91924C39.7329 -14.1638 55.1043 -37.7145 79.0722 -42.6828C103.04 -47.6511 126.528 -32.1555 131.535 -8.07244C136.541 16.0106 121.169 39.5614 97.2016 44.5296Z" fill="#5551FF"/>
<path fill-rule="evenodd" clip-rule="evenodd" d="M45.804 9.69851C50.6875 33.1906 73.5994 48.306 96.9792 43.4597C120.359 38.6133 135.353 15.6404 130.47 -7.85171C125.586 -31.3438 102.674 -46.4592 79.2946 -41.6129C55.9148 -36.7665 40.9206 -13.7936 45.804 9.69851ZM44.7392 9.91924C49.7455 34.0023 73.2337 49.4979 97.2016 44.5296C121.169 39.5614 136.541 16.0106 131.535 -8.07244C126.528 -32.1555 103.04 -47.6511 79.0722 -42.6828C55.1043 -37.7145 39.7329 -14.1638 44.7392 9.91924Z" fill="black"/>
<mask id="mask0" mask-type="alpha" maskUnits="userSpaceOnUse" x="43" y="-44" width="90" height="90">
<path d="M97.2022 44.5321C73.2329 49.5007 49.7432 34.0042 44.7367 9.9197C39.7301 -14.1648 55.1024 -37.7169 79.0717 -42.6855C103.041 -47.6541 126.531 -32.1575 131.537 -8.07306C136.544 16.0114 121.171 39.5636 97.2022 44.5321Z" fill="#5551FF"/>
</mask>
<g mask="url(#mask0)">
<path fill-rule="evenodd" clip-rule="evenodd" d="M54.5022 -63.1913L156.479 4.08459L155.883 4.99723L53.9066 -62.2786L54.5022 -63.1913Z" fill="black"/>
<path fill-rule="evenodd" clip-rule="evenodd" d="M51.2182 -58.1597L153.195 9.11615L152.599 10.0288L50.6225 -57.2471L51.2182 -58.1597Z" fill="black"/>
<path fill-rule="evenodd" clip-rule="evenodd" d="M47.8169 -52.9484L149.794 14.3275L149.198 15.2401L47.2212 -52.0358L47.8169 -52.9484Z" fill="black"/>
<path fill-rule="evenodd" clip-rule="evenodd" d="M44.5329 -47.9169L146.51 19.3589L145.914 20.2716L43.9372 -47.0043L44.5329 -47.9169Z" fill="black"/>
<path fill-rule="evenodd" clip-rule="evenodd" d="M41.1314 -42.7057L143.108 24.5701L142.512 25.4828L40.5357 -41.7931L41.1314 -42.7057Z" fill="black"/>
<path fill-rule="evenodd" clip-rule="evenodd" d="M37.8473 -37.6741L139.824 29.6017L139.228 30.5144L37.2516 -36.7615L37.8473 -37.6741Z" fill="black"/>
<path fill-rule="evenodd" clip-rule="evenodd" d="M34.4462 -32.463L136.423 34.8129L135.827 35.7255L33.8505 -31.5503L34.4462 -32.463Z" fill="black"/>
<path fill-rule="evenodd" clip-rule="evenodd" d="M31.1621 -27.4312L133.139 39.8446L132.543 40.7572L30.5665 -26.5186L31.1621 -27.4312Z" fill="black"/>
<path fill-rule="evenodd" clip-rule="evenodd" d="M27.7607 -22.2201L129.737 45.0558L129.142 45.9684L27.165 -21.3075L27.7607 -22.2201Z" fill="black"/>
<path fill-rule="evenodd" clip-rule="evenodd" d="M24.4767 -17.1886L126.453 50.0873L125.858 51L23.881 -16.2759L24.4767 -17.1886Z" fill="black"/>
<path fill-rule="evenodd" clip-rule="evenodd" d="M21.0752 -11.9773L123.052 55.2986L122.456 56.2112L20.4795 -11.0646L21.0752 -11.9773Z" fill="black"/>
<path fill-rule="evenodd" clip-rule="evenodd" d="M17.7913 -6.94563L119.768 60.3302L119.172 61.2428L17.1956 -6.03299L17.7913 -6.94563Z" fill="black"/>
<path fill-rule="evenodd" clip-rule="evenodd" d="M14.3899 -1.73447L116.367 65.5414L115.771 66.454L13.7943 -0.821829L14.3899 -1.73447Z" fill="black"/>
<path fill-rule="evenodd" clip-rule="evenodd" d="M11.106 3.29696L113.083 70.5728L112.487 71.4855L10.5103 4.2096L11.106 3.29696Z" fill="black"/>
<path fill-rule="evenodd" clip-rule="evenodd" d="M7.70449 8.50818L109.681 75.7841L109.085 76.6967L7.10881 9.42082L7.70449 8.50818Z" fill="black"/>
</g>
<path d="M45.0901 11.6072C44.1623 11.7995 43.2531 11.1997 43.0593 10.2674C42.8655 9.33518 43.4606 8.42354 44.3883 8.23122C45.3161 8.0389 46.2253 8.63873 46.4191 9.57098C46.6129 10.5032 46.0179 11.4149 45.0901 11.6072Z" fill="white"/>
<path fill-rule="evenodd" clip-rule="evenodd" d="M45.3125 12.6771C43.7966 12.9914 42.3111 12.0113 41.9945 10.4882C41.6778 8.96502 42.65 7.47552 44.1659 7.1613C45.6818 6.84708 47.1673 7.82711 47.484 9.35027C47.8006 10.8734 46.8284 12.3629 45.3125 12.6771ZM43.0593 10.2674C43.2531 11.1997 44.1623 11.7995 45.0901 11.6072C46.0179 11.4149 46.6129 10.5032 46.4191 9.57099C46.2253 8.63875 45.3161 8.03892 44.3883 8.23124C43.4605 8.42356 42.8655 9.3352 43.0593 10.2674Z" fill="black"/>
<path d="M98.8815 44.1814C99.0753 45.1136 98.4803 46.0252 97.5525 46.2176C96.6247 46.4099 95.7155 45.8101 95.5217 44.8778C95.3279 43.9456 95.9229 43.0339 96.8507 42.8416C97.7785 42.6493 98.6877 43.2491 98.8815 44.1814Z" fill="white"/>
<path fill-rule="evenodd" clip-rule="evenodd" d="M99.9463 43.9606C100.263 45.4838 99.2908 46.9733 97.7749 47.2875C96.259 47.6017 94.7735 46.6217 94.4568 45.0985C94.1402 43.5754 95.1124 42.0859 96.6283 41.7717C98.1442 41.4575 99.6297 42.4375 99.9463 43.9606ZM97.5525 46.2176C98.4803 46.0253 99.0753 45.1136 98.8815 44.1814C98.6877 43.2491 97.7785 42.6493 96.8507 42.8416C95.9229 43.0339 95.3279 43.9456 95.5217 44.8778C95.7155 45.8101 96.6247 46.4099 97.5525 46.2176Z" fill="black"/>
<path fill-rule="evenodd" clip-rule="evenodd" d="M51 25.9315C51 29.847 48.6279 33.4106 44.7471 36.0736C48.6279 38.7366 51 42.3002 51 46.2157C51 50.1313 48.6279 53.6948 44.7471 56.3579C48.6279 59.0209 51 62.5844 51 66.5C51 70.4156 48.6279 73.9791 44.7471 76.6421C48.6279 79.3052 51 82.8687 51 86.7843C51 90.6998 48.6279 94.2634 44.7471 96.9264C48.6279 99.5894 51 103.153 51 107.069C51 115.315 40.4787 122 27.5 122C14.5213 122 4 115.315 4 107.069C4 103.153 6.37206 99.5894 10.2529 96.9264C6.37206 94.2634 4 90.6998 4 86.7843C4 82.8687 6.37206 79.3052 10.2529 76.6421C6.37206 73.9791 4 70.4156 4 66.5C4 62.5844 6.37206 59.0209 10.2529 56.3579C6.37206 53.6948 4 50.1313 4 46.2157C4 42.3002 6.37206 38.7366 10.2529 36.0736C6.37206 33.4106 4 29.847 4 25.9315C4 17.685 14.5213 11 27.5 11C40.4787 11 51 17.685 51 25.9315Z" fill="#C4BBFA"/>
<path d="M3.282 81.3347C10.6308 71.385 21.5477 64.6509 33.7544 62.538C45.9611 60.425 58.5142 63.0964 68.7937 69.9945C79.0733 76.8927 86.2849 87.4847 88.9235 99.5597C91.5621 111.635 89.4238 124.26 82.9548 134.8L65.0256 123.85C68.6647 117.921 69.8676 110.819 68.3833 104.026C66.899 97.2334 62.8422 91.275 57.0595 87.3946C51.2769 83.5141 44.2154 82.0113 37.3487 83.2C30.482 84.3886 24.3408 88.1768 20.2069 93.7738L3.282 81.3347Z" fill="#F08B7C"/>
<path fill-rule="evenodd" clip-rule="evenodd" d="M3.282 81.3347C3.28649 81.3286 3.29099 81.3225 3.29548 81.3164C3.49421 81.0476 3.69556 80.7812 3.89946 80.5171C11.2352 71.0163 21.8851 64.5926 33.7544 62.538C45.9611 60.425 58.5142 63.0964 68.7937 69.9945C79.0733 76.8927 86.2849 87.4847 88.9235 99.5597C91.4892 111.301 89.5383 123.562 83.4812 133.921C83.3091 134.216 83.1336 134.508 82.9548 134.8L65.0256 123.85C68.6647 117.921 69.8676 110.819 68.3833 104.026C66.899 97.2334 62.8422 91.275 57.0595 87.3946C51.2769 83.5141 44.2154 82.0114 37.3487 83.2C30.4832 84.3884 24.3429 88.1754 20.209 93.7709C20.2083 93.7719 20.2076 93.7728 20.2069 93.7738L3.282 81.3347ZM20.0045 92.3537L4.72574 81.1244C11.9044 71.836 22.3212 65.5559 33.9298 63.5465C45.8759 61.4786 58.1609 64.0929 68.221 70.8438C78.281 77.5947 85.3387 87.9605 87.921 99.7777C90.4303 111.261 88.525 123.253 82.6059 133.387L66.4205 123.502C69.79 117.532 70.8535 110.524 69.3858 103.808C67.8452 96.7575 63.6344 90.573 57.6323 86.5453C51.6302 82.5175 44.3006 80.9577 37.1733 82.1915C30.3836 83.3668 24.2773 86.9907 20.0045 92.3537Z" fill="black"/>
<path d="M19.9199 90.6454L22.3348 92.5496L20.4259 94.9586L18.011 93.0543L19.9199 90.6454Z" fill="white"/>
<path fill-rule="evenodd" clip-rule="evenodd" d="M19.8357 89.9266L23.0556 92.4656L20.5103 95.6775L17.2904 93.1385L19.8357 89.9266ZM20.0043 91.3643L18.7317 92.9703L20.3416 94.2398L21.6143 92.6338L20.0043 91.3643Z" fill="black"/>
<path d="M59.2537 86.8923L61.6686 88.7966L59.7596 91.2055L57.3447 89.3013L59.2537 86.8923Z" fill="white"/>
<path fill-rule="evenodd" clip-rule="evenodd" d="M59.1693 86.1735L62.3892 88.7125L59.8439 91.9244L56.624 89.3854L59.1693 86.1735ZM59.338 87.6112L58.0653 89.2172L59.6753 90.4867L60.9479 88.8807L59.338 87.6112Z" fill="black"/>
<path d="M72.9349 72.2212L75.3498 74.1254L73.4409 76.5344L71.026 74.6301L72.9349 72.2212Z" fill="white"/>
<path fill-rule="evenodd" clip-rule="evenodd" d="M72.8506 71.5023L76.0705 74.0413L73.5252 77.2533L70.3053 74.7143L72.8506 71.5023ZM73.0192 72.9401L71.7466 74.546L73.3565 75.8155L74.6292 74.2096L73.0192 72.9401Z" fill="black"/>
<path d="M4.18652 78.3626L6.60143 80.2669L4.69247 82.6758L2.27757 80.7716L4.18652 78.3626Z" fill="white"/>
<path fill-rule="evenodd" clip-rule="evenodd" d="M4.10217 77.6437L7.32204 80.1827L4.77677 83.3947L1.5569 80.8557L4.10217 77.6437ZM4.27082 79.0815L2.99819 80.6874L4.60812 81.9569L5.88076 80.351L4.27082 79.0815Z" fill="black"/>
<path d="M47.0586 15.8633C60.7916 10.5224 76.254 17.3256 81.5949 31.0586C86.9358 44.7916 80.1326 60.254 66.3996 65.5949C52.6666 70.9358 37.2041 64.1326 31.8633 50.3996C26.5224 36.6666 33.3256 21.2041 47.0586 15.8633Z" fill="#FEC62E" stroke="black" stroke-width="1.24723" stroke-linecap="square"/>
<circle r="2.77651" transform="matrix(0.931999 -0.362461 0.362462 0.931998 45.0171 37.7219)" fill="black"/>
<circle cx="63.3307" cy="30.5995" r="2.77651" transform="rotate(-21.2514 63.3307 30.5995)" fill="black"/>
<path d="M73.6488 34.1492C77.2829 43.4937 72.6538 54.0149 63.3093 57.649C53.9649 61.2831 43.4437 56.654 39.8096 47.3096" stroke="black" stroke-width="1.24723" stroke-linecap="square"/>
</g>
<rect x="1" y="1" width="100" height="100" stroke="black" stroke-width="2"/>
<defs>
<clipPath id="clip0">
<rect x="1" y="1" width="100" height="100" fill="white"/>
</clipPath>
</defs>
</svg>
