<svg width="102" height="102" viewBox="0 0 102 102" fill="none" xmlns="http://www.w3.org/2000/svg">
<rect x="1" y="1" width="100" height="100" fill="#F9D745"/>
<path d="M39.1254 15.1255C45.9269 8.32393 56.9544 8.32393 63.7559 15.1255C70.5575 21.927 70.5575 32.9545 63.7559 39.756L51.4407 52.0713L39.1254 39.756C32.3239 32.9545 32.3239 21.927 39.1254 15.1255Z" fill="#F24E1E" stroke="black" stroke-width="2.56"/>
<path d="M14.1254 27.1255C20.9269 20.3239 31.9544 20.3239 38.7559 27.1255C45.5575 33.927 45.5575 44.9545 38.7559 51.756L26.4407 64.0713L14.1254 51.756C7.32387 44.9545 7.32387 33.927 14.1254 27.1255Z" fill="#A259FF" stroke="black" stroke-width="2.56"/>
<path d="M75.695 92.101L62.4756 79.1841C55.1748 72.0503 55.1748 60.4842 62.4756 53.3504C69.7765 46.2165 81.6135 46.2166 88.9144 53.3504C96.2152 60.4842 96.2152 72.0503 88.9144 79.1841L75.695 92.101Z" fill="white"/>
<path fill-rule="evenodd" clip-rule="evenodd" d="M75.695 87.6592L64.7351 76.9501C58.6948 71.048 58.6948 61.4865 64.7351 55.5844C70.7859 49.672 80.6041 49.672 86.6549 55.5844C92.6952 61.4865 92.6952 71.048 86.6549 76.9501L75.695 87.6592ZM62.4756 79.1841L75.695 92.101L88.9144 79.1841C96.2152 72.0503 96.2152 60.4842 88.9144 53.3504C81.6135 46.2166 69.7765 46.2165 62.4756 53.3504C55.1748 60.4842 55.1748 72.0503 62.4756 79.1841Z" fill="black"/>
<path d="M81.5705 65.3254C81.5705 68.5149 78.9399 71.1006 75.6949 71.1006C72.4499 71.1006 69.8193 68.5149 69.8193 65.3254C69.8193 62.1359 72.4499 59.5503 75.6949 59.5503C78.9399 59.5503 81.5705 62.1359 81.5705 65.3254Z" fill="black"/>
<rect x="1" y="1" width="100" height="100" stroke="black" stroke-width="2"/>
</svg>
