<svg width="102" height="102" viewBox="0 0 102 102" fill="none" xmlns="http://www.w3.org/2000/svg">
<g clip-path="url(#clip0)">
<rect x="1" y="1" width="100" height="100" fill="#6392EF"/>
<path d="M0 28.3749C0 27.6156 0.614105 27 1.37164 27H100.593C101.35 27 101.964 27.6156 101.964 28.3749V107.625C101.964 108.384 101.35 109 100.593 109H1.37164C0.614099 109 0 108.384 0 107.625V28.3749Z" fill="#E5E5E5"/>
<path fill-rule="evenodd" clip-rule="evenodd" d="M100.593 27.4296H1.37164C0.850799 27.4296 0.428571 27.8528 0.428571 28.3749V107.625C0.428571 108.147 0.850794 108.57 1.37164 108.57H100.593C101.113 108.57 101.536 108.147 101.536 107.625V28.3749C101.536 27.8528 101.113 27.4296 100.593 27.4296ZM1.37164 27C0.614105 27 0 27.6156 0 28.3749V107.625C0 108.384 0.614099 109 1.37164 109H100.593C101.35 109 101.964 108.384 101.964 107.625V28.3749C101.964 27.6156 101.35 27 100.593 27H1.37164Z" fill="black"/>
<path d="M65 27H98.9971C100.103 27 101 27.6156 101 28.3749V107.625C101 108.384 100.103 109 98.9971 109H65V27Z" fill="white"/>
<path fill-rule="evenodd" clip-rule="evenodd" d="M100.628 27.4296H77.775V108.57H100.628C101.149 108.57 101.571 108.147 101.571 107.625V28.3749C101.571 27.8528 101.149 27.4296 100.628 27.4296ZM77.3464 27V109H100.628C101.386 109 102 108.384 102 107.625V28.3749C102 27.6156 101.386 27 100.628 27H77.3464Z" fill="white"/>
<path d="M0 29.927C0 28.3105 0.61432 27 1.37212 27H100.628C101.386 27 102 28.3105 102 29.927V39H0V29.927Z" fill="black"/>
<path d="M68.7499 65.7344L19 65.7344L19 89.3945L68.7499 89.3945L68.7499 65.7344Z" fill="#F9D745"/>
<path fill-rule="evenodd" clip-rule="evenodd" d="M18 65L69.6095 65L69.6095 90.3365L18 90.3365L18 65ZM21 68L21 87.3365L66.6095 87.3365L66.6095 68L21 68Z" fill="black"/>
<path d="M35.0395 75.1941H36.9754C36.9474 73.4915 35.548 72.3159 33.4208 72.3159C31.3263 72.3159 29.7915 73.4728 29.8009 75.2081C29.7962 76.6169 30.7898 77.424 32.4039 77.8111L33.4441 78.0724C34.4844 78.3243 35.0628 78.6228 35.0675 79.2666C35.0628 79.9663 34.4004 80.4421 33.3741 80.4421C32.3246 80.4421 31.5688 79.957 31.5035 79.0007H29.549C29.6003 81.0672 31.079 82.1355 33.3975 82.1355C35.7299 82.1355 37.1014 81.0206 37.1061 79.2713C37.1014 77.6805 35.9025 76.8362 34.2418 76.463L33.3835 76.2577C32.5531 76.0665 31.8581 75.7586 31.8721 75.0729C31.8721 74.4571 32.4179 74.0046 33.4068 74.0046C34.3724 74.0046 34.9649 74.4431 35.0395 75.1941Z" fill="black"/>
<path d="M40.3392 82.1355C41.3982 82.1355 42.0839 81.6737 42.4338 81.0066H42.4897V82.0002H44.3743V77.1674C44.3743 75.46 42.9282 74.7417 41.3328 74.7417C39.6162 74.7417 38.4873 75.5627 38.212 76.8688L40.05 77.0181C40.1853 76.5423 40.6098 76.1924 41.3235 76.1924C41.9999 76.1924 42.3871 76.533 42.3871 77.1207V77.1487C42.3871 77.6106 41.8973 77.6712 40.6518 77.7925C39.2337 77.9231 37.9601 78.3989 37.9601 79.999C37.9601 81.4171 38.9724 82.1355 40.3392 82.1355ZM40.9083 80.764C40.2972 80.764 39.8587 80.4795 39.8587 79.9337C39.8587 79.3739 40.3206 79.0986 41.0203 79.0007C41.4541 78.94 42.1632 78.8374 42.4011 78.6788V79.4392C42.4011 80.1902 41.7807 80.764 40.9083 80.764Z" fill="black"/>
<path d="M45.7847 82.0002H47.772V77.6992C47.772 76.9062 48.2758 76.379 48.9382 76.379C49.5913 76.379 50.0298 76.8269 50.0298 77.5313V82.0002H51.9564V77.6245C51.9564 76.8828 52.3809 76.379 53.1039 76.379C53.7383 76.379 54.2142 76.7755 54.2142 77.5732V82.0002H56.1967V77.1814C56.1967 75.628 55.2731 74.7417 53.9389 74.7417C52.8893 74.7417 52.073 75.2781 51.7791 76.0991H51.7045C51.4759 75.2688 50.7435 74.7417 49.7592 74.7417C48.7936 74.7417 48.0612 75.2548 47.7626 76.0991H47.6787V74.835H45.7847V82.0002Z" fill="black"/>
<path d="M78.0283 65.6891L82 46L65.0376 56.2582L73.2292 58.4918L78.0283 65.6891Z" fill="#F9D745"/>
<path fill-rule="evenodd" clip-rule="evenodd" d="M84.1456 42.9497L78.7844 69.5271L72.2928 59.7915L61.2678 56.7853L84.1456 42.9497ZM68.8074 55.7316L74.1657 57.1926L77.2723 61.8517L79.8545 49.0508L68.8074 55.7316Z" fill="black"/>
</g>
<rect x="1" y="1" width="100" height="100" stroke="black" stroke-width="2"/>
<defs>
<clipPath id="clip0">
<rect x="1" y="1" width="100" height="100" fill="white"/>
</clipPath>
</defs>
</svg>
