<svg width="102" height="102" viewBox="0 0 102 102" fill="none" xmlns="http://www.w3.org/2000/svg">
<rect x="1" y="1" width="100" height="100" fill="#D5BFF7"/>
<path fill-rule="evenodd" clip-rule="evenodd" d="M41.7292 33.7563H36.3695V29H41.7292V33.7563ZM41.5872 53.9173H36.547V36.1699H41.5872V53.9173ZM33.7767 53.9173H15V29.071H20.3952V49.3385H33.7767V53.9173ZM46.4267 53.9173H51.4669V45.505C51.4669 43.6238 51.5024 39.7904 55.0164 39.7904C56.7557 39.7904 57.856 40.7842 57.856 43.1269V53.9173H62.8962V42.1685C62.8962 38.2286 60.7666 35.6375 56.8621 35.6375C54.0226 35.6375 52.2478 37.7317 51.4314 40.2518H49.2308C50.1891 38.8675 50.9345 37.3413 50.97 36.1699H46.4267V53.9173ZM87.1278 53.9173H80.7742L75.237 46.5699L72.6459 49.0545V53.9173H67.6057V29.071H72.6459V36.9153C72.6459 40.4648 71.6876 41.7781 70.0903 43.0914L71.4391 44.5467L79.7804 36.1699H85.9564L78.7155 43.1979L87.1278 53.9173ZM87 60H15V62H87V60Z" fill="black"/>
<path d="M36.3695 33.7563H35.8695V34.2563H36.3695V33.7563ZM41.7292 33.7563V34.2563H42.2292V33.7563H41.7292ZM36.3695 29V28.5H35.8695V29H36.3695ZM41.7292 29H42.2292V28.5H41.7292V29ZM36.547 53.9173H36.047V54.4173H36.547V53.9173ZM41.5872 53.9173V54.4173H42.0872V53.9173H41.5872ZM36.547 36.1699V35.6699H36.047V36.1699H36.547ZM41.5872 36.1699H42.0872V35.6699H41.5872V36.1699ZM15 53.9173H14.5V54.4173H15V53.9173ZM33.7767 53.9173V54.4173H34.2767V53.9173H33.7767ZM15 29.071V28.571H14.5V29.071H15ZM20.3952 29.071H20.8952V28.571H20.3952V29.071ZM20.3952 49.3385H19.8952V49.8385H20.3952V49.3385ZM33.7767 49.3385H34.2767V48.8385H33.7767V49.3385ZM51.4669 53.9173V54.4173H51.9669V53.9173H51.4669ZM46.4267 53.9173H45.9267V54.4173H46.4267V53.9173ZM57.856 53.9173H57.356V54.4173H57.856V53.9173ZM62.8962 53.9173V54.4173H63.3962V53.9173H62.8962ZM51.4314 40.2518V40.7518H51.7951L51.9071 40.4059L51.4314 40.2518ZM49.2308 40.2518L48.8197 39.9672L48.2765 40.7518H49.2308V40.2518ZM50.97 36.1699L51.4698 36.1851L51.4854 35.6699H50.97V36.1699ZM46.4267 36.1699V35.6699H45.9267V36.1699H46.4267ZM80.7742 53.9173L80.3749 54.2182L80.5249 54.4173H80.7742V53.9173ZM87.1278 53.9173V54.4173H88.1557L87.5211 53.6086L87.1278 53.9173ZM75.237 46.5699L75.6363 46.269L75.2974 45.8193L74.891 46.209L75.237 46.5699ZM72.6459 49.0545L72.2999 48.6936L72.1459 48.8412V49.0545H72.6459ZM72.6459 53.9173V54.4173H73.1459V53.9173H72.6459ZM67.6057 53.9173H67.1057V54.4173H67.6057V53.9173ZM67.6057 29.071V28.571H67.1057V29.071H67.6057ZM72.6459 29.071H73.1459V28.571H72.6459V29.071ZM70.0903 43.0914L69.7728 42.7052L69.3629 43.0422L69.7236 43.4313L70.0903 43.0914ZM71.4391 44.5467L71.0724 44.8866L71.4262 45.2683L71.7934 44.8995L71.4391 44.5467ZM79.7804 36.1699V35.6699H79.5726L79.4261 35.8171L79.7804 36.1699ZM85.9564 36.1699L86.3047 36.5287L87.1895 35.6699H85.9564V36.1699ZM78.7155 43.1979L78.3673 42.8391L78.0443 43.1525L78.3222 43.5066L78.7155 43.1979ZM15 60V59.5H14.5V60H15ZM87 60H87.5V59.5H87V60ZM15 62H14.5V62.5H15V62ZM87 62V62.5H87.5V62H87ZM36.3695 34.2563H41.7292V33.2563H36.3695V34.2563ZM35.8695 29V33.7563H36.8695V29H35.8695ZM41.7292 28.5H36.3695V29.5H41.7292V28.5ZM42.2292 33.7563V29H41.2292V33.7563H42.2292ZM36.547 54.4173H41.5872V53.4173H36.547V54.4173ZM36.047 36.1699V53.9173H37.047V36.1699H36.047ZM41.5872 35.6699H36.547V36.6699H41.5872V35.6699ZM42.0872 53.9173V36.1699H41.0872V53.9173H42.0872ZM15 54.4173H33.7767V53.4173H15V54.4173ZM14.5 29.071V53.9173H15.5V29.071H14.5ZM20.3952 28.571H15V29.571H20.3952V28.571ZM20.8952 49.3385V29.071H19.8952V49.3385H20.8952ZM33.7767 48.8385H20.3952V49.8385H33.7767V48.8385ZM34.2767 53.9173V49.3385H33.2767V53.9173H34.2767ZM51.4669 53.4173H46.4267V54.4173H51.4669V53.4173ZM50.9669 45.505V53.9173H51.9669V45.505H50.9669ZM55.0164 39.2904C54.0412 39.2904 53.2679 39.5587 52.6715 40.0248C52.0811 40.4861 51.7017 41.1117 51.4558 41.7665C50.9709 43.058 50.9669 44.5769 50.9669 45.505H51.9669C51.9669 44.5519 51.9807 43.2136 52.392 42.118C52.5943 41.5794 52.8826 41.1289 53.2872 40.8127C53.6858 40.5013 54.2347 40.2904 55.0164 40.2904V39.2904ZM58.356 43.1269C58.356 41.8856 58.0651 40.9106 57.4583 40.2437C56.844 39.5685 55.9809 39.2904 55.0164 39.2904V40.2904C55.7912 40.2904 56.3479 40.5092 56.7186 40.9166C57.0967 41.3323 57.356 42.0255 57.356 43.1269H58.356ZM58.356 53.9173V43.1269H57.356V53.9173H58.356ZM62.8962 53.4173H57.856V54.4173H62.8962V53.4173ZM62.3962 42.1685V53.9173H63.3962V42.1685H62.3962ZM56.8621 36.1375C58.698 36.1375 60.0611 36.7426 60.9708 37.759C61.8874 38.7833 62.3962 40.2845 62.3962 42.1685H63.3962C63.3962 40.1127 62.8402 38.3484 61.7159 37.0921C60.5846 35.828 58.9307 35.1375 56.8621 35.1375V36.1375ZM51.9071 40.4059C52.6899 37.9895 54.3305 36.1375 56.8621 36.1375V35.1375C53.7146 35.1375 51.8058 37.4739 50.9558 40.0977L51.9071 40.4059ZM49.2308 40.7518H51.4314V39.7518H49.2308V40.7518ZM50.4702 36.1548C50.4394 37.1724 49.7688 38.5962 48.8197 39.9672L49.6419 40.5364C50.6094 39.1388 51.4296 37.5101 51.4698 36.1851L50.4702 36.1548ZM46.4267 36.6699H50.97V35.6699H46.4267V36.6699ZM46.9267 53.9173V36.1699H45.9267V53.9173H46.9267ZM80.7742 54.4173H87.1278V53.4173H80.7742V54.4173ZM74.8377 46.8708L80.3749 54.2182L81.1735 53.6164L75.6363 46.269L74.8377 46.8708ZM72.992 49.4154L75.5831 46.9308L74.891 46.209L72.2999 48.6936L72.992 49.4154ZM73.1459 53.9173V49.0545H72.1459V53.9173H73.1459ZM67.6057 54.4173H72.6459V53.4173H67.6057V54.4173ZM67.1057 29.071V53.9173H68.1057V29.071H67.1057ZM72.6459 28.571H67.6057V29.571H72.6459V28.571ZM73.1459 36.9153V29.071H72.1459V36.9153H73.1459ZM70.4079 43.4776C71.2327 42.7994 71.9354 42.0866 72.4197 41.0543C72.9013 40.0279 73.1459 38.7316 73.1459 36.9153H72.1459C72.1459 38.6485 71.9113 39.7837 71.5144 40.6295C71.1203 41.4696 70.5451 42.0701 69.7728 42.7052L70.4079 43.4776ZM71.8058 44.2068L70.457 42.7515L69.7236 43.4313L71.0724 44.8866L71.8058 44.2068ZM79.4261 35.8171L71.0848 44.1939L71.7934 44.8995L80.1347 36.5227L79.4261 35.8171ZM85.9564 35.6699H79.7804V36.6699H85.9564V35.6699ZM79.0638 43.5567L86.3047 36.5287L85.6082 35.8111L78.3673 42.8391L79.0638 43.5567ZM87.5211 53.6086L79.1089 42.8892L78.3222 43.5066L86.7344 54.226L87.5211 53.6086ZM15 60.5H87V59.5H15V60.5ZM15.5 62V60H14.5V62H15.5ZM87 61.5H15V62.5H87V61.5ZM86.5 60V62H87.5V60H86.5Z" fill="black"/>
<path fill-rule="evenodd" clip-rule="evenodd" d="M63.5842 59.9375C63.5842 59.0055 64.3369 58.25 65.2654 58.25C66.1939 58.25 66.9466 59.0055 66.9466 59.9375V70.6252C66.9466 71.2464 67.4483 71.75 68.0672 71.75C68.6861 71.75 69.1878 71.2464 69.1878 70.6252V68.9375C69.1878 68.0055 69.9405 67.25 70.8689 67.25C71.7974 67.25 72.5501 68.0055 72.5501 68.9375V70.6252C72.5501 71.2464 73.0518 71.75 73.6707 71.75C74.2896 71.75 74.7913 71.2464 74.7913 70.6252V70.0625C74.7913 69.1305 75.544 68.375 76.4725 68.375C77.401 68.375 78.1537 69.1305 78.1537 70.0625V70.6246C78.1537 71.2461 78.6557 71.75 79.2749 71.75H79.8356C80.1452 71.75 80.3961 71.4982 80.3961 71.1875C80.3961 70.2555 81.1488 69.5 82.0773 69.5C83.0057 69.5 83.7584 70.2555 83.7584 71.1875V76.8125C83.7584 76.8205 83.7584 76.8286 83.7583 76.8366V79.625C83.7583 85.2169 79.2421 89.75 73.6712 89.75C70.2045 89.75 67.1463 87.9946 65.3306 85.321C63.7271 83.4898 61.2275 81.5073 59.0682 79.7947L59.0682 79.7947C58.3823 79.2507 57.7308 78.734 57.1532 78.258C56.0798 77.3733 55.9267 75.7279 56.8441 74.6811C58.4226 72.8801 61.1163 75.3216 62.7485 77.0737C62.7621 77.0883 62.7757 77.1029 62.7894 77.1177C63.0693 77.4194 63.5842 77.2248 63.5842 76.8125V71.75V59.9375Z" fill="#6392EF"/>
<path fill-rule="evenodd" clip-rule="evenodd" d="M59.0683 79.7947C58.3824 79.2508 57.7308 78.734 57.1533 78.258C56.0798 77.3733 55.9267 75.7279 56.8442 74.6811C58.0237 73.3353 59.826 74.3584 61.3427 75.6927C61.42 75.7607 61.4965 75.8295 61.5722 75.8988C61.9018 76.2007 62.215 76.5128 62.5019 76.8125C62.5865 76.9008 62.6688 76.9881 62.7485 77.0737L62.7894 77.1177C63.0694 77.4194 63.5842 77.2248 63.5842 76.8125V59.9375C63.5842 59.0055 64.3369 58.25 65.2654 58.25C66.1939 58.25 66.9466 59.0055 66.9466 59.9375V70.6252C66.9466 71.2464 67.4483 71.75 68.0672 71.75C68.6861 71.75 69.1878 71.2464 69.1878 70.6252V68.9375C69.1878 68.9261 69.1879 68.9147 69.1881 68.9034C69.2063 67.9871 69.9519 67.25 70.869 67.25C71.7975 67.25 72.5501 68.0055 72.5501 68.9375V70.6252C72.5501 71.2464 73.0519 71.75 73.6708 71.75C74.2897 71.75 74.7914 71.2464 74.7914 70.6252V70.0625C74.7914 70.0511 74.7915 70.0397 74.7917 70.0284C74.8098 69.1121 75.5554 68.375 76.4725 68.375C77.401 68.375 78.1537 69.1305 78.1537 70.0625V70.6246C78.1537 70.6924 78.1597 70.7587 78.1711 70.8232C78.1745 70.8421 78.1783 70.8607 78.1825 70.8792C78.2078 70.989 78.2491 71.0926 78.3038 71.1875C78.4977 71.5238 78.86 71.75 79.2749 71.75H79.8357C80.1452 71.75 80.3961 71.4982 80.3961 71.1875C80.3961 70.2555 81.1488 69.5 82.0773 69.5C83.0058 69.5 83.7584 70.2555 83.7584 71.1875V76.8125C83.7584 76.8205 83.7584 76.8286 83.7583 76.8367V79.625C83.7583 85.2169 79.2422 89.75 73.6713 89.75C70.2045 89.75 67.1463 87.9946 65.3306 85.321C63.7271 83.4898 61.2276 81.5073 59.0683 79.7947ZM63.5636 86.712C62.1184 85.0912 59.8489 83.2815 57.6786 81.5602L57.6557 81.542C56.982 81.0077 56.3211 80.4834 55.7308 79.9969C53.7031 78.3258 53.3845 75.2221 55.1612 73.195C55.9879 72.2517 57.0728 71.792 58.2165 71.7988C59.2488 71.805 60.1696 72.1872 60.8716 72.5819C61.0303 72.6712 61.1875 72.7666 61.3427 72.8671V59.9375C61.3427 57.7629 63.099 56 65.2654 56C67.4319 56 69.1881 57.7629 69.1881 59.9375V65.3788C69.6976 65.1359 70.2675 65 70.869 65C72.2732 65 73.5051 65.7406 74.1981 66.854C74.8397 66.395 75.6247 66.125 76.4725 66.125C77.877 66.125 79.1091 66.8659 79.8021 67.9795C80.4438 67.5202 81.2291 67.25 82.0773 67.25C84.2437 67.25 86 69.0129 86 71.1875V76.8125C86 76.8247 85.9999 76.8369 85.9998 76.8492V79.625C85.9998 86.4595 80.4801 92 73.6713 92C69.4859 92 65.7888 89.9047 63.5636 86.712Z" fill="black"/>
<rect x="1" y="1" width="100" height="100" stroke="black" stroke-width="2"/>
</svg>
