<svg width="102" height="102" viewBox="0 0 102 102" fill="none" xmlns="http://www.w3.org/2000/svg">
<g clip-path="url(#clip0)">
<rect x="1" y="1" width="100" height="100" fill="#5551FF"/>
<path d="M6.01706 31.5842C6.01836 28.0519 8.81185 25.1885 12.2565 25.1885H124.068C127.513 25.1885 130.304 28.0519 130.303 31.5842L130.288 71.6044C130.287 75.1367 127.493 78.0001 124.049 78.0001H12.2371C8.7925 78.0001 6.0011 75.1367 6.0024 71.6045L6.01706 31.5842Z" fill="black"/>
<path d="M7.71187 30.3957C7.71311 26.8634 10.5066 24 13.9512 24H125.763C129.207 24 131.999 26.8634 131.998 30.3957L131.984 69.9795C131.983 73.5117 129.189 76.3752 125.745 76.3752H13.9329C10.4882 76.3752 7.69678 73.5117 7.69802 69.9795L7.71187 30.3957Z" fill="white"/>
<path fill-rule="evenodd" clip-rule="evenodd" d="M125.762 25.2818H13.9508C11.1965 25.2818 8.96289 27.5714 8.9619 30.3957L8.94805 69.9795C8.94706 72.8038 11.179 75.0934 13.9333 75.0934H125.745C128.499 75.0934 130.733 72.8038 130.734 69.9795L130.748 30.3957C130.749 27.5714 128.517 25.2818 125.762 25.2818ZM13.9512 24C10.5066 24 7.71311 26.8634 7.71187 30.3957L7.69802 69.9795C7.69678 73.5117 10.4882 76.3752 13.9329 76.3752H125.745C129.189 76.3752 131.983 73.5117 131.984 69.9795L131.998 30.3957C131.999 26.8634 129.207 24 125.763 24H13.9512Z" fill="black"/>
<path d="M29.6241 59.3255C35.1534 59.3255 37.5818 56.659 37.583 53.4909C37.5842 50.0852 34.8877 48.2899 30.9769 47.7619L28.6304 47.4451C27.0931 47.2339 26.2032 46.5474 26.2036 45.465C26.2041 44.3298 26.9867 43.1945 29.4142 43.1945C31.8147 43.1945 33.0549 44.5146 33.6207 46.2306L37.3973 44.937C36.5891 42.3761 34.2434 40 29.4153 40C24.5064 40 21.9431 42.6665 21.942 45.6234C21.9407 49.0555 24.2597 50.666 27.9008 51.1676L30.2473 51.4844C32.5128 51.8012 33.3217 52.6197 33.3213 53.7549C33.3208 55.075 32.2955 56.131 29.6252 56.131C26.6583 56.131 25.2295 54.1773 24.8525 52.3557L20.995 53.6229C21.7222 56.659 24.3645 59.3255 29.6241 59.3255Z" fill="black"/>
<path d="M40.5634 58.9031H44.3934L44.3957 52.6461C44.3962 51.2468 44.4242 48.3955 47.0945 48.3955C48.4161 48.3955 49.252 49.1347 49.2514 50.8772L49.2484 58.9031H53.0785L53.0817 50.0588C53.0828 47.1811 51.7618 45.3066 48.7949 45.3066C46.2055 45.3066 44.9642 46.8379 44.3975 47.7355L44.3984 45.201L44.4002 40.4224H40.5701L40.5634 58.9031Z" fill="black"/>
<path d="M60.1364 59.3255C62.51 59.3255 64.0209 58.0847 64.7495 56.9758C64.884 58.1639 65.6659 58.9031 67.1763 58.9031H70.1163L70.1173 56.0518H68.9306C68.2023 56.0518 68.1215 55.9198 68.1217 55.2598L68.1235 50.4284C68.1247 46.9435 65.8866 45.3066 62.1105 45.3066C58.1726 45.3066 55.9331 47.2867 55.7166 49.346L59.1688 50.0852C59.4929 48.8443 60.3833 47.9995 62.1365 47.9995C63.6739 47.9995 64.348 48.6859 64.3476 49.8212L64.3474 50.3228C59.8698 50.7452 55.8775 51.8276 55.8762 55.5238C55.8753 57.8471 57.7089 59.3255 60.1364 59.3255ZM61.513 56.5798C60.3532 56.5798 59.76 56.0254 59.7603 55.1542C59.761 53.4117 61.865 52.9365 64.3465 52.6461L64.3462 53.4909C64.3454 55.6294 62.9965 56.5798 61.513 56.5798Z" fill="black"/>
<path d="M72.1451 58.9031H75.9752L75.9771 53.5965C75.9783 50.2964 77.1925 49.2403 79.9436 49.2403C80.4022 49.2403 80.8877 49.2668 81.4271 49.3196L81.4285 45.465C81.2127 45.4386 81.0239 45.4386 80.8081 45.4386C77.5445 45.4386 76.3569 47.6299 75.898 48.7123L75.8991 45.7026H72.15L72.1451 58.9031Z" fill="black"/>
<path d="M89.4321 59.3255C93.5319 59.3255 95.2319 57.1607 95.9877 55.471L92.5627 54.1773C91.9959 55.4182 91.1593 56.4742 89.4331 56.4742C87.7878 56.4742 86.5205 55.5238 86.4134 53.2005H95.9346C96.3139 48.7915 93.9416 45.3066 89.4102 45.3066C85.4993 45.3066 82.5852 48.1315 82.5837 52.2765C82.5821 56.6062 85.2784 59.3255 89.4321 59.3255ZM86.5493 50.5604C86.8196 48.8971 87.8718 47.9995 89.4093 47.9995C91.0276 47.9995 91.9983 48.9235 92.1595 50.5604H86.5493Z" fill="black"/>
</g>
<rect x="1" y="1" width="100" height="100" stroke="black" stroke-width="2"/>
<defs>
<clipPath id="clip0">
<rect x="1" y="1" width="100" height="100" fill="white"/>
</clipPath>
</defs>
</svg>
