<svg width="102" height="102" viewBox="0 0 102 102" fill="none" xmlns="http://www.w3.org/2000/svg">
<g clip-path="url(#clip0)">
<rect x="1" y="1" width="100" height="100" fill="#6392EF"/>
<path d="M45.5683 91.8654C49.8071 93.3039 54.5783 93.2149 58.9953 91.2566C68.3279 87.1189 72.5448 76.2029 68.4141 66.8751C66.4591 62.4603 62.9846 59.1926 58.8774 57.4136C60.3195 53.1744 60.2343 48.404 58.2793 43.9893C54.1486 34.6615 43.2345 30.454 33.9019 34.5917C29.485 36.55 26.214 40.0266 24.4314 44.1345C20.1928 42.6961 15.4216 42.7851 11.0046 44.7434C1.67209 48.8811 -2.54484 59.797 1.58586 69.1249C3.54084 73.5395 7.01525 76.8073 11.1223 78.5862C9.68022 82.8255 9.76536 87.5959 11.7204 92.0107C15.8511 101.339 26.7652 105.546 36.0978 101.408C40.5147 99.45 43.7858 95.9734 45.5683 91.8654Z" fill="#C7B9FF"/>
<path d="M62.4257 -1.70166L61.9616 -2.58747L61.0758 -2.12344L54.5843 1.27712L53.6985 1.74115L54.1625 2.62697L64.2672 21.9164L42.8446 15.2225L41.8901 14.9242L41.5919 15.8787L39.4306 22.7954L39.1324 23.7499L40.0868 24.0482L61.5088 30.7419L42.2207 40.8459L41.3349 41.3099L41.7989 42.1957L45.1995 48.6872L45.6635 49.5731L46.5493 49.109L65.832 39.0079L59.1352 60.4398L58.8369 61.3942L59.7914 61.6925L66.712 63.855L67.6665 64.1532L67.9647 63.1987L74.6631 41.7618L84.7675 61.0507L85.2316 61.9366L86.1174 61.4725L92.6089 58.072L93.4947 57.6079L93.0307 56.7221L82.9269 37.4344L104.364 44.1329L105.319 44.4311L105.617 43.4766L107.778 36.5599L108.076 35.6054L107.122 35.3071L85.684 28.6085L104.973 18.504L105.859 18.04L105.395 17.1541L101.994 10.6626L101.53 9.7768L100.644 10.2408L81.355 20.3455L88.0486 -1.07589L88.3468 -2.03038L87.3923 -2.32863L80.4717 -4.4911L79.5173 -4.78935L79.219 -3.83486L72.5271 17.5815L62.4257 -1.70166Z" fill="white" stroke="black" stroke-width="2"/>
</g>
<rect x="1" y="1" width="100" height="100" stroke="black" stroke-width="2"/>
<defs>
<clipPath id="clip0">
<rect x="1" y="1" width="100" height="100" fill="white"/>
</clipPath>
</defs>
</svg>
