<svg width="102" height="102" viewBox="0 0 102 102" fill="none" xmlns="http://www.w3.org/2000/svg">
<g clip-path="url(#clip0)">
<rect x="1" y="1" width="100" height="100" fill="#D5BFF7"/>
<path d="M162.374 53.7785C176.269 50.0294 184.515 35.6477 180.792 21.656C177.069 7.66434 162.787 -0.638954 148.892 3.11011L63.4335 26.1683C49.5388 29.9174 41.293 44.2991 45.0161 58.2908C48.7392 72.2825 63.0213 80.5858 76.9161 76.8367L162.374 53.7785Z" fill="white"/>
<path fill-rule="evenodd" clip-rule="evenodd" d="M51.2384 85.3555L189.615 48.019L175.51 -4.98825L37.1335 32.3482L51.2384 85.3555ZM52.7192 82.7727L39.6984 33.8393L174.029 -2.40551L187.05 46.5279L52.7192 82.7727Z" fill="black"/>
<path d="M48.5933 90L56.419 87.8885L54.3221 80.0082L46.4964 82.1197L48.5933 90Z" fill="white"/>
<path fill-rule="evenodd" clip-rule="evenodd" d="M47.8528 91.2915L57.7014 88.6342L55.0624 78.7169L45.2139 81.3742L47.8528 91.2915ZM49.3336 88.7088L47.7787 82.8654L53.5816 81.2996L55.1365 87.143L49.3336 88.7088Z" fill="black"/>
<path d="M34.9685 39.1362L42.7942 37.0247L40.6973 29.1444L32.8716 31.2559L34.9685 39.1362Z" fill="white"/>
<path fill-rule="evenodd" clip-rule="evenodd" d="M34.228 40.4272L44.0766 37.7699L41.4377 27.8527L31.5891 30.51L34.228 40.4272ZM35.7088 37.8445L34.154 32.0011L39.9569 30.4354L41.5118 36.2788L35.7088 37.8445Z" fill="black"/>
<path d="M45.2422 63.9357L51.4812 47.356L35.5416 53.4121L42.4329 56.6513L45.2422 63.9357Z" fill="#0FA958"/>
<path fill-rule="evenodd" clip-rule="evenodd" d="M55.0837 43.7334L30.1522 53.206L40.7849 58.2039L45.2661 69.8233L55.0837 43.7334ZM42.4329 56.6512L35.5417 53.4119L51.4812 47.3558L45.2422 63.9356L42.4329 56.6512Z" fill="black"/>
<path d="M34.9702 60.3184H-9.00001V75.9455H34.9702V60.3184Z" fill="#0FA958"/>
<path fill-rule="evenodd" clip-rule="evenodd" d="M-6.90582 62.4272H32.876V73.8367H-6.90582V62.4272ZM34.9702 60.3184V75.9455H-9.00001V60.3184H34.9702Z" fill="black"/>
</g>
<rect x="1" y="1" width="100" height="100" stroke="black" stroke-width="2"/>
<defs>
<clipPath id="clip0">
<rect x="1" y="1" width="100" height="100" fill="white"/>
</clipPath>
</defs>
</svg>
