<svg width="102" height="102" viewBox="0 0 102 102" fill="none" xmlns="http://www.w3.org/2000/svg">
<g clip-path="url(#clip0)">
<rect x="1" y="1" width="100" height="100" fill="#FF8577"/>
<path fill-rule="evenodd" clip-rule="evenodd" d="M87.7347 22.9071C95.3789 21.9346 112.395 20.863 122.124 36.9287C123.893 39.8506 126.385 44.5143 127.217 50.2061C128.157 56.6379 126.863 63.7688 121.953 70.0234C114.94 78.9547 105.234 81.5808 97.3775 81.6943C95.5386 81.7209 93.7293 81.6167 91.9729 81.4162C95.7743 84.0172 98.4743 88.2046 99.0494 93.163C100.099 102.211 93.6745 110.404 84.6962 111.476C84.6666 111.481 84.5364 111.505 84.2543 111.575C83.867 111.671 83.6764 111.724 83.3976 111.801C83.1332 111.874 82.7895 111.969 82.1238 112.144C80.1559 112.66 76.6148 113.529 72.2868 113.315C62.6469 112.841 55.0061 107.518 50.202 102.724C45.2762 97.8076 41.032 91.1968 39.2063 84.167C36.7233 74.6069 37.4595 65.7544 40.2576 57.9964C36.4126 55.5503 32.6767 53.0972 29.0376 50.7076C28.526 50.3718 28.0164 50.0371 27.5087 49.704C19.9231 44.7263 17.7799 34.4971 22.7217 26.8564C27.6636 19.2157 37.8191 17.057 45.4047 22.0347L45.7424 22.2563C51.1884 25.83 56.3964 29.2475 61.5198 32.4286C69.6034 27.2746 78.8269 24.0403 87.7347 22.9071ZM70.7053 74.828C70.7652 75.1517 70.8382 75.4787 70.9241 75.8092C70.9238 75.8081 70.9241 75.809 70.9251 75.8121C70.9389 75.8548 71.0854 76.3056 71.5351 77.0486C71.9955 77.8093 72.604 78.5932 73.2774 79.2652C73.635 79.6221 73.9558 79.8928 74.2199 80.0908C74.3282 80.0616 74.4432 80.0303 74.5738 79.9948C74.672 79.9681 74.779 79.939 74.8986 79.9066C75.3105 79.7949 75.8399 79.6527 76.4118 79.5108C77.4639 79.2497 78.8321 78.9451 80.4133 78.7354C79.5403 78.4372 78.7125 78.134 77.936 77.8349C75.4852 76.8908 73.0756 75.885 70.7053 74.828ZM74.888 80.5122C74.8879 80.5124 74.8824 80.5102 74.8714 80.5051C74.8824 80.5095 74.888 80.512 74.888 80.5122ZM94.9068 55.5904C94.9067 55.5904 94.9051 55.586 94.9023 55.5773C94.9055 55.5861 94.9069 55.5905 94.9068 55.5904Z" fill="#699BF7"/>
<path fill-rule="evenodd" clip-rule="evenodd" d="M89.6228 37.9653C96.7543 37.0581 104.692 37.2902 109.259 44.8321C110.658 47.1425 111.916 49.7317 112.309 52.417C112.71 55.1622 112.199 57.9768 110.133 60.6088C106.746 64.9232 101.986 66.4483 97.1612 66.518C92.3654 66.5874 87.3949 65.2286 83.3183 63.6583C76.2835 60.9485 69.5927 57.6667 63.1039 54.0534C56.9265 60.7736 53.7203 69.5411 56.346 79.6506C57.2235 83.0292 59.5541 86.9359 62.6715 90.047C65.7987 93.1679 69.5385 95.3137 73.152 95.4916C74.714 95.5686 76.1344 95.2742 77.6585 94.8744C77.9363 94.8016 78.2207 94.7241 78.5115 94.6449C79.7717 94.3017 81.1499 93.9264 82.6138 93.7541C83.3401 93.6687 83.9977 94.1925 84.0825 94.924C84.1673 95.6556 83.6473 96.318 82.921 96.4034C81.6704 96.5506 80.5243 96.8617 79.2797 97.1997C78.969 97.284 78.6521 97.37 78.3259 97.4556C76.7355 97.8728 74.9981 98.253 73.0227 98.1557C68.5084 97.9334 64.1855 95.3128 60.8077 91.9417C57.42 88.5609 54.8034 84.25 53.7841 80.3257C50.9508 69.4164 54.3342 59.9227 60.7337 52.7142C52.5592 48.0305 44.682 42.8601 36.8123 37.6945C36.4528 37.4586 36.0934 37.2226 35.7339 36.9868C35.1212 36.5847 34.9481 35.7585 35.3473 35.1413C35.7464 34.5242 36.5667 34.3498 37.1794 34.7519C37.5076 34.9673 37.8357 35.1826 38.1637 35.3979C46.2766 40.7228 54.3154 45.999 62.6284 50.7303C69.8061 43.7306 79.9248 39.1991 89.6228 37.9653ZM65.0535 52.0902C71.2418 55.5069 77.5985 58.5994 84.2642 61.1669C88.1899 62.6791 92.8024 63.9135 97.1232 63.851C101.415 63.789 105.306 62.4573 108.056 58.9543C109.622 56.959 109.995 54.9028 109.689 52.8056C109.374 50.6486 108.332 48.4239 106.998 46.221C103.339 40.1771 96.9961 39.7158 89.9546 40.6116C81.0299 41.747 71.7431 45.8437 65.0535 52.0902Z" fill="black"/>
<path d="M34.3512 36.3022C33.2048 37.1618 31.5835 36.9225 30.7301 35.7677C29.8767 34.613 30.1143 32.98 31.2608 32.1204C32.4073 31.2608 34.0285 31.5001 34.8819 32.6549C35.7353 33.8097 35.4977 35.4427 34.3512 36.3022Z" fill="white"/>
<path fill-rule="evenodd" clip-rule="evenodd" d="M35.9325 38.4417C33.6129 40.1809 30.3327 39.6967 28.6061 37.3602C26.8794 35.0238 27.3601 31.7198 29.6797 29.9806C31.9993 28.2414 35.2795 28.7256 37.0062 31.0621C38.7328 33.3985 38.2521 36.7025 35.9325 38.4417ZM30.7302 35.7676C31.5836 36.9224 33.2049 37.1617 34.3513 36.3021C35.4978 35.4425 35.7354 33.8095 34.882 32.6547C34.0286 31.4999 32.4074 31.2606 31.2609 32.1202C30.1144 32.9798 29.8768 34.6128 30.7302 35.7676Z" fill="black"/>
<path d="M85.3011 96.5146C84.1546 97.3742 82.5334 97.1349 81.68 95.9801C80.8266 94.8253 81.0641 93.1924 82.2106 92.3328C83.3571 91.4732 84.9783 91.7125 85.8317 92.8673C86.6851 94.0221 86.4475 95.655 85.3011 96.5146Z" fill="white"/>
<path fill-rule="evenodd" clip-rule="evenodd" d="M86.8822 98.6546C84.5626 100.394 81.2824 99.9096 79.5558 97.5731C77.8291 95.2367 78.3098 91.9327 80.6294 90.1935C82.949 88.4543 86.2292 88.9385 87.9559 91.275C89.6825 93.6114 89.2019 96.9154 86.8822 98.6546ZM81.6799 95.9805C82.5333 97.1353 84.1546 97.3746 85.301 96.515C86.4475 95.6554 86.6851 94.0224 85.8317 92.8676C84.9783 91.7128 83.3571 91.4735 82.2106 92.3331C81.0641 93.1927 80.8265 94.8257 81.6799 95.9805Z" fill="black"/>
<path d="M25.1906 17.1113C24.4409 13.4467 21.2196 10.6914 17.3594 10.6914C16.4838 10.6914 15.6411 10.8332 14.8527 11.0951L11.1398 7.35538L5.99994 12.5327L9.73909 16.2989C9.49515 17.0704 9.36358 17.8924 9.36358 18.7453C9.36358 22.493 11.9049 25.6429 15.3466 26.5418L28.9897 30.46L25.1906 17.1113Z" fill="white"/>
<path d="M11.1398 9.42625L13.8247 12.1306L14.4578 12.7683L15.3081 12.4858C15.9896 12.2549 16.604 12.1508 17.3594 12.1558C20.516 12.1558 23.1534 14.4091 23.7667 17.4068L23.7779 17.4613L23.7931 17.5148L26.8708 28.3287L15.7452 25.1335L15.7284 25.1287L15.7115 25.1243C12.8953 24.3887 10.8174 21.8096 10.8174 18.7453C10.8127 18.0093 10.9094 17.4101 11.1244 16.7433L11.3929 15.8938L10.7671 15.2635L8.05589 12.5327L11.1398 9.42625ZM25.1906 17.1113C24.4409 13.4467 21.2196 10.6914 17.3594 10.6914C16.4838 10.6914 15.6411 10.8332 14.8527 11.0951L12.1678 8.39081L11.1398 7.35538L10.1118 8.39081L7.02792 11.4973L5.99994 12.5327L7.02792 13.5681L9.73909 16.2989C9.49515 17.0704 9.36358 17.8924 9.36358 18.7453C9.36358 22.493 11.9049 25.6429 15.3466 26.5418L27.3428 29.987L28.9897 30.46L28.5178 28.8017L25.1906 17.1113Z" fill="black"/>
<path d="M27.0217 29.513L27.5357 30.0308L28.5637 28.9953L28.0497 28.4776L17.8732 18.2272L17.3592 17.7095L16.3312 18.745L16.8452 19.2627L27.0217 29.513Z" fill="black"/>
<path d="M15.1788 18.7449C15.1788 17.5318 16.1551 16.5484 17.3595 16.5484C18.5638 16.5484 19.5402 17.5318 19.5402 18.7449C19.5402 19.958 18.5638 20.9414 17.3595 20.9414C16.1551 20.9414 15.1788 19.958 15.1788 18.7449Z" fill="black"/>
</g>
<rect x="1" y="1" width="100" height="100" stroke="black" stroke-width="2"/>
<defs>
<clipPath id="clip0">
<rect x="1" y="1" width="100" height="100" fill="white"/>
</clipPath>
</defs>
</svg>
