<svg width="102" height="102" viewBox="0 0 102 102" fill="none" xmlns="http://www.w3.org/2000/svg">
<g clip-path="url(#clip0)">
<rect x="1" y="1" width="100" height="100" fill="#A259FF"/>
<path d="M51.7745 75.5664L47.6129 71.7851C32.8317 58.4071 23.0732 49.5554 23.0732 38.7556C23.0732 29.9038 30.019 23 38.859 23C43.853 23 48.6461 26.8934 51.7745 30.5315C54.903 26.8934 59.6961 23 64.6901 23C73.5301 23 80.4758 29.9038 80.4758 38.7556C80.4758 49.5554 70.7174 58.4071 55.9362 71.7851L51.7745 75.5664Z" fill="#FF8577"/>
<path fill-rule="evenodd" clip-rule="evenodd" d="M51.7746 79.0401L45.9101 73.7115L45.8574 73.6638C38.5417 67.0426 32.2618 61.3589 27.8372 55.956C23.3744 50.5065 20.5219 45.0192 20.5219 38.7556C20.5219 28.4339 28.6508 20.4131 38.8591 20.4131C42.004 20.4131 44.9264 21.632 47.3862 23.2189C48.9968 24.258 50.4754 25.4969 51.7746 26.7742C53.0739 25.4969 54.5525 24.258 56.1631 23.2189C58.6228 21.632 61.5453 20.4131 64.6902 20.4131C74.8984 20.4131 83.0274 28.4339 83.0274 38.7556C83.0274 45.0192 80.1749 50.5065 75.7121 55.956C71.2875 61.3589 65.0076 67.0426 57.6919 73.6638L57.6392 73.7115L51.7746 79.0401ZM55.9363 71.785C70.7175 58.4071 80.4759 49.5553 80.4759 38.7556C80.4759 29.9038 73.5302 23 64.6902 23C60.5585 23 56.5644 25.6648 53.5366 28.6453C52.9047 29.2674 52.3148 29.9032 51.7746 30.5314C51.2344 29.9032 50.6446 29.2674 50.0127 28.6453C46.9849 25.6648 42.9907 23 38.8591 23C30.0191 23 23.0733 29.9038 23.0733 38.7556C23.0733 49.5553 32.8318 58.4071 47.613 71.785L51.7746 75.5664L55.9363 71.785Z" fill="black"/>
<path d="M54.1718 28.3465C54.1718 27.1345 53.2027 26.152 52.0073 26.152C50.8118 26.152 49.8428 27.1345 49.8428 28.3465C49.8428 29.5585 50.8118 30.541 52.0073 30.541C53.2027 30.541 54.1718 29.5585 54.1718 28.3465Z" fill="white"/>
<path fill-rule="evenodd" clip-rule="evenodd" d="M56.7232 28.3466C56.7232 25.7059 54.6118 23.5652 52.0072 23.5652C49.4027 23.5652 47.2913 25.7059 47.2913 28.3466C47.2913 30.9872 49.4027 33.1279 52.0072 33.1279C54.6118 33.1279 56.7232 30.9872 56.7232 28.3466ZM52.0072 26.152C53.2027 26.152 54.1717 27.1346 54.1717 28.3466C54.1717 29.5585 53.2027 30.5411 52.0072 30.5411C50.8118 30.5411 49.8428 29.5585 49.8428 28.3466C49.8428 27.1346 50.8118 26.152 52.0072 26.152Z" fill="black"/>
<path d="M84 39.7588C84 38.4164 82.9267 37.3281 81.6026 37.3281C80.2786 37.3281 79.2052 38.4164 79.2052 39.7588C79.2052 41.1012 80.2786 42.1895 81.6026 42.1895C82.9267 42.1895 84 41.1012 84 39.7588Z" fill="white"/>
<path fill-rule="evenodd" clip-rule="evenodd" d="M86.5515 39.7588C86.5515 36.9877 84.3358 34.7413 81.6026 34.7413C78.8694 34.7413 76.6537 36.9877 76.6537 39.7588C76.6537 42.5299 78.8694 44.7764 81.6026 44.7764C84.3358 44.7764 86.5515 42.5299 86.5515 39.7588ZM81.6026 37.3282C82.9267 37.3282 84 38.4164 84 39.7588C84 41.1013 82.9267 42.1895 81.6026 42.1895C80.2785 42.1895 79.2052 41.1013 79.2052 39.7588C79.2052 38.4164 80.2785 37.3282 81.6026 37.3282Z" fill="black"/>
<path d="M23.7948 39.7588C23.7948 38.4164 22.7215 37.3281 21.3974 37.3281C20.0734 37.3281 19 38.4164 19 39.7588C19 41.1012 20.0734 42.1895 21.3974 42.1895C22.7215 42.1895 23.7948 41.1012 23.7948 39.7588Z" fill="white"/>
<path fill-rule="evenodd" clip-rule="evenodd" d="M26.3463 39.7588C26.3463 36.9877 24.1306 34.7413 21.3974 34.7413C18.6642 34.7413 16.4485 36.9877 16.4485 39.7588C16.4485 42.5299 18.6642 44.7764 21.3974 44.7764C24.1306 44.7764 26.3463 42.5299 26.3463 39.7588ZM21.3974 37.3282C22.7215 37.3282 23.7948 38.4164 23.7948 39.7588C23.7948 41.1013 22.7215 42.1895 21.3974 42.1895C20.0733 42.1895 19 41.1013 19 39.7588C19 38.4164 20.0733 37.3282 21.3974 37.3282Z" fill="black"/>
<path d="M53.7453 76.7403C53.7453 75.4923 52.7475 74.4806 51.5165 74.4806C50.2856 74.4806 49.2877 75.4923 49.2877 76.7403C49.2877 77.9883 50.2856 79 51.5165 79C52.7475 79 53.7453 77.9883 53.7453 76.7403Z" fill="white"/>
<path fill-rule="evenodd" clip-rule="evenodd" d="M56.2968 76.7403C56.2968 74.0636 54.1566 71.8937 51.5165 71.8937C48.8764 71.8937 46.7362 74.0636 46.7362 76.7403C46.7362 79.417 48.8764 81.5869 51.5165 81.5869C54.1566 81.5869 56.2968 79.417 56.2968 76.7403ZM51.5165 74.4806C52.7475 74.4806 53.7453 75.4923 53.7453 76.7403C53.7453 77.9883 52.7475 79 51.5165 79C50.2856 79 49.2877 77.9883 49.2877 76.7403C49.2877 75.4923 50.2856 74.4806 51.5165 74.4806Z" fill="black"/>
<path d="M73.7742 61.732C79.0685 61.6328 83.868 65.2838 85.0575 70.6955C85.3272 71.923 85.3911 73.1489 85.272 74.3365L91.5833 78.3677L86.0136 87.1985L79.6576 83.1388C78.6668 83.723 77.5717 84.1655 76.3933 84.4332C71.215 85.6096 66.0798 83.0356 63.7773 78.4928L54.1597 60.5962L73.7742 61.732Z" fill="white"/>
<path d="M88.722 79.0177L84.1582 76.1027L83.0819 75.4153L83.2102 74.1345C83.3193 73.1066 83.2738 72.2126 83.0342 71.1551C82.0615 66.7298 78.1355 63.7397 73.8045 63.821L73.7258 63.8224L73.6472 63.8179L57.7573 62.8977L65.6002 77.492L65.6121 77.514L65.6234 77.5363C67.5075 81.2536 71.7114 83.357 75.9453 82.3951C76.9636 82.1706 77.7617 81.847 78.6169 81.3362L79.7078 80.6931L80.7715 81.3727L85.3801 84.3163L88.722 79.0177ZM73.7742 61.732C79.0685 61.6328 83.868 65.2838 85.0575 70.6955C85.3272 71.923 85.3911 73.1489 85.272 74.3365L89.8359 77.2515L91.5833 78.3677L90.4694 80.1338L87.1275 85.4324L86.0136 87.1985L84.2662 86.0824L79.6576 83.1388C78.6668 83.723 77.5717 84.1655 76.3933 84.4332C71.215 85.6096 66.0798 83.0356 63.7773 78.4928L55.3207 62.7566L54.1597 60.5962L56.5963 60.7373L73.7742 61.732Z" fill="black"/>
<path d="M56.0741 63.0583L55.2004 62.5002L56.3143 60.734L57.188 61.2921L74.4866 72.3411L75.3603 72.8992L74.2464 74.6654L73.3727 74.1073L56.0741 63.0583Z" fill="black"/>
<path d="M74.6011 76.2817C76.2772 75.9009 77.3351 74.2235 76.964 72.5351C76.5929 70.8467 74.9333 69.7866 73.2572 70.1674C71.5811 70.5482 70.5231 72.2257 70.8942 73.9141C71.2653 75.6025 72.9249 76.6625 74.6011 76.2817Z" fill="black"/>
</g>
<rect x="1" y="1" width="100" height="100" stroke="black" stroke-width="2"/>
<defs>
<clipPath id="clip0">
<rect x="1" y="1" width="100" height="100" fill="white"/>
</clipPath>
</defs>
</svg>
