<svg width="102" height="102" viewBox="0 0 102 102" fill="none" xmlns="http://www.w3.org/2000/svg">
<g clip-path="url(#clip0)">
<rect x="1" y="1" width="100" height="100" fill="#FF8577"/>
<path fill-rule="evenodd" clip-rule="evenodd" d="M88.1314 35.1769L-42.3766 26.5431L-45.1654 68.4841L85.3426 77.1179L88.1314 35.1769ZM-44.348 24.2974L-47.4169 70.4505L87.314 79.3636L90.3829 33.2105L-44.348 24.2974Z" fill="black"/>
<path d="M85.8901 28.8232L94.0557 29.3634L93.5141 37.5081L85.3486 36.9679L85.8901 28.8232Z" fill="white"/>
<path fill-rule="evenodd" clip-rule="evenodd" d="M91.8042 31.3298L87.8615 31.069L87.6001 35.0015L91.5427 35.2624L91.8042 31.3298ZM85.8901 28.8232L85.3486 36.9679L93.5141 37.5081L94.0557 29.3634L85.8901 28.8232Z" fill="black"/>
<path d="M82.9114 73.6184L91.0769 74.1586L90.5353 82.3033L82.3698 81.7631L82.9114 73.6184Z" fill="white"/>
<path fill-rule="evenodd" clip-rule="evenodd" d="M88.8254 76.125L84.8828 75.8641L84.6213 79.7967L88.5639 80.0575L88.8254 76.125ZM82.9114 73.6184L82.3698 81.7631L90.5353 82.3033L91.0769 74.1586L82.9114 73.6184Z" fill="black"/>
<path d="M12.4189 58.3506L18.1513 58.7395L18.4151 54.8706L14.7079 54.6191C13.6438 54.5469 13.2303 54.0373 13.3003 53.0102L13.849 44.9642L18.3113 45.267L18.5635 41.5693L14.1012 41.2665L14.4677 35.8911L9.59346 35.5604L9.2269 40.9358L5.6227 40.6913L5.37055 44.389L8.97475 44.6335L8.36538 53.5697C8.18327 56.2402 9.63851 58.162 12.4189 58.3506Z" fill="black"/>
<path d="M32.7588 42.5323L30.3063 48.6605C29.4314 50.8713 29.3013 52.2727 29.0615 55.2833L27.2423 55.1599C27.3644 52.8636 27.3851 51.042 26.5438 48.7148L24.143 41.9478L18.8569 41.5892L25.9963 59.2718L25.6267 60.141C25.0114 61.5783 24.5005 61.9908 23.2648 61.907L18.8024 61.6042L18.5386 65.4731L23.6531 65.8201C26.6738 66.025 28.1699 64.8195 29.3108 62.2484L37.839 42.877L32.7588 42.5323Z" fill="black"/>
<path d="M37.9522 66.7902L42.8264 67.1209L43.0436 63.9368C43.3214 59.8624 42.47 58.188 41.7029 56.7945L43.7625 56.9343C44.3986 58.7316 45.6495 61.1211 49.185 61.3609C53.3728 61.645 56.5059 58.1772 56.8748 52.7676C57.2437 47.358 54.6125 43.4646 50.4248 43.1805C46.7863 42.9337 45.3575 45.1757 44.3826 46.8294L42.323 46.6896C43.0773 45.7433 43.9211 44.4935 44.0029 43.2952L39.5748 42.9947L37.9522 66.7902ZM47.3753 57.5577C44.9382 57.3924 43.412 55.5002 43.6594 51.871C43.9069 48.2417 45.7103 46.5755 48.1131 46.7385C50.3786 46.8922 52.0335 48.4147 51.7603 52.4206C51.4871 56.4264 49.6408 57.7114 47.3753 57.5577Z" fill="black"/>
<path d="M66.4469 62.5664C71.6644 62.9204 74.0184 60.2596 75.1289 58.1336L70.884 56.1602C70.0534 57.7204 68.8959 59.0178 66.6991 58.8687C64.6052 58.7267 63.0759 57.3846 63.1441 54.3624L75.2611 55.1844C76.1315 49.4993 73.4191 44.7749 67.6523 44.3837C62.6751 44.046 58.7181 47.458 58.3516 52.8334C57.9687 58.4484 61.1608 62.2078 66.4469 62.5664ZM63.5492 50.9502C64.0396 48.8165 65.4576 47.7432 67.4142 47.876C69.4737 48.0157 70.6278 49.2979 70.689 51.4346L63.5492 50.9502Z" fill="black"/>
<path fill-rule="evenodd" clip-rule="evenodd" d="M66.0572 16.2487L65.495 24.7033L62.1732 24.4777L62.0508 26.2702L65.3758 26.496L64.7095 36.5171C64.2741 37.4651 63.5725 37.9858 62.6824 38.2632C61.7086 38.5667 60.5042 38.5763 59.2018 38.4308L59.0012 40.2162C60.3921 40.3717 61.8911 40.3921 63.2196 39.9781C64.0611 39.7158 64.8292 39.2796 65.4496 38.6167C65.9704 39.3639 66.6851 39.8989 67.4917 40.2674C68.7668 40.85 70.2789 41.0251 71.6636 41.0539L71.7013 39.2577C70.4027 39.2306 69.183 39.064 68.2419 38.634C67.3777 38.2392 66.7634 37.6344 66.5055 36.6543L67.1731 26.6149L70.3494 26.8192L70.4653 25.0263L67.2923 24.8222L67.8557 16.3482C68.2399 15.4135 68.9078 14.945 69.7969 14.7125C70.7832 14.4547 72.01 14.5014 73.3375 14.6498L73.5381 12.8643C72.1876 12.7134 70.673 12.6262 69.3402 12.9746C68.4744 13.201 67.6791 13.6144 67.0539 14.2905C66.5148 13.577 65.7947 13.0766 64.9924 12.7371C63.7243 12.2005 62.2348 12.055 60.8757 12.0267L60.8381 13.8229C62.1356 13.8499 63.3446 13.9914 64.2889 14.391C65.1494 14.7552 65.7669 15.3192 66.0572 16.2487Z" fill="black"/>
</g>
<rect x="1" y="1" width="100" height="100" stroke="black" stroke-width="2"/>
<defs>
<clipPath id="clip0">
<rect x="1" y="1" width="100" height="100" fill="white"/>
</clipPath>
</defs>
</svg>
