<svg width="102" height="102" viewBox="0 0 102 102" fill="none" xmlns="http://www.w3.org/2000/svg">
<g clip-path="url(#clip0)">
<rect x="1" y="1" width="100" height="100" fill="#F9D745"/>
<path d="M29.8412 2.62322L36.1065 11.9947L47.3739 11.6421L46.1495 22.8483L55.0075 29.8207L46.8664 37.6182L49.1702 48.6531L37.9216 49.3933L32.5932 59.3275L23.5006 52.664L13.0333 56.849L10.3511 45.8999L-0.357403 42.3775L4.62586 32.2659L-1.31318 22.6844L9.00386 18.1416L10.6132 6.98416L21.4365 10.1359L29.8412 2.62322Z" fill="#D5BFF7"/>
<path d="M71.6403 48.08C72.0562 48.08 72.1948 47.8743 72.2641 47.5314L72.9572 45.1314C73.0959 44.8571 72.8879 44.5143 72.4721 44.5143H62.8377L63.3922 37.7943C63.9467 30.8 59.2335 26 49.1139 26C39.7568 26 34.5584 30.6629 34.5584 36.4229C34.5584 39.2343 36.0833 41.7029 39.2023 43.6229V43.76C33.796 43.76 29.2907 47.3943 29.2907 52.1257C29.2907 57.5429 33.3801 59.6686 37.4695 60.8343C42.6679 62.2743 44.1928 64.0571 44.1928 67.1429C44.1928 70.3657 41.143 71.8057 38.7171 71.8057C35.0436 71.8057 34.0732 70.0914 32.687 67.5543L30.9542 64.1943C30.8155 63.8514 30.6076 63.7143 30.3304 63.7829L29.4293 63.9886C29.1521 64.0571 28.9441 64.1943 29.0134 64.5371L30.1917 71.0514C30.261 71.3943 30.261 71.8057 30.6076 72.0114C31.4394 72.6286 34.2118 74 37.6081 74C43.4996 74 48.0742 70.5029 48.1435 64.9486C48.0742 59.6686 44.8859 57.6114 39.8261 56.1714C36.4298 55.2114 33.1722 54.4571 33.1722 50.48C33.1722 47.5314 35.8753 45.9543 38.5092 45.9543C41.2123 45.9543 42.5293 47.3257 43.361 48.6286L45.7176 51.7829C45.9256 52.1257 46.0642 52.1943 46.3414 52.1257L47.1732 51.8514C47.5197 51.7143 47.6584 51.5086 47.6584 51.2343L46.6187 46.4343C46.5494 46.0229 46.4107 45.68 45.3711 45.2C44.47 44.7886 43.1531 44.3771 42.1827 43.9657C39.8261 42.1829 38.1626 39.5771 38.1626 36.56C38.1626 31.1429 43.1531 28.5371 49.2525 28.5371C55.352 28.5371 59.4414 31.5543 59.3721 38.4114C59.3028 42.32 57.1541 45.0629 53.6192 46.2286C52.7874 46.5029 52.3716 46.7086 52.3716 47.2571C52.3716 47.8057 52.7874 48.08 53.4113 48.08H57.6393C57.57 50.96 57.5007 55.6229 57.5007 56.8571V58.3657C57.5007 59.3257 57.2927 65.36 57.2927 68.1714C57.2927 70.7771 60.6197 74 64.016 74C68.1747 74 71.0165 71.9429 71.7096 71.2571C71.9176 71.0514 72.0562 70.7771 71.8482 70.5029L71.5017 69.8857C71.2937 69.6114 71.0165 69.5429 70.6699 69.7486C69.6996 70.3657 67.6895 70.64 66.0953 70.64C64.8477 70.64 62.4911 69.7486 62.4911 64.6057V57.7486C62.4911 54.5943 62.5604 51.2343 62.6991 48.08H71.6403Z" fill="black" fill-opacity="0.8"/>
<path d="M86.8033 70.248C90.7042 72.2068 92.8278 76.7005 91.652 81.0886C91.3853 82.0839 90.9689 82.9991 90.4335 83.8163L93.5166 89.1661L86.1172 93.4458L83.0122 88.0581C82.0686 88.1025 81.1023 88.0038 80.1412 87.7463C75.9182 86.6148 73.143 82.7748 73.1784 78.591L72.9189 61.8989L86.8033 70.248Z" fill="white"/>
<path d="M91.1832 88.5409L88.9537 84.6723L88.4279 83.76L89.0052 82.8787C89.473 82.1737 89.7774 81.5067 90.0019 80.6465C90.9634 77.0582 89.2277 73.3797 86.0366 71.7774L85.9786 71.7483L85.9229 71.7148L74.675 64.9511L74.8866 78.5631L74.8869 78.5836L74.8868 78.6042C74.8578 82.0277 77.1311 85.1685 80.5841 86.0937C81.4119 86.3212 82.1166 86.3922 82.9335 86.3491L83.9724 86.3004L84.492 87.2021L86.7434 91.1086L91.1832 88.5409ZM86.8033 70.248C90.7042 72.2068 92.8278 76.7005 91.652 81.0886C91.3853 82.0839 90.9689 82.9991 90.4335 83.8163L92.663 87.6849L93.5166 89.1661L92.0368 90.022L87.597 92.5898L86.1172 93.4458L85.2635 91.9646L83.0122 88.0581C82.0686 88.1025 81.1023 88.0038 80.1412 87.7463C75.9182 86.6148 73.143 82.7748 73.1784 78.591L72.9503 63.914L72.9189 61.8989L74.6437 62.9361L86.8033 70.248Z" fill="black"/>
<path d="M73.3862 64.4221L72.9593 63.6815L74.4392 62.8256L74.866 63.5662L83.3166 78.2294L83.7434 78.97L82.2636 79.826L81.8367 79.0854L73.3862 64.4221Z" fill="black"/>
<path d="M81.912 81.1362C83.2789 81.5025 84.6844 80.6895 85.0513 79.3205C85.4181 77.9514 84.6074 76.5446 83.2404 76.1783C81.8735 75.8121 80.468 76.625 80.1012 77.9941C79.7343 79.3631 80.5451 80.7699 81.912 81.1362Z" fill="black"/>
</g>
<rect x="1" y="1" width="100" height="100" stroke="black" stroke-width="2"/>
<defs>
<clipPath id="clip0">
<rect x="1" y="1" width="100" height="100" fill="white"/>
</clipPath>
</defs>
</svg>
