<svg width="102" height="102" viewBox="0 0 102 102" fill="none" xmlns="http://www.w3.org/2000/svg">
<g clip-path="url(#clip0)">
<rect x="1" y="1" width="100" height="100" fill="#F24E1E"/>
<path d="M53.1973 19V33" stroke="black" stroke-width="2"/>
<path d="M73.6973 19V33" stroke="black" stroke-width="2"/>
<path d="M53.6973 26H73.6973" stroke="black" stroke-width="2"/>
<path d="M152.205 63.3908C152.205 50.8264 142.046 40.6409 129.515 40.6409H55.1306C42.5989 40.6409 32.4399 50.8264 32.4399 63.3908C32.4399 75.9552 42.5989 86.1407 55.1306 86.1407H129.515C142.046 86.1407 152.205 75.9552 152.205 63.3908Z" fill="#5551FF"/>
<path fill-rule="evenodd" clip-rule="evenodd" d="M152.953 63.3908C152.953 50.4121 142.459 39.8909 129.515 39.8909H55.1306C42.1858 39.8909 31.6919 50.4121 31.6919 63.3908C31.6919 76.3694 42.1858 86.8907 55.1306 86.8907H129.515C142.459 86.8907 152.953 76.3694 152.953 63.3908ZM129.515 41.3909C141.633 41.3909 151.457 51.2406 151.457 63.3908C151.457 75.541 141.633 85.3907 129.515 85.3907H55.1306C43.012 85.3907 33.188 75.541 33.188 63.3908C33.188 51.2406 43.012 41.3909 55.1306 41.3909H129.515Z" fill="#5551FF"/>
<path fill-rule="evenodd" clip-rule="evenodd" d="M32.4397 41.1409H151.706V85.6407H32.4397V41.1409ZM153.202 39.6409V87.1407H30.9436V39.6409H153.202Z" fill="black"/>
<path d="M33.9615 37.6409H28.4759V43.1408H33.9615V37.6409Z" fill="white"/>
<path fill-rule="evenodd" clip-rule="evenodd" d="M34.7096 36.8909H27.7278V43.8908H34.7096V36.8909ZM33.2135 38.3909V42.3908H29.2239V38.3909H33.2135Z" fill="black"/>
<path d="M33.9619 83.1406H28.4763V88.6406H33.9619V83.1406Z" fill="white"/>
<path fill-rule="evenodd" clip-rule="evenodd" d="M34.71 82.3906H27.7282V89.3906H34.71V82.3906ZM33.2139 83.8906V87.8906H29.2243V83.8906H33.2139Z" fill="black"/>
<path fill-rule="evenodd" clip-rule="evenodd" d="M28.2172 37.8869C28.6793 37.8863 29.0544 37.5112 29.055 37.0491L29.0648 29.5192C29.0654 29.0571 28.6913 28.683 28.2292 28.6836C27.7671 28.6842 27.3921 29.0593 27.3915 29.5214L27.3843 35.0314L13.6937 21.3409L19.2038 21.3337C19.6658 21.3331 20.0409 20.958 20.0415 20.4959C20.0421 20.0339 19.668 19.6598 19.2059 19.6604L11.676 19.6702C11.214 19.6708 10.8389 20.0459 10.8383 20.5079L10.8285 28.0379C10.8279 28.4999 11.202 28.874 11.664 28.8734C12.1261 28.8728 12.5012 28.4977 12.5018 28.0357L12.509 22.5256L26.1995 36.2162L20.6895 36.2234C20.2274 36.224 19.8523 36.5991 19.8517 37.0611C19.8511 37.5232 20.2252 37.8973 20.6873 37.8967L28.2172 37.8869Z" fill="black"/>
<path d="M26.1973 53.6409L12.1973 53.6409" stroke="black" stroke-width="2"/>
<path d="M26.1973 74.1409L12.1973 74.1409" stroke="black" stroke-width="2"/>
<path d="M19.1973 54.1409L19.1973 74.1409" stroke="black" stroke-width="2"/>
</g>
<rect x="1" y="1" width="100" height="100" stroke="black" stroke-width="2"/>
<defs>
<clipPath id="clip0">
<rect x="1" y="1" width="100" height="100" fill="white"/>
</clipPath>
</defs>
</svg>
