<svg width="102" height="102" viewBox="0 0 102 102" fill="none" xmlns="http://www.w3.org/2000/svg">
<rect x="1" y="1" width="100" height="100" fill="#6392EF"/>
<rect x="12.6226" y="13.6248" width="56.6033" height="56.6372" fill="white"/>
<path fill-rule="evenodd" clip-rule="evenodd" d="M68.7176 14.3573H12.7325V69.7534H68.7176V14.3573ZM10.8663 12.49V71.6207H70.5838V12.49H10.8663Z" fill="black"/>
<path d="M9.00061 10H15.8432V16.8467H9.00061V10Z" fill="white"/>
<path fill-rule="evenodd" clip-rule="evenodd" d="M8.06726 9.06641H16.7761V17.7804H8.06726V9.06641ZM9.93343 10.9337V15.9131H14.9099V10.9337H9.93343Z" fill="black"/>
<path d="M9 66.6411H15.8426V73.4878H9V66.6411Z" fill="white"/>
<path fill-rule="evenodd" clip-rule="evenodd" d="M8.06689 65.7075H16.7757V74.4215H8.06689V65.7075ZM9.93307 67.5748V72.5542H14.9095V67.5748H9.93307Z" fill="black"/>
<path d="M66.2294 10.0002H73.072V16.847H66.2294V10.0002Z" fill="white"/>
<path fill-rule="evenodd" clip-rule="evenodd" d="M65.2964 9.06665H74.0052V17.7807H65.2964V9.06665ZM67.1626 10.9339V15.9134H72.139V10.9339H67.1626Z" fill="black"/>
<path d="M66.2291 66.6414H73.0717V73.4881H66.2291V66.6414Z" fill="white"/>
<path fill-rule="evenodd" clip-rule="evenodd" d="M65.296 65.7078H74.0048V74.4218H65.296V65.7078ZM67.1622 67.5751V72.5545H72.1387V67.5751H67.1622Z" fill="black"/>
<path fill-rule="evenodd" clip-rule="evenodd" d="M73.5928 74.5149C73.5928 73.9993 74.0105 73.5813 74.5258 73.5813H82.9236C83.4389 73.5813 83.8567 73.9993 83.8567 74.5149C83.8567 75.0306 83.4389 75.4486 82.9236 75.4486L76.7785 75.4486L92.0669 90.7461L92.0669 84.5973C92.0669 84.0817 92.4847 83.6637 93 83.6637C93.5153 83.6637 93.9331 84.0817 93.9331 84.5973L93.9331 93.0001C93.9331 93.5158 93.5153 93.9338 93 93.9338L84.6022 93.9338C84.0869 93.9338 83.6691 93.5158 83.6691 93.0001C83.6691 92.4845 84.0869 92.0665 84.6022 92.0665L90.7473 92.0665L75.4589 76.7689L75.4589 82.9177C75.4589 83.4334 75.0412 83.8514 74.5258 83.8514C74.0105 83.8514 73.5928 83.4334 73.5928 82.9177L73.5928 74.5149Z" fill="black"/>
<rect x="1" y="1" width="100" height="100" stroke="black" stroke-width="2"/>
</svg>
