<svg width="102" height="102" viewBox="0 0 102 102" fill="none" xmlns="http://www.w3.org/2000/svg">
<g clip-path="url(#clip0)">
<rect x="1" y="1" width="100" height="100" fill="#D5BFF7"/>
<path d="M110 24.7931C110 6.1297 95.0388 -8.99997 76.5832 -8.99997C58.1275 -8.99997 43.1663 6.1297 43.1663 24.7931C43.1663 43.4565 58.1275 58.5862 76.5832 58.5862C95.0388 58.5862 110 43.4565 110 24.7931Z" fill="#F9D745"/>
<path fill-rule="evenodd" clip-rule="evenodd" d="M76.5832 -7.16444C94.0046 -7.16444 108.164 7.1233 108.164 24.7931C108.164 42.4629 94.0046 56.7507 76.5832 56.7507C59.1617 56.7507 45.0025 42.4629 45.0025 24.7931C45.0025 7.1233 59.1617 -7.16444 76.5832 -7.16444ZM76.5832 -8.99997C95.0388 -8.99997 110 6.1297 110 24.7931C110 43.4565 95.0388 58.5862 76.5832 58.5862C58.1275 58.5862 43.1663 43.4565 43.1663 24.7931C43.1663 6.1297 58.1275 -8.99997 76.5832 -8.99997Z" fill="black"/>
<path d="M102.458 32.3314C102.458 13.668 87.4972 -1.46163 69.0415 -1.46163C50.5859 -1.46163 35.6246 13.668 35.6246 32.3314C35.6246 50.9948 50.5859 66.1245 69.0415 66.1245C87.4972 66.1245 102.458 50.9948 102.458 32.3314Z" fill="#F9D745"/>
<path fill-rule="evenodd" clip-rule="evenodd" d="M69.0415 0.373901C86.463 0.373901 100.622 14.6616 100.622 32.3314C100.622 50.0012 86.463 64.289 69.0415 64.289C51.6201 64.289 37.4609 50.0012 37.4609 32.3314C37.4609 14.6616 51.6201 0.373901 69.0415 0.373901ZM69.0415 -1.46163C87.4972 -1.46163 102.458 13.668 102.458 32.3314C102.458 50.9948 87.4972 66.1245 69.0415 66.1245C50.5859 66.1245 35.6246 50.9948 35.6246 32.3314C35.6246 13.668 50.5859 -1.46163 69.0415 -1.46163Z" fill="black"/>
<path d="M94.9169 39.87C94.9169 21.2066 79.9557 6.07695 61.5 6.07695C43.0444 6.07695 28.0831 21.2066 28.0831 39.87C28.0831 58.5334 43.0444 73.6631 61.5 73.6631C79.9557 73.6631 94.9169 58.5334 94.9169 39.87Z" fill="#F9D745"/>
<path fill-rule="evenodd" clip-rule="evenodd" d="M61.5 7.91248C78.9215 7.91248 93.0806 22.2002 93.0806 39.87C93.0806 57.5398 78.9215 71.8276 61.5 71.8276C44.0786 71.8276 29.9194 57.5398 29.9194 39.87C29.9194 22.2002 44.0786 7.91248 61.5 7.91248ZM61.5 6.07695C79.9557 6.07695 94.9169 21.2066 94.9169 39.87C94.9169 58.5334 79.9557 73.6631 61.5 73.6631C43.0444 73.6631 28.0831 58.5334 28.0831 39.87C28.0831 21.2066 43.0444 6.07695 61.5 6.07695Z" fill="black"/>
<path d="M87.3754 47.4083C87.3754 28.7449 72.4142 13.6153 53.9585 13.6153C35.5029 13.6153 20.5416 28.7449 20.5416 47.4083C20.5416 66.0717 35.5029 81.2014 53.9585 81.2014C72.4142 81.2014 87.3754 66.0717 87.3754 47.4083Z" fill="#F9D745"/>
<path fill-rule="evenodd" clip-rule="evenodd" d="M53.9585 15.4508C71.38 15.4508 85.5391 29.7385 85.5391 47.4083C85.5391 65.0781 71.38 79.3659 53.9585 79.3659C36.5371 79.3659 22.3779 65.0781 22.3779 47.4083C22.3779 29.7385 36.5371 15.4508 53.9585 15.4508ZM53.9585 13.6153C72.4142 13.6153 87.3754 28.7449 87.3754 47.4083C87.3754 66.0717 72.4142 81.2014 53.9585 81.2014C35.5029 81.2014 20.5416 66.0717 20.5416 47.4083C20.5416 28.7449 35.5029 13.6153 53.9585 13.6153Z" fill="black"/>
<path d="M79.8338 55.2069C79.8338 36.5435 64.8725 21.4139 46.4169 21.4139C27.9613 21.4139 13 36.5435 13 55.2069C13 73.8703 27.9613 89 46.4169 89C64.8725 89 79.8338 73.8703 79.8338 55.2069Z" fill="#F9D745"/>
<path fill-rule="evenodd" clip-rule="evenodd" d="M46.4169 23.2494C63.8384 23.2494 77.9975 37.5371 77.9975 55.2069C77.9975 72.8767 63.8384 87.1645 46.4169 87.1645C28.9954 87.1645 14.8363 72.8767 14.8363 55.2069C14.8363 37.5371 28.9954 23.2494 46.4169 23.2494ZM46.4169 21.4139C64.8725 21.4139 79.8338 36.5435 79.8338 55.2069C79.8338 73.8703 64.8725 89 46.4169 89C27.9613 89 13 73.8703 13 55.2069C13 36.5435 27.9613 21.4139 46.4169 21.4139Z" fill="black"/>
</g>
<rect x="1" y="1" width="100" height="100" stroke="black" stroke-width="2"/>
<defs>
<clipPath id="clip0">
<rect x="1" y="1" width="100" height="100" fill="white"/>
</clipPath>
</defs>
</svg>
