<svg width="102" height="102" viewBox="0 0 102 102" fill="none" xmlns="http://www.w3.org/2000/svg">
<rect x="1" y="1" width="100" height="100" fill="#F9D745"/>
<path d="M50.8588 15.3213C61.1055 15.3213 69.4121 23.6852 69.4121 34.0026L69.4121 52.0735C69.4121 62.3909 61.1055 70.7549 50.8588 70.7549C40.6121 70.7549 32.3055 62.3909 32.3055 52.0735L32.3055 34.0026C32.3055 23.6852 40.6121 15.3213 50.8588 15.3213Z" fill="#5551FF"/>
<path fill-rule="evenodd" clip-rule="evenodd" d="M50.8588 14.7053C61.4434 14.7053 70.0238 23.345 70.0238 34.0025L70.0238 52.0734C70.0238 62.731 61.4434 71.3706 50.8588 71.3706C40.2743 71.3706 31.6939 62.731 31.6939 52.0734L31.6939 34.0025C31.6939 23.345 40.2743 14.7053 50.8588 14.7053ZM68.8005 34.0025C68.8005 24.0253 60.7677 15.9371 50.8588 15.9371C40.9499 15.9371 32.9172 24.0252 32.9172 34.0025L32.9172 52.0734C32.9172 62.0507 40.9499 70.1389 50.8588 70.1389C60.7677 70.1389 68.8005 62.0507 68.8005 52.0734L68.8005 34.0025Z" fill="#5551FF"/>
<path fill-rule="evenodd" clip-rule="evenodd" d="M69.3505 16.0887H32.6064V70.7279H69.3505V16.0887ZM31.3831 14.8569V71.9596H70.5738V14.8569H31.3831Z" fill="black"/>
<path d="M30 13H34.4854V17.5164H30V13Z" fill="white"/>
<path fill-rule="evenodd" clip-rule="evenodd" d="M29.3883 12.384H35.097V18.1321H29.3883V12.384ZM30.6116 13.6158V16.9004H33.8737V13.6158H30.6116Z" fill="black"/>
<path d="M30 69.1743H34.4854V73.6907H30V69.1743Z" fill="white"/>
<path fill-rule="evenodd" clip-rule="evenodd" d="M29.3884 68.5583H35.0971V74.3064H29.3884V68.5583ZM30.6117 69.7901V73.0747H33.8738V69.7901H30.6117Z" fill="black"/>
<path d="M67.5145 13H72V17.5164H67.5145V13Z" fill="white"/>
<path fill-rule="evenodd" clip-rule="evenodd" d="M66.903 12.3843H72.6117V18.1324H66.903V12.3843ZM68.1263 13.616V16.9006H71.3884V13.616H68.1263Z" fill="black"/>
<path d="M67.5144 69.1743H71.9998V73.6907H67.5144V69.1743Z" fill="white"/>
<path fill-rule="evenodd" clip-rule="evenodd" d="M66.9027 68.5583H72.6114V74.3065H66.9027V68.5583ZM68.126 69.7901V73.0747H71.3881V69.7901H68.126Z" fill="black"/>
<path d="M45.3322 47.6594H48.7221C50.1541 47.6594 51.2646 46.865 51.2646 45.379C51.2646 44.1873 50.2856 43.1574 48.7221 43.1574H45.5806C45.1569 43.1574 44.8501 43.1427 44.8501 42.8338C44.8501 42.5984 44.9962 42.4365 45.4053 42.3188C45.8436 42.5101 46.3843 42.5689 46.9249 42.5689C48.6345 42.5689 49.9057 41.5979 50.081 40.009L50.0956 39.8766C50.1833 39.1262 50.3002 39.0233 50.7531 39.0233H51.5568V37.4343H51.0015C50.0226 37.4343 49.7449 37.7286 49.7011 38.6996C49.2189 37.8168 48.1669 37.2136 46.8518 37.2136C45.0108 37.2136 43.6811 38.3171 43.6811 39.9648C43.6811 40.671 43.988 41.3331 44.4702 41.7303C43.8711 42.054 43.3158 42.5984 43.3158 43.334C43.3158 43.9961 43.5789 44.3933 44.0026 44.6875C43.5789 44.9671 43.1405 45.4967 43.1405 46.1441C43.1405 47.0857 43.7834 47.6594 45.3322 47.6594ZM46.9103 41.2007C46.1359 41.2007 45.6245 40.7005 45.6245 39.9501C45.6245 39.1851 46.1359 38.626 46.9103 38.626C47.6847 38.626 48.1961 39.1851 48.1961 39.9501C48.1961 40.7005 47.6847 41.2007 46.9103 41.2007ZM45.4637 46.1441C45.0692 46.1441 44.7332 45.9234 44.7332 45.4526C44.7332 45.1583 44.9377 44.8935 45.1131 44.7905H48.313C48.9998 44.7905 49.2189 45.1142 49.2189 45.4526C49.2189 45.8645 48.9998 46.1441 48.313 46.1441H45.4637Z" fill="black"/>
<path d="M55.7049 45.0259C57.9405 45.0259 59.5477 43.5105 59.5477 41.1124C59.5477 38.7584 57.9405 37.2136 55.7049 37.2136C53.4693 37.2136 51.862 38.7584 51.862 41.1124C51.862 43.3781 53.4693 45.0259 55.7049 45.0259ZM55.7049 43.3634C54.7113 43.3634 54.0245 42.6572 54.0245 41.1418C54.0245 39.6265 54.7113 38.8614 55.7049 38.8614C56.6985 38.8614 57.3852 39.6265 57.3852 41.1418C57.3852 42.6572 56.6985 43.3634 55.7049 43.3634Z" fill="black"/>
<path fill-rule="evenodd" clip-rule="evenodd" d="M50.3155 71.3203C50.5544 71.0798 50.9417 71.0798 51.1805 71.3203L55.073 75.2396C55.3119 75.4801 55.3119 75.8701 55.073 76.1106C54.8342 76.3511 54.4469 76.3511 54.208 76.1106L51.3597 73.2426L51.3597 87.5132L54.208 84.6452C54.4469 84.4047 54.8342 84.4047 55.073 84.6452C55.3119 84.8857 55.3119 85.2757 55.073 85.5162L51.1805 89.4356C50.9417 89.6761 50.5544 89.6761 50.3155 89.4356L46.423 85.5162C46.1842 85.2757 46.1842 84.8857 46.423 84.6452C46.6619 84.4047 47.0492 84.4047 47.288 84.6452L50.1364 87.5132L50.1364 73.2426L47.288 76.1106C47.0492 76.3511 46.6619 76.3511 46.423 76.1106C46.1842 75.8701 46.1842 75.4801 46.423 75.2396L50.3155 71.3203Z" fill="black"/>
<rect x="1" y="1" width="100" height="100" stroke="black" stroke-width="2"/>
</svg>
