<svg width="102" height="102" viewBox="0 0 102 102" fill="none" xmlns="http://www.w3.org/2000/svg">
<g clip-path="url(#clip0)">
<rect x="1" y="1" width="100" height="100" fill="#F9D745"/>
<path d="M13.1869 29.4523C13.1869 19.3671 21.3462 11.1914 31.4111 11.1914H107.224C117.289 11.1914 125.448 19.3671 125.448 29.4523V58.6696C125.448 68.7548 117.289 76.9304 107.224 76.9304H31.4112C21.3462 76.9304 13.1869 68.7548 13.1869 58.6696V29.4523Z" fill="#5551FF"/>
<path fill-rule="evenodd" clip-rule="evenodd" d="M12.6401 29.4522C12.6401 19.0645 21.0442 10.6436 31.4111 10.6436H107.224C117.591 10.6436 125.995 19.0645 125.995 29.4522V58.6696C125.995 69.0573 117.591 77.4782 107.224 77.4782H31.4111C21.0442 77.4782 12.6401 69.0573 12.6401 58.6696V29.4522ZM31.4111 11.7392C21.6481 11.7392 13.7336 19.6696 13.7336 29.4522V58.6696C13.7336 68.4522 21.6481 76.3826 31.4111 76.3826H107.224C116.987 76.3826 124.902 68.4522 124.902 58.6696V29.4522C124.902 19.6696 116.987 11.7392 107.224 11.7392H31.4111Z" fill="#5551FF"/>
<path fill-rule="evenodd" clip-rule="evenodd" d="M125.448 11.5566H13.5515V76.5652H125.448V11.5566ZM12.458 10.4609V77.6608H126.542V10.4609H12.458Z" fill="black"/>
<path d="M11.0007 9H15.0101V13.0174H11.0007V9Z" fill="white"/>
<path fill-rule="evenodd" clip-rule="evenodd" d="M10.4537 8.45215H15.5565V13.5652H10.4537V8.45215ZM11.5472 9.5478V12.4695H14.4631V9.5478H11.5472Z" fill="black"/>
<path d="M11 75.4695H15.0093V79.4868H11V75.4695Z" fill="white"/>
<path fill-rule="evenodd" clip-rule="evenodd" d="M10.4532 74.9216H15.556V80.0347H10.4532V74.9216ZM11.5467 76.0173V78.939H14.4626V76.0173H11.5467Z" fill="black"/>
<path d="M64.0693 36.4299H67.0994C68.3794 36.4299 69.372 35.7232 69.372 34.4014C69.372 33.3414 68.4969 32.4253 67.0994 32.4253H64.2914C63.9126 32.4253 63.6383 32.4122 63.6383 32.1374C63.6383 31.928 63.7689 31.784 64.1346 31.6794C64.5265 31.8495 65.0097 31.9018 65.493 31.9018C67.0211 31.9018 68.1573 31.0381 68.3141 29.6247L68.3271 29.5069C68.4055 28.8395 68.51 28.7479 68.9149 28.7479H69.6332V27.3345H69.1369C68.2618 27.3345 68.0137 27.5962 67.9745 28.46C67.5435 27.6747 66.6031 27.1382 65.4277 27.1382C63.782 27.1382 62.5935 28.1197 62.5935 29.5854C62.5935 30.2136 62.8678 30.8025 63.2988 31.1559C62.7633 31.4438 62.267 31.928 62.267 32.5823C62.267 33.1713 62.5021 33.5246 62.8808 33.7863C62.5021 34.035 62.1102 34.5061 62.1102 35.082C62.1102 35.9195 62.6849 36.4299 64.0693 36.4299ZM65.4799 30.6847C64.7877 30.6847 64.3306 30.2398 64.3306 29.5724C64.3306 28.8918 64.7877 28.3945 65.4799 28.3945C66.1721 28.3945 66.6292 28.8918 66.6292 29.5724C66.6292 30.2398 66.1721 30.6847 65.4799 30.6847ZM64.1869 35.082C63.8342 35.082 63.5338 34.8857 63.5338 34.4669C63.5338 34.2051 63.7167 33.9696 63.8734 33.878H66.7337C67.3476 33.878 67.5435 34.1659 67.5435 34.4669C67.5435 34.8333 67.3476 35.082 66.7337 35.082H64.1869Z" fill="black"/>
<path d="M73.341 34.0873C75.3393 34.0873 76.776 32.7394 76.776 30.6062C76.776 28.5123 75.3393 27.1382 73.341 27.1382C71.3427 27.1382 69.9061 28.5123 69.9061 30.6062C69.9061 32.6216 71.3427 34.0873 73.341 34.0873ZM73.341 32.6085C72.4529 32.6085 71.839 31.9804 71.839 30.6324C71.839 29.2844 72.4529 28.6039 73.341 28.6039C74.2291 28.6039 74.843 29.2844 74.843 30.6324C74.843 31.9804 74.2291 32.6085 73.341 32.6085Z" fill="black"/>
<path d="M64.0693 49.457H67.0994C68.3794 49.457 69.372 48.7503 69.372 47.4286C69.372 46.3685 68.4969 45.4524 67.0994 45.4524H64.2914C63.9126 45.4524 63.6383 45.4393 63.6383 45.1645C63.6383 44.9551 63.7689 44.8112 64.1346 44.7065C64.5265 44.8766 65.0097 44.929 65.493 44.929C67.0211 44.929 68.1573 44.0652 68.3141 42.6518L68.3271 42.534C68.4055 41.8666 68.51 41.775 68.9149 41.775H69.6332V40.3616H69.1369C68.2618 40.3616 68.0137 40.6234 67.9745 41.4871C67.5435 40.7019 66.6031 40.1653 65.4277 40.1653C63.782 40.1653 62.5935 41.1468 62.5935 42.6126C62.5935 43.2407 62.8678 43.8297 63.2988 44.183C62.7633 44.4709 62.267 44.9551 62.267 45.6095C62.267 46.1984 62.5021 46.5517 62.8808 46.8135C62.5021 47.0621 62.1102 47.5333 62.1102 48.1091C62.1102 48.9466 62.6849 49.457 64.0693 49.457ZM65.4799 43.7119C64.7877 43.7119 64.3306 43.2669 64.3306 42.5995C64.3306 41.919 64.7877 41.4217 65.4799 41.4217C66.1721 41.4217 66.6292 41.919 66.6292 42.5995C66.6292 43.2669 66.1721 43.7119 65.4799 43.7119ZM64.1869 48.1091C63.8342 48.1091 63.5338 47.9128 63.5338 47.494C63.5338 47.2323 63.7167 46.9967 63.8734 46.9051H66.7337C67.3476 46.9051 67.5435 47.193 67.5435 47.494C67.5435 47.8604 67.3476 48.1091 66.7337 48.1091H64.1869Z" fill="black"/>
<path d="M73.341 47.1145C75.3393 47.1145 76.776 45.7665 76.776 43.6333C76.776 41.5394 75.3393 40.1653 73.341 40.1653C71.3427 40.1653 69.9061 41.5394 69.9061 43.6333C69.9061 45.6487 71.3427 47.1145 73.341 47.1145ZM73.341 45.6357C72.4529 45.6357 71.839 45.0075 71.839 43.6595C71.839 42.3116 72.4529 41.631 73.341 41.631C74.2291 41.631 74.843 42.3116 74.843 43.6595C74.843 45.0075 74.2291 45.6357 73.341 45.6357Z" fill="black"/>
<path d="M64.0693 62.4842H67.0994C68.3794 62.4842 69.372 61.7775 69.372 60.4557C69.372 59.3956 68.4969 58.4796 67.0994 58.4796H64.2914C63.9126 58.4796 63.6383 58.4665 63.6383 58.1916C63.6383 57.9823 63.7689 57.8383 64.1346 57.7336C64.5265 57.9037 65.0097 57.9561 65.493 57.9561C67.0211 57.9561 68.1573 57.0923 68.3141 55.679L68.3271 55.5612C68.4055 54.8937 68.51 54.8021 68.9149 54.8021H69.6332V53.3887H69.1369C68.2618 53.3887 68.0137 53.6505 67.9745 54.5142C67.5435 53.729 66.6031 53.1924 65.4277 53.1924C63.782 53.1924 62.5935 54.174 62.5935 55.6397C62.5935 56.2679 62.8678 56.8568 63.2988 57.2101C62.7633 57.498 62.267 57.9823 62.267 58.6366C62.267 59.2255 62.5021 59.5789 62.8808 59.8406C62.5021 60.0893 62.1102 60.5604 62.1102 61.1362C62.1102 61.9738 62.6849 62.4842 64.0693 62.4842ZM65.4799 56.739C64.7877 56.739 64.3306 56.294 64.3306 55.6266C64.3306 54.9461 64.7877 54.4488 65.4799 54.4488C66.1721 54.4488 66.6292 54.9461 66.6292 55.6266C66.6292 56.294 66.1721 56.739 65.4799 56.739ZM64.1869 61.1362C63.8342 61.1362 63.5338 60.9399 63.5338 60.5211C63.5338 60.2594 63.7167 60.0238 63.8734 59.9322H66.7337C67.3476 59.9322 67.5435 60.2201 67.5435 60.5211C67.5435 60.8876 67.3476 61.1362 66.7337 61.1362H64.1869Z" fill="black"/>
<path d="M73.341 60.1416C75.3393 60.1416 76.776 58.7936 76.776 56.6605C76.776 54.5666 75.3393 53.1924 73.341 53.1924C71.3427 53.1924 69.9061 54.5666 69.9061 56.6605C69.9061 58.6759 71.3427 60.1416 73.341 60.1416ZM73.341 58.6628C72.4529 58.6628 71.839 58.0346 71.839 56.6866C71.839 55.3387 72.4529 54.6582 73.341 54.6582C74.2291 54.6582 74.843 55.3387 74.843 56.6866C74.843 58.0346 74.2291 58.6628 73.341 58.6628Z" fill="black"/>
<path fill-rule="evenodd" clip-rule="evenodd" d="M70.0687 93.3874C69.8552 93.6013 69.509 93.6013 69.2955 93.3874L65.8161 89.9011C65.6026 89.6871 65.6026 89.3403 65.8161 89.1263C66.0296 88.9124 66.3758 88.9124 66.5893 89.1263L69.1354 91.6775L69.1354 78.9835L66.5893 81.5346C66.3758 81.7486 66.0296 81.7486 65.8161 81.5346C65.6026 81.3207 65.6026 80.9738 65.8161 80.7599L69.2955 77.2736C69.509 77.0596 69.8552 77.0596 70.0687 77.2736L73.548 80.7599C73.7616 80.9738 73.7616 81.3207 73.548 81.5346C73.3345 81.7486 72.9884 81.7486 72.7749 81.5346L70.2288 78.9835L70.2288 91.6775L72.7749 89.1263C72.9884 88.9124 73.3345 88.9124 73.548 89.1263C73.7616 89.3403 73.7616 89.6871 73.548 89.9011L70.0687 93.3874Z" fill="black"/>
</g>
<rect x="1" y="1" width="100" height="100" stroke="black" stroke-width="2"/>
<defs>
<clipPath id="clip0">
<rect x="1" y="1" width="100" height="100" fill="white"/>
</clipPath>
</defs>
</svg>
