<svg width="102" height="102" viewBox="0 0 102 102" fill="none" xmlns="http://www.w3.org/2000/svg">
<g clip-path="url(#clip0)">
<rect x="1" y="1" width="100" height="100" fill="#FFDCDC"/>
<path d="M112.5 264.5C197.552 264.5 266.5 195.552 266.5 110.5C266.5 25.4481 197.552 -43.5 112.5 -43.5C27.4481 -43.5 -41.5 25.4481 -41.5 110.5C-41.5 195.552 27.4481 264.5 112.5 264.5Z" fill="#5551FF" stroke="black"/>
<path d="M112.5 254.906C192.253 254.906 256.906 190.253 256.906 110.5C256.906 30.7466 192.253 -33.9062 112.5 -33.9062C32.7466 -33.9062 -31.9062 30.7466 -31.9062 110.5C-31.9062 190.253 32.7466 254.906 112.5 254.906Z" fill="#F24E1E" stroke="black"/>
<path d="M112.5 245.312C186.955 245.312 247.312 184.955 247.312 110.5C247.312 36.0451 186.955 -24.3125 112.5 -24.3125C38.0451 -24.3125 -22.3125 36.0451 -22.3125 110.5C-22.3125 184.955 38.0451 245.312 112.5 245.312Z" fill="#FFC700" stroke="black"/>
<path d="M112.5 235.719C181.656 235.719 237.719 179.656 237.719 110.5C237.719 41.3436 181.656 -14.7188 112.5 -14.7188C43.3436 -14.7188 -12.7188 41.3436 -12.7188 110.5C-12.7188 179.656 43.3436 235.719 112.5 235.719Z" fill="#0FA958" stroke="black"/>
<path d="M112.5 226.125C176.358 226.125 228.125 174.358 228.125 110.5C228.125 46.6421 176.358 -5.125 112.5 -5.125C48.6421 -5.125 -3.125 46.6421 -3.125 110.5C-3.125 174.358 48.6421 226.125 112.5 226.125Z" fill="#A259FF" stroke="black"/>
<path d="M112.5 216.531C171.059 216.531 218.531 169.059 218.531 110.5C218.531 51.9406 171.059 4.46875 112.5 4.46875C53.9406 4.46875 6.46875 51.9406 6.46875 110.5C6.46875 169.059 53.9406 216.531 112.5 216.531Z" fill="#DAEBF7" stroke="black"/>
<path d="M112.5 206.938C165.761 206.938 208.938 163.761 208.938 110.5C208.938 57.239 165.761 14.0625 112.5 14.0625C59.239 14.0625 16.0625 57.239 16.0625 110.5C16.0625 163.761 59.239 206.938 112.5 206.938Z" fill="white" stroke="black"/>
<g style="mix-blend-mode:multiply">
<rect width="52" height="52" transform="translate(39 39)" fill="white"/>
<path fill-rule="evenodd" clip-rule="evenodd" d="M53 57.004C53 59.2154 54.7927 61.0081 57.004 61.0081C59.2154 61.0081 61.0081 59.2154 61.0081 57.004C61.0081 54.7927 59.2154 53 57.004 53C54.7927 53 53 54.7927 53 57.004ZM69.0163 57.004C69.0163 59.2154 70.8089 61.0081 73.0203 61.0081C75.2317 61.0081 77.0244 59.2154 77.0244 57.004C77.0244 54.7927 75.2317 53 73.0203 53C70.8089 53 69.0163 54.7927 69.0163 57.004ZM73.0203 77.0244C70.8089 77.0244 69.0163 75.2317 69.0163 73.0203C69.0163 70.8089 70.8089 69.0163 73.0203 69.0163C75.2317 69.0163 77.0244 70.8089 77.0244 73.0203C77.0244 75.2317 75.2317 77.0244 73.0203 77.0244ZM53 73.0203C53 75.2317 54.7927 77.0244 57.004 77.0244C59.2154 77.0244 61.0081 75.2317 61.0081 73.0203C61.0081 70.8089 59.2154 69.0163 57.004 69.0163C54.7927 69.0163 53 70.8089 53 73.0203Z" fill="black"/>
</g>
</g>
<rect x="1" y="1" width="100" height="100" stroke="black" stroke-width="2"/>
<defs>
<clipPath id="clip0">
<rect x="1" y="1" width="100" height="100" fill="white"/>
</clipPath>
</defs>
</svg>
