<svg width="102" height="102" viewBox="0 0 102 102" fill="none" xmlns="http://www.w3.org/2000/svg">
<g clip-path="url(#clip0)">
<rect x="1" y="1" width="100" height="100" fill="#FFDCDC"/>
<path d="M20 47.2287C20 44.1043 22.5228 41.5715 25.6349 41.5715H98.8881C111.336 41.5715 121.427 51.7027 121.427 64.2001V78.343C121.427 81.4673 118.905 84.0001 115.793 84.0001H25.6349C22.5228 84.0001 20 81.4673 20 78.343V47.2287Z" fill="black"/>
<path d="M21.5725 45.6572C21.5725 42.5328 24.0953 40 27.2074 40H100.461C112.909 40 123 50.1312 123 62.6286V76.7714C123 79.8958 120.477 82.4286 117.365 82.4286H27.2074C24.0953 82.4286 21.5725 79.8958 21.5725 76.7714V45.6572Z" fill="white"/>
<path fill-rule="evenodd" clip-rule="evenodd" d="M100.461 42.0032H27.2074C25.1973 42.0032 23.5679 43.6391 23.5679 45.6572V76.7714C23.5679 78.7894 25.1973 80.4253 27.2074 80.4253H117.365C119.375 80.4253 121.005 78.7894 121.005 76.7714V62.6286C121.005 51.2375 111.807 42.0032 100.461 42.0032ZM27.2074 40C24.0953 40 21.5725 42.5328 21.5725 45.6572V76.7714C21.5725 79.8958 24.0953 82.4286 27.2074 82.4286H117.365C120.477 82.4286 123 79.8958 123 76.7714V62.6286C123 50.1312 112.909 40 100.461 40H27.2074Z" fill="black"/>
<path d="M37 66.4669H42.4526C44.7467 66.4669 46.5421 65.3461 46.5421 63.2691C46.5421 61.7691 45.4117 60.6977 43.9156 60.434C45.2122 60.0878 46.1598 59.1482 46.1598 57.7307C46.1598 56.0658 44.8797 54.9285 42.3529 54.9285H37V66.4669ZM39.1611 59.5933V56.7581H42.0703C43.234 56.7581 43.9654 57.1702 43.9654 58.1428C43.9654 59.1153 43.234 59.5933 42.0703 59.5933H39.1611ZM39.1611 64.6373V61.39H42.1368C43.4335 61.39 44.2813 61.9175 44.2813 63.0054C44.2813 64.1098 43.4335 64.6373 42.1368 64.6373H39.1611Z" fill="black"/>
<path d="M51.1622 66.7142C52.7913 66.7142 53.556 65.6592 53.8885 65.1153V66.4669H55.9V58.2581H53.8719V62.1153C53.8719 63.434 53.5726 65.0329 51.9933 65.0329C51.1123 65.0329 50.5637 64.5219 50.5637 63.2526V58.2581H48.5356V63.7307C48.5356 65.5274 49.4499 66.7142 51.1622 66.7142Z" fill="black"/>
<path d="M61.3686 66.4669H63.8289V64.8186H62.0668C61.5348 64.8186 61.3021 64.5878 61.3021 64.0603V59.8241H63.4965V58.2581H61.3021V55.6702H59.274V58.2581H57.4786V59.8241H59.274V64.3735C59.274 65.6757 60.0221 66.4669 61.3686 66.4669Z" fill="black"/>
<path d="M68.4487 66.4669H70.909V64.8186H69.1469C68.6149 64.8186 68.3822 64.5878 68.3822 64.0603V59.8241H70.5766V58.2581H68.3822V55.6702H66.3541V58.2581H64.5587V59.8241H66.3541V64.3735C66.3541 65.6757 67.1022 66.4669 68.4487 66.4669Z" fill="black"/>
<path d="M76.0964 66.7142C78.5068 66.7142 80.269 64.9669 80.269 62.3625C80.269 59.7911 78.5234 58.0109 76.0964 58.0109C73.6693 58.0109 71.9237 59.7911 71.9237 62.3625C71.9237 64.868 73.6859 66.7142 76.0964 66.7142ZM76.0964 65.0823C74.8662 65.0823 74.0184 64.2252 74.0184 62.3955C74.0184 60.5658 74.8662 59.6428 76.0964 59.6428C77.3265 59.6428 78.1577 60.5658 78.1577 62.3955C78.1577 64.2252 77.3265 65.0823 76.0964 65.0823Z" fill="black"/>
<path d="M82.2319 66.4669H84.26V62.7252C84.26 61.7197 84.2932 59.6922 86.1551 59.6922C87.0694 59.6922 87.6513 60.2197 87.6513 61.4559V66.4669H89.6794V61.0109C89.6794 59.2142 88.8648 58.0109 86.8866 58.0109C85.274 58.0109 84.4761 59.0823 84.2101 59.5603V58.2581H82.2319V66.4669Z" fill="black"/>
<rect x="12" y="34" width="143" height="56" stroke="#5551FF" stroke-width="2"/>
<rect x="9" y="31" width="6" height="6" fill="#5551FF" stroke="#5551FF" stroke-width="2"/>
<rect x="9" y="87" width="6" height="6" fill="#5551FF" stroke="#5551FF" stroke-width="2"/>
<g clip-path="url(#clip1)">
<path d="M13.0625 11.9375L17 8L20.9375 11.9375L17 15.875L13.0625 11.9375Z" fill="#5551FF"/>
<path d="M13.0625 22.0625L17 18.125L20.9375 22.0625L17 26L13.0625 22.0625Z" fill="#5551FF"/>
<path d="M8 17L11.9375 13.0625L15.875 17L11.9375 20.9375L8 17Z" fill="#5551FF"/>
<path d="M18.125 17L22.0625 13.0625L26 17L22.0625 20.9375L18.125 17Z" fill="#5551FF"/>
</g>
<path d="M35.3061 22.5H39.2088C41.5753 22.5 42.6442 21.3217 42.6442 19.7607C42.6442 18.1847 41.5405 17.2947 40.5312 17.2401V17.1406C41.4659 16.902 42.2464 16.2656 42.2464 14.9929C42.2464 13.4865 41.2024 12.3182 39.0348 12.3182H35.3061V22.5ZM36.8423 21.1825V17.9212H39.1143C40.3473 17.9212 41.1179 18.7166 41.1179 19.6861C41.1179 20.5412 40.5362 21.1825 39.0597 21.1825H36.8423ZM36.8423 16.723V13.6257H38.9403C40.1584 13.6257 40.7401 14.267 40.7401 15.1122C40.7401 16.0966 39.9347 16.723 38.9006 16.723H36.8423ZM49.1843 19.3331C49.1893 20.6307 48.2248 21.2472 47.3896 21.2472C46.4698 21.2472 45.8335 20.581 45.8335 19.5419V14.8636H44.3469V19.7209C44.3469 21.6151 45.386 22.5994 46.8526 22.5994C48.0011 22.5994 48.7816 21.9929 49.1346 21.1776H49.2141V22.5H50.6758V14.8636H49.1843V19.3331ZM56.2377 14.8636H54.6717V13.0341H53.1852V14.8636H52.0666V16.0568H53.1852V20.5661C53.1802 21.9531 54.2392 22.6243 55.4125 22.5994C55.8848 22.5945 56.2029 22.505 56.377 22.4403L56.1085 21.2124C56.0091 21.2322 55.8251 21.277 55.5865 21.277C55.1042 21.277 54.6717 21.1179 54.6717 20.2578V16.0568H56.2377V14.8636ZM61.4467 14.8636H59.8807V13.0341H58.3942V14.8636H57.2756V16.0568H58.3942V20.5661C58.3892 21.9531 59.4482 22.6243 60.6214 22.5994C61.0938 22.5945 61.4119 22.505 61.5859 22.4403L61.3175 21.2124C61.218 21.2322 61.0341 21.277 60.7955 21.277C60.3132 21.277 59.8807 21.1179 59.8807 20.2578V16.0568H61.4467V14.8636ZM66.2257 22.6541C68.3784 22.6541 69.7853 21.0781 69.7853 18.7166C69.7853 16.3402 68.3784 14.7642 66.2257 14.7642C64.073 14.7642 62.666 16.3402 62.666 18.7166C62.666 21.0781 64.073 22.6541 66.2257 22.6541ZM66.2306 21.4062C64.8237 21.4062 64.1674 20.1783 64.1674 18.7116C64.1674 17.25 64.8237 16.0071 66.2306 16.0071C67.6277 16.0071 68.2839 17.25 68.2839 18.7116C68.2839 20.1783 67.6277 21.4062 66.2306 21.4062ZM72.9311 17.9659C72.9311 16.7479 73.6768 16.0518 74.7109 16.0518C75.7202 16.0518 76.3317 16.7131 76.3317 17.8217V22.5H77.8182V17.6428C77.8182 15.7536 76.7791 14.7642 75.218 14.7642C74.0696 14.7642 73.3189 15.2962 72.9659 16.1065H72.8714V14.8636H71.4446V22.5H72.9311V17.9659Z" fill="#5551FF"/>
</g>
<rect x="1" y="1" width="100" height="100" stroke="black" stroke-width="2"/>
<defs>
<clipPath id="clip0">
<rect x="1" y="1" width="100" height="100" fill="white"/>
</clipPath>
<clipPath id="clip1">
<rect width="18" height="18" fill="white" transform="translate(8 8)"/>
</clipPath>
</defs>
</svg>
