<svg width="102" height="102" viewBox="0 0 102 102" fill="none" xmlns="http://www.w3.org/2000/svg">
<g clip-path="url(#clip0)">
<rect x="1" y="1" width="100" height="100" fill="#FFDCDC"/>
<rect x="9" y="34" width="316" height="171" rx="7" stroke="#5551FF" stroke-width="2" stroke-dasharray="8 8"/>
<path d="M19 75C19 70.5817 22.5817 67 27 67H111C122.046 67 131 75.9543 131 87V91C131 95.4183 127.418 99 123 99H27C22.5817 99 19 95.4183 19 91V75Z" fill="#5551FF"/>
<path d="M19 53L28 44L37 53L28 62L19 53Z" fill="#5551FF"/>
<path d="M46.0085 48.3182H44.348L48.0121 58.5H49.7869L53.451 48.3182H51.7905L48.9567 56.6108H48.8423L46.0085 48.3182ZM56.2587 58.669C57.5215 58.669 58.2324 58.0277 58.5158 57.456H58.5755V58.5H60.0272V53.429C60.0272 51.2067 58.2772 50.7642 57.0641 50.7642C55.682 50.7642 54.4093 51.321 53.9121 52.7131L55.3091 53.0312C55.5279 52.4893 56.0847 51.9673 57.084 51.9673C58.0435 51.9673 58.5357 52.4695 58.5357 53.3345V53.3693C58.5357 53.9112 57.9789 53.9013 56.6067 54.0604C55.16 54.2294 53.6784 54.6072 53.6784 56.3423C53.6784 57.8438 54.807 58.669 56.2587 58.669ZM56.5819 57.4759C55.7417 57.4759 55.1351 57.098 55.1351 56.3622C55.1351 55.5668 55.8411 55.2834 56.7012 55.169C57.1834 55.1044 58.3269 54.9751 58.5407 54.7614V55.7457C58.5407 56.6506 57.8198 57.4759 56.5819 57.4759ZM62.0071 58.5H63.4936V53.8366C63.4936 52.8374 64.2642 52.1165 65.3182 52.1165C65.6264 52.1165 65.9744 52.1712 66.0938 52.206V50.7841C65.9446 50.7642 65.6513 50.7493 65.4624 50.7493C64.5675 50.7493 63.8018 51.2564 63.5234 52.0767H63.4439V50.8636H62.0071V58.5ZM67.3801 58.5H68.8667V50.8636H67.3801V58.5ZM68.1309 49.6854C68.6429 49.6854 69.0705 49.2876 69.0705 48.8004C69.0705 48.3132 68.6429 47.9105 68.1309 47.9105C67.6138 47.9105 67.1912 48.3132 67.1912 48.8004C67.1912 49.2876 67.6138 49.6854 68.1309 49.6854ZM73.0888 58.669C74.3516 58.669 75.0625 58.0277 75.3459 57.456H75.4055V58.5H76.8572V53.429C76.8572 51.2067 75.1072 50.7642 73.8942 50.7642C72.5121 50.7642 71.2393 51.321 70.7422 52.7131L72.1392 53.0312C72.358 52.4893 72.9148 51.9673 73.9141 51.9673C74.8736 51.9673 75.3658 52.4695 75.3658 53.3345V53.3693C75.3658 53.9112 74.8089 53.9013 73.4368 54.0604C71.9901 54.2294 70.5085 54.6072 70.5085 56.3423C70.5085 57.8438 71.6371 58.669 73.0888 58.669ZM73.4119 57.4759C72.5717 57.4759 71.9652 57.098 71.9652 56.3622C71.9652 55.5668 72.6712 55.2834 73.5312 55.169C74.0135 55.1044 75.157 54.9751 75.3707 54.7614V55.7457C75.3707 56.6506 74.6499 57.4759 73.4119 57.4759ZM80.3237 53.9659C80.3237 52.7479 81.0694 52.0518 82.1035 52.0518C83.1127 52.0518 83.7243 52.7131 83.7243 53.8217V58.5H85.2108V53.6428C85.2108 51.7536 84.1717 50.7642 82.6106 50.7642C81.4622 50.7642 80.7115 51.2962 80.3585 52.1065H80.264V50.8636H78.8372V58.5H80.3237V53.9659ZM90.769 50.8636H89.2029V49.0341H87.7164V50.8636H86.5978V52.0568H87.7164V56.5661C87.7115 57.9531 88.7704 58.6243 89.9437 58.5994C90.416 58.5945 90.7342 58.505 90.9082 58.4403L90.6397 57.2124C90.5403 57.2322 90.3564 57.277 90.1177 57.277C89.6355 57.277 89.2029 57.1179 89.2029 56.2578V52.0568H90.769V50.8636Z" fill="#5551FF"/>
<g clip-path="url(#clip1)">
<path d="M13.0625 11.9375L17 8L20.9375 11.9375L17 15.875L13.0625 11.9375Z" fill="#5551FF"/>
<path d="M13.0625 22.0625L17 18.125L20.9375 22.0625L17 26L13.0625 22.0625Z" fill="#5551FF"/>
<path d="M8 17L11.9375 13.0625L15.875 17L11.9375 20.9375L8 17Z" fill="#5551FF"/>
<path d="M18.125 17L22.0625 13.0625L26 17L22.0625 20.9375L18.125 17Z" fill="#5551FF"/>
</g>
<path d="M35.3061 22.5H39.2088C41.5753 22.5 42.6442 21.3217 42.6442 19.7607C42.6442 18.1847 41.5405 17.2947 40.5312 17.2401V17.1406C41.4659 16.902 42.2464 16.2656 42.2464 14.9929C42.2464 13.4865 41.2024 12.3182 39.0348 12.3182H35.3061V22.5ZM36.8423 21.1825V17.9212H39.1143C40.3473 17.9212 41.1179 18.7166 41.1179 19.6861C41.1179 20.5412 40.5362 21.1825 39.0597 21.1825H36.8423ZM36.8423 16.723V13.6257H38.9403C40.1584 13.6257 40.7401 14.267 40.7401 15.1122C40.7401 16.0966 39.9347 16.723 38.9006 16.723H36.8423ZM49.1843 19.3331C49.1893 20.6307 48.2248 21.2472 47.3896 21.2472C46.4698 21.2472 45.8335 20.581 45.8335 19.5419V14.8636H44.3469V19.7209C44.3469 21.6151 45.386 22.5994 46.8526 22.5994C48.0011 22.5994 48.7816 21.9929 49.1346 21.1776H49.2141V22.5H50.6758V14.8636H49.1843V19.3331ZM56.2377 14.8636H54.6717V13.0341H53.1852V14.8636H52.0666V16.0568H53.1852V20.5661C53.1802 21.9531 54.2392 22.6243 55.4125 22.5994C55.8848 22.5945 56.2029 22.505 56.377 22.4403L56.1085 21.2124C56.0091 21.2322 55.8251 21.277 55.5865 21.277C55.1042 21.277 54.6717 21.1179 54.6717 20.2578V16.0568H56.2377V14.8636ZM61.4467 14.8636H59.8807V13.0341H58.3942V14.8636H57.2756V16.0568H58.3942V20.5661C58.3892 21.9531 59.4482 22.6243 60.6214 22.5994C61.0938 22.5945 61.4119 22.505 61.5859 22.4403L61.3175 21.2124C61.218 21.2322 61.0341 21.277 60.7955 21.277C60.3132 21.277 59.8807 21.1179 59.8807 20.2578V16.0568H61.4467V14.8636ZM66.2257 22.6541C68.3784 22.6541 69.7853 21.0781 69.7853 18.7166C69.7853 16.3402 68.3784 14.7642 66.2257 14.7642C64.073 14.7642 62.666 16.3402 62.666 18.7166C62.666 21.0781 64.073 22.6541 66.2257 22.6541ZM66.2306 21.4062C64.8237 21.4062 64.1674 20.1783 64.1674 18.7116C64.1674 17.25 64.8237 16.0071 66.2306 16.0071C67.6277 16.0071 68.2839 17.25 68.2839 18.7116C68.2839 20.1783 67.6277 21.4062 66.2306 21.4062ZM72.9311 17.9659C72.9311 16.7479 73.6768 16.0518 74.7109 16.0518C75.7202 16.0518 76.3317 16.7131 76.3317 17.8217V22.5H77.8182V17.6428C77.8182 15.7536 76.7791 14.7642 75.218 14.7642C74.0696 14.7642 73.3189 15.2962 72.9659 16.1065H72.8714V14.8636H71.4446V22.5H72.9311V17.9659Z" fill="#5551FF"/>
</g>
<rect x="1" y="1" width="100" height="100" stroke="black" stroke-width="2"/>
<defs>
<clipPath id="clip0">
<rect x="1" y="1" width="100" height="100" fill="white"/>
</clipPath>
<clipPath id="clip1">
<rect width="18" height="18" fill="white" transform="translate(8 8)"/>
</clipPath>
</defs>
</svg>
