<svg width="102" height="102" viewBox="0 0 102 102" fill="none" xmlns="http://www.w3.org/2000/svg">
<rect x="1" y="1" width="100" height="100" fill="#CFE2FF"/>
<path d="M14.8024 13.7754H92V94.0001H14.8024V13.7754Z" fill="#699BF7"/>
<path fill-rule="evenodd" clip-rule="evenodd" d="M91.6399 14.1335H15.1625V93.642H91.6399V14.1335ZM14.8024 13.7754V94.0001H92V13.7754H14.8024Z" fill="#699BF7"/>
<path d="M12.4011 11.3877H89.5988V91.6124H12.4011V11.3877Z" fill="#0FA958"/>
<path fill-rule="evenodd" clip-rule="evenodd" d="M89.2386 11.7458H12.7613V91.2543H89.2386V11.7458ZM12.4011 11.3877V91.6124H89.5988V11.3877H12.4011Z" fill="#0FA958"/>
<path d="M10 9H87.1977V89.2247H10V9Z" fill="#FFC700"/>
<mask id="mask0" mask-type="alpha" maskUnits="userSpaceOnUse" x="10" y="9" width="78" height="81">
<path d="M10 9H87.1977V89.2247H10V9Z" fill="black"/>
</mask>
<g mask="url(#mask0)">
<path d="M44.9124 64.7844L58.6445 84.6523L48.1108 91.8511L34.3786 71.9833L44.9124 64.7844Z" fill="#699BF7"/>
<path d="M33.1713 18.0729C33.1713 25.7211 26.9629 31.9212 19.3045 31.9212C11.821 31.9212 5.72208 26.0011 5.4474 18.5946C5.44098 18.4215 5.43774 18.2476 5.43774 18.0729C5.43774 10.4247 11.6461 4.22461 19.3045 4.22461C26.9629 4.22461 33.1713 10.4247 33.1713 18.0729Z" fill="#F24E1E"/>
<path d="M83.3558 40.696C83.3558 45.3442 79.5394 49.1124 74.8316 49.1124C70.2314 49.1124 66.4823 45.5144 66.3134 41.013C66.3095 40.9078 66.3075 40.8021 66.3075 40.696C66.3075 36.0477 70.1239 32.2795 74.8316 32.2795C79.5394 32.2795 83.3558 36.0477 83.3558 40.696Z" fill="#F24E1E"/>
<path d="M39.6544 63.4383C39.6544 68.581 35.4618 72.7501 30.2899 72.7501C25.2361 72.7501 21.1173 68.7693 20.9318 63.7891C20.9275 63.6727 20.9253 63.5557 20.9253 63.4383C20.9253 58.2955 25.118 54.1265 30.2899 54.1265C35.4618 54.1265 39.6544 58.2955 39.6544 63.4383Z" fill="#F24E1E"/>
<path d="M16.9854 71.0467L15.3316 64.9095L9.15955 66.554L15.7747 91.1029L40.4628 84.5251L38.809 78.3878L32.637 80.0323L30.9832 73.895L24.8112 75.5395L23.1574 69.4023L16.9854 71.0467Z" fill="#0FA958"/>
<path d="M59.6691 46.6006L58.3572 41.7321L53.4612 43.0366L58.7087 62.5103L78.2928 57.2924L76.9809 52.4239L72.0849 53.7284L70.773 48.86L65.877 50.1645L64.5651 45.2961L59.6691 46.6006Z" fill="#0FA958"/>
<path fill-rule="evenodd" clip-rule="evenodd" d="M86.8375 9.35815H10.3602V88.8666H86.8375V9.35815ZM10 9V89.2247H87.1977V9H10Z" fill="black"/>
<path d="M29.8097 14.2527H47.2182V23.3257H29.8097V14.2527Z" fill="#FFC700"/>
<path fill-rule="evenodd" clip-rule="evenodd" d="M46.858 14.6108H30.1699V22.9676H46.858V14.6108ZM29.8097 14.2527V23.3257H47.2182V14.2527H29.8097Z" fill="black"/>
<path d="M32.8342 18.6224L33.3836 18.439C33.4169 18.5943 33.4912 18.7242 33.6064 18.8286C33.7217 18.9331 33.8741 18.9853 34.0636 18.9853C34.2378 18.9853 34.3684 18.9547 34.4555 18.8936C34.5451 18.8325 34.59 18.7484 34.59 18.6415C34.59 18.4657 34.444 18.3562 34.152 18.3129L33.8177 18.2671C33.2517 18.1881 32.9687 17.9207 32.9687 17.4648C32.9687 17.2331 33.0635 17.0395 33.253 16.8842C33.4451 16.7288 33.7051 16.6511 34.0329 16.6511C34.3454 16.6511 34.5964 16.7173 34.7859 16.8498C34.9754 16.9797 35.1035 17.1516 35.1701 17.3655L34.6322 17.5527C34.5375 17.2598 34.3377 17.1134 34.0329 17.1134C33.8818 17.1134 33.7678 17.1439 33.691 17.2051C33.6141 17.2662 33.5757 17.3451 33.5757 17.4419C33.5757 17.5998 33.691 17.6953 33.9215 17.7284L34.2557 17.7743C34.5554 17.815 34.7872 17.9054 34.9511 18.0455C35.115 18.1856 35.197 18.3715 35.197 18.6033C35.197 18.8503 35.0997 19.0528 34.905 19.2107C34.7103 19.3686 34.4299 19.4475 34.0636 19.4475C33.7204 19.4475 33.4438 19.3711 33.2338 19.2183C33.0238 19.0655 32.8906 18.8669 32.8342 18.6224Z" fill="black"/>
<path d="M35.8177 18.886V17.8889H35.4143V17.4763H35.8177V16.8765H36.3633V17.4763H36.8627V17.8889H36.3633V18.7866C36.3633 18.8452 36.3761 18.8885 36.4017 18.9165C36.4299 18.942 36.4734 18.9547 36.5323 18.9547H36.9472V19.3864H36.3056C36.1545 19.3864 36.0354 19.3406 35.9483 19.2489C35.8613 19.1572 35.8177 19.0362 35.8177 18.886Z" fill="black"/>
<path d="M37.1158 18.4275C37.1158 18.1346 37.208 17.894 37.3924 17.7055C37.5768 17.5145 37.8086 17.419 38.0878 17.419C38.3772 17.419 38.6052 17.5132 38.7716 17.7017C38.9381 17.8901 39.0214 18.1334 39.0214 18.4313C39.0214 18.4899 39.0201 18.5332 39.0175 18.5612H37.6613C37.669 18.7166 37.7113 18.835 37.7881 18.9165C37.865 18.9955 37.9661 19.0349 38.0916 19.0349C38.2914 19.0349 38.44 18.9242 38.5373 18.7026L39.0252 18.8898C38.9586 19.0426 38.851 19.175 38.7025 19.2871C38.5565 19.394 38.3529 19.4475 38.0916 19.4475C37.7971 19.4475 37.5602 19.3558 37.3809 19.1725C37.2042 18.9866 37.1158 18.7382 37.1158 18.4275ZM37.6805 18.1792H38.4797C38.4515 17.9322 38.3209 17.8087 38.0878 17.8087C37.9776 17.8087 37.8867 17.8405 37.815 17.9042C37.7433 17.9678 37.6985 18.0595 37.6805 18.1792Z" fill="black"/>
<path d="M39.4336 20.1313V17.4763H39.9292C39.9292 17.5782 39.8755 17.7081 39.7679 17.866H39.9984C40.0752 17.7182 40.1572 17.6075 40.2443 17.5336C40.3339 17.4597 40.4671 17.4203 40.6438 17.4152C40.8769 17.4152 41.0664 17.5094 41.2124 17.6979C41.361 17.8863 41.4353 18.1308 41.4353 18.4313C41.4353 18.7319 41.361 18.9764 41.2124 19.1648C41.0664 19.3507 40.8769 19.4437 40.6438 19.4437C40.3467 19.4437 40.1341 19.2934 40.0061 18.9929H39.7756C39.8242 19.0719 39.8601 19.1368 39.8831 19.1878C39.9062 19.2361 39.928 19.3113 39.9484 19.4131C39.9689 19.515 39.9792 19.636 39.9792 19.7761V20.1313H39.4336ZM40.4133 19.0349C40.713 19.0349 40.8628 18.8337 40.8628 18.4313C40.8628 18.029 40.713 17.8278 40.4133 17.8278C40.2724 17.8278 40.161 17.88 40.0791 17.9844C39.9971 18.0888 39.9561 18.2378 39.9561 18.4313C39.9561 18.6275 39.9958 18.7777 40.0752 18.8821C40.1572 18.984 40.2699 19.0349 40.4133 19.0349Z" fill="black"/>
<path d="M43.2997 19.3864V17.7437C43.2997 17.568 43.333 17.4139 43.3996 17.2815H43.1845C43.1204 17.4623 43.041 17.5998 42.9463 17.694C42.8515 17.7857 42.7299 17.8341 42.5813 17.8392V17.2624C42.9706 17.2343 43.2344 17.051 43.3727 16.7122H43.8453V19.3864H43.2997Z" fill="black"/>
<path d="M37.6135 38.2485H55.022V47.3216H37.6135V38.2485Z" fill="#FFC700"/>
<path fill-rule="evenodd" clip-rule="evenodd" d="M54.6618 38.6067H37.9737V46.9634H54.6618V38.6067ZM37.6135 38.2485V47.3216H55.022V38.2485H37.6135Z" fill="black"/>
<path d="M40.3717 42.6179L40.9211 42.4345C40.9544 42.5899 41.0287 42.7198 41.1439 42.8242C41.2592 42.9286 41.4116 42.9808 41.6011 42.9808C41.7753 42.9808 41.9059 42.9503 41.993 42.8892C42.0826 42.828 42.1274 42.744 42.1274 42.637C42.1274 42.4613 41.9814 42.3518 41.6895 42.3085L41.3552 42.2626C40.7892 42.1837 40.5062 41.9163 40.5062 41.4604C40.5062 41.2286 40.6009 41.0351 40.7905 40.8797C40.9826 40.7244 41.2425 40.6467 41.5704 40.6467C41.8828 40.6467 42.1338 40.7129 42.3234 40.8453C42.5129 40.9752 42.641 41.1471 42.7076 41.3611L42.1697 41.5483C42.0749 41.2554 41.8752 41.1089 41.5704 41.1089C41.4193 41.1089 41.3053 41.1395 41.2284 41.2006C41.1516 41.2617 41.1132 41.3407 41.1132 41.4375C41.1132 41.5954 41.2284 41.6909 41.459 41.724L41.7932 41.7698C42.0929 41.8106 42.3247 41.901 42.4886 42.0411C42.6525 42.1811 42.7345 42.3671 42.7345 42.5988C42.7345 42.8459 42.6371 43.0483 42.4425 43.2062C42.2478 43.3641 41.9674 43.4431 41.6011 43.4431C41.2579 43.4431 40.9813 43.3667 40.7713 43.2139C40.5612 43.0611 40.4281 42.8624 40.3717 42.6179Z" fill="black"/>
<path d="M43.3552 42.8815V41.8844H42.9518V41.4719H43.3552V40.8721H43.9007V41.4719H44.4002V41.8844H43.9007V42.7822C43.9007 42.8408 43.9135 42.8841 43.9392 42.9121C43.9673 42.9375 44.0109 42.9503 44.0698 42.9503H44.4847V43.382H43.8431C43.692 43.382 43.5729 43.3361 43.4858 43.2444C43.3987 43.1527 43.3552 43.0318 43.3552 42.8815Z" fill="black"/>
<path d="M44.6533 42.4231C44.6533 42.1302 44.7455 41.8895 44.9299 41.7011C45.1143 41.5101 45.3461 41.4145 45.6253 41.4145C45.9147 41.4145 46.1426 41.5088 46.3091 41.6972C46.4756 41.8857 46.5588 42.1289 46.5588 42.4269C46.5588 42.4855 46.5576 42.5288 46.555 42.5568H45.1988C45.2065 42.7121 45.2488 42.8306 45.3256 42.9121C45.4024 42.991 45.5036 43.0305 45.6291 43.0305C45.8289 43.0305 45.9774 42.9197 46.0748 42.6981L46.5627 42.8853C46.4961 43.0381 46.3885 43.1706 46.24 43.2826C46.094 43.3896 45.8903 43.4431 45.6291 43.4431C45.3346 43.4431 45.0976 43.3514 44.9184 43.168C44.7416 42.9821 44.6533 42.7338 44.6533 42.4231ZM45.218 42.1748H46.0171C45.989 41.9277 45.8583 41.8042 45.6253 41.8042C45.5151 41.8042 45.4242 41.836 45.3525 41.8997C45.2808 41.9634 45.2359 42.0551 45.218 42.1748Z" fill="black"/>
<path d="M46.9711 44.1269V41.4719H47.4667C47.4667 41.5737 47.4129 41.7036 47.3054 41.8615H47.5359C47.6127 41.7138 47.6947 41.603 47.7817 41.5292C47.8714 41.4553 48.0046 41.4158 48.1813 41.4107C48.4144 41.4107 48.6039 41.505 48.7499 41.6934C48.8985 41.8819 48.9727 42.1264 48.9727 42.4269C48.9727 42.7274 48.8985 42.9719 48.7499 43.1604C48.6039 43.3463 48.4144 43.4393 48.1813 43.4393C47.8842 43.4393 47.6716 43.289 47.5436 42.9885H47.313C47.3617 43.0674 47.3976 43.1324 47.4206 43.1833C47.4437 43.2317 47.4654 43.3068 47.4859 43.4087C47.5064 43.5106 47.5167 43.6315 47.5167 43.7716V44.1269H46.9711ZM47.9508 43.0305C48.2505 43.0305 48.4003 42.8293 48.4003 42.4269C48.4003 42.0245 48.2505 41.8233 47.9508 41.8233C47.8099 41.8233 47.6985 41.8755 47.6165 41.9799C47.5346 42.0844 47.4936 42.2333 47.4936 42.4269C47.4936 42.623 47.5333 42.7733 47.6127 42.8777C47.6947 42.9796 47.8074 43.0305 47.9508 43.0305Z" fill="black"/>
<path d="M50.2148 43.382V42.7936C50.6067 42.567 50.8974 42.3849 51.0869 42.2474C51.2765 42.1073 51.4032 41.9876 51.4673 41.8883C51.5339 41.7864 51.571 41.6692 51.5787 41.5368C51.5787 41.4145 51.5416 41.3165 51.4673 41.2426C51.393 41.1662 51.2982 41.128 51.183 41.128C50.9089 41.128 50.7655 41.3152 50.7527 41.6896L50.1956 41.6017C50.1956 41.342 50.2853 41.1166 50.4645 40.9256C50.6464 40.7345 50.8923 40.6416 51.2022 40.6467C51.5019 40.6467 51.7375 40.7244 51.9091 40.8797C52.0807 41.0325 52.1665 41.235 52.1665 41.4871C52.1665 41.7316 52.0922 41.943 51.9437 42.1213C51.8643 42.2155 51.7695 42.3021 51.6594 42.3811C51.5313 42.4677 51.3981 42.5479 51.2598 42.6217C51.165 42.6727 50.9614 42.7745 50.649 42.9274L50.7604 43.1222C50.8628 43.0483 50.9678 42.9936 51.0754 42.9579C51.1855 42.9197 51.329 42.9006 51.5057 42.9006H52.178V43.382H50.2148Z" fill="black"/>
<path d="M50.4597 66.9004H67.8682V75.9734H50.4597V66.9004Z" fill="#FFC700"/>
<path fill-rule="evenodd" clip-rule="evenodd" d="M67.508 67.2585H50.8199V75.6153H67.508V67.2585ZM50.4597 66.9004V75.9734H67.8682V66.9004H50.4597Z" fill="black"/>
<path d="M53.2292 71.2698L53.7786 71.0864C53.8119 71.2418 53.8862 71.3717 54.0015 71.4761C54.1167 71.5805 54.2691 71.6327 54.4586 71.6327C54.6328 71.6327 54.7634 71.6022 54.8505 71.5411C54.9402 71.4799 54.985 71.3959 54.985 71.2889C54.985 71.1132 54.839 71.0037 54.547 70.9604L54.2128 70.9145C53.6467 70.8356 53.3637 70.5682 53.3637 70.1123C53.3637 69.8805 53.4585 69.687 53.648 69.5316C53.8401 69.3763 54.1001 69.2986 54.4279 69.2986C54.7404 69.2986 54.9914 69.3648 55.1809 69.4972C55.3705 69.6271 55.4985 69.799 55.5651 70.013L55.0272 70.2002C54.9325 69.9073 54.7327 69.7608 54.4279 69.7608C54.2768 69.7608 54.1628 69.7914 54.086 69.8525C54.0091 69.9136 53.9707 69.9926 53.9707 70.0894C53.9707 70.2473 54.086 70.3428 54.3165 70.3759L54.6507 70.4217C54.9504 70.4625 55.1822 70.5529 55.3461 70.693C55.51 70.833 55.592 71.019 55.592 71.2507C55.592 71.4978 55.4947 71.7002 55.3 71.8581C55.1054 72.016 54.8249 72.095 54.4586 72.095C54.1154 72.095 53.8388 72.0186 53.6288 71.8658C53.4188 71.713 53.2856 71.5143 53.2292 71.2698Z" fill="black"/>
<path d="M56.2127 71.5334V70.5363H55.8093V70.1238H56.2127V69.524H56.7583V70.1238H57.2577V70.5363H56.7583V71.4341C56.7583 71.4927 56.7711 71.536 56.7967 71.564C56.8249 71.5894 56.8684 71.6022 56.9273 71.6022H57.3422V72.0339H56.7007C56.5495 72.0339 56.4304 71.988 56.3434 71.8963C56.2563 71.8046 56.2127 71.6837 56.2127 71.5334Z" fill="black"/>
<path d="M57.5108 71.075C57.5108 70.7821 57.603 70.5414 57.7874 70.353C57.9718 70.162 58.2036 70.0664 58.4828 70.0664C58.7722 70.0664 59.0002 70.1607 59.1667 70.3491C59.3331 70.5376 59.4164 70.7808 59.4164 71.0788C59.4164 71.1374 59.4151 71.1807 59.4125 71.2087H58.0564C58.064 71.364 58.1063 71.4825 58.1831 71.564C58.26 71.6429 58.3611 71.6824 58.4866 71.6824C58.6864 71.6824 58.835 71.5716 58.9323 71.35L59.4202 71.5372C59.3536 71.69 59.2461 71.8225 59.0975 71.9345C58.9515 72.0415 58.7479 72.095 58.4866 72.095C58.1921 72.095 57.9552 72.0033 57.7759 71.8199C57.5992 71.634 57.5108 71.3857 57.5108 71.075ZM58.0756 70.8267H58.8747C58.8465 70.5796 58.7159 70.4561 58.4828 70.4561C58.3727 70.4561 58.2817 70.4879 58.21 70.5516C58.1383 70.6153 58.0935 70.707 58.0756 70.8267Z" fill="black"/>
<path d="M59.8287 72.7788V70.1238H60.3243C60.3243 70.2256 60.2705 70.3555 60.1629 70.5134H60.3934C60.4703 70.3657 60.5522 70.2549 60.6393 70.1811C60.7289 70.1072 60.8621 70.0677 61.0389 70.0626C61.2719 70.0626 61.4615 70.1569 61.6075 70.3453C61.756 70.5338 61.8303 70.7783 61.8303 71.0788C61.8303 71.3793 61.756 71.6238 61.6075 71.8123C61.4615 71.9982 61.2719 72.0912 61.0389 72.0912C60.7417 72.0912 60.5292 71.9409 60.4011 71.6404H60.1706C60.2193 71.7193 60.2551 71.7843 60.2782 71.8352C60.3012 71.8836 60.323 71.9587 60.3435 72.0606C60.364 72.1625 60.3742 72.2834 60.3742 72.4235V72.7788H59.8287ZM60.8083 71.6824C61.108 71.6824 61.2578 71.4812 61.2578 71.0788C61.2578 70.6764 61.108 70.4752 60.8083 70.4752C60.6675 70.4752 60.5561 70.5274 60.4741 70.6318C60.3921 70.7363 60.3512 70.8852 60.3512 71.0788C60.3512 71.2749 60.3909 71.4252 60.4703 71.5296C60.5522 71.6315 60.6649 71.6824 60.8083 71.6824Z" fill="black"/>
<path d="M62.9879 71.2698L63.5603 71.1514C63.5782 71.3042 63.6269 71.4214 63.7063 71.5028C63.7857 71.5818 63.8933 71.6213 64.029 71.6213C64.1596 71.6213 64.2621 71.5894 64.3364 71.5258C64.4132 71.4621 64.4516 71.373 64.4516 71.2584C64.4516 71.1565 64.4145 71.0737 64.3402 71.01C64.2685 70.9438 64.1686 70.9107 64.0405 70.9107H63.7793V70.4561H64.029C64.1366 70.4561 64.2262 70.4243 64.2979 70.3606C64.3697 70.2969 64.4055 70.2129 64.4055 70.1085C64.4055 70.0091 64.3697 69.9289 64.2979 69.8678C64.2262 69.8041 64.1366 69.7723 64.029 69.7723C63.9163 69.7723 63.8254 69.8092 63.7562 69.8831C63.6871 69.9569 63.6487 70.0575 63.641 70.1849L63.0839 70.097C63.107 69.8627 63.2017 69.6717 63.3682 69.524C63.5347 69.3737 63.755 69.2986 64.029 69.2986C64.3056 69.2986 64.5297 69.3648 64.7013 69.4972C64.8729 69.6297 64.9587 69.7927 64.9587 69.9862C64.9587 70.162 64.9011 70.2982 64.7859 70.395C64.6706 70.4892 64.5067 70.5427 64.2941 70.5554V70.7503C64.5246 70.7655 64.7039 70.8279 64.832 70.9375C64.96 71.047 65.0241 71.1858 65.0241 71.3539C65.0241 71.5831 64.9344 71.7639 64.7551 71.8963C64.5784 72.0288 64.3364 72.095 64.029 72.095C63.7319 72.095 63.4937 72.0237 63.3144 71.8811C63.1351 71.7359 63.0263 71.5321 62.9879 71.2698Z" fill="black"/>
</g>
<rect x="1" y="1" width="100" height="100" stroke="black" stroke-width="2"/>
</svg>
