<svg width="102" height="102" viewBox="0 0 102 102" fill="none" xmlns="http://www.w3.org/2000/svg">
<rect x="1" y="1" width="100" height="100" fill="#F24E1E"/>
<g clip-path="url(#clip0)">
<rect x="37.2619" y="16.2503" width="56.5" height="40.5" rx="3.75" transform="rotate(0.0164254 37.2619 16.2503)" fill="#CCCCCC" stroke="black" stroke-width="1.5"/>
<path d="M81.9866 45.8753C85.0026 45.2561 87.2709 42.5925 87.2718 39.3998C87.272 38.6756 87.1556 37.9786 86.9402 37.3264L90.0188 34.2564L85.7592 30.0041L82.6588 33.0958C82.0239 32.8938 81.3475 32.7848 80.6456 32.7846C77.5613 32.7837 74.9684 34.8849 74.2278 37.7313L71 49.0144L81.9866 45.8753Z" fill="white"/>
<path d="M88.3145 34.2559L86.0883 36.4759L85.5633 36.9994L85.7956 37.7027C85.9854 38.2665 86.071 38.7746 86.0667 39.3994C86.066 42.0102 84.2109 44.1911 81.7437 44.6976L81.6988 44.7068L81.6548 44.7194L72.7545 47.2624L75.3867 38.0613L75.3906 38.0474L75.3943 38.0334C76.0003 35.7043 78.1234 33.9863 80.6452 33.987C81.2509 33.9834 81.744 34.0635 82.2928 34.2415L82.9918 34.4637L83.5107 33.9463L85.7587 31.7045L88.3145 34.2559ZM81.9866 45.8753C85.0026 45.2561 87.2709 42.5925 87.2718 39.3998C87.272 38.6756 87.1556 37.9786 86.9402 37.3264L89.1664 35.1064L90.0188 34.2564L89.1669 33.406L86.6111 30.8545L85.7592 30.0041L84.9068 30.8541L82.6588 33.0958C82.0239 32.8938 81.3475 32.7848 80.6456 32.7846C77.5613 32.7837 74.9684 34.8849 74.2278 37.7313L71.3897 47.6523L71 49.0144L72.3648 48.6245L81.9866 45.8753Z" fill="black"/>
<path d="M71.7797 47.3871L71.3535 47.8121L72.2054 48.6626L72.6316 48.2376L81.0698 39.8232L81.496 39.3981L80.6441 38.5477L80.2179 38.9727L71.7797 47.3871Z" fill="black"/>
<path d="M80.6443 37.5945C81.6426 37.5947 82.4517 38.4025 82.4514 39.3986C82.4511 40.3947 81.6416 41.202 80.6432 41.2017C79.6449 41.2014 78.8358 40.3937 78.8361 39.3976C78.8364 38.4014 79.6459 37.5942 80.6443 37.5945Z" fill="black"/>
<path d="M37.0112 19.0002C37.0117 17.3434 38.3552 16.0006 40.0121 16.0011L91.0121 16.0157C92.6689 16.0162 94.0117 17.3597 94.0112 19.0166L94.0104 22.0166L37.0104 22.0002L37.0112 19.0002Z" fill="black"/>
<rect x="38.0104" y="22.0005" width="55" height="5" transform="rotate(0.0164254 38.0104 22.0005)" fill="#323231"/>
</g>
<rect x="7.75" y="53.282" width="49.9688" height="32.9681" fill="#0FA958" stroke="black" stroke-width="1.5"/>
<rect x="12.5156" y="47.5374" width="49.9688" height="32.9681" fill="#A259FF" stroke="black" stroke-width="1.5"/>
<rect x="17.2812" y="42.75" width="49.9688" height="32.9681" fill="#F9D745" stroke="black" stroke-width="1.5"/>
<path d="M35.7656 51.5C33.7656 51.5 31.9323 52.8333 31.2656 53.5L31.7656 65L32.7656 65.5L33.2656 64.5L37.2656 64L40.2656 65L42.7656 66.5L44.7656 65L47.2656 64.5L51.2656 65H52.7656L53.2656 54L51.7656 52.5L49.2656 51.5H46.7656L43.7656 53L42.2656 54L40.2656 52C39.599 51.8333 37.7656 51.5 35.7656 51.5Z" fill="white"/>
<path fill-rule="evenodd" clip-rule="evenodd" d="M41.594 66.8935H43.2868C43.6638 66.4649 44.1152 66.094 44.6256 65.7978C46.6148 64.6435 50.0145 64.5809 51.8734 65.943H52.5294H53.875V64.6045V53.6286C53.875 53.6286 52.8027 50.6169 47.9275 50.6169C45.405 50.6169 44.0231 51.4232 43.2768 52.2014C42.7542 52.7463 42.5432 53.2775 42.4705 53.5084H42.4045C42.3318 53.2775 42.1208 52.7463 41.5982 52.2014C40.8519 51.4232 39.47 50.6169 36.9475 50.6169C32.0723 50.6169 31 53.6286 31 53.6286V64.5911V65.9296H32.3456H33.0016C34.8621 64.5664 38.2646 64.6315 40.2526 65.7899C40.7646 66.0882 41.2169 66.4619 41.594 66.8935ZM43.1102 53.895V65.2146C43.3729 65.0043 43.6528 64.8127 43.9476 64.6416C45.1952 63.9176 46.7929 63.5765 48.3089 63.5883C49.6621 63.5988 51.1087 63.8926 52.2807 64.6045H52.5294V53.9324C52.5173 53.9117 52.5039 53.8893 52.489 53.8655C52.3732 53.6805 52.172 53.4122 51.8506 53.1363C51.2308 52.6046 50.0606 51.9555 47.9275 51.9555C45.7931 51.9555 44.7785 52.6029 44.3019 53.0731C44.0487 53.3229 43.9048 53.5644 43.8268 53.7288C43.7878 53.8111 43.7659 53.8731 43.7557 53.9049C43.7507 53.9208 43.7489 53.9276 43.7489 53.9276L43.7497 53.9244L43.751 53.9188L43.7533 53.9088L43.7546 53.9024L43.7554 53.8988L43.7558 53.8969C43.7558 53.8969 43.7558 53.8966 43.7487 53.895H43.1102ZM41.7646 53.895H41.1263C41.1192 53.8966 41.1192 53.8969 41.1192 53.8969L41.1196 53.8988L41.1204 53.9024L41.1217 53.9088L41.124 53.9188C41.1252 53.9242 41.1261 53.9276 41.1261 53.9276C41.1261 53.9276 41.1243 53.9208 41.1193 53.9049C41.1091 53.8731 41.0872 53.8111 41.0482 53.7288C40.9702 53.5644 40.8263 53.3229 40.5731 53.0731C40.0965 52.6029 39.0819 51.9555 36.9475 51.9555C34.8144 51.9555 33.6442 52.6046 33.0244 53.1363C32.703 53.4122 32.5018 53.6805 32.386 53.8655C32.3711 53.8893 32.3577 53.9117 32.3456 53.9324V64.5911H32.5943C33.7675 63.8785 35.2155 63.5851 36.5698 63.5756C38.0868 63.565 39.6854 63.9081 40.9327 64.6349C41.2256 64.8056 41.5036 64.9966 41.7646 65.206V53.895Z" fill="black"/>
<rect x="1" y="1" width="100" height="100" stroke="black" stroke-width="2"/>
<defs>
<clipPath id="clip0">
<rect x="36.0123" y="15" width="59" height="43" rx="3" transform="rotate(0.0164254 36.0123 15)" fill="white"/>
</clipPath>
</defs>
</svg>
