<svg width="102" height="102" viewBox="0 0 102 102" fill="none" xmlns="http://www.w3.org/2000/svg">
<g clip-path="url(#clip0)">
<rect x="1" y="1" width="100" height="100" fill="#5551FF"/>
<path fill-rule="evenodd" clip-rule="evenodd" d="M41.4877 22.0564V70.3218C41.4877 76.884 36.1089 82.2038 29.4738 82.2038V81.6793C35.816 81.6793 40.9573 76.5943 40.9573 70.3218V22.0564H41.4877Z" fill="black" stroke="black" stroke-width="0.6"/>
<path fill-rule="evenodd" clip-rule="evenodd" d="M53 10.5L52.9711 10.4365C46.336 10.4365 40.9571 15.7563 40.9571 22.3186H41.4875C41.4875 16.046 46.6289 10.9611 52.9711 10.9611L53 11V10.5Z" fill="black" stroke="black" stroke-width="0.6"/>
<path fill-rule="evenodd" clip-rule="evenodd" d="M67.7483 51.5259H52.9711C46.336 51.5259 40.9572 56.8456 40.9572 63.4079H41.4876C41.4876 57.1353 46.6289 52.0504 52.9711 52.0504H67.7483V51.5259Z" fill="black" stroke="black" stroke-width="0.6"/>
<path fill-rule="evenodd" clip-rule="evenodd" d="M41 61V75.7772C41 82.4123 46.3198 87.7911 52.882 87.7911V87.2607C46.6095 87.2607 41.5245 82.1194 41.5245 75.7772V61H41Z" fill="black"/>
<path d="M52.882 87.7911C46.3198 87.7911 41 82.4123 41 75.7772V61H41.5245V75.7772C41.5245 82.1194 46.6095 87.2607 52.882 87.2607M52.882 87.7911V87.2607M52.882 87.7911H70V87.2607H52.882" stroke="black" stroke-width="0.6"/>
<path d="M28 101H-7L-0.616352 88.8125L-7 81.5L-0.616352 74.1875L-7 62H28L21.3962 74.1875L28 81.5L21.3962 88.8125L28 101Z" fill="#A259FF"/>
<path d="M31.7777 82C31.7777 79.7909 30.0366 78 27.8889 78C25.7411 78 24 79.7909 24 82C24 84.2091 25.7411 86 27.8889 86C30.0366 86 31.7777 84.2091 31.7777 82Z" fill="white"/>
<path fill-rule="evenodd" clip-rule="evenodd" d="M27.8889 78.9231C29.487 78.9231 30.8444 80.2662 30.8444 82C30.8444 83.7338 29.487 85.0769 27.8889 85.0769C26.2907 85.0769 24.9333 83.7338 24.9333 82C24.9333 80.2662 26.2907 78.9231 27.8889 78.9231ZM27.8889 78C30.0366 78 31.7777 79.7909 31.7777 82C31.7777 84.2091 30.0366 86 27.8889 86C25.7411 86 24 84.2091 24 82C24 79.7909 25.7411 78 27.8889 78Z" fill="black"/>
<path d="M68.4599 61.1348C68.4599 61.6504 68.8849 62.0833 69.4278 62.0833H124.232C124.775 62.0833 125.2 61.6504 125.2 61.1348V42.601C125.2 42.0855 124.775 41.6526 124.232 41.6526H69.4278C68.8849 41.6526 68.4599 42.0855 68.4599 42.601V61.1348Z" fill="#F9D745" stroke="black" stroke-width="1.6"/>
<path fill-rule="evenodd" clip-rule="evenodd" d="M124.232 62.3588H69.4278C68.7443 62.3588 68.1903 61.8108 68.1903 61.1348V42.601C68.1903 41.9251 68.7443 41.3771 69.4278 41.3771H124.232C124.916 41.3771 125.47 41.9251 125.47 42.601V61.1348C125.47 61.8108 124.916 62.3588 124.232 62.3588ZM69.4278 62.8833C68.4514 62.8833 67.6599 62.1005 67.6599 61.1348V42.601C67.6599 41.6354 68.4514 40.8526 69.4278 40.8526H124.232C125.208 40.8526 126 41.6354 126 42.601V61.1348C126 62.1005 125.208 62.8833 124.232 62.8833H69.4278Z" fill="#5551FF"/>
<path d="M73 52C73 49.7909 71.2091 48 69 48C66.7909 48 65 49.7909 65 52C65 54.2091 66.7909 56 69 56C71.2091 56 73 54.2091 73 52Z" fill="white"/>
<path fill-rule="evenodd" clip-rule="evenodd" d="M69 48.9231C70.6438 48.9231 72.04 50.2662 72.04 52C72.04 53.7338 70.6438 55.0769 69 55.0769C67.3562 55.0769 65.96 53.7338 65.96 52C65.96 50.2662 67.3562 48.9231 69 48.9231ZM69 48C71.2091 48 73 49.7909 73 52C73 54.2091 71.2091 56 69 56C66.7909 56 65 54.2091 65 52C65 49.7909 66.7909 48 69 48Z" fill="black"/>
<path fill-rule="evenodd" clip-rule="evenodd" d="M52.8754 10.6606L49.9377 13.5661L50.3127 13.937L53.6254 10.6606L50.3127 7.38431L49.9377 7.75521L52.8754 10.6606Z" fill="black" stroke="black" stroke-width="0.6"/>
<path d="M83.4417 1C92.7624 1 100.318 8.47299 100.318 17.6914C100.318 26.9098 92.7624 34.3828 83.4417 34.3828H70.9998V1L83.4417 1Z" fill="#A259FF" fill-opacity="0.25"/>
<path d="M75.065 1C84.3857 1 91.9417 8.47299 91.9417 17.6914C91.9417 26.9098 84.3857 34.3828 75.065 34.3828H62.3767V1L75.065 1Z" fill="#A259FF" fill-opacity="0.5"/>
<path d="M66.442 1C75.7627 1 83.3186 8.47299 83.3186 17.6914C83.3186 26.9098 75.7627 34.3828 66.4419 34.3828H54V1L66.442 1Z" fill="#A259FF"/>
<path fill-rule="evenodd" clip-rule="evenodd" d="M54.5304 33.8582H66.4419C75.4698 33.8582 82.7882 26.6201 82.7882 17.6914C82.7882 8.76269 75.4698 1.52454 66.442 1.52454L54.5304 1.52454V33.8582ZM83.3186 17.6914C83.3186 8.47299 75.7627 1 66.442 1L54 1V34.3828H66.4419C75.7627 34.3828 83.3186 26.9098 83.3186 17.6914Z" fill="#A259FF"/>
<path d="M85 81.6667C85 80.1939 83.8061 79 82.3333 79H71.6667C70.1939 79 69 80.1939 69 81.6667V92.3333C69 93.8061 70.1939 95 71.6667 95H82.3333C83.8061 95 85 93.8061 85 92.3333V81.6667Z" fill="black"/>
<path fill-rule="evenodd" clip-rule="evenodd" d="M82.3333 79.8333H71.6667C70.6541 79.8333 69.8333 80.6541 69.8333 81.6667V92.3333C69.8333 93.3459 70.6541 94.1667 71.6667 94.1667H82.3333C83.3459 94.1667 84.1667 93.3459 84.1667 92.3333V81.6667C84.1667 80.6541 83.3459 79.8333 82.3333 79.8333ZM82.3333 79C83.8061 79 85 80.1939 85 81.6667V92.3333C85 93.8061 83.8061 95 82.3333 95H71.6667C70.1939 95 69 93.8061 69 92.3333V81.6667C69 80.1939 70.1939 79 71.6667 79H82.3333Z" fill="black"/>
<path fill-rule="evenodd" clip-rule="evenodd" d="M76.4107 87.0001L74.0387 84.6281L74.628 84.0388L77 86.4109L79.372 84.0388L79.9613 84.6281L77.5892 87.0001L79.9613 89.3722L79.372 89.9614L77 87.5894L74.628 89.9614L74.0387 89.3722L76.4107 87.0001Z" fill="white"/>
</g>
<rect x="1" y="1" width="100" height="100" stroke="black" stroke-width="2"/>
<defs>
<clipPath id="clip0">
<rect x="1" y="1" width="100" height="100" fill="white"/>
</clipPath>
</defs>
</svg>
