<svg width="102" height="102" viewBox="0 0 102 102" fill="none" xmlns="http://www.w3.org/2000/svg">
<rect x="1" y="1" width="100" height="100" fill="#A259FF"/>
<rect x="32.4713" y="18" width="39.0576" height="23.2662" rx="11.6331" fill="black"/>
<path fill-rule="evenodd" clip-rule="evenodd" d="M59.6583 40.1404C65.5798 40.1404 70.38 35.4361 70.38 29.6331C70.38 23.83 65.5798 19.1257 59.6583 19.1257C53.7369 19.1257 48.9366 23.83 48.9366 29.6331C48.9366 35.4361 53.7369 40.1404 59.6583 40.1404Z" fill="white"/>
<path fill-rule="evenodd" clip-rule="evenodd" d="M48.7047 29.6331C48.7047 23.703 53.6098 18.8975 59.6583 18.8975C65.7067 18.8975 70.6119 23.703 70.6119 29.6331C70.6119 35.5633 65.7067 40.3688 59.6583 40.3688C53.6098 40.3688 48.7047 35.5633 48.7047 29.6331ZM59.6583 19.3542C53.8639 19.3542 49.1685 23.9573 49.1685 29.6331C49.1685 35.309 53.8639 39.9121 59.6583 39.9121C65.4527 39.9121 70.1481 35.309 70.1481 29.6331C70.1481 23.9573 65.4527 19.3542 59.6583 19.3542Z" fill="white"/>
<rect x="32.4713" y="60.7339" width="39.0576" height="23.2662" rx="11.6331" fill="#C7B9FF"/>
<path fill-rule="evenodd" clip-rule="evenodd" d="M44.3418 82.8743C50.2632 82.8743 55.0635 78.17 55.0635 72.3669C55.0635 66.5639 50.2632 61.8596 44.3418 61.8596C38.4204 61.8596 33.6201 66.5639 33.6201 72.3669C33.6201 78.17 38.4204 82.8743 44.3418 82.8743Z" fill="white"/>
<path fill-rule="evenodd" clip-rule="evenodd" d="M55.5272 72.3671C55.5272 78.4245 50.5172 83.3312 44.3417 83.3312C38.1663 83.3312 33.1562 78.4245 33.1562 72.3671C33.1562 66.3098 38.1663 61.4031 44.3417 61.4031C50.5172 61.4031 55.5272 66.3098 55.5272 72.3671ZM55.0634 72.3671C55.0634 78.1702 50.2632 82.8745 44.3417 82.8745C38.4203 82.8745 33.6201 78.1702 33.6201 72.3671C33.6201 66.5641 38.4203 61.8598 44.3417 61.8598C50.2632 61.8598 55.0634 66.5641 55.0634 72.3671Z" fill="white"/>
<rect x="32.4713" y="60.7339" width="39.0576" height="23.2662" rx="11.6331" stroke="#212121" stroke-width="1.4"/>
<path fill-rule="evenodd" clip-rule="evenodd" d="M72.5491 30.0528C72.3137 29.8211 72.3137 29.4453 72.5491 29.2135L76.3849 25.4363C76.6203 25.2045 77.0019 25.2045 77.2373 25.4363C77.4727 25.6681 77.4727 26.0439 77.2373 26.2757L74.3884 29.081C86.4384 29.7885 96 39.4826 96 51.3562C96 63.6904 85.6822 73.6728 72.9753 73.6728V72.4857C85.035 72.4857 94.7945 63.0167 94.7945 51.3562C94.7945 40.185 85.8368 31.0252 74.4807 30.2762L77.2373 32.9906C77.4727 33.2224 77.4727 33.5982 77.2373 33.83C77.0019 34.0618 76.6203 34.0618 76.3849 33.83L72.5491 30.0528Z" fill="black" stroke="black" stroke-width="0.4"/>
<path fill-rule="evenodd" clip-rule="evenodd" d="M31.4509 72.1845C31.6863 72.4163 31.6863 72.7921 31.4509 73.0238L27.6151 76.801C27.3797 77.0328 26.9981 77.0328 26.7627 76.801C26.5273 76.5692 26.5273 76.1934 26.7627 75.9616L29.6118 73.1561C17.559 72.4449 8.00003 62.6963 8.00003 50.7624C8.00003 38.3657 18.3147 28.3271 31.0247 28.3271V29.5142C18.9681 29.5142 9.20551 39.0333 9.20551 50.7624C9.20551 61.9991 18.1657 71.2075 29.519 71.9608L26.7627 69.2467C26.5273 69.0149 26.5273 68.6391 26.7627 68.4073C26.9981 68.1755 27.3797 68.1755 27.6151 68.4073L31.4509 72.1845Z" fill="black" stroke="black" stroke-width="0.4"/>
<path d="M71.9246 76.158C73.6892 76.158 75.1343 74.7471 75.1343 72.9889C75.1343 71.2308 73.6892 69.8199 71.9246 69.8199C70.1599 69.8199 68.7149 71.2308 68.7149 72.9889C68.7149 74.7471 70.1599 76.158 71.9246 76.158Z" fill="white" stroke="black" stroke-width="1.1"/>
<path d="M32.0754 25.032C30.3107 25.032 28.8657 26.4428 28.8657 28.201C28.8657 29.9592 30.3107 31.3701 32.0754 31.3701C33.84 31.3701 35.2851 29.9592 35.2851 28.201C35.2851 26.4428 33.84 25.032 32.0754 25.032Z" fill="white" stroke="black" stroke-width="1.1"/>
<path d="M74.55 51.7128L74.7972 52.9528L75.4649 51.8791L77.8585 48.0302L82.247 46.8755L83.4311 46.564L82.3674 45.9576L73.2058 40.7346L72.2535 40.1917L72.4678 41.2667L74.55 51.7128Z" fill="#F24E1E" stroke="black" stroke-linecap="square"/>
<rect x="1" y="1" width="100" height="100" stroke="black" stroke-width="2"/>
</svg>
