<svg width="102" height="102" viewBox="0 0 102 102" fill="none" xmlns="http://www.w3.org/2000/svg">
<g clip-path="url(#clip0)">
<rect x="1" y="1" width="100" height="100" fill="#F24E1E"/>
<path d="M82.2002 -14.558L88.7942 -12.6816L82.6006 9.0845L102.917 -2.23106L106.216 3.6916L85.9002 15.0067L107.665 21.1999L105.788 27.7939L84.0278 21.6018L95.3488 41.9282L89.4228 45.2287L78.1003 24.8996L71.907 46.6648L65.3129 44.7884L71.5062 23.0235L51.1765 34.3464L47.8778 28.4237L68.2084 17.1004L46.4421 10.9066L48.3185 4.3126L70.0837 10.506L58.7694 -9.80839L64.6953 -13.1089L76.0081 7.20272L82.2002 -14.558Z" fill="#5551FF"/>
<path d="M8 26.6H7.6V27V78.9689V79.3689H8H44.9208V86.5767H35.9906H35.5906V86.9767V90V90.4H35.9906H66.0094H66.4094V90V86.9767V86.5767H66.0094H57.0793V79.3689H94H94.4V78.9689V27V26.6H94H8Z" fill="#A259FF" stroke="black" stroke-width="0.8"/>
<path fill-rule="evenodd" clip-rule="evenodd" d="M45.3208 78.9689V86.9767H35.9906V90H66.0094V86.9767H56.6792V78.9689H94V27H8V78.9689H45.3208ZM8.2434 78.7237H45.5642V87.2218H36.234V89.7549H65.766V87.2218H56.4358V78.7237H93.7566V27.2451H8.2434V78.7237Z" fill="black"/>
<path d="M14 32.6H13.6V33V73V73.4H14H88H88.4V73V33V32.6H88H14Z" fill="#C7B9FF" stroke="black" stroke-width="0.8"/>
<path d="M52.2169 29.86C52.2169 30.5369 51.6721 31.0856 50.9999 31.0856C50.3278 31.0856 49.783 30.5369 49.783 29.86C49.783 29.183 50.3278 28.6343 50.9999 28.6343C51.6721 28.6343 52.2169 29.183 52.2169 29.86Z" fill="black"/>
<g clip-path="url(#clip1)">
<path d="M25.001 41.8967H76.9998V80.0274C76.9998 80.5646 76.5683 81.0001 76.036 81.0001H25.9648C25.4325 81.0001 25.001 80.5646 25.001 80.0274V41.8967Z" fill="#E5E5E5"/>
<path fill-rule="evenodd" clip-rule="evenodd" d="M58.72 53.4826C59.1801 51.4933 57.9373 49.5084 55.9441 49.0491L46.32 46.8316C44.3267 46.3723 42.3379 47.6126 41.8777 49.6019C41.5385 51.0684 42.1247 52.5325 43.2547 53.3847C41.8647 53.6564 40.6947 54.7158 40.3555 56.1823C40.0163 57.6487 40.6024 59.1127 41.7324 59.965C40.3424 60.2366 39.1724 61.296 38.8332 62.7625C38.373 64.7518 39.6158 66.7367 41.609 67.196L51.2332 69.4135C53.2264 69.8727 55.2153 68.6324 55.6755 66.6431C56.0147 65.1767 55.4285 63.7127 54.2985 62.8604C55.6886 62.5888 56.8585 61.5293 57.1978 60.0629C57.537 58.5964 56.9508 57.1324 55.8207 56.2801C57.2108 56.0085 58.3807 54.949 58.72 53.4826Z" fill="#5551FF"/>
<path d="M64 42H77V80.0299C77 80.5657 76.5529 81 76.0014 81H64V42Z" fill="white"/>
<path d="M25.0079 39.9728C25.01 39.4355 25.4432 39.0014 25.9754 39.0032L76.0207 39.1703C76.5529 39.172 76.9827 39.609 76.9806 40.1463L76.973 42.0669L25.0003 41.8935L25.0079 39.9728Z" fill="black"/>
<path d="M27.3858 40.4513C27.3845 40.7871 27.1138 41.0583 26.7812 41.0572C26.4486 41.0561 26.1801 40.783 26.1814 40.4473C26.1827 40.1115 26.4533 39.8403 26.7859 39.8414C27.1185 39.8425 27.3871 40.1156 27.3858 40.4513Z" fill="white"/>
<path d="M29.3932 40.4582C29.3919 40.7939 29.1212 41.0652 28.7887 41.064C28.4561 41.0629 28.1875 40.7898 28.1888 40.4541C28.1901 40.1184 28.4608 39.8471 28.7934 39.8482C29.126 39.8494 29.3945 40.1224 29.3932 40.4582Z" fill="white"/>
<path d="M31.4004 40.4653C31.3991 40.801 31.1285 41.0723 30.7959 41.0711C30.4633 41.07 30.1947 40.7969 30.196 40.4612C30.1973 40.1254 30.468 39.8542 30.8006 39.8553C31.1332 39.8564 31.4017 40.1295 31.4004 40.4653Z" fill="white"/>
</g>
</g>
<rect x="1" y="1" width="100" height="100" stroke="black" stroke-width="2"/>
<defs>
<clipPath id="clip0">
<rect x="1" y="1" width="100" height="100" fill="white"/>
</clipPath>
<clipPath id="clip1">
<rect width="52" height="34" fill="white" transform="translate(25 39)"/>
</clipPath>
</defs>
</svg>
