<svg width="800" height="800" viewBox="0 0 800 800" fill="none" xmlns="http://www.w3.org/2000/svg">
<path d="M174.97 309.374C174.97 344.285 188.475 376.088 210.617 399.982C188.475 423.876 174.97 455.678 174.97 490.59C174.97 564.813 236.014 624.982 311.315 624.982C345.164 624.982 376.132 612.824 399.97 592.696C423.808 612.824 454.776 624.982 488.625 624.982C563.926 624.982 624.97 564.813 624.97 490.59C624.97 455.678 611.465 423.876 589.323 399.982C611.465 376.088 624.97 344.285 624.97 309.374C624.97 235.151 563.926 174.982 488.625 174.982C454.776 174.982 423.808 187.14 399.97 207.267C376.132 187.14 345.164 174.982 311.315 174.982C236.014 174.982 174.97 235.151 174.97 309.374Z" fill="#F24E1E"/>
</svg>
