<svg width="800" height="800" viewBox="0 0 800 800" fill="none" xmlns="http://www.w3.org/2000/svg">
<path fill-rule="evenodd" clip-rule="evenodd" d="M279.464 383.929C280.001 383.929 280.537 383.925 281.071 383.916V383.929C289.947 383.929 297.143 391.124 297.143 400C297.143 408.876 289.947 416.071 281.071 416.071V416.084C280.537 416.075 280.001 416.071 279.464 416.071C221.77 416.071 175 462.842 175 520.536C175 578.23 221.77 625 279.464 625C337.158 625 383.929 578.23 383.929 520.536C383.929 511.66 391.124 504.464 400 504.464C408.876 504.464 416.071 511.66 416.071 520.536C416.071 578.23 462.842 625 520.536 625C578.23 625 625 578.23 625 520.536C625 463.378 579.096 416.942 522.143 416.084V415.992C521.614 416.045 521.078 416.071 520.536 416.071C511.66 416.071 504.464 408.876 504.464 400C504.464 391.124 511.66 383.929 520.536 383.929C521.078 383.929 521.614 383.955 522.143 384.008V383.916C579.096 383.058 625 336.622 625 279.464C625 221.77 578.23 175 520.536 175C463.378 175 416.942 220.904 416.084 277.857H415.992C416.045 278.386 416.071 278.922 416.071 279.464C416.071 288.34 408.876 295.536 400 295.536C391.124 295.536 383.929 288.34 383.929 279.464C383.929 278.922 383.955 278.386 384.008 277.857H383.916C383.058 220.904 336.622 175 279.464 175C221.77 175 175 221.77 175 279.464C175 337.158 221.77 383.929 279.464 383.929Z" fill="#FF8577"/>
</svg>
