<svg width="800" height="800" viewBox="0 0 800 800" fill="none" xmlns="http://www.w3.org/2000/svg">
<path d="M154.508 399.5C154.508 534.805 264.194 644.492 399.499 644.492C534.804 644.492 644.491 534.805 644.49 399.5C644.49 264.195 534.804 154.509 399.499 154.509C264.194 154.509 154.508 264.195 154.508 399.5Z" fill="#FFC700"/>
<path fill-rule="evenodd" clip-rule="evenodd" d="M399.5 142.784C257.718 142.784 142.782 257.721 142.782 399.502C142.782 541.284 257.718 656.22 399.5 656.22C541.281 656.22 656.218 541.284 656.218 399.502C656.218 257.721 541.282 142.784 399.5 142.784ZM399.5 644.494C264.195 644.494 154.509 534.807 154.509 399.502C154.509 264.197 264.195 154.511 399.5 154.511C534.805 154.511 644.491 264.197 644.491 399.502C644.491 534.807 534.805 644.494 399.5 644.494Z" fill="black"/>
<path d="M313.709 361.764C318.935 375.201 312.279 390.331 298.841 395.556C285.404 400.782 270.274 394.126 265.048 380.688C259.823 367.251 266.479 352.122 279.917 346.896C293.354 341.67 308.483 348.326 313.709 361.764Z" fill="black"/>
<path d="M485.901 294.796C491.127 308.233 484.47 323.362 471.033 328.588C457.595 333.814 442.466 327.157 437.24 313.72C432.014 300.283 438.671 285.153 452.108 279.927C465.545 274.701 480.675 281.358 485.901 294.796Z" fill="black"/>
<path fill-rule="evenodd" clip-rule="evenodd" d="M243.756 453.784L245.881 459.249C278.877 544.09 374.402 586.119 459.244 553.124C544.085 520.128 586.114 424.603 553.119 339.762L550.994 334.297L561.923 330.046L564.048 335.511C599.391 426.389 554.372 528.71 463.494 564.053C372.617 599.396 270.295 554.377 234.952 463.499L232.826 458.034L243.756 453.784Z" fill="black"/>
</svg>
