<svg width="502" height="252" viewBox="0 0 502 252" fill="none" xmlns="http://www.w3.org/2000/svg">
<g clip-path="url(#clip0)">
<rect x="1" y="1" width="500" height="250" fill="#F24E1E"/>
<path fill-rule="evenodd" clip-rule="evenodd" d="M94.6615 109.916L31.0762 8.34254L18.5091 127.475L94.6615 109.916ZM92.8583 109.17L31.8586 11.7271L19.8025 126.015L92.8583 109.17Z" fill="black"/>
<path d="M43.163 -2.22045L106.748 99.3531L30.5959 116.912L43.163 -2.22045Z" fill="#D6C7FF"/>
<path d="M392.051 58.2833C392.051 83.443 412.472 103.839 437.664 103.839C462.855 103.839 483.277 83.443 483.277 58.2833C483.277 33.1235 462.855 12.7275 437.664 12.7275C412.472 12.7275 392.051 33.1235 392.051 58.2833Z" fill="#C7B9FF"/>
<path d="M69 88.582C69 86.5816 70.6237 84.96 72.6266 84.96H428.356C430.359 84.96 431.983 86.5816 431.983 88.582V372.189C431.983 374.189 430.359 375.811 428.356 375.811H72.6266C70.6237 375.811 69 374.189 69 372.189V88.582Z" fill="#E5E5E5"/>
<path fill-rule="evenodd" clip-rule="evenodd" d="M428.356 86.0917H72.6266C71.2495 86.0917 70.1331 87.2066 70.1331 88.582V372.189C70.1331 373.564 71.2495 374.679 72.6266 374.679H428.356C429.733 374.679 430.85 373.564 430.85 372.189V88.582C430.85 87.2066 429.733 86.0917 428.356 86.0917ZM72.6266 84.96C70.6237 84.96 69 86.5816 69 88.582V372.189C69 374.189 70.6237 375.811 72.6266 375.811H428.356C430.359 375.811 431.983 374.189 431.983 372.189V88.582C431.983 86.5816 430.359 84.96 428.356 84.96H72.6266Z" fill="black"/>
<path d="M344.346 84.96H428.483C430.486 84.96 432.11 86.5816 432.11 88.582V372.189C432.11 374.189 430.486 375.811 428.483 375.811H344.346V84.96Z" fill="white"/>
<path fill-rule="evenodd" clip-rule="evenodd" d="M428.483 86.0917H345.479V374.679H428.483C429.86 374.679 430.976 373.564 430.976 372.189V88.582C430.976 87.2066 429.86 86.0917 428.483 86.0917ZM344.346 84.96V375.811H428.483C430.486 375.811 432.11 374.189 432.11 372.189V88.582C432.11 86.5816 430.486 84.96 428.483 84.96H344.346Z" fill="white"/>
<path d="M69 88.582C69 86.5816 70.6237 84.96 72.6266 84.96H428.356C430.359 84.96 431.983 86.5816 431.983 88.582V104.954H69V88.582Z" fill="black"/>
<path d="M187.001 141.701L294.705 162.921L265.089 312.864L157.385 291.645L187.001 141.701Z" fill="white"/>
<path fill-rule="evenodd" clip-rule="evenodd" d="M293.374 163.812L187.893 143.031L158.716 290.754L264.196 311.535L293.374 163.812ZM187.001 141.701L157.385 291.645L265.089 312.864L294.705 162.921L187.001 141.701Z" fill="black"/>
<path d="M199.458 134.437L307.162 155.656L277.546 305.6L169.842 284.38L199.458 134.437Z" fill="#F24E1E"/>
<path fill-rule="evenodd" clip-rule="evenodd" d="M305.831 156.547L200.351 135.766L171.173 283.489L276.654 304.27L305.831 156.547ZM199.458 134.437L169.842 284.38L277.546 305.6L307.162 155.656L199.458 134.437Z" fill="black"/>
<path d="M212.492 126.966L320.196 148.185L290.488 298.595L182.784 277.375L212.492 126.966Z" fill="#C7B9FF"/>
<path fill-rule="evenodd" clip-rule="evenodd" d="M318.865 149.077L213.385 128.295L184.115 276.484L289.596 297.265L318.865 149.077ZM212.492 126.966L182.784 277.375L290.488 298.595L320.196 148.185L212.492 126.966Z" fill="black"/>
<path fill-rule="evenodd" clip-rule="evenodd" d="M308.913 204.213C317.663 205.937 326.156 200.25 327.882 191.51C329.608 182.771 323.914 174.289 315.164 172.565C306.413 170.841 297.92 176.528 296.194 185.267C294.468 194.007 300.162 202.489 308.913 204.213ZM308.693 205.323C318.058 207.168 327.147 201.082 328.994 191.729C330.841 182.377 324.747 173.299 315.383 171.454C306.019 169.609 296.93 175.696 295.082 185.048C293.235 194.401 299.329 203.478 308.693 205.323Z" fill="black"/>
<path fill-rule="evenodd" clip-rule="evenodd" d="M330.475 217.679L320.267 202.473L321.208 201.842L331.416 217.049L330.475 217.679Z" fill="black"/>
<path d="M238.604 193.475L270.31 199.721L263.963 231.852L232.258 225.605L238.604 193.475Z" fill="#C7B9FF"/>
<path fill-rule="evenodd" clip-rule="evenodd" d="M268.978 200.612L239.497 194.804L233.589 224.714L263.071 230.522L268.978 200.612ZM238.604 193.475L232.258 225.605L263.963 231.852L270.31 199.721L238.604 193.475Z" fill="black"/>
<path fill-rule="evenodd" clip-rule="evenodd" d="M259.109 214.642L242.806 211.43L243.025 210.319L259.328 213.531L259.109 214.642Z" fill="black"/>
<path fill-rule="evenodd" clip-rule="evenodd" d="M248.491 221.008L251.707 204.725L252.819 204.944L249.603 221.227L248.491 221.008Z" fill="black"/>
<path fill-rule="evenodd" clip-rule="evenodd" d="M202.556 -16.8502H76.7772V63.5016H202.556V-16.8502ZM75.644 -17.9819V64.6333H203.689V-17.9819H75.644Z" fill="black"/>
<path d="M73.0001 59.3521H80.5544V66.8968H73.0001V59.3521Z" fill="white"/>
<path fill-rule="evenodd" clip-rule="evenodd" d="M79.4213 60.4838H74.1333V65.7651H79.4213V60.4838ZM73.0001 59.3521V66.8968H80.5544V59.3521H73.0001Z" fill="black"/>
<path d="M199.534 59.3521H207.088V66.8968H199.534V59.3521Z" fill="white"/>
<path fill-rule="evenodd" clip-rule="evenodd" d="M205.2 61.2382H201.423V65.0106H205.2V61.2382ZM199.534 59.3521V66.8968H207.088V59.3521H199.534Z" fill="black"/>
<path d="M300.349 61.9182C299.8 58.8481 301.847 55.9149 304.92 55.3667L404.698 37.5705C407.772 37.0223 410.709 39.0666 411.258 42.1366L417.477 76.9202C418.026 79.9903 415.979 82.9235 412.906 83.4717L313.128 101.268C310.054 101.816 307.117 99.7718 306.568 96.7018L300.349 61.9182Z" fill="black"/>
<path d="M301.529 59.7502C300.98 56.6802 303.027 53.747 306.101 53.1987L405.878 35.4026C408.952 34.8543 411.889 36.8986 412.438 39.9687L418.59 74.3729C419.139 77.443 417.092 80.3762 414.018 80.9244L314.24 98.7206C311.166 99.2688 308.23 97.2245 307.681 94.1545L301.529 59.7502Z" fill="#F24E1E"/>
<path fill-rule="evenodd" clip-rule="evenodd" d="M406.078 36.5167L306.3 54.3128C303.842 54.7512 302.205 57.0965 302.644 59.5513L308.796 93.9555C309.235 96.4103 311.583 98.0448 314.041 97.6065L413.819 79.8103C416.277 79.372 417.913 77.0266 417.474 74.5719L411.323 40.1676C410.884 37.7129 408.535 36.0783 406.078 36.5167ZM306.101 53.1987C303.027 53.747 300.98 56.6802 301.529 59.7502L307.681 94.1545C308.23 97.2245 311.166 99.2688 314.24 98.7206L414.018 80.9244C417.092 80.3762 419.139 77.443 418.59 74.3729L412.438 39.9687C411.889 36.8986 408.952 34.8543 405.878 35.4026L306.101 53.1987Z" fill="black"/>
<path d="M341.906 76.1317C345.561 75.4798 346.844 73.395 346.462 71.2581C346.051 68.9609 344.052 68.068 341.403 68.173L339.813 68.236C338.771 68.2748 338.1 67.9167 337.97 67.1866C337.833 66.4209 338.213 65.563 339.818 65.2768C341.404 64.9937 342.384 65.7378 342.965 66.8285L345.305 65.5108C344.462 63.8788 342.624 62.5528 339.432 63.1221C336.187 63.7008 334.815 65.8015 335.172 67.7959C335.586 70.1109 337.313 70.9237 339.781 70.8327L341.37 70.7697C342.906 70.7163 343.54 71.1729 343.677 71.9386C343.836 72.829 343.286 73.6621 341.52 73.977C339.559 74.3268 338.379 73.1776 337.909 71.9934L335.512 73.3029C336.36 75.2649 338.429 76.7518 341.906 76.1317Z" fill="black"/>
<path d="M349.086 74.557L351.618 74.1054L350.863 69.8851C350.694 68.9413 350.368 67.0149 352.134 66.7001C353.007 66.5442 353.649 66.9443 353.859 68.1196L354.827 73.533L357.359 73.0814L356.292 67.1159C355.945 65.1749 354.846 64.0664 352.884 64.4162C351.173 64.7215 350.537 65.9006 350.271 66.5729L349.965 64.8634L349.389 61.6402L346.857 62.0918L349.086 74.557Z" fill="black"/>
<path d="M362.076 72.5342C363.645 72.2543 364.494 71.2393 364.841 70.4055C365.074 71.191 365.68 71.5974 366.678 71.4193L368.622 71.0726L368.278 69.1494L367.493 69.2894C367.012 69.3752 366.943 69.2957 366.863 68.8505L366.28 65.5918C365.86 63.2412 364.183 62.4011 361.687 62.8463C359.083 63.3106 357.842 64.9101 357.948 66.3245L360.319 66.4161C360.384 65.541 360.87 64.8662 362.029 64.6595C363.045 64.4782 363.574 64.8617 363.711 65.6274L363.771 65.9658C360.863 66.7786 358.354 67.9793 358.8 70.4724C359.08 72.0394 360.471 72.8204 362.076 72.5342ZM362.654 70.52C361.887 70.6568 361.428 70.3528 361.323 69.7651C361.113 68.5898 362.446 68.0213 364.052 67.5328L364.153 68.1027C364.411 69.5451 363.635 70.3451 362.654 70.52Z" fill="black"/>
<path d="M369.963 70.8334L372.495 70.3819L371.855 66.8026C371.457 64.5766 372.132 63.7212 373.95 63.3969C374.254 63.3428 374.578 63.3034 374.941 63.2754L374.476 60.6755C374.33 60.6831 374.205 60.7054 374.062 60.7308C371.905 61.1156 371.385 62.7336 371.212 63.5177L370.849 61.4877L368.371 61.9297L369.963 70.8334Z" fill="black"/>
<path d="M381.441 69.0802C384.152 68.5968 385.014 66.9362 385.309 65.7075L382.889 65.2388C382.664 66.1426 382.239 66.9534 381.098 67.157C380.01 67.3509 379.057 66.8593 378.706 65.305L385 64.1824C384.718 61.1641 382.728 59.0933 379.733 59.6276C377.148 60.0887 375.563 62.3375 376.063 65.1333C376.585 68.0537 378.696 69.5699 381.441 69.0802ZM378.477 63.5084C378.454 62.3547 379.041 61.6252 380.058 61.4439C381.127 61.2531 381.881 61.7619 382.185 62.8469L378.477 63.5084Z" fill="black"/>
<path d="M274.458 87.1726C274.909 84.0867 277.779 81.9497 280.869 82.3997L381.164 97.0045C384.254 97.4544 386.394 100.321 385.943 103.407L380.839 138.371C380.389 141.457 377.519 143.594 374.429 143.144L274.133 128.539C271.043 128.089 268.903 125.223 269.354 122.137L274.458 87.1726Z" fill="black"/>
<path d="M276.264 85.4885C276.714 82.4026 279.584 80.2656 282.674 80.7156L382.97 95.3204C386.06 95.7703 388.199 98.6368 387.749 101.723L382.7 136.306C382.25 139.392 379.38 141.529 376.29 141.079L275.994 126.474C272.904 126.024 270.765 123.157 271.215 120.071L276.264 85.4885Z" fill="white"/>
<path fill-rule="evenodd" clip-rule="evenodd" d="M382.806 96.4403L282.511 81.8354C280.04 81.4757 277.745 83.1843 277.385 85.6518L272.336 120.235C271.976 122.702 273.687 124.994 276.158 125.354L376.453 139.959C378.924 140.319 381.219 138.61 381.579 136.142L386.628 101.559C386.988 99.092 385.277 96.8 382.806 96.4403ZM282.674 80.7156C279.584 80.2656 276.714 82.4026 276.264 85.4885L271.215 120.071C270.765 123.157 272.904 126.024 275.994 126.474L376.29 141.079C379.38 141.529 382.25 139.392 382.7 136.306L387.749 101.723C388.199 98.6368 386.06 95.7703 382.97 95.3204L282.674 80.7156Z" fill="black"/>
<path d="M309.389 113.773C313.063 114.308 314.94 112.735 315.253 110.587C315.59 108.278 313.976 106.8 311.429 106.063L309.902 105.621C308.901 105.329 308.377 104.778 308.485 104.044C308.597 103.274 309.229 102.58 310.842 102.815C312.437 103.047 313.131 104.062 313.337 105.281L315.975 104.769C315.69 102.954 314.366 101.116 311.158 100.649C307.896 100.174 305.93 101.734 305.637 103.739C305.297 106.066 306.679 107.382 309.049 108.075L310.577 108.517C312.051 108.951 312.508 109.584 312.396 110.354C312.265 111.249 311.479 111.865 309.705 111.607C307.734 111.32 306.977 109.857 306.906 108.585L304.218 109.071C304.401 111.2 305.894 113.264 309.389 113.773Z" fill="black"/>
<path d="M316.699 114.545L319.244 114.916L319.864 110.673C320.002 109.725 320.302 107.794 322.077 108.052C322.955 108.18 323.437 108.762 323.265 109.944L322.47 115.385L325.015 115.756L325.891 109.759C326.176 107.808 325.483 106.41 323.512 106.122C321.791 105.872 320.815 106.79 320.35 107.344L320.601 105.625L321.074 102.386L318.529 102.015L316.699 114.545Z" fill="black"/>
<path d="M329.664 116.725C331.241 116.955 332.367 116.26 332.961 115.578C332.933 116.397 333.379 116.974 334.383 117.12L336.337 117.404L336.619 115.471L335.83 115.356C335.346 115.286 335.306 115.189 335.371 114.741L335.849 111.465C336.194 109.103 334.869 107.776 332.359 107.411C329.743 107.03 328.059 108.156 327.712 109.531L329.933 110.366C330.271 109.556 330.946 109.07 332.111 109.239C333.132 109.388 333.513 109.919 333.4 110.688L333.351 111.028C330.334 110.882 327.574 111.229 327.208 113.735C326.978 115.31 328.051 116.49 329.664 116.725ZM330.849 114.997C330.079 114.885 329.739 114.451 329.826 113.861C329.998 112.679 331.443 112.56 333.121 112.604L333.037 113.176C332.825 114.626 331.835 115.14 330.849 114.997Z" fill="black"/>
<path d="M337.685 117.601L340.23 117.971L340.755 114.373C341.082 112.136 341.993 111.537 343.821 111.804C344.125 111.848 344.445 111.913 344.799 112.001L345.18 109.387C345.039 109.349 344.914 109.33 344.771 109.31C342.602 108.994 341.596 110.365 341.185 111.054L341.483 109.014L338.991 108.651L337.685 117.601Z" fill="black"/>
<path d="M349.13 119.56C351.854 119.957 353.197 118.653 353.866 117.581L351.718 116.372C351.219 117.159 350.559 117.794 349.412 117.627C348.319 117.467 347.57 116.7 347.729 115.115L354.055 116.036C354.743 113.083 353.51 110.491 350.499 110.052C347.901 109.674 345.685 111.307 345.275 114.118C344.847 117.053 346.37 119.158 349.13 119.56ZM348.08 113.338C348.424 112.236 349.211 111.729 350.233 111.878C351.308 112.035 351.862 112.755 351.808 113.881L348.08 113.338Z" fill="black"/>
<path d="M319.498 52.0035C324.448 39.9179 318.652 26.1127 306.551 21.1687C294.45 16.2247 280.628 22.0141 275.677 34.0997C270.727 46.1853 276.524 59.9905 288.625 64.9345C300.725 69.8785 314.548 64.0891 319.498 52.0035Z" fill="white"/>
<path fill-rule="evenodd" clip-rule="evenodd" d="M288.196 65.9818C300.876 71.1624 315.36 65.0959 320.547 52.4318C325.734 39.7677 319.66 25.3017 306.98 20.1211C294.3 14.9404 279.816 21.007 274.629 33.671C269.441 46.3351 275.516 60.8011 288.196 65.9818ZM306.551 21.1685C318.652 26.1125 324.448 39.9177 319.498 52.0033C314.548 64.0889 300.725 69.8783 288.625 64.9343C276.524 59.9903 270.727 46.1851 275.677 34.0995C280.628 22.014 294.45 16.2245 306.551 21.1685Z" fill="black"/>
<path d="M294.085 34.7107C293.557 35.9986 292.084 36.6155 290.795 36.0886C289.505 35.5618 288.888 34.0908 289.415 32.803C289.943 31.5152 291.416 30.8983 292.705 31.4251C293.994 31.9519 294.612 33.4229 294.085 34.7107Z" fill="black"/>
<path d="M310.608 41.4613C310.081 42.7491 308.608 43.366 307.318 42.8392C306.029 42.3123 305.411 40.8413 305.939 39.5535C306.466 38.2657 307.939 37.6488 309.228 38.1756C310.518 38.7024 311.135 40.1734 310.608 41.4613Z" fill="black"/>
<path fill-rule="evenodd" clip-rule="evenodd" d="M283.061 36.5052L282.846 37.0289C279.516 45.1599 283.416 54.4479 291.557 57.7742C299.699 61.1004 308.998 57.2054 312.329 49.0743L312.543 48.5506L313.592 48.9791L313.377 49.5028C309.81 58.2124 299.849 62.3845 291.128 58.8216C282.408 55.2587 278.23 45.3099 281.798 36.6004L282.012 36.0767L283.061 36.5052Z" fill="black"/>
</g>
<rect x="1" y="1" width="500" height="250" stroke="black" stroke-width="2"/>
<defs>
<clipPath id="clip0">
<rect x="1" y="1" width="500" height="250" fill="white"/>
</clipPath>
</defs>
</svg>
