<svg width="800" height="800" viewBox="0 0 800 800" fill="none" xmlns="http://www.w3.org/2000/svg">
<path d="M556.104 272.346C605.098 256.813 636 234.088 636 208.769C636 161.952 530.339 124 400 124C269.661 124 164 161.952 164 208.769C164 234.088 194.902 256.813 243.896 272.346C194.902 287.879 164 310.605 164 335.923C164 361.241 194.902 383.967 243.896 399.5C194.902 415.033 164 437.759 164 463.077C164 488.395 194.902 511.121 243.896 526.654C194.902 542.187 164 564.912 164 590.231C164 637.048 269.661 675 400 675C530.339 675 636 637.048 636 590.231C636 564.912 605.098 542.187 556.104 526.654C605.098 511.121 636 488.395 636 463.077C636 437.759 605.098 415.033 556.104 399.5C605.098 383.967 636 361.241 636 335.923C636 310.605 605.098 287.879 556.104 272.346Z" fill="#A259FF"/>
</svg>
