<svg width="71" height="62" viewBox="0 0 71 62" fill="none" xmlns="http://www.w3.org/2000/svg">
<path d="M35.7745 55.5664L31.6128 51.7851C16.8317 38.4071 7.07324 29.5554 7.07324 18.7556C7.07324 9.90382 14.019 3 22.859 3C27.853 3 32.6461 6.89335 35.7745 10.5315C38.903 6.89335 43.6961 3 48.6901 3C57.5301 3 64.4758 9.90382 64.4758 18.7556C64.4758 29.5554 54.7174 38.4071 39.9362 51.7851L35.7745 55.5664Z" fill="#F24E1E"/>
<path fill-rule="evenodd" clip-rule="evenodd" d="M35.7746 59.0401L29.9101 53.7115L29.8574 53.6638C22.5417 47.0426 16.2618 41.3589 11.8372 35.956C7.3744 30.5065 4.52185 25.0192 4.52185 18.7556C4.52185 8.43394 12.6508 0.413086 22.8591 0.413086C26.004 0.413086 28.9264 1.63199 31.3862 3.21892C32.9968 4.25797 34.4754 5.49693 35.7746 6.7742C37.0739 5.49693 38.5525 4.25797 40.1631 3.21892C42.6228 1.63199 45.5453 0.413086 48.6902 0.413086C58.8984 0.413086 67.0274 8.43394 67.0274 18.7556C67.0274 25.0192 64.1749 30.5065 59.7121 35.956C55.2875 41.3589 49.0076 47.0426 41.6919 53.6638L41.6392 53.7115L35.7746 59.0401ZM39.9363 51.785C54.7175 38.4071 64.4759 29.5553 64.4759 18.7556C64.4759 9.90378 57.5302 2.99996 48.6902 2.99996C44.5585 2.99996 40.5644 5.66483 37.5366 8.64532C36.9047 9.26739 36.3148 9.90321 35.7746 10.5314C35.2344 9.90321 34.6446 9.26739 34.0127 8.64532C30.9849 5.66483 26.9907 2.99996 22.8591 2.99996C14.0191 2.99996 7.07334 9.90378 7.07334 18.7556C7.07334 29.5553 16.8318 38.4071 31.613 51.785L35.7746 55.5664L39.9363 51.785Z" fill="black"/>
<path d="M38.1718 8.34651C38.1718 7.13452 37.2027 6.152 36.0073 6.152C34.8118 6.152 33.8428 7.13452 33.8428 8.34651C33.8428 9.5585 34.8118 10.541 36.0073 10.541C37.2027 10.541 38.1718 9.5585 38.1718 8.34651Z" fill="white"/>
<path fill-rule="evenodd" clip-rule="evenodd" d="M40.7232 8.34655C40.7232 5.70587 38.6118 3.56518 36.0072 3.56518C33.4027 3.56518 31.2913 5.70587 31.2913 8.34655C31.2913 10.9872 33.4027 13.1279 36.0072 13.1279C38.6118 13.1279 40.7232 10.9872 40.7232 8.34655ZM36.0072 6.15205C37.2027 6.15205 38.1717 7.13456 38.1717 8.34655C38.1717 9.55854 37.2027 10.5411 36.0072 10.5411C34.8118 10.5411 33.8428 9.55854 33.8428 8.34655C33.8428 7.13456 34.8118 6.15205 36.0072 6.15205Z" fill="black"/>
<path d="M68 19.7588C68 18.4164 66.9267 17.3281 65.6026 17.3281C64.2786 17.3281 63.2052 18.4164 63.2052 19.7588C63.2052 21.1012 64.2786 22.1895 65.6026 22.1895C66.9267 22.1895 68 21.1012 68 19.7588Z" fill="white"/>
<path fill-rule="evenodd" clip-rule="evenodd" d="M70.5515 19.7588C70.5515 16.9877 68.3358 14.7413 65.6026 14.7413C62.8694 14.7413 60.6537 16.9877 60.6537 19.7588C60.6537 22.5299 62.8694 24.7764 65.6026 24.7764C68.3358 24.7764 70.5515 22.5299 70.5515 19.7588ZM65.6026 17.3282C66.9267 17.3282 68 18.4164 68 19.7588C68 21.1013 66.9267 22.1895 65.6026 22.1895C64.2785 22.1895 63.2052 21.1013 63.2052 19.7588C63.2052 18.4164 64.2785 17.3282 65.6026 17.3282Z" fill="black"/>
<path d="M7.79484 19.7588C7.79484 18.4164 6.72148 17.3281 5.39742 17.3281C4.07336 17.3281 3 18.4164 3 19.7588C3 21.1012 4.07336 22.1895 5.39742 22.1895C6.72148 22.1895 7.79484 21.1012 7.79484 19.7588Z" fill="white"/>
<path fill-rule="evenodd" clip-rule="evenodd" d="M10.3463 19.7588C10.3463 16.9877 8.13061 14.7413 5.3974 14.7413C2.66419 14.7413 0.448486 16.9877 0.448486 19.7588C0.448486 22.5299 2.66419 24.7764 5.3974 24.7764C8.13061 24.7764 10.3463 22.5299 10.3463 19.7588ZM5.3974 17.3282C6.72146 17.3282 7.79482 18.4164 7.79482 19.7588C7.79482 21.1013 6.72146 22.1895 5.3974 22.1895C4.07334 22.1895 2.99998 21.1013 2.99998 19.7588C2.99998 18.4164 4.07334 17.3282 5.3974 17.3282Z" fill="black"/>
<path d="M37.7453 56.7403C37.7453 55.4923 36.7475 54.4806 35.5165 54.4806C34.2856 54.4806 33.2877 55.4923 33.2877 56.7403C33.2877 57.9883 34.2856 59 35.5165 59C36.7475 59 37.7453 57.9883 37.7453 56.7403Z" fill="white"/>
<path fill-rule="evenodd" clip-rule="evenodd" d="M40.2968 56.7403C40.2968 54.0636 38.1566 51.8937 35.5165 51.8937C32.8764 51.8937 30.7362 54.0636 30.7362 56.7403C30.7362 59.417 32.8764 61.5869 35.5165 61.5869C38.1566 61.5869 40.2968 59.417 40.2968 56.7403ZM35.5165 54.4806C36.7475 54.4806 37.7453 55.4923 37.7453 56.7403C37.7453 57.9883 36.7475 59 35.5165 59C34.2856 59 33.2877 57.9883 33.2877 56.7403C33.2877 55.4923 34.2856 54.4806 35.5165 54.4806Z" fill="black"/>
</svg>
