<svg width="496" height="48" viewBox="0 0 496 48" fill="none" xmlns="http://www.w3.org/2000/svg">
<path d="M11.6721 37.0403C22.1361 37.0403 30.2481 33.2483 30.2481 21.0082C30.2481 8.81625 22.1361 4.97625 11.6721 4.97625H1.11206V37.0403H11.6721ZM8.69606 30.6563V11.2642H11.8161C17.3361 11.2642 22.4241 12.5602 22.4241 21.0082C22.4241 29.4563 17.3361 30.6563 11.8161 30.6563H8.69606Z" fill="black"/>
<path d="M32.8708 24.9923C32.8708 32.8643 38.1988 37.6162 45.9268 37.6162C49.8148 37.6162 53.8468 35.9363 56.3428 32.2883L50.5348 30.1763C49.6228 31.2323 47.9908 31.9522 45.7348 31.9522C43.0468 31.9522 40.4548 30.3203 40.2148 26.9603H57.8308C58.3108 18.5603 53.4628 12.5602 45.6388 12.5602C38.6788 12.5602 32.8708 17.4083 32.8708 24.9923ZM45.8308 17.9843C48.6628 17.9843 50.9668 19.5682 51.0628 22.6402H40.2148C40.6468 19.3762 43.0948 17.9843 45.8308 17.9843Z" fill="black"/>
<path d="M71.5783 37.6162C77.9623 37.6162 83.2423 34.8802 83.2423 29.2642C83.2423 25.2802 80.5543 23.6003 74.7943 22.5443L70.3783 21.7283C68.2663 21.3442 67.4503 20.7682 67.4503 19.8082C67.4503 18.5602 68.7943 17.8883 71.3863 17.8883C73.5463 17.8883 75.3703 18.3682 75.8503 20.0963L81.9943 17.8403C80.2183 14.0962 75.9943 12.5602 71.4343 12.5602C65.5303 12.5602 60.4903 15.1043 60.4903 20.0963C60.4903 24.0803 63.6583 26.4323 68.2663 27.2003L72.5383 27.9203C75.2743 28.4003 76.2343 29.0723 76.2343 30.0803C76.2343 31.5683 74.0743 32.2883 71.7223 32.2883C68.9863 32.2883 66.8263 31.3283 66.1063 29.3123L59.9143 31.5683C61.7383 35.5523 66.0103 37.6162 71.5783 37.6162Z" fill="black"/>
<path d="M85.1364 18.8002H89.6484V37.0403H96.9924V13.2323H85.1364V18.8002ZM93.3444 9.29625C95.7444 9.29625 97.6644 7.32825 97.6644 4.97625C97.6644 2.57625 95.7444 0.65625 93.3444 0.65625C90.9444 0.65625 89.0244 2.57625 89.0244 4.97625C89.0244 7.32825 90.9444 9.29625 93.3444 9.29625Z" fill="black"/>
<path d="M100.277 24.6083C100.277 31.8563 105.365 36.1763 110.549 36.1763C113.237 36.1763 116.021 34.9762 118.085 32.4322V36.7043C118.085 39.9683 115.925 41.2162 112.997 41.2162C111.317 41.2162 109.445 40.6883 108.581 38.9603L102.629 41.1203C104.837 45.4883 109.253 46.7842 113.189 46.7842C120.629 46.7842 125.333 43.2803 125.333 35.2643V13.2323H119.045L118.085 16.4962C116.261 13.9042 113.333 12.5122 110.309 12.5122C105.365 12.5122 100.277 16.3043 100.277 24.6083ZM107.861 24.2242C107.861 20.0482 110.261 18.2242 113.141 18.2242C115.973 18.2242 118.373 19.7603 118.373 24.4163C118.373 29.0723 115.973 30.5123 113.141 30.5123C110.261 30.5123 107.861 28.4482 107.861 24.2242Z" fill="black"/>
<path d="M130.166 13.2323V37.0403H137.462V24.8002C137.462 20.4802 138.806 18.2242 141.878 18.2242C145.382 18.2242 145.526 21.0082 145.526 24.3682V37.0403H152.822V22.5443C152.822 16.1123 150.95 12.5602 144.806 12.5602C141.158 12.5602 138.518 14.6243 137.462 16.4003L136.55 13.2323H130.166Z" fill="black"/>
<path d="M156.011 24.9923C156.011 32.8643 161.339 37.6162 169.067 37.6162C172.955 37.6162 176.987 35.9363 179.483 32.2883L173.675 30.1763C172.763 31.2323 171.131 31.9522 168.875 31.9522C166.187 31.9522 163.595 30.3203 163.355 26.9603H180.971C181.451 18.5603 176.603 12.5602 168.779 12.5602C161.819 12.5602 156.011 17.4083 156.011 24.9923ZM168.971 17.9843C171.803 17.9843 174.107 19.5682 174.203 22.6402H163.355C163.787 19.3762 166.235 17.9843 168.971 17.9843Z" fill="black"/>
<path d="M191.743 37.0403V25.0403C191.743 21.2482 193.663 19.7122 197.215 19.7122C197.887 19.7122 198.415 19.7603 199.183 19.8563V12.5602C195.535 12.3682 192.991 13.7602 191.503 17.6002L190.207 13.2323H184.447V37.0403H191.743Z" fill="black"/>
<path d="M216.481 29.5043C218.449 34.6403 223.345 37.6162 230.353 37.6162C236.977 37.6162 243.889 33.8243 243.889 27.0083C243.889 20.3843 237.553 18.7522 232.369 17.6962L228.049 16.8322C225.841 16.4002 224.401 15.2003 224.401 13.5683C224.401 11.6003 226.609 10.4962 229.537 10.4962C232.561 10.4962 234.769 11.6963 235.633 13.8563L242.497 11.3603C240.481 6.41625 235.393 4.40025 230.209 4.40025C223.777 4.40025 216.625 7.47225 216.625 14.3363C216.625 19.8082 221.137 22.3523 226.369 23.3603L230.257 24.1283C233.713 24.8003 236.113 25.9042 236.113 28.1602C236.113 30.6562 233.137 31.5203 230.401 31.5203C226.849 31.5203 224.257 30.0803 223.393 27.0083L216.481 29.5043Z" fill="black"/>
<path d="M245.624 18.8002H249.56V30.3202C249.56 35.9362 251.576 37.0403 257.432 37.0403H262.04V31.0883H259.928C257.576 31.0883 256.856 30.6563 256.856 28.4003V18.8002H262.04V13.2323H256.856V7.28025H249.56V13.2323H245.624V18.8002Z" fill="black"/>
<path d="M264.1 30.6083C264.1 34.9283 267.796 37.6162 272.308 37.6162C275.716 37.6162 278.5 36.6562 280.276 34.1602L281.14 37.0403H287.908C287.428 34.9763 287.092 30.8483 287.092 27.7283V22.4963C287.092 15.2962 283.3 12.5602 276.532 12.5602C271.06 12.5602 267.22 14.9603 265.636 18.1283L271.78 20.3363C272.26 18.4163 273.892 17.5043 275.908 17.5043C278.452 17.5043 279.892 18.5122 279.892 21.2482V22.1602C270.676 22.8322 264.1 24.8003 264.1 30.6083ZM280.036 26.4802V27.0562C280.036 31.4242 277.876 32.6243 274.996 32.6243C273.076 32.6243 271.636 31.6163 271.636 30.0803C271.636 27.5843 274.996 26.9122 280.036 26.4802Z" fill="black"/>
<path d="M299.18 37.0403V25.0403C299.18 21.2482 301.1 19.7122 304.652 19.7122C305.324 19.7122 305.852 19.7603 306.62 19.8563V12.5602C302.972 12.3682 300.428 13.7602 298.94 17.6002L297.644 13.2323H291.884V37.0403H299.18Z" fill="black"/>
<path d="M308.718 18.8002H312.654V30.3202C312.654 35.9362 314.67 37.0403 320.526 37.0403H325.134V31.0883H323.022C320.67 31.0883 319.95 30.6563 319.95 28.4003V18.8002H325.134V13.2323H319.95V7.28025H312.654V13.2323H308.718V18.8002Z" fill="black"/>
<path d="M327.433 24.9923C327.433 32.8643 332.761 37.6162 340.489 37.6162C344.377 37.6162 348.409 35.9363 350.905 32.2883L345.097 30.1763C344.185 31.2323 342.553 31.9522 340.297 31.9522C337.609 31.9522 335.017 30.3203 334.777 26.9603H352.393C352.873 18.5603 348.025 12.5602 340.201 12.5602C333.241 12.5602 327.433 17.4083 327.433 24.9923ZM340.393 17.9843C343.225 17.9843 345.529 19.5682 345.625 22.6402H334.777C335.209 19.3762 337.657 17.9843 340.393 17.9843Z" fill="black"/>
<path d="M363.165 37.0403V25.0403C363.165 21.2482 365.085 19.7122 368.637 19.7122C369.309 19.7122 369.837 19.7603 370.605 19.8563V12.5602C366.957 12.3682 364.413 13.7602 362.925 17.6002L361.629 13.2323H355.869V37.0403H363.165Z" fill="black"/>
<path d="M396.399 37.0403V25.9043H401.151C409.455 25.9043 415.695 23.8403 415.695 15.4403C415.695 7.04025 409.455 4.97625 401.151 4.97625H388.815V37.0403H396.399ZM396.399 11.3603H401.391C404.895 11.3603 407.679 12.0802 407.679 15.4403C407.679 18.8483 404.895 19.6163 401.391 19.6163H396.399V11.3603Z" fill="black"/>
<path d="M416.678 30.6083C416.678 34.9283 420.374 37.6162 424.886 37.6162C428.294 37.6162 431.078 36.6562 432.854 34.1602L433.718 37.0403H440.486C440.006 34.9763 439.67 30.8483 439.67 27.7283V22.4963C439.67 15.2962 435.878 12.5602 429.11 12.5602C423.638 12.5602 419.798 14.9603 418.214 18.1283L424.358 20.3363C424.838 18.4163 426.47 17.5043 428.486 17.5043C431.03 17.5043 432.47 18.5122 432.47 21.2482V22.1602C423.254 22.8322 416.678 24.8003 416.678 30.6083ZM432.614 26.4802V27.0562C432.614 31.4242 430.454 32.6243 427.574 32.6243C425.654 32.6243 424.214 31.6163 424.214 30.0803C424.214 27.5843 427.574 26.9122 432.614 26.4802Z" fill="black"/>
<path d="M455.407 37.6162C459.199 37.6162 463.615 36.1762 466.063 31.8562L460.111 29.6962C459.295 31.0882 457.855 31.9522 455.839 31.9522C453.247 31.9522 450.655 30.2243 450.655 25.0403C450.655 20.0002 453.199 18.2242 455.839 18.2242C457.663 18.2242 459.295 18.9922 460.063 21.0082L466.159 18.8002C463.951 14.0962 459.487 12.5602 455.407 12.5602C448.159 12.5602 443.215 17.5043 443.215 24.9923C443.215 32.5283 447.535 37.6162 455.407 37.6162Z" fill="black"/>
<path d="M469.4 4.97625V37.0403H476.696V31.0403L479.192 28.4003L485.384 37.0403H494.024L483.992 23.1683L493.304 13.2323H484.664L476.696 22.2563V4.97625H469.4Z" fill="black"/>
<path d="M11.6721 37.0403C22.1361 37.0403 30.2481 33.2483 30.2481 21.0082C30.2481 8.81625 22.1361 4.97625 11.6721 4.97625H1.11206V37.0403H11.6721ZM8.69606 30.6563V11.2642H11.8161C17.3361 11.2642 22.4241 12.5602 22.4241 21.0082C22.4241 29.4563 17.3361 30.6563 11.8161 30.6563H8.69606Z" stroke="black"/>
<path d="M32.8708 24.9923C32.8708 32.8643 38.1988 37.6162 45.9268 37.6162C49.8148 37.6162 53.8468 35.9363 56.3428 32.2883L50.5348 30.1763C49.6228 31.2323 47.9908 31.9522 45.7348 31.9522C43.0468 31.9522 40.4548 30.3203 40.2148 26.9603H57.8308C58.3108 18.5603 53.4628 12.5602 45.6388 12.5602C38.6788 12.5602 32.8708 17.4083 32.8708 24.9923ZM45.8308 17.9843C48.6628 17.9843 50.9668 19.5682 51.0628 22.6402H40.2148C40.6468 19.3762 43.0948 17.9843 45.8308 17.9843Z" stroke="black"/>
<path d="M71.5783 37.6162C77.9623 37.6162 83.2423 34.8802 83.2423 29.2642C83.2423 25.2802 80.5543 23.6003 74.7943 22.5443L70.3783 21.7283C68.2663 21.3442 67.4503 20.7682 67.4503 19.8082C67.4503 18.5602 68.7943 17.8883 71.3863 17.8883C73.5463 17.8883 75.3703 18.3682 75.8503 20.0963L81.9943 17.8403C80.2183 14.0962 75.9943 12.5602 71.4343 12.5602C65.5303 12.5602 60.4903 15.1043 60.4903 20.0963C60.4903 24.0803 63.6583 26.4323 68.2663 27.2003L72.5383 27.9203C75.2743 28.4003 76.2343 29.0723 76.2343 30.0803C76.2343 31.5683 74.0743 32.2883 71.7223 32.2883C68.9863 32.2883 66.8263 31.3283 66.1063 29.3123L59.9143 31.5683C61.7383 35.5523 66.0103 37.6162 71.5783 37.6162Z" stroke="black"/>
<path d="M85.1364 18.8002H89.6484V37.0403H96.9924V13.2323H85.1364V18.8002ZM93.3444 9.29625C95.7444 9.29625 97.6644 7.32825 97.6644 4.97625C97.6644 2.57625 95.7444 0.65625 93.3444 0.65625C90.9444 0.65625 89.0244 2.57625 89.0244 4.97625C89.0244 7.32825 90.9444 9.29625 93.3444 9.29625Z" stroke="black"/>
<path d="M100.277 24.6083C100.277 31.8563 105.365 36.1763 110.549 36.1763C113.237 36.1763 116.021 34.9762 118.085 32.4322V36.7043C118.085 39.9683 115.925 41.2162 112.997 41.2162C111.317 41.2162 109.445 40.6883 108.581 38.9603L102.629 41.1203C104.837 45.4883 109.253 46.7842 113.189 46.7842C120.629 46.7842 125.333 43.2803 125.333 35.2643V13.2323H119.045L118.085 16.4962C116.261 13.9042 113.333 12.5122 110.309 12.5122C105.365 12.5122 100.277 16.3043 100.277 24.6083ZM107.861 24.2242C107.861 20.0482 110.261 18.2242 113.141 18.2242C115.973 18.2242 118.373 19.7603 118.373 24.4163C118.373 29.0723 115.973 30.5123 113.141 30.5123C110.261 30.5123 107.861 28.4482 107.861 24.2242Z" stroke="black"/>
<path d="M130.166 13.2323V37.0403H137.462V24.8002C137.462 20.4802 138.806 18.2242 141.878 18.2242C145.382 18.2242 145.526 21.0082 145.526 24.3682V37.0403H152.822V22.5443C152.822 16.1123 150.95 12.5602 144.806 12.5602C141.158 12.5602 138.518 14.6243 137.462 16.4003L136.55 13.2323H130.166Z" stroke="black"/>
<path d="M156.011 24.9923C156.011 32.8643 161.339 37.6162 169.067 37.6162C172.955 37.6162 176.987 35.9363 179.483 32.2883L173.675 30.1763C172.763 31.2323 171.131 31.9522 168.875 31.9522C166.187 31.9522 163.595 30.3203 163.355 26.9603H180.971C181.451 18.5603 176.603 12.5602 168.779 12.5602C161.819 12.5602 156.011 17.4083 156.011 24.9923ZM168.971 17.9843C171.803 17.9843 174.107 19.5682 174.203 22.6402H163.355C163.787 19.3762 166.235 17.9843 168.971 17.9843Z" stroke="black"/>
<path d="M191.743 37.0403V25.0403C191.743 21.2482 193.663 19.7122 197.215 19.7122C197.887 19.7122 198.415 19.7603 199.183 19.8563V12.5602C195.535 12.3682 192.991 13.7602 191.503 17.6002L190.207 13.2323H184.447V37.0403H191.743Z" stroke="black"/>
<path d="M216.481 29.5043C218.449 34.6403 223.345 37.6162 230.353 37.6162C236.977 37.6162 243.889 33.8243 243.889 27.0083C243.889 20.3843 237.553 18.7522 232.369 17.6962L228.049 16.8322C225.841 16.4002 224.401 15.2003 224.401 13.5683C224.401 11.6003 226.609 10.4962 229.537 10.4962C232.561 10.4962 234.769 11.6963 235.633 13.8563L242.497 11.3603C240.481 6.41625 235.393 4.40025 230.209 4.40025C223.777 4.40025 216.625 7.47225 216.625 14.3363C216.625 19.8082 221.137 22.3523 226.369 23.3603L230.257 24.1283C233.713 24.8003 236.113 25.9042 236.113 28.1602C236.113 30.6562 233.137 31.5203 230.401 31.5203C226.849 31.5203 224.257 30.0803 223.393 27.0083L216.481 29.5043Z" stroke="black"/>
<path d="M245.624 18.8002H249.56V30.3202C249.56 35.9362 251.576 37.0403 257.432 37.0403H262.04V31.0883H259.928C257.576 31.0883 256.856 30.6563 256.856 28.4003V18.8002H262.04V13.2323H256.856V7.28025H249.56V13.2323H245.624V18.8002Z" stroke="black"/>
<path d="M264.1 30.6083C264.1 34.9283 267.796 37.6162 272.308 37.6162C275.716 37.6162 278.5 36.6562 280.276 34.1602L281.14 37.0403H287.908C287.428 34.9763 287.092 30.8483 287.092 27.7283V22.4963C287.092 15.2962 283.3 12.5602 276.532 12.5602C271.06 12.5602 267.22 14.9603 265.636 18.1283L271.78 20.3363C272.26 18.4163 273.892 17.5043 275.908 17.5043C278.452 17.5043 279.892 18.5122 279.892 21.2482V22.1602C270.676 22.8322 264.1 24.8003 264.1 30.6083ZM280.036 26.4802V27.0562C280.036 31.4242 277.876 32.6243 274.996 32.6243C273.076 32.6243 271.636 31.6163 271.636 30.0803C271.636 27.5843 274.996 26.9122 280.036 26.4802Z" stroke="black"/>
<path d="M299.18 37.0403V25.0403C299.18 21.2482 301.1 19.7122 304.652 19.7122C305.324 19.7122 305.852 19.7603 306.62 19.8563V12.5602C302.972 12.3682 300.428 13.7602 298.94 17.6002L297.644 13.2323H291.884V37.0403H299.18Z" stroke="black"/>
<path d="M308.718 18.8002H312.654V30.3202C312.654 35.9362 314.67 37.0403 320.526 37.0403H325.134V31.0883H323.022C320.67 31.0883 319.95 30.6563 319.95 28.4003V18.8002H325.134V13.2323H319.95V7.28025H312.654V13.2323H308.718V18.8002Z" stroke="black"/>
<path d="M327.433 24.9923C327.433 32.8643 332.761 37.6162 340.489 37.6162C344.377 37.6162 348.409 35.9363 350.905 32.2883L345.097 30.1763C344.185 31.2323 342.553 31.9522 340.297 31.9522C337.609 31.9522 335.017 30.3203 334.777 26.9603H352.393C352.873 18.5603 348.025 12.5602 340.201 12.5602C333.241 12.5602 327.433 17.4083 327.433 24.9923ZM340.393 17.9843C343.225 17.9843 345.529 19.5682 345.625 22.6402H334.777C335.209 19.3762 337.657 17.9843 340.393 17.9843Z" stroke="black"/>
<path d="M363.165 37.0403V25.0403C363.165 21.2482 365.085 19.7122 368.637 19.7122C369.309 19.7122 369.837 19.7603 370.605 19.8563V12.5602C366.957 12.3682 364.413 13.7602 362.925 17.6002L361.629 13.2323H355.869V37.0403H363.165Z" stroke="black"/>
<path d="M396.399 37.0403V25.9043H401.151C409.455 25.9043 415.695 23.8403 415.695 15.4403C415.695 7.04025 409.455 4.97625 401.151 4.97625H388.815V37.0403H396.399ZM396.399 11.3603H401.391C404.895 11.3603 407.679 12.0802 407.679 15.4403C407.679 18.8483 404.895 19.6163 401.391 19.6163H396.399V11.3603Z" stroke="black"/>
<path d="M416.678 30.6083C416.678 34.9283 420.374 37.6162 424.886 37.6162C428.294 37.6162 431.078 36.6562 432.854 34.1602L433.718 37.0403H440.486C440.006 34.9763 439.67 30.8483 439.67 27.7283V22.4963C439.67 15.2962 435.878 12.5602 429.11 12.5602C423.638 12.5602 419.798 14.9603 418.214 18.1283L424.358 20.3363C424.838 18.4163 426.47 17.5043 428.486 17.5043C431.03 17.5043 432.47 18.5122 432.47 21.2482V22.1602C423.254 22.8322 416.678 24.8003 416.678 30.6083ZM432.614 26.4802V27.0562C432.614 31.4242 430.454 32.6243 427.574 32.6243C425.654 32.6243 424.214 31.6163 424.214 30.0803C424.214 27.5843 427.574 26.9122 432.614 26.4802Z" stroke="black"/>
<path d="M455.407 37.6162C459.199 37.6162 463.615 36.1762 466.063 31.8562L460.111 29.6962C459.295 31.0882 457.855 31.9522 455.839 31.9522C453.247 31.9522 450.655 30.2243 450.655 25.0403C450.655 20.0002 453.199 18.2242 455.839 18.2242C457.663 18.2242 459.295 18.9922 460.063 21.0082L466.159 18.8002C463.951 14.0962 459.487 12.5602 455.407 12.5602C448.159 12.5602 443.215 17.5043 443.215 24.9923C443.215 32.5283 447.535 37.6162 455.407 37.6162Z" stroke="black"/>
<path d="M469.4 4.97625V37.0403H476.696V31.0403L479.192 28.4003L485.384 37.0403H494.024L483.992 23.1683L493.304 13.2323H484.664L476.696 22.2563V4.97625H469.4Z" stroke="black"/>
</svg>
